<svg width="24" height="24" viewBox="0 0 24 24" fill="none" xmlns="http://www.w3.org/2000/svg">
<g clip-path="url(#clip0_3131_260656)">
<path d="M0 12C0 5.37258 5.37258 0 12 0C18.6274 0 24 5.37258 24 12C24 18.6274 18.6274 24 12 24C5.37258 24 0 18.6274 0 12Z" fill="white"/>
<path fill-rule="evenodd" clip-rule="evenodd" d="M9.21146 10.484C8.91442 10.9116 8.7659 11.4264 8.7659 12.0295H8.7641C8.7641 12.7892 8.98013 13.377 9.41218 13.791C9.84423 14.2051 10.3969 14.4121 11.0684 14.4121C11.5049 14.4121 11.8722 14.3689 12.1692 14.2807C12.64 14.1493 13.1197 13.818 13.6094 13.2852C13.6445 13.3293 13.7057 13.4139 13.7939 13.5417C13.8803 13.6686 13.9433 13.7523 13.983 13.7973C14.0217 13.8405 14.0874 13.9107 14.1792 14.0062C14.271 14.1025 14.3772 14.2033 14.4996 14.3077C14.6481 14.3689 14.7751 14.3599 14.8795 14.2807C14.9407 14.2285 15.3331 13.8891 16.0586 13.2591C16.1288 13.2069 16.163 13.1456 16.163 13.0763C16.163 13.0151 16.1369 12.9449 16.0847 12.8666L15.7841 12.467C15.7229 12.3842 15.6581 12.2491 15.5951 12.0601C15.5284 11.8738 15.496 11.6668 15.496 11.439V8.27064C15.496 8.23644 15.4924 8.12482 15.4834 7.9376C15.4744 7.75037 15.4618 7.62706 15.4438 7.57035C15.4276 7.51365 15.4006 7.41103 15.3646 7.26431C15.3304 7.1149 15.2926 7.00148 15.2476 6.92227C15.2053 6.84306 15.145 6.75485 15.0703 6.65404C14.9956 6.55413 14.9155 6.45961 14.8291 6.3723C14.2692 5.85744 13.4924 5.60001 12.4978 5.60001H12.171C11.3951 5.64321 10.7155 5.85294 10.135 6.22828C9.5553 6.60363 9.19075 7.1797 9.04223 7.9565C9.03323 7.99161 9.02873 8.02131 9.02873 8.04831C9.02873 8.17073 9.10344 8.24904 9.25106 8.28504L10.7569 8.46866C10.8965 8.44256 10.9838 8.34175 11.0198 8.16713C11.0801 7.88809 11.2151 7.66936 11.4248 7.51185C11.6346 7.35343 11.8839 7.26341 12.1719 7.23641H12.2736C12.667 7.23641 12.955 7.36783 13.1377 7.63066C13.2593 7.82148 13.3223 8.19773 13.3223 8.7558V8.97813C12.7894 9.02133 12.4042 9.05554 12.1701 9.08254C11.4806 9.16985 10.9001 9.31387 10.4293 9.5146C9.91354 9.73332 9.50849 10.0565 9.21146 10.484ZM11.2727 12.5858C11.1026 12.3788 11.018 12.1069 11.018 11.7667L11.0171 11.7676C11.0171 11.0169 11.4005 10.5326 12.1692 10.3148C12.4303 10.2455 12.8146 10.2095 13.3214 10.2095V10.5362C13.3214 10.8153 13.3196 11.0169 13.3151 11.1393C13.3106 11.2617 13.2845 11.421 13.2368 11.6164C13.1882 11.8126 13.1161 11.9935 13.0207 12.16C12.82 12.5354 12.5356 12.7703 12.1701 12.8666C12.1521 12.8666 12.1188 12.8711 12.0711 12.8801C12.0225 12.8882 11.9865 12.8918 11.9595 12.8918C11.6715 12.8918 11.4437 12.7901 11.2727 12.5858Z" fill="#221F1F"/>
<path d="M16.5159 15.9828C16.5339 15.9468 16.5609 15.9126 16.5942 15.8775C16.8129 15.7299 17.0226 15.6291 17.2243 15.5769C17.5546 15.4904 17.8778 15.4418 18.1919 15.4328C18.2792 15.4238 18.3629 15.4292 18.4403 15.4463C18.8337 15.4823 19.0704 15.5471 19.1478 15.6444C19.1838 15.6957 19.2 15.774 19.2 15.8784V15.9702C19.2 16.2762 19.1172 16.6363 18.9516 17.0503C18.7851 17.4644 18.5537 17.7992 18.2585 18.0522C18.2135 18.0882 18.1748 18.1044 18.1397 18.1044C18.1217 18.1044 18.1037 18.0999 18.0875 18.0918C18.0335 18.0648 18.0218 18.0171 18.0479 17.9477C18.3719 17.1881 18.5321 16.6606 18.5321 16.3635C18.5321 16.2672 18.5141 16.197 18.4799 16.1538C18.3926 16.0503 18.1487 15.9972 17.7463 15.9972C17.5987 15.9972 17.4241 16.0062 17.2243 16.0242C17.0046 16.0512 16.8039 16.0764 16.6212 16.1025C16.5672 16.1025 16.5339 16.0935 16.5159 16.0755C16.4979 16.0575 16.4943 16.0413 16.5033 16.0233C16.5033 16.0143 16.5069 16.0017 16.5159 15.9846V15.9828Z" fill="#FF9900"/>
<path d="M4.82699 15.7605C4.8702 15.6902 4.93951 15.6857 5.03582 15.747C7.21769 17.0125 9.59219 17.6462 12.1584 17.6462C13.8686 17.6462 15.5581 17.3267 17.226 16.6894L17.4151 16.6111C17.4979 16.5751 17.5564 16.5499 17.5915 16.5328C17.7229 16.4805 17.8255 16.5057 17.9002 16.6111C17.974 16.7155 17.9497 16.8118 17.8282 16.8991C17.6707 17.0125 17.47 17.1439 17.2251 17.2915C16.4753 17.7371 15.6373 18.0818 14.712 18.3267C13.7876 18.5697 12.8848 18.693 12.0027 18.693C10.6408 18.693 9.35366 18.4545 8.14121 17.9792C6.92605 17.504 5.84052 16.8334 4.8801 15.9693C4.82699 15.927 4.79999 15.882 4.79999 15.8388C4.79999 15.8118 4.80899 15.7866 4.82699 15.7605V15.7605Z" fill="#FF9900"/>
</g>
<defs>
<clipPath id="clip0_3131_260656">
<rect width="24" height="24" fill="white"/>
</clipPath>
</defs>
</svg>
