<svg width="24" height="24" viewBox="0 0 24 24" fill="none" xmlns="http://www.w3.org/2000/svg">
<path d="M23.9903 6.12542C23.9903 5.38741 23.928 4.65238 23.7517 3.93387C23.4353 2.62508 22.6891 1.62526 21.5723 0.891033C20.9978 0.516006 20.3656 0.28574 19.6936 0.16426C19.1776 0.0704898 18.6549 0.02771 18.1314 0.0157186C18.0924 0.0119916 18.0497 0.00372704 18.0062 0H5.98331C5.83104 0.0119914 5.67883 0.019499 5.52656 0.0270071C4.78034 0.0697331 4.0386 0.147731 3.33516 0.428988C1.99942 0.956283 1.03423 1.87805 0.471714 3.20634C0.27672 3.65558 0.178466 4.13189 0.108732 4.6164C0.0502339 5.00715 0.0187437 5.40167 0.00750851 5.79615C0.00750851 5.82764 0 5.85843 0 5.88992V18.1131C0.0075081 18.254 0.0157731 18.3943 0.0232271 18.5353C0.0742714 19.3521 0.179223 20.1606 0.523461 20.9107C1.17224 22.3289 2.26194 23.2619 3.75816 23.7112C4.17586 23.8402 4.61386 23.8987 5.05112 23.9377C5.60607 23.9925 6.16032 24 6.71527 24H17.746C18.2694 24 18.7929 23.9647 19.3164 23.8987C20.1406 23.793 20.9138 23.5507 21.6136 23.0902C22.4535 22.5352 23.0865 21.8009 23.4923 20.8829C23.6797 20.4606 23.7855 20.0121 23.8635 19.5583C23.9768 18.8826 24 18.1986 24 17.5153C23.9963 13.7179 24 9.92128 23.9963 6.12391L23.9903 6.12542ZM17.5682 10.1133V15.8247C17.5682 16.2425 17.5097 16.6528 17.3222 17.0315C17.0335 17.621 16.5647 17.9923 15.9355 18.1723C15.5875 18.2735 15.2283 18.3283 14.8653 18.3441C13.9158 18.3913 13.0916 17.7463 12.9236 16.8088C12.7788 16.0355 13.1501 15.1834 13.9623 14.7852C14.2826 14.6292 14.6305 14.5354 14.9778 14.4649C15.3565 14.3832 15.7353 14.3089 16.1102 14.2227C16.3878 14.1604 16.567 13.9924 16.6218 13.7067C16.6375 13.6444 16.6412 13.5777 16.6412 13.5154C16.6412 11.6989 16.6412 9.88228 16.6412 8.07024C16.6412 8.00796 16.6292 7.94498 16.6142 7.88648C16.5752 7.73421 16.4658 7.64422 16.3098 7.65173C16.1492 7.65924 15.9932 7.68695 15.8372 7.71849C15.0753 7.86698 14.3141 8.01925 13.5559 8.17524L9.85695 8.92152C9.84118 8.92524 9.82168 8.93351 9.80596 8.93351C9.52843 9.01151 9.43093 9.13677 9.41894 9.42553C9.41521 9.46826 9.41894 9.51179 9.41894 9.55452C9.41521 12.1564 9.41894 14.7582 9.41521 17.3593C9.41521 17.7816 9.36795 18.1955 9.20072 18.5856C8.92325 19.2261 8.43122 19.6288 7.76748 19.8201C7.41579 19.9214 7.05654 19.9806 6.68902 19.9919C5.73209 20.0271 4.93482 19.3904 4.77137 18.4491C4.63034 17.6368 5.00159 16.7615 5.9233 16.3707C6.28255 16.2223 6.6538 16.1405 7.03255 16.0625C7.31754 16.004 7.607 15.9455 7.89199 15.887C8.27447 15.8052 8.474 15.5629 8.4935 15.1722V15.0237C8.4935 12.0626 8.4935 9.10149 8.4935 6.14044C8.4935 6.01518 8.50922 5.89067 8.53623 5.76914C8.60672 5.48416 8.80997 5.31989 9.08297 5.25313C9.33722 5.18637 9.59897 5.13992 9.85619 5.08515C10.5904 4.93666 11.3209 4.78812 12.0551 4.64336L14.3245 4.18212C14.9965 4.04935 15.664 3.91286 16.336 3.78009C16.555 3.73736 16.7777 3.6901 16.9997 3.67433C17.308 3.64737 17.5232 3.84237 17.5547 4.15511C17.5622 4.22938 17.5667 4.3036 17.5667 4.37787V10.1088L17.5682 10.1133Z" fill="url(#paint0_linear_9_37)"/>
<defs>
<linearGradient id="paint0_linear_9_37" x1="12" y1="0" x2="12" y2="24" gradientUnits="userSpaceOnUse">
<stop stop-color="#FB5971"/>
<stop offset="1" stop-color="#FA253D"/>
</linearGradient>
</defs>
</svg>
