<svg width="16" height="16" viewBox="0 0 16 16" fill="none" xmlns="http://www.w3.org/2000/svg">
<path fill-rule="evenodd" clip-rule="evenodd" d="M6.99184 2.52533C7.64813 1.86893 8.53829 1.50011 9.4665 1.5H11.2665C11.3991 1.5 11.5263 1.55268 11.6201 1.64645C11.7138 1.74021 11.7665 1.86739 11.7665 2V4.4C11.7665 4.53261 11.7138 4.65979 11.6201 4.75355C11.5263 4.84732 11.3991 4.9 11.2665 4.9H9.4665C9.45337 4.9 9.44037 4.90259 9.42824 4.90761C9.4161 4.91264 9.40508 4.92 9.39579 4.92929C9.38651 4.93858 9.37914 4.9496 9.37412 4.96173C9.36909 4.97386 9.3665 4.98687 9.3665 5V6.3H11.2665C11.3425 6.29996 11.4175 6.31725 11.4859 6.35055C11.5542 6.38386 11.614 6.43231 11.6608 6.49221C11.7076 6.55211 11.7401 6.6219 11.7559 6.69626C11.7717 6.77062 11.7703 6.84759 11.7518 6.92133L11.1518 9.32133C11.1248 9.42954 11.0623 9.52559 10.9744 9.59421C10.8864 9.66282 10.778 9.70006 10.6665 9.7H9.3665V14C9.3665 14.1326 9.31383 14.2598 9.22006 14.3536C9.12629 14.4473 8.99911 14.5 8.8665 14.5H6.4665C6.3339 14.5 6.20672 14.4473 6.11295 14.3536C6.01918 14.2598 5.9665 14.1326 5.9665 14V9.7H4.6665C4.5339 9.7 4.40672 9.64732 4.31295 9.55355C4.21918 9.45979 4.1665 9.33261 4.1665 9.2V6.8C4.1665 6.73434 4.17944 6.66932 4.20456 6.60866C4.22969 6.548 4.26652 6.49288 4.31295 6.44645C4.35938 6.40002 4.4145 6.36319 4.47516 6.33806C4.53582 6.31293 4.60084 6.3 4.6665 6.3H5.9665V5C5.96661 4.07178 6.33543 3.18163 6.99184 2.52533ZM9.4665 2.5C8.80346 2.5 8.16758 2.76339 7.69874 3.23223C7.2299 3.70107 6.9665 4.33696 6.9665 5V6.8C6.9665 6.93261 6.91383 7.05979 6.82006 7.15355C6.72629 7.24732 6.59911 7.3 6.4665 7.3H5.1665V8.7H6.4665C6.59911 8.7 6.72629 8.75268 6.82006 8.84645C6.91383 8.94021 6.9665 9.06739 6.9665 9.2V13.5H8.3665V9.2C8.3665 9.06739 8.41918 8.94021 8.51295 8.84645C8.60672 8.75268 8.7339 8.7 8.8665 8.7H10.2758L10.6258 7.3H8.8665C8.7339 7.3 8.60672 7.24732 8.51295 7.15355C8.41918 7.05979 8.3665 6.93261 8.3665 6.8V5C8.3665 4.70826 8.4824 4.42847 8.68869 4.22218C8.89498 4.01589 9.17477 3.9 9.4665 3.9H10.7665V2.5H9.4665Z" fill="#040231"/>
</svg>
