<svg width="20" height="20" viewBox="0 0 20 20" fill="none" xmlns="http://www.w3.org/2000/svg">
<path d="M20 10C20 4.47717 15.5228 1.28506e-05 9.99999 1.28506e-05C4.47716 1.28506e-05 0 4.47717 0 10C0 14.6898 3.2286 18.6249 7.58423 19.7055V13.0558H5.52216V10H7.58423V8.68325C7.58423 5.27957 9.12455 3.70197 12.4662 3.70197C13.0997 3.70197 14.1928 3.82617 14.64 3.95041V6.72057C14.404 6.69573 13.9941 6.68329 13.4848 6.68329C11.845 6.68329 11.2115 7.30441 11.2115 8.91929V10H14.4778L13.9167 13.0558H11.2115V19.9268C16.1629 19.3287 20 15.1127 20 10Z" fill="#0866FF"/>
</svg>
