<svg width="17" height="16" viewBox="0 0 17 16" fill="none" xmlns="http://www.w3.org/2000/svg">
<path fill-rule="evenodd" clip-rule="evenodd" d="M7.32558 2.52533C7.98187 1.86893 8.87203 1.50011 9.80024 1.5H11.6002C11.7329 1.5 11.86 1.55268 11.9538 1.64645C12.0476 1.74021 12.1002 1.86739 12.1002 2V4.4C12.1002 4.53261 12.0476 4.65979 11.9538 4.75355C11.86 4.84732 11.7329 4.9 11.6002 4.9H9.80024C9.78711 4.9 9.77411 4.90259 9.76198 4.90761C9.74984 4.91264 9.73882 4.92 9.72953 4.92929C9.72025 4.93858 9.71288 4.9496 9.70786 4.96173C9.70283 4.97386 9.70024 4.98687 9.70024 5V6.3H11.6002C11.6763 6.29996 11.7513 6.31725 11.8196 6.35055C11.8879 6.38386 11.9478 6.43231 11.9946 6.49221C12.0414 6.55211 12.0739 6.6219 12.0896 6.69626C12.1054 6.77062 12.104 6.84759 12.0856 6.92133L11.4856 9.32133C11.4585 9.42954 11.396 9.52559 11.3081 9.59421C11.2201 9.66282 11.1118 9.70006 11.0002 9.7H9.70024V14C9.70024 14.1326 9.64757 14.2598 9.5538 14.3536C9.46003 14.4473 9.33285 14.5 9.20024 14.5H6.80024C6.66764 14.5 6.54046 14.4473 6.44669 14.3536C6.35292 14.2598 6.30024 14.1326 6.30024 14V9.7H5.00024C4.86764 9.7 4.74046 9.64732 4.64669 9.55355C4.55292 9.45979 4.50024 9.33261 4.50024 9.2V6.8C4.50024 6.73434 4.51318 6.66932 4.5383 6.60866C4.56343 6.548 4.60026 6.49288 4.64669 6.44645C4.69312 6.40002 4.74824 6.36319 4.8089 6.33806C4.86957 6.31293 4.93458 6.3 5.00024 6.3H6.30024V5C6.30035 4.07178 6.66917 3.18163 7.32558 2.52533ZM9.80024 2.5C9.1372 2.5 8.50132 2.76339 8.03248 3.23223C7.56364 3.70107 7.30024 4.33696 7.30024 5V6.8C7.30024 6.93261 7.24757 7.05979 7.1538 7.15355C7.06003 7.24732 6.93285 7.3 6.80024 7.3H5.50024V8.7H6.80024C6.93285 8.7 7.06003 8.75268 7.1538 8.84645C7.24757 8.94021 7.30024 9.06739 7.30024 9.2V13.5H8.70024V9.2C8.70024 9.06739 8.75292 8.94021 8.84669 8.84645C8.94046 8.75268 9.06764 8.7 9.20024 8.7H10.6096L10.9596 7.3H9.20024C9.06764 7.3 8.94046 7.24732 8.84669 7.15355C8.75292 7.05979 8.70024 6.93261 8.70024 6.8V5C8.70024 4.70826 8.81614 4.42847 9.02243 4.22218C9.22872 4.01589 9.50851 3.9 9.80024 3.9H11.1002V2.5H9.80024Z" fill="#1B706F"/>
</svg>
