<svg width="24" height="24" viewBox="0 0 24 24" fill="none" xmlns="http://www.w3.org/2000/svg">
<path d="M13.5771 11.8743L15.9168 14.5486L19.0629 16.5591L19.6114 11.8921L19.0629 7.328L15.8565 9.0944L13.5771 11.8743Z" fill="#00832D"/>
<path d="M0 16.1257V20.1029C0 21.0121 0.736457 21.7486 1.64571 21.7486H5.62286L6.44571 18.7424L5.62286 16.1257L2.89371 15.3029L0 16.1257Z" fill="#0066DA"/>
<path d="M5.62286 2L0 7.62286L2.89371 8.44571L5.62286 7.62286L6.432 5.04046L5.62286 2Z" fill="#E94235"/>
<path d="M5.62286 7.62286H0V16.1257H5.62286V7.62286Z" fill="#2684FC"/>
<path d="M22.6546 4.38079L19.0629 7.32799V16.5591L22.6697 19.5172C23.2101 19.9396 24 19.5543 24 18.8686V5.01713C24 4.32182 23.1922 3.94056 22.6546 4.38079ZM13.5772 11.8743V16.1257H5.62286V21.7486H17.4172C18.3264 21.7486 19.0629 21.0121 19.0629 20.1028V16.5591L13.5772 11.8743Z" fill="#00AC47"/>
<path d="M17.4171 2H5.62286V7.62286H13.5771V11.8743L19.0629 7.328V3.64571C19.0629 2.73646 18.3264 2 17.4171 2Z" fill="#FFBA00"/>
</svg>
