<svg width="24" height="24" viewBox="0 0 24 24" fill="none" xmlns="http://www.w3.org/2000/svg">
<path d="M1.81443 19.878L2.87285 21.7062C3.09278 22.0911 3.40893 22.3935 3.78007 22.6134L7.56014 16.0704H0C0 16.4966 0.109961 16.9227 0.329892 17.3075L1.81443 19.878Z" fill="#0066DA"/>
<path d="M12 8.37285L8.21993 1.8299C7.84879 2.04983 7.53265 2.35223 7.31271 2.73711L0.329892 14.8333C0.114005 15.2099 0.00028744 15.6364 0 16.0704H7.56014L12 8.37285Z" fill="#00AC47"/>
<path d="M20.2199 22.6134C20.5911 22.3935 20.9072 22.0911 21.1272 21.7062L21.567 20.9502L23.6701 17.3075C23.8901 16.9227 24 16.4966 24 16.0704H16.4393L18.0481 19.2319L20.2199 22.6134Z" fill="#EA4335"/>
<path d="M12 8.37285L15.78 1.8299C15.4089 1.60997 14.9828 1.5 14.5429 1.5H9.45702C9.01716 1.5 8.59104 1.62371 8.21991 1.8299L12 8.37285Z" fill="#00832D"/>
<path d="M16.4399 16.0704H7.56016L3.78009 22.6134C4.15122 22.8333 4.57734 22.9433 5.0172 22.9433H18.9828C19.4227 22.9433 19.8488 22.8196 20.2199 22.6134L16.4399 16.0704Z" fill="#2684FC"/>
<path d="M20.1787 8.78522L16.6873 2.73711C16.4673 2.35223 16.1512 2.04983 15.7801 1.8299L12 8.37285L16.4399 16.0704H23.9863C23.9863 15.6443 23.8763 15.2182 23.6564 14.8333L20.1787 8.78522Z" fill="#FFBA00"/>
</svg>
