<svg width="17" height="16" viewBox="0 0 17 16" fill="none" xmlns="http://www.w3.org/2000/svg">
<path d="M11.4268 10.6401C11.3001 10.6401 11.1668 10.5867 11.0734 10.4934L8.94676 8.36674C8.75342 8.17341 8.75342 7.85341 8.94676 7.66008L11.0934 5.51341C11.2468 5.36007 11.4801 5.32675 11.6734 5.42008L14.6668 6.92008C15.0801 7.12008 15.3401 7.53342 15.3401 8.00008C15.3401 8.46675 15.0801 8.88008 14.6668 9.08008L11.6601 10.5868C11.5801 10.6201 11.5001 10.6401 11.4268 10.6401ZM10.0068 8.01341L11.5201 9.52675L14.2068 8.18007C14.2068 8.18007 14.2068 8.18007 14.2134 8.18007C14.3134 8.13341 14.3268 8.04675 14.3268 8.00008C14.3268 7.95341 14.3134 7.86676 14.2134 7.82009L11.5401 6.48008L10.0068 8.01341Z" fill="#1B706F"/>
<path d="M2.21333 15.1664C1.99333 15.1664 1.76667 15.1064 1.57333 14.9797C1.21333 14.7597 1 14.373 1 13.9464V2.03969C1 1.61969 1.21333 1.23303 1.57333 1.00636C1.93333 0.786364 2.37333 0.759686 2.75333 0.953019L11.6667 5.41302C11.8133 5.48635 11.9133 5.6197 11.9333 5.7797C11.9533 5.9397 11.9067 6.0997 11.7933 6.21303L3.26 14.7464C3.22 14.7864 3.18 14.813 3.12667 14.8397L2.74 15.033C2.58 15.1264 2.39333 15.1664 2.21333 15.1664ZM2.21333 1.83302C2.16667 1.83302 2.12667 1.85302 2.1 1.86635C2.06 1.88635 2 1.94636 2 2.04636V13.953C2 14.0597 2.06 14.113 2.1 14.133C2.14 14.1597 2.21333 14.1864 2.31333 14.1397L2.62 13.9864L10.6 6.00636L2.30667 1.8597C2.27333 1.8397 2.24 1.83302 2.21333 1.83302Z" fill="#1B706F"/>
<path d="M2.91349 14.9004C2.76016 14.9004 2.60682 14.827 2.50682 14.6937C2.36016 14.4937 2.38682 14.2204 2.56016 14.047L8.94682 7.66034C9.04016 7.56701 9.16682 7.51367 9.30016 7.51367C9.43349 7.51367 9.56016 7.56701 9.65349 7.66034L11.7802 9.78701C11.8935 9.90034 11.9468 10.0603 11.9202 10.2203C11.8935 10.3803 11.7935 10.5137 11.6535 10.587L3.14682 14.847C3.06682 14.8803 2.99349 14.9004 2.91349 14.9004ZM9.30016 8.72034L5.45349 12.567L10.5802 10.0003L9.30016 8.72034Z" fill="#1B706F"/>
<path d="M9.30002 8.51339C9.17335 8.51339 9.04669 8.46672 8.94669 8.36672L2.54002 1.96006C2.34669 1.76673 2.34669 1.44673 2.54002 1.2534C2.73335 1.06007 3.05335 1.06007 3.24669 1.2534L9.65335 7.66006C9.84669 7.85339 9.84669 8.17339 9.65335 8.36672C9.56002 8.46672 9.42669 8.51339 9.30002 8.51339Z" fill="#1B706F"/>
<path d="M11.4334 10.6533C11.3134 10.6533 11.1867 10.6066 11.0934 10.5066L11.0734 10.4866C10.88 10.2933 10.88 9.97326 11.08 9.77993C11.28 9.58659 11.5934 9.58658 11.7867 9.78658C11.98 9.97991 11.9867 10.3133 11.7934 10.5066C11.6867 10.6066 11.56 10.6533 11.4334 10.6533Z" fill="#1B706F"/>
</svg>
