<svg width="17" height="16" viewBox="0 0 17 16" fill="none" xmlns="http://www.w3.org/2000/svg">
<g clip-path="url(#clip0_44_2895)">
<path d="M12.5022 0H5.1643C2.77612 0 0.833252 1.94287 0.833252 4.33105V11.669C0.833252 14.0571 2.77612 16 5.1643 16H12.5023C14.8904 16 16.8332 14.0571 16.8332 11.669V4.33105C16.8332 1.94287 14.8904 0 12.5022 0ZM15.8952 11.669C15.8952 13.5399 14.3731 15.062 12.5022 15.062H5.1643C3.29333 15.062 1.77124 13.5399 1.77124 11.669V4.33105C1.77124 2.46008 3.29333 0.937986 5.1643 0.937986H12.5023C14.3731 0.937986 15.8952 2.46008 15.8952 4.33105V11.669Z" fill="#1B706F"/>
<path d="M8.83312 3.625C6.42077 3.625 4.45825 5.58752 4.45825 7.99987C4.45825 10.4122 6.42077 12.3747 8.83312 12.3747C11.2455 12.3747 13.208 10.4122 13.208 7.99987C13.208 5.58752 11.2455 3.625 8.83312 3.625ZM8.83312 11.4368C6.93811 11.4368 5.39624 9.89501 5.39624 7.99987C5.39624 6.10485 6.93811 4.56299 8.83312 4.56299C10.7283 4.56299 12.27 6.10485 12.27 7.99987C12.27 9.89501 10.7283 11.4368 8.83312 11.4368Z" fill="#1B706F"/>
<path d="M13.3125 2.07227C12.5996 2.07227 12.0198 2.65222 12.0198 3.36499C12.0198 4.07788 12.5996 4.65783 13.3125 4.65783C14.0254 4.65783 14.6053 4.07788 14.6053 3.36499C14.6053 2.6521 14.0254 2.07227 13.3125 2.07227ZM13.3125 3.71972C13.1169 3.71972 12.9578 3.56054 12.9578 3.36499C12.9578 3.16931 13.1169 3.01025 13.3125 3.01025C13.5082 3.01025 13.6674 3.16931 13.6674 3.36499C13.6674 3.56054 13.5082 3.71972 13.3125 3.71972Z" fill="#1B706F"/>
</g>
<defs>
<clipPath id="clip0_44_2895">
<rect width="16" height="16" fill="white" transform="translate(0.833252)"/>
</clipPath>
</defs>
</svg>
