<svg width="15" height="14" viewBox="0 0 15 14" fill="none" xmlns="http://www.w3.org/2000/svg">
<path d="M7.47296 1.52524C9.26714 1.52524 9.47961 1.53192 10.1884 1.56403C10.6145 1.56921 11.0366 1.64697 11.4364 1.79393C11.7262 1.90501 11.9895 2.07518 12.2091 2.29347C12.4288 2.51176 12.6 2.77334 12.7118 3.06138C12.8597 3.45857 12.938 3.87801 12.9432 4.30148C12.9752 5.0058 12.9822 5.21693 12.9822 6.99982C12.9822 8.78271 12.9755 8.99384 12.9432 9.69816C12.938 10.1216 12.8597 10.5411 12.7118 10.9383C12.6 11.2263 12.4288 11.4879 12.2091 11.7062C11.9895 11.9245 11.7262 12.0946 11.4364 12.2057C11.0366 12.3527 10.6145 12.4304 10.1884 12.4356C9.47993 12.4674 9.26746 12.4744 7.47296 12.4744C5.67846 12.4744 5.46598 12.4677 4.75753 12.4356C4.33137 12.4304 3.90927 12.3527 3.50957 12.2057C3.21971 12.0946 2.95647 11.9245 2.73679 11.7062C2.51711 11.4879 2.34587 11.2263 2.23409 10.9383C2.0862 10.5411 2.00795 10.1216 2.00273 9.69816C1.97073 8.99384 1.9637 8.78271 1.9637 6.99982C1.9637 5.21693 1.97041 5.0058 2.00273 4.30148C2.00795 3.87801 2.0862 3.45857 2.23409 3.06138C2.34587 2.77334 2.51711 2.51176 2.73679 2.29347C2.95647 2.07518 3.21971 1.90501 3.50957 1.79393C3.90927 1.64697 4.33137 1.56921 4.75753 1.56403C5.4663 1.53224 5.67878 1.52524 7.47296 1.52524ZM7.47296 0.322021C5.64902 0.322021 5.41926 0.329653 4.70249 0.362086C4.14476 0.37311 3.59295 0.478046 3.07054 0.67243C2.62239 0.840215 2.21648 1.10315 1.88114 1.44288C1.53894 1.77624 1.27412 2.17982 1.10516 2.62543C0.909547 3.14456 0.803946 3.69289 0.792853 4.24711C0.760854 4.95874 0.753174 5.18704 0.753174 6.9995C0.753174 8.81196 0.760854 9.04027 0.793493 9.75253C0.804586 10.3067 0.910187 10.8551 1.1058 11.3742C1.27457 11.8198 1.53917 12.2233 1.88114 12.5568C2.21667 12.8966 2.6228 13.1595 3.07118 13.3272C3.59359 13.5216 4.1454 13.6265 4.70313 13.6376C5.4199 13.6693 5.6487 13.6776 7.4736 13.6776C9.2985 13.6776 9.52729 13.67 10.2441 13.6376C10.8018 13.6265 11.3536 13.5216 11.876 13.3272C12.3223 13.1553 12.7275 12.8928 13.0658 12.5564C13.4041 12.22 13.6681 11.8171 13.8408 11.3736C14.0364 10.8544 14.142 10.3061 14.1531 9.75189C14.1851 9.04027 14.1927 8.81196 14.1927 6.9995C14.1927 5.18704 14.1851 4.95874 14.1524 4.24647C14.1413 3.69226 14.0357 3.14392 13.8401 2.6248C13.6713 2.17924 13.4067 1.77567 13.0648 1.44225C12.7292 1.10243 12.3231 0.839497 11.8747 0.671794C11.3523 0.47741 10.8005 0.372474 10.2428 0.36145C9.52665 0.329653 9.2969 0.322021 7.47296 0.322021Z" fill="white"/>
<path d="M7.47177 3.56934C6.78927 3.56934 6.1221 3.77045 5.55462 4.14723C4.98715 4.52402 4.54485 5.05957 4.28367 5.68614C4.02249 6.31272 3.95415 7.00218 4.0873 7.66735C4.22045 8.33252 4.54911 8.94352 5.0317 9.42308C5.5143 9.90264 6.12917 10.2292 6.79856 10.3615C7.46794 10.4938 8.16177 10.4259 8.79232 10.1664C9.42286 9.90687 9.9618 9.46736 10.341 8.90346C10.7202 8.33955 10.9225 7.67658 10.9225 6.99838C10.9225 6.08894 10.559 5.21675 9.91183 4.57368C9.26468 3.93061 8.38697 3.56934 7.47177 3.56934ZM7.47177 9.22421C7.02875 9.22421 6.59568 9.09367 6.22733 8.84909C5.85898 8.60451 5.57188 8.25688 5.40234 7.85017C5.23281 7.44345 5.18845 6.99591 5.27488 6.56414C5.36131 6.13238 5.57464 5.73577 5.8879 5.42448C6.20116 5.1132 6.60027 4.90121 7.03478 4.81532C7.46928 4.72944 7.91966 4.77352 8.32895 4.94199C8.73824 5.11045 9.08807 5.39574 9.3342 5.76178C9.58033 6.12781 9.71169 6.55815 9.71169 6.99838C9.71169 7.58871 9.4757 8.15485 9.05563 8.57228C8.63557 8.9897 8.06583 9.22421 7.47177 9.22421Z" fill="white"/>
<path d="M11.0598 4.23736C11.5051 4.23736 11.8662 3.87861 11.8662 3.43606C11.8662 2.99352 11.5051 2.63477 11.0598 2.63477C10.6144 2.63477 10.2534 2.99352 10.2534 3.43606C10.2534 3.87861 10.6144 4.23736 11.0598 4.23736Z" fill="white"/>
</svg>
