<svg width="24" height="24" viewBox="0 0 24 24" fill="none" xmlns="http://www.w3.org/2000/svg">
<path d="M12 0C5.241 0 0 4.95256 0 11.639C0 15.1367 1.434 18.1604 3.768 20.2482C3.963 20.4222 4.083 20.6682 4.089 20.9321L4.155 23.068C4.176 23.7489 4.878 24.1929 5.502 23.9169L7.884 22.867C8.085 22.777 8.313 22.762 8.526 22.819C9.621 23.119 10.785 23.2809 12 23.2809C18.759 23.2809 24 18.3284 24 11.642C24 4.95556 18.759 0 12 0Z" fill="url(#paint0_radial_3131_260701)"/>
<path d="M4.79401 15.0437L8.31901 9.45216C8.88001 8.56124 10.08 8.34226 10.923 8.97221L13.728 11.075C13.986 11.267 14.34 11.267 14.595 11.072L18.381 8.19827C18.885 7.81431 19.545 8.42025 19.209 8.95721L15.681 14.5457C15.12 15.4366 13.92 15.6556 13.077 15.0257L10.272 12.9229C10.014 12.7309 9.66001 12.7309 9.40501 12.9259L5.61901 15.7996C5.11501 16.1836 4.45501 15.5806 4.79401 15.0437Z" fill="white"/>
<defs>
<radialGradient id="paint0_radial_3131_260701" cx="0" cy="0" r="1" gradientUnits="userSpaceOnUse" gradientTransform="translate(4.62 23.8672) scale(26.1504 26.148)">
<stop stop-color="#0099FF"/>
<stop offset="0.6098" stop-color="#A033FF"/>
<stop offset="0.9348" stop-color="#FF5280"/>
<stop offset="1" stop-color="#FF7061"/>
</radialGradient>
</defs>
</svg>
