<svg width="15" height="14" viewBox="0 0 15 14" fill="none" xmlns="http://www.w3.org/2000/svg">
<path d="M13.3537 10.1605C11.2855 9.15901 10.9559 7.61277 10.9412 7.49808C10.9235 7.35916 10.9034 7.24993 11.0566 7.10862C11.2043 6.97209 11.8598 6.56624 12.0417 6.43927C12.3423 6.22901 12.4747 6.01909 12.3771 5.76104C12.3089 5.58252 12.1427 5.51528 11.9677 5.51528C11.9124 5.51545 11.8574 5.52163 11.8035 5.53371C11.4732 5.60539 11.1525 5.77094 10.9668 5.81565C10.9445 5.82141 10.9216 5.8245 10.8986 5.82487C10.7996 5.82487 10.7621 5.78084 10.7716 5.66171C10.7948 5.30058 10.844 4.59573 10.787 3.9373C10.7089 3.0314 10.4168 2.58255 10.0704 2.18558C9.90286 1.99307 9.12486 1.16602 7.62344 1.16602C6.12203 1.16602 5.34504 1.99307 5.17852 2.18319C4.83115 2.58016 4.5394 3.02901 4.46194 3.93491C4.40495 4.59334 4.45614 5.29785 4.47729 5.65932C4.48412 5.77265 4.44931 5.82248 4.35035 5.82248C4.32732 5.82208 4.30442 5.81899 4.28211 5.81326C4.09682 5.76855 3.77606 5.603 3.44575 5.53132C3.39187 5.51924 3.33684 5.51306 3.28162 5.51289C3.10589 5.51289 2.94039 5.58116 2.87214 5.75865C2.77455 6.0167 2.90627 6.22662 3.20791 6.43688C3.38979 6.56385 4.04529 6.96936 4.19305 7.10623C4.34592 7.24754 4.32613 7.35677 4.30838 7.49569C4.29371 7.61209 3.96374 9.15833 1.89588 10.1581C1.77474 10.2168 1.56864 10.341 1.93205 10.5417C2.50259 10.8571 2.88238 10.8233 3.17754 11.0135C3.42801 11.1749 3.27991 11.5231 3.46213 11.6487C3.68598 11.8033 4.34763 11.6378 5.20241 11.9201C5.91899 12.1563 6.3544 12.8236 7.62515 12.8236C8.89589 12.8236 9.34393 12.1532 10.0479 11.9201C10.901 11.6378 11.564 11.8033 11.7882 11.6487C11.97 11.5231 11.8223 11.1749 12.0728 11.0135C12.3679 10.8233 12.7474 10.8571 13.3182 10.5417C13.681 10.3434 13.4749 10.2192 13.3537 10.1605Z" fill="white"/>
<path d="M14.2534 10.043C14.1606 9.79039 13.9838 9.65522 13.7825 9.54326C13.7446 9.52108 13.7098 9.50333 13.6801 9.48967C13.6201 9.45861 13.5587 9.42857 13.4976 9.39683C12.8701 9.06403 12.38 8.64419 12.0402 8.14653C11.9437 8.00642 11.86 7.85791 11.7901 7.7028C11.7611 7.61985 11.7624 7.57275 11.7832 7.52974C11.8039 7.4966 11.8312 7.46813 11.8634 7.44611C11.9713 7.37477 12.0825 7.30241 12.1579 7.2536C12.2924 7.16656 12.3988 7.09761 12.4674 7.0488C12.725 6.86858 12.9052 6.67709 13.0178 6.46307C13.0964 6.31521 13.1422 6.15216 13.1521 5.98501C13.1621 5.81785 13.1359 5.65051 13.0755 5.49437C12.9049 5.04518 12.4807 4.76631 11.9668 4.76631C11.8584 4.76621 11.7503 4.77765 11.6444 4.80044C11.616 4.80659 11.5877 4.81307 11.5601 4.82024C11.5648 4.51304 11.558 4.18877 11.5307 3.86963C11.4338 2.74767 11.0411 2.15955 10.6316 1.69056C10.3694 1.39667 10.0605 1.14803 9.71742 0.954644C9.09604 0.599657 8.3914 0.419434 7.62329 0.419434C6.85518 0.419434 6.15395 0.599657 5.53188 0.954644C5.18796 1.14809 4.87848 1.39722 4.61602 1.69192C4.20654 2.16091 3.81378 2.75005 3.71688 3.87099C3.68958 4.19014 3.68275 4.51611 3.68719 4.8216C3.65955 4.81444 3.63157 4.80795 3.60325 4.80181C3.49727 4.77901 3.38918 4.76757 3.28078 4.76767C2.76655 4.76767 2.34171 5.04654 2.17178 5.49574C2.11104 5.65195 2.08463 5.81941 2.09435 5.98673C2.10406 6.15406 2.14967 6.31734 2.22808 6.46546C2.34103 6.67948 2.5212 6.87097 2.77883 7.05119C2.84708 7.09898 2.95388 7.16793 3.08833 7.25599C3.16101 7.30309 3.26713 7.37204 3.37121 7.44099C3.40762 7.46454 3.43857 7.49562 3.46198 7.53213C3.48381 7.57684 3.4845 7.62497 3.45208 7.71372C3.38313 7.86558 3.3008 8.01099 3.20605 8.14823C2.87369 8.63463 2.39802 9.04696 1.79063 9.37703C1.46885 9.5477 1.13444 9.6617 0.99317 10.0457C0.886706 10.3355 0.956317 10.6652 1.22691 10.9431C1.32622 11.0468 1.44141 11.134 1.56814 11.2015C1.83184 11.3464 2.11225 11.4586 2.40314 11.5356C2.46316 11.5511 2.52015 11.5766 2.5717 11.6111C2.67032 11.6974 2.65633 11.8275 2.7877 12.0179C2.85365 12.1164 2.93745 12.2016 3.03475 12.2691C3.31047 12.4596 3.62031 12.4716 3.94857 12.4842C4.2451 12.4955 4.58121 12.5084 4.9651 12.6351C5.12411 12.6876 5.28927 12.7893 5.4807 12.9081C5.94034 13.1907 6.56957 13.5775 7.6226 13.5775C8.67564 13.5775 9.30931 13.1887 9.77236 12.905C9.96243 12.7883 10.1266 12.6876 10.2811 12.6364C10.665 12.5094 11.0011 12.4968 11.2977 12.4856C11.6259 12.4729 11.9358 12.461 12.2115 12.2705C12.3267 12.1901 12.4227 12.0852 12.4927 11.9633C12.5872 11.8025 12.5848 11.6902 12.6735 11.6117C12.7219 11.5789 12.7754 11.5545 12.8318 11.5394C13.1267 11.4622 13.4109 11.3489 13.6781 11.2021C13.8127 11.1299 13.9339 11.035 14.0364 10.9216L14.0398 10.9175C14.2937 10.6458 14.3575 10.3256 14.2534 10.043ZM13.3174 10.5461C12.7465 10.8615 12.3671 10.8277 12.0719 11.0178C11.8211 11.1793 11.9695 11.5274 11.7873 11.653C11.5635 11.8077 10.9018 11.6421 10.0471 11.9244C9.34207 12.1575 8.89232 12.8279 7.62431 12.8279C6.3563 12.8279 5.91713 12.1589 5.20055 11.9227C4.34747 11.6404 3.68446 11.806 3.46027 11.6513C3.27839 11.5257 3.42615 11.1776 3.17568 11.0161C2.88018 10.826 2.50073 10.8598 1.93019 10.5461C1.56678 10.3454 1.77288 10.2211 1.89402 10.1624C3.96188 9.16097 4.29185 7.61473 4.30652 7.50004C4.32427 7.36112 4.34406 7.25189 4.19119 7.11058C4.04343 6.97405 3.38793 6.5682 3.20605 6.44123C2.90509 6.23097 2.77269 6.02105 2.87028 5.763C2.93853 5.58448 3.10505 5.51724 3.27976 5.51724C3.33498 5.51741 3.39001 5.52359 3.44389 5.53567C3.7742 5.60735 4.09496 5.7729 4.28025 5.81761C4.30256 5.82334 4.32546 5.82643 4.34849 5.82683C4.44745 5.82683 4.48226 5.777 4.47543 5.66367C4.45428 5.3022 4.40309 4.59769 4.46008 3.93926C4.53822 3.03336 4.82997 2.58451 5.17666 2.18754C5.34318 1.99673 6.12562 1.16968 7.62192 1.16968C9.11822 1.16968 9.90271 1.99332 10.0692 2.18344C10.4163 2.58041 10.7084 3.02927 10.7858 3.93516C10.8428 4.59359 10.7937 5.29845 10.7705 5.65958C10.7626 5.7787 10.7984 5.82273 10.8974 5.82273C10.9204 5.82236 10.9433 5.81927 10.9656 5.81352C11.1513 5.7688 11.472 5.60326 11.8023 5.53158C11.8562 5.51949 11.9113 5.51331 11.9665 5.51314C12.1422 5.51314 12.3077 5.58141 12.376 5.7589C12.4735 6.01695 12.3418 6.22687 12.0405 6.43713C11.8586 6.56411 11.2031 6.96961 11.0554 7.10649C10.9022 7.2478 10.9223 7.35703 10.9401 7.49595C10.9547 7.61234 11.2844 9.15858 13.3526 10.1583C13.4747 10.2194 13.6808 10.3437 13.3174 10.5461Z" fill="white"/>
</svg>
