<svg width="17" height="16" viewBox="0 0 17 16" fill="none" xmlns="http://www.w3.org/2000/svg">
<g clip-path="url(#clip0_44_2891)">
<path d="M15.2864 11.0403C15.1931 10.7869 14.9997 10.6669 14.8131 10.5403C14.7797 10.5203 14.7397 10.5003 14.7131 10.4869C14.6664 10.4536 14.5931 10.4269 14.5331 10.3936C13.9064 10.0603 13.4131 9.64026 13.0731 9.14693C12.9817 9.0056 12.8993 8.85864 12.8264 8.70693C12.7997 8.62026 12.7997 8.57359 12.8197 8.53359C12.8397 8.50026 12.8664 8.46693 12.8997 8.44693C12.9997 8.37359 13.1197 8.30693 13.1931 8.25359C13.3331 8.16693 13.4331 8.10026 13.4997 8.05359C13.7597 7.87359 13.9397 7.66693 14.0531 7.46693C14.2131 7.16693 14.2331 6.81359 14.1064 6.50026C13.9397 6.05359 13.5131 5.77359 12.9997 5.77359C12.8931 5.77359 12.7864 5.78693 12.6664 5.80693C12.6664 5.81359 12.6264 5.82026 12.5997 5.82693C12.5997 5.52026 12.5931 5.20026 12.5664 4.88026C12.4731 3.76026 12.0797 3.17359 11.6664 2.70693C11.4064 2.41359 11.0997 2.16026 10.7597 1.96693C10.1397 1.61359 9.43307 1.43359 8.6664 1.43359C7.89973 1.43359 7.19973 1.61359 6.57973 1.96693C6.23307 2.16026 5.9264 2.41359 5.6664 2.70693C5.25307 3.17359 4.8664 3.76026 4.7664 4.88026C4.73973 5.20026 4.73307 5.52026 4.73973 5.82693C4.7064 5.82026 4.6664 5.81359 4.6664 5.80693C4.5464 5.78693 4.43973 5.77359 4.33307 5.77359C3.81973 5.77359 3.39307 6.05359 3.2264 6.50026C3.09973 6.81359 3.11973 7.16693 3.27973 7.46693C3.39307 7.66693 3.57307 7.87359 3.83307 8.05359C3.89973 8.10026 3.99973 8.16693 4.13973 8.26026L4.41973 8.44026C4.45973 8.46693 4.4864 8.50026 4.51307 8.53359C4.53307 8.58026 4.53307 8.62693 4.49973 8.71359C4.43307 8.86693 4.35307 9.00026 4.25973 9.14693C3.9264 9.63359 3.45307 10.0469 2.8464 10.3736C2.51973 10.5469 2.1864 10.6669 2.0464 11.0403C1.93973 11.3336 1.99973 11.6669 2.27973 11.9403C2.37973 12.0403 2.49307 12.1269 2.61973 12.1936C2.8864 12.3336 3.1664 12.4536 3.45307 12.5269C3.51307 12.5469 3.57307 12.5669 3.61973 12.6069C3.71973 12.6869 3.7064 12.8203 3.83973 13.0003C3.9064 13.1069 3.99973 13.1936 4.0864 13.2603C4.35973 13.4536 4.6664 13.4603 4.99973 13.4736C5.29307 13.4869 5.6264 13.5003 5.99973 13.6269C6.17307 13.6669 6.33307 13.7803 6.5264 13.9003C6.99973 14.1803 7.61307 14.5669 8.6664 14.5669C9.71307 14.5669 10.3331 14.1803 10.8131 13.8936C10.9997 13.7803 11.1664 13.6669 11.3331 13.6269C11.6997 13.5003 12.0397 13.4869 12.3331 13.4736C12.6664 13.4669 12.9731 13.4536 13.2464 13.2603C13.3597 13.1803 13.4531 13.0736 13.5264 12.9536C13.6197 12.7936 13.6197 12.6669 13.7064 12.6069C13.7531 12.5736 13.8064 12.5469 13.8664 12.5336C14.1597 12.4536 14.4397 12.3336 14.7064 12.1936C14.8464 12.1203 14.9664 12.0269 15.0664 11.9136H15.0731C15.3331 11.6403 15.3864 11.3336 15.2864 11.0403ZM14.3531 11.5403C13.7797 11.8536 13.3997 11.8203 13.1064 12.0003C12.9997 12.0803 12.9664 12.1869 12.9464 12.2936L12.9264 12.4269C12.9131 12.5203 12.8931 12.6003 12.8264 12.6469C12.5997 12.8003 11.9397 12.6336 11.0864 12.9136C10.3797 13.1469 9.93307 13.8203 8.6664 13.8203C7.39973 13.8203 6.9664 13.1536 6.2464 12.9136C5.39973 12.6336 4.73307 12.8003 4.51307 12.6469C4.33307 12.5203 4.47973 12.1736 4.2264 12.0003C3.93307 11.8203 3.55307 11.8536 2.99973 11.5403C2.79307 11.4336 2.75973 11.3336 2.7864 11.2869C2.81307 11.2269 2.89307 11.1803 2.9464 11.1536C4.0464 10.6269 4.6664 9.94026 4.97973 9.40026C5.27307 8.92026 5.33307 8.5536 5.35307 8.50026C5.37307 8.36026 5.39307 8.25359 5.23973 8.1136C5.09307 7.97359 4.43973 7.57359 4.25973 7.44693C3.95307 7.23359 3.8264 7.02693 3.91973 6.76693C3.99973 6.58693 4.15307 6.52026 4.33307 6.52026C4.3864 6.52026 4.43973 6.52693 4.49307 6.54026C4.8264 6.60693 5.1464 6.77359 5.33307 6.82026C5.35307 6.82693 5.37307 6.82693 5.39973 6.82693C5.45973 6.82693 5.49307 6.80693 5.51307 6.76693C5.51973 6.74026 5.5264 6.70693 5.5264 6.66693C5.49973 6.30693 5.45307 5.60693 5.5064 4.94693C5.53307 4.66693 5.57973 4.42693 5.63973 4.22026C5.77307 3.76693 5.99973 3.46693 6.2264 3.19359C6.39307 3.00026 7.1664 2.18026 8.6664 2.18026C9.89973 2.18026 10.6397 2.74026 10.9597 3.04026C11.0264 3.10693 11.0797 3.16026 11.1064 3.19359C11.3597 3.48693 11.5864 3.80693 11.7197 4.31359C11.7664 4.49359 11.8064 4.70693 11.8264 4.94693C11.8797 5.60026 11.8331 6.30693 11.8064 6.66693C11.8064 6.69359 11.8064 6.72026 11.8131 6.74026C11.8197 6.80026 11.8597 6.82693 11.9331 6.82693C11.9597 6.82693 11.9797 6.82693 11.9997 6.82026C12.1864 6.77359 12.5064 6.60693 12.8397 6.53359C12.8931 6.52693 12.9464 6.52026 12.9997 6.52026C13.1664 6.52026 13.3331 6.58026 13.3997 6.73359L13.4064 6.76026H13.4131V6.76693C13.5131 7.02026 13.3797 7.23359 13.0797 7.44026C12.8997 7.56693 12.2397 7.97359 12.0931 8.10693C11.9397 8.25359 11.9597 8.36026 11.9797 8.50026C11.9997 8.56693 12.1197 9.20026 12.7197 9.90693C13.0864 10.3336 13.6131 10.7803 14.3864 11.1536C14.4331 11.1736 14.4931 11.2069 14.5264 11.2469C14.5464 11.2803 14.5597 11.3069 14.5531 11.3336C14.5464 11.4003 14.4864 11.4669 14.3531 11.5403Z" fill="#1B706F"/>
</g>
<defs>
<clipPath id="clip0_44_2891">
<rect width="16" height="16" fill="white" transform="translate(0.666748)"/>
</clipPath>
</defs>
</svg>
