<svg width="20" height="20" viewBox="0 0 20 20" fill="none" xmlns="http://www.w3.org/2000/svg">
<g clip-path="url(#clip0_425_6220)">
<path d="M19.988 3.28979C20.0032 3.1021 20.0032 2.91347 19.988 2.72578C19.8792 1.95556 19.491 1.25225 18.8972 0.749797C18.3034 0.247342 17.5456 -0.0191522 16.768 0.00107216H3.25212C2.93764 0.00859237 2.62794 0.0523463 2.32303 0.132334C1.64039 0.31957 1.04042 0.730692 0.619404 1.29973C0.198388 1.86878 -0.019275 2.56275 0.00134056 3.27031V16.6785C-0.00207771 16.954 0.0249266 17.2264 0.0823536 17.4958C0.240575 18.2242 0.649721 18.8738 1.2383 19.3312C1.82688 19.7886 2.55745 20.0246 3.30237 19.998H16.6962C17.0946 20.0014 17.4907 19.9366 17.8673 19.8062C18.4979 19.5951 19.0442 19.1871 19.4258 18.6424C19.8073 18.0977 20.004 17.4449 19.987 16.78C19.9972 12.2494 19.988 7.77012 19.988 3.28979ZM16.5762 14.4819C16.2542 14.6665 16.0265 14.728 15.6769 14.8521C15.6045 14.8704 15.5374 14.9055 15.4813 14.9547C15.4251 15.0039 15.3814 15.0658 15.3538 15.1351C15.2788 15.344 15.1422 15.5252 14.962 15.6548C14.7819 15.7845 14.5666 15.8564 14.3448 15.8612L13.5069 15.9125C13.0491 15.977 12.6132 16.1496 12.2353 16.416C11.6842 16.7796 11.0505 16.9988 10.3925 17.0535C9.73451 17.1082 9.07333 16.9965 8.46977 16.7287C8.23752 16.6382 8.01713 16.5197 7.81346 16.376C7.29971 16.0347 6.69394 15.8587 6.07732 15.8714C5.89074 15.8746 5.70436 15.8574 5.52151 15.8202C5.34121 15.7913 5.17204 15.7143 5.03181 15.5974C4.89158 15.4804 4.78549 15.3278 4.72471 15.1556C4.70038 15.0759 4.65445 15.0045 4.592 14.9493C4.52955 14.8941 4.45303 14.8572 4.37092 14.8429C3.93696 14.7451 3.53437 14.5403 3.19982 14.2471C3.07451 14.1512 2.97666 14.024 2.91612 13.8783C2.85558 13.7326 2.83449 13.5735 2.85497 13.417C2.87545 13.2606 2.93678 13.1123 3.03278 12.9871C3.12878 12.8618 3.25607 12.7641 3.40184 12.7037C3.76589 12.4914 4.12891 12.2894 4.47244 12.0474C4.89289 11.7428 5.23848 11.346 5.48152 10.8876C5.63329 10.5851 5.62303 10.5543 5.35026 10.3728C5.06206 10.1886 4.78566 9.9865 4.52269 9.76776C4.33448 9.6128 4.19795 9.40419 4.13126 9.16969C4.06458 8.9352 4.07091 8.68595 4.14942 8.45515C4.23719 8.14882 4.43854 7.88753 4.71239 7.72459C4.98624 7.56166 5.31194 7.50935 5.62303 7.57836H5.8148C5.72572 6.91379 5.79648 6.23757 6.02121 5.60584C6.24594 4.97411 6.61814 4.40511 7.10691 3.9461C7.91333 3.26797 8.94036 2.90896 9.99364 2.93703C10.6021 2.91721 11.2077 3.02754 11.7701 3.26062C12.3325 3.49371 12.8386 3.84419 13.2547 4.28861C13.6426 4.74865 13.9322 5.2832 14.1057 5.85937C14.2793 6.43554 14.333 7.04113 14.2637 7.63886C14.4928 7.61835 14.7218 7.61835 14.9508 7.63886C15.1899 7.66508 15.4152 7.76443 15.5958 7.92336C15.7763 8.0823 15.9035 8.29307 15.9599 8.52693C16.0264 8.75482 16.0256 8.99709 15.9576 9.22454C15.8895 9.45198 15.7571 9.65488 15.5764 9.80878C15.2997 10.0406 15.0097 10.256 14.7078 10.4538C14.476 10.6046 14.4658 10.6353 14.5868 10.8876C14.9596 11.5726 15.5246 12.1336 16.2122 12.5017L16.6562 12.7437C16.8156 12.8163 16.9513 12.9326 17.0475 13.079C17.1436 13.2255 17.1964 13.3961 17.1996 13.5713C17.2028 13.7465 17.1564 13.919 17.0656 14.0689C16.9749 14.2188 16.8436 14.3399 16.687 14.4183L16.5762 14.4819Z" fill="#FE9B0E"/>
<path d="M15.7224 13.2515C15.7224 13.3198 15.624 13.4192 15.5447 13.4483C15.2284 13.5768 14.9121 13.7054 14.5567 13.8048C14.4299 13.823 14.3136 13.8855 14.2285 13.9813C14.1434 14.0771 14.095 14.1999 14.0918 14.3279C14.0917 14.3685 14.0833 14.4087 14.0672 14.4459C14.051 14.4832 14.0274 14.5167 13.9977 14.5445C13.9681 14.5722 13.9331 14.5936 13.8948 14.6073C13.8566 14.621 13.816 14.6267 13.7755 14.6241L12.7874 14.6934C12.2824 14.7778 11.8034 14.9736 11.3837 15.2657C10.8953 15.5849 10.3224 15.7499 9.73906 15.7395C9.15577 15.7292 8.58904 15.5438 8.11233 15.2075C7.52171 14.8324 6.83491 14.6367 6.13525 14.6442H6.08505C5.70047 14.6442 5.65127 14.584 5.59203 14.2094C5.58718 14.1342 5.56018 14.0622 5.51444 14.0023C5.46869 13.9425 5.40625 13.8975 5.33498 13.8731C5.16629 13.8048 4.99861 13.7646 4.83092 13.6953C4.66223 13.6271 4.39614 13.5377 4.18829 13.4393C3.98044 13.3399 4.00053 13.3198 4.00053 13.2415C4.00053 13.1632 4.09893 13.0929 4.17825 13.0537C4.84073 12.7417 5.43018 12.2939 5.90832 11.7393C6.20955 11.3779 6.43046 10.9571 6.56099 10.5043C6.60257 10.4103 6.60837 10.3043 6.57731 10.2063C6.54625 10.1083 6.48045 10.025 6.3923 9.97211C6.12521 9.79338 5.84908 9.61566 5.59203 9.42789C5.45593 9.33236 5.33008 9.223 5.2165 9.10156C5.16852 9.03373 5.14275 8.95269 5.14275 8.86961C5.14275 8.78653 5.16852 8.70549 5.2165 8.63766C5.25197 8.56689 5.31005 8.50998 5.38154 8.47597C5.45302 8.44196 5.53382 8.43278 5.61111 8.44989C5.81528 8.49273 6.0161 8.54528 6.21357 8.60754L6.3441 8.63766L6.47765 8.69389C6.75478 8.7933 6.74876 8.65774 6.73872 8.37057C6.69469 7.72937 6.69469 7.0859 6.73872 6.4447C6.80644 5.93192 7.02051 5.44952 7.3553 5.05525C7.69009 4.66099 8.13141 4.37156 8.62643 4.22161C9.47177 3.90378 10.4078 3.92864 11.2351 4.2909C11.7729 4.49524 12.2339 4.86162 12.5545 5.33937C12.875 5.81713 13.0392 6.38266 13.0244 6.95779V8.53926C13.0244 8.7953 13.0746 8.82543 13.3015 8.7461L13.9733 8.51918C14.0582 8.50337 14.1454 8.50337 14.2303 8.51918C14.3053 8.51256 14.3806 8.52771 14.4472 8.56279C14.5138 8.59787 14.5689 8.65141 14.6059 8.71698C14.6546 8.78071 14.6809 8.85869 14.6809 8.93889C14.6809 9.01909 14.6546 9.09707 14.6059 9.1608C14.4965 9.28574 14.3739 9.39851 14.2404 9.49717C14.0124 9.65482 13.7755 9.79338 13.5375 9.95203C13.3015 10.1097 13.163 10.2974 13.2915 10.683C13.5228 11.3929 13.9683 12.0138 14.5667 12.4603C14.883 12.7073 15.0748 12.8087 15.4322 13.0527C15.5839 13.1551 15.7325 13.1822 15.7224 13.2515Z" fill="#FE9B0E"/>
</g>
<defs>
<clipPath id="clip0_425_6220">
<rect width="20" height="20" fill="white"/>
</clipPath>
</defs>
</svg>
