<svg width="20" height="20" viewBox="0 0 20 20" fill="none" xmlns="http://www.w3.org/2000/svg">
<g clip-path="url(#clip0_5421_16827)">
<path d="M17.3158 16.4043C18.0758 16.2851 19.6483 16.0101 19.9491 15.3176C20.1008 14.9609 19.8841 14.6709 19.6074 14.6268C16.9341 14.1868 15.7291 11.4476 15.6799 11.3309C14.9391 10.0026 16.9499 10.2259 17.7408 9.41593C18.5124 8.62177 17.2749 7.76177 16.5008 8.12676C16.1833 8.27593 15.7074 8.44927 15.3908 8.30427C15.4658 7.04677 15.6733 4.96177 15.1641 3.82343C13.4516 -0.0124019 8.40161 -0.150735 6.05495 2.07593C4.20578 3.82927 4.43245 5.63176 4.60578 8.30427C4.03078 8.5551 3.46245 8.05677 3.04828 8.05677C2.61328 8.05677 2.10745 8.33926 2.02578 8.7651C1.92245 9.32426 2.52995 9.68427 3.05578 9.89176C3.95161 10.2434 4.80328 10.3476 4.33078 11.3076C4.32661 11.3151 4.32328 11.3226 4.32078 11.3301C3.65161 12.8584 2.19078 14.3276 0.392447 14.6243C0.102447 14.6718 -0.0958863 14.9776 0.0491137 15.3151V15.3168C0.346614 16.0101 1.93411 16.2876 2.68328 16.4043C2.91495 16.8376 2.73745 17.6934 3.45495 17.6934C3.73411 17.6934 4.27411 17.5109 4.96328 17.5109C5.96745 17.5109 6.30995 17.7301 7.11495 18.2984C7.94161 18.8826 8.84995 19.4534 9.97911 19.3709C11.1549 19.4443 12.0283 18.9034 12.8849 18.3001L12.8858 18.2984C13.7208 17.7109 14.3174 17.2768 16.0858 17.6243C17.3941 17.8776 17.0124 16.9918 17.3158 16.4043Z" fill="black"/>
</g>
<defs>
<clipPath id="clip0_5421_16827">
<rect width="20" height="20" fill="white"/>
</clipPath>
</defs>
</svg>
