<svg width="20" height="20" viewBox="0 0 20 20" fill="none" xmlns="http://www.w3.org/2000/svg">
<rect width="20" height="20" rx="10" fill="#FFFC00"/>
<path d="M15.2148 13.1948C13.2621 12.2495 12.9508 10.79 12.937 10.6818C12.9202 10.5507 12.9012 10.4476 13.0459 10.3142C13.1854 10.1853 13.8043 9.80224 13.976 9.68239C14.2598 9.48393 14.3848 9.28579 14.2927 9.04223C14.2283 8.87373 14.0714 8.81026 13.9061 8.81026C13.854 8.81042 13.802 8.81625 13.7511 8.82766C13.4393 8.89531 13.1364 9.05157 12.9611 9.09378C12.9401 9.09921 12.9185 9.10213 12.8967 9.10247C12.8033 9.10247 12.7678 9.06091 12.7769 8.94847C12.7988 8.60761 12.8452 7.94231 12.7914 7.32083C12.7176 6.46578 12.4418 6.04211 12.1148 5.66742C11.9566 5.48571 11.222 4.70508 9.80445 4.70508C8.38687 4.70508 7.65327 5.48571 7.49605 5.66517C7.16808 6.03986 6.89261 6.46352 6.81948 7.31858C6.76568 7.94006 6.814 8.60503 6.83398 8.94622C6.84042 9.05318 6.80756 9.10022 6.71413 9.10022C6.69238 9.09985 6.67076 9.09693 6.64969 9.09152C6.47475 9.04931 6.1719 8.89306 5.86004 8.8254C5.80916 8.814 5.7572 8.80816 5.70507 8.808C5.53915 8.808 5.38289 8.87244 5.31846 9.03997C5.22631 9.28354 5.35067 9.48168 5.63548 9.68014C5.8072 9.79999 6.4261 10.1827 6.5656 10.3119C6.70994 10.4453 6.69125 10.5484 6.6745 10.6795C6.66065 10.7894 6.3491 12.2489 4.39671 13.1925C4.28233 13.2479 4.08774 13.3652 4.43086 13.5546C4.96954 13.8523 5.32812 13.8204 5.6068 13.9999C5.84328 14.1523 5.70346 14.4809 5.8755 14.5995C6.08685 14.7454 6.71155 14.5892 7.5186 14.8556C8.19518 15.0785 8.60627 15.7084 9.80606 15.7084C11.0059 15.7084 11.4289 15.0756 12.0935 14.8556C12.899 14.5892 13.525 14.7454 13.7366 14.5995C13.9083 14.4809 13.7688 14.1523 14.0053 13.9999C14.284 13.8204 14.6423 13.8523 15.1813 13.5546C15.5237 13.3675 15.3291 13.2502 15.2148 13.1948Z" fill="white"/>
<path d="M16.0647 13.0835C15.9771 12.845 15.8102 12.7175 15.6201 12.6118C15.5844 12.5908 15.5515 12.5741 15.5235 12.5612C15.4668 12.5319 15.4088 12.5035 15.3511 12.4736C14.7586 12.1595 14.296 11.7632 13.9751 11.2934C13.884 11.1612 13.8049 11.021 13.7389 10.8746C13.7116 10.7963 13.7129 10.7519 13.7325 10.7113C13.752 10.68 13.7778 10.6531 13.8082 10.6323C13.91 10.565 14.0151 10.4967 14.0863 10.4506C14.2132 10.3685 14.3137 10.3034 14.3785 10.2573C14.6217 10.0872 14.7918 9.90647 14.8981 9.70446C14.9723 9.5649 15.0156 9.411 15.025 9.25323C15.0344 9.09545 15.0097 8.93751 14.9526 8.79013C14.7915 8.36614 14.391 8.10292 13.9058 8.10292C13.8035 8.10283 13.7014 8.11363 13.6014 8.13514C13.5746 8.14094 13.5479 8.14706 13.5218 8.15383C13.5263 7.86387 13.5199 7.5578 13.4941 7.25656C13.4026 6.19757 13.0318 5.64246 12.6452 5.19979C12.3976 4.92239 12.106 4.68771 11.782 4.50517C11.1954 4.17011 10.5301 4 9.80485 4C9.07963 4 8.41756 4.17011 7.83023 4.50517C7.50551 4.68776 7.21331 4.92292 6.9655 5.20108C6.57889 5.64375 6.20807 6.19982 6.11657 7.25785C6.0908 7.55909 6.08435 7.86677 6.08854 8.15512C6.06244 8.14835 6.03603 8.14223 6.00928 8.13643C5.90923 8.11492 5.80717 8.10412 5.70483 8.10421C5.21931 8.10421 4.8182 8.36743 4.65775 8.79142C4.6004 8.93886 4.57547 9.09692 4.58464 9.25486C4.59381 9.4128 4.63688 9.56691 4.71091 9.70672C4.81755 9.90872 4.98766 10.0895 5.23091 10.2596C5.29534 10.3047 5.39618 10.3698 5.52312 10.4529C5.59174 10.4973 5.69194 10.5624 5.7902 10.6275C5.82458 10.6497 5.85381 10.6791 5.8759 10.7135C5.89652 10.7557 5.89717 10.8012 5.86656 10.8849C5.80146 11.0283 5.72372 11.1655 5.63427 11.2951C5.32047 11.7542 4.87136 12.1433 4.29788 12.4549C3.99407 12.616 3.67834 12.7236 3.54495 13.086C3.44444 13.3596 3.51016 13.6708 3.76565 13.933C3.85941 14.0309 3.96816 14.1132 4.08782 14.1769C4.3368 14.3138 4.60154 14.4197 4.87619 14.4923C4.93287 14.507 4.98667 14.531 5.03534 14.5635C5.12845 14.645 5.11524 14.7678 5.23928 14.9476C5.30155 15.0405 5.38066 15.1209 5.47254 15.1847C5.73286 15.3645 6.02539 15.3757 6.33533 15.3877C6.6153 15.3983 6.93264 15.4105 7.29509 15.5301C7.44523 15.5797 7.60116 15.6757 7.7819 15.7878C8.21587 16.0546 8.80997 16.4196 9.8042 16.4196C10.7984 16.4196 11.3967 16.0526 11.8339 15.7849C12.0134 15.6747 12.1683 15.5797 12.3143 15.5314C12.6767 15.4115 12.9941 15.3996 13.274 15.389C13.584 15.377 13.8765 15.3658 14.1368 15.186C14.2456 15.1101 14.3363 15.0111 14.4023 14.896C14.4916 14.7443 14.4893 14.6383 14.5731 14.5642C14.6187 14.5332 14.6693 14.5101 14.7226 14.4959C15.0009 14.423 15.2693 14.3161 15.5216 14.1776C15.6487 14.1094 15.7631 14.0198 15.8598 13.9127L15.8631 13.9089C16.1028 13.6524 16.163 13.3502 16.0647 13.0835ZM15.181 13.5583C14.642 13.856 14.2837 13.8241 14.0051 14.0036C13.7683 14.156 13.9084 14.4846 13.7364 14.6032C13.525 14.7491 12.9003 14.5929 12.0933 14.8593C11.4277 15.0793 11.003 15.7121 9.80581 15.7121C8.60861 15.7121 8.19396 15.0806 7.51739 14.8577C6.71195 14.5912 6.08596 14.7475 5.87429 14.6016C5.70257 14.483 5.84207 14.1544 5.6056 14.002C5.32659 13.8225 4.96833 13.8544 4.42965 13.5583C4.08653 13.3689 4.28113 13.2516 4.3955 13.1962C6.34789 12.251 6.65944 10.7915 6.67329 10.6832C6.69004 10.5521 6.70873 10.449 6.56439 10.3156C6.42489 10.1868 5.80599 9.8037 5.63427 9.68385C5.35011 9.48538 5.22511 9.28725 5.31725 9.04368C5.38168 8.87518 5.53891 8.81171 5.70386 8.81171C5.75599 8.81187 5.80796 8.81771 5.85883 8.82911C6.17069 8.89677 6.47354 9.05302 6.64848 9.09523C6.66955 9.10063 6.69117 9.10355 6.71292 9.10393C6.80635 9.10393 6.83921 9.05689 6.83277 8.94993C6.81279 8.60874 6.76447 7.94377 6.81827 7.32229C6.89205 6.46723 7.16751 6.04357 7.49484 5.66888C7.65206 5.48878 8.39081 4.70814 9.80356 4.70814C11.2163 4.70814 11.957 5.48556 12.1142 5.66501C12.4419 6.0397 12.7176 6.46337 12.7908 7.31842C12.8446 7.9399 12.7982 8.6052 12.7763 8.94606C12.7689 9.0585 12.8027 9.10006 12.8961 9.10006C12.9179 9.09971 12.9395 9.09679 12.9606 9.09136C13.1358 9.04916 13.4387 8.8929 13.7505 8.82524C13.8014 8.81384 13.8534 8.80801 13.9055 8.80785C14.0714 8.80785 14.2277 8.87228 14.2921 9.03981C14.3843 9.28338 14.2599 9.48152 13.9754 9.67998C13.8037 9.79983 13.1848 10.1826 13.0453 10.3118C12.9006 10.4451 12.9197 10.5482 12.9364 10.6794C12.9503 10.7892 13.2615 12.2487 15.2142 13.1924C15.3295 13.25 15.5241 13.3673 15.181 13.5583Z" fill="black"/>
</svg>
