<svg width="24" height="24" viewBox="0 0 24 24" fill="none" xmlns="http://www.w3.org/2000/svg">
<path d="M20.4 0H3.6C1.61177 0 0 1.61177 0 3.6V20.4C0 22.3882 1.61177 24 3.6 24H20.4C22.3882 24 24 22.3882 24 20.4V3.6C24 1.61177 22.3882 0 20.4 0Z" fill="#FF5500"/>
<path d="M2.76562 12.6563L2.625 13.6875L2.76562 14.7188C2.76562 14.8125 2.90625 14.8125 2.90625 14.7188L3.04688 13.6875L2.90625 12.6563C2.90625 12.5156 2.76562 12.5156 2.76562 12.6563ZM3.60938 12C3.60938 11.8594 3.46875 11.8594 3.46875 12L3.23438 13.6875L3.42188 15.3281C3.42188 15.4688 3.60938 15.4688 3.60938 15.3281L3.79688 13.6875L3.60938 12ZM6.375 10.5938L6.23438 13.6875L6.32812 15.5625C6.32812 15.9375 6.65625 15.9375 6.65625 15.5625L6.84375 13.6875L6.65625 10.5938C6.65625 10.3594 6.375 10.3594 6.375 10.5938ZM4.92188 11.625L4.73438 13.6875L4.875 15.5625C4.875 15.8438 5.10938 15.8438 5.10938 15.5625L5.29688 13.6875L5.10938 11.625C5.10938 11.4844 4.92188 11.4844 4.92188 11.625ZM8.20312 15.5625L8.34375 13.6875L8.20312 9.5625C8.20312 9.28125 7.875 9.28125 7.875 9.5625L7.73438 13.6875L7.82812 15.5625C7.82812 15.9375 8.20312 15.9375 8.20312 15.5625ZM11.3906 15.5625L11.4844 13.6875L11.3906 8.90625C11.3906 8.57813 10.9219 8.57813 10.9219 8.90625L10.8281 13.6875L10.9219 15.5625C10.9219 15.9375 11.3906 15.9375 11.3906 15.5625ZM9.79688 15.5625L9.9375 13.6875L9.79688 9.51563C9.79688 9.23438 9.375 9.23438 9.375 9.51563L9.28125 13.6875L9.375 15.5625C9.375 15.9375 9.79688 15.9375 9.79688 15.5625ZM5.90625 15.5625L6.04688 13.6875L5.90625 11.7656C5.90625 11.625 5.625 11.625 5.625 11.7656L5.48438 13.6875L5.625 15.5625C5.625 15.8906 5.90625 15.8906 5.90625 15.5625ZM4.35938 15.5625L4.54688 13.6875L4.35938 11.6719C4.35938 11.5313 4.17188 11.5313 4.17188 11.6719L3.98438 13.6875L4.17188 15.5625C4.17188 15.75 4.35938 15.75 4.35938 15.5625ZM10.1719 9.70313L10.0781 13.6875L10.125 15.5625C10.125 15.9375 10.5938 15.9375 10.5938 15.5625L10.6875 13.6875L10.5938 9.70313C10.5938 9.375 10.1719 9.375 10.1719 9.70313ZM7.45312 15.5625L7.59375 13.6875L7.45312 9.89063C7.45312 9.60938 7.125 9.60938 7.125 9.89063L6.98438 13.6875L7.07812 15.5625C7.07812 15.9375 7.45312 15.9375 7.45312 15.5625ZM9 15.5625L9.14062 13.6875L9 9.42188C9 9.14063 8.625 9.14063 8.625 9.42188L8.48438 13.6875L8.625 15.5625C8.625 15.9375 9 15.9375 9 15.5625ZM18.1875 11.3906C17.9531 8.71875 15.1875 6.98438 12.6562 7.96875C12.4688 8.0625 12.4219 8.10938 12.4219 8.25V15.5625C12.4219 15.7031 12.5156 15.8438 12.6562 15.8438H19.0781C20.3438 15.8438 21.375 14.8125 21.375 13.5469C21.375 11.8125 19.7344 10.875 18.1875 11.3906ZM11.7188 8.48438L11.5781 13.6875L11.7188 15.5625C11.7188 15.9375 12.1875 15.9375 12.1875 15.5625L12.3281 13.6875L12.1875 8.48438C12.1875 8.15625 11.7188 8.15625 11.7188 8.48438Z" fill="white"/>
</svg>
