<svg width="17" height="16" viewBox="0 0 17 16" fill="none" xmlns="http://www.w3.org/2000/svg">
<path d="M13.9665 6.73268C13.9665 6.87935 13.8465 7.00002 13.6999 6.99268C12.9162 6.9534 12.1509 6.7417 11.4585 6.37268C11.2712 6.27268 11.0332 6.40268 11.0332 6.61535V10.3327C11.0332 11.1124 10.8052 11.8752 10.3774 12.5271C9.94957 13.179 9.34054 13.6917 8.6252 14.002C7.90986 14.3123 7.11942 14.4068 6.35108 14.2739C5.58275 14.1409 4.87004 13.7862 4.3006 13.2536C3.73116 12.7209 3.32984 12.0334 3.14598 11.2756C2.96213 10.5178 3.00376 9.72283 3.26577 8.98841C3.52777 8.25399 3.99872 7.61217 4.62069 7.14187C5.24265 6.67158 5.98852 6.39333 6.76654 6.34135C6.80131 6.33951 6.83608 6.34486 6.86869 6.35706C6.9013 6.36926 6.93105 6.38805 6.95607 6.41226C6.98109 6.43647 7.00086 6.46558 7.01413 6.49777C7.0274 6.52996 7.03389 6.56454 7.0332 6.59935V8.46602C7.0332 8.61268 6.9132 8.73068 6.76787 8.75468C6.46699 8.80528 6.18686 8.94084 5.96048 9.1454C5.73411 9.34995 5.57095 9.61497 5.49022 9.9092C5.4095 10.2034 5.41458 10.5146 5.50487 10.806C5.59517 11.0975 5.7669 11.357 5.99983 11.5541C6.23276 11.7511 6.51718 11.8775 6.81955 11.9182C7.12192 11.9589 7.42963 11.9124 7.70641 11.784C7.98319 11.6556 8.2175 11.4508 8.38171 11.1937C8.54591 10.9365 8.63317 10.6378 8.6332 10.3327V1.93268C8.6332 1.86196 8.6613 1.79413 8.71131 1.74412C8.76132 1.69411 8.82915 1.66602 8.89987 1.66602H10.7665C10.8378 1.66783 10.9059 1.69616 10.9574 1.74547C11.009 1.79479 11.0403 1.86153 11.0452 1.93268C11.1075 2.61583 11.4074 3.25552 11.8925 3.74053C12.3776 4.22553 13.0174 4.52517 13.7005 4.58735C13.8472 4.60068 13.9672 4.71868 13.9672 4.86602L13.9665 6.73268Z" stroke="#1B706F" stroke-linecap="round" stroke-linejoin="round"/>
</svg>
