<svg width="20" height="20" viewBox="0 0 20 20" fill="none" xmlns="http://www.w3.org/2000/svg">
<g clip-path="url(#clip0_425_6228)">
<path d="M16.675 0H3.325C1.48865 0 0 1.48865 0 3.325V16.675C0 18.5113 1.48865 20 3.325 20H16.675C18.5113 20 20 18.5113 20 16.675V3.325C20 1.48865 18.5113 0 16.675 0Z" fill="black"/>
<path d="M15.2104 8.66836V6.43906C12.2963 6.31602 12.2025 3.66797 12.2025 3.41914V3.40039H9.9502V12.0828C9.94995 12.458 9.83139 12.8236 9.61139 13.1275C9.39139 13.4314 9.08115 13.6582 8.72481 13.7756C8.36847 13.8931 7.98417 13.8951 7.62659 13.7815C7.269 13.6679 6.95635 13.4445 6.73311 13.1429C6.50986 12.8414 6.38739 12.4771 6.38313 12.1019C6.37886 11.7268 6.49301 11.3598 6.70934 11.0533C6.92567 10.7467 7.23316 10.5162 7.58806 10.3945C7.94297 10.2728 8.32721 10.2661 8.68613 10.3754V8.07617C8.51358 8.05404 8.33979 8.04295 8.16582 8.04297C7.36682 8.04297 6.58575 8.2799 5.92141 8.72381C5.25706 9.16771 4.73926 9.79865 4.43349 10.5368C4.12773 11.275 4.04772 12.0873 4.2036 12.8709C4.35948 13.6546 4.74424 14.3744 5.30922 14.9394C5.8742 15.5044 6.59404 15.8892 7.37769 16.045C8.16134 16.2009 8.97362 16.1209 9.7118 15.8151C10.45 15.5094 11.0809 14.9916 11.5248 14.3272C11.9687 13.6629 12.2057 12.8818 12.2057 12.0828C12.2057 12.0262 12.2057 11.9699 12.2018 11.9141V7.63867C13.2389 8.5875 15.2104 8.66836 15.2104 8.66836Z" fill="#00F6EF"/>
<path d="M15.8739 9.21836V6.98789C12.9595 6.86484 12.8661 4.2168 12.8661 3.96797V3.94922H10.6138V12.6316C10.6136 13.0068 10.4951 13.3724 10.2752 13.6764C10.0552 13.9804 9.745 14.2073 9.38866 14.3248C9.03232 14.4422 8.64801 14.4444 8.29039 14.3308C7.93278 14.2173 7.62008 13.9938 7.3968 13.6923C7.17351 13.3907 7.051 13.0265 7.0467 12.6513C7.0424 12.2761 7.15653 11.9091 7.37286 11.6026C7.58918 11.296 7.89667 11.0654 8.25159 10.9437C8.60651 10.822 8.99077 10.8153 9.34971 10.9246V8.625C9.17673 8.60334 9.00255 8.59277 8.82822 8.59336C8.0292 8.59359 7.24819 8.83076 6.58396 9.27487C5.91974 9.71899 5.40212 10.3501 5.09658 11.0884C4.79104 11.8267 4.7113 12.639 4.86743 13.4226C5.02357 14.2062 5.40858 14.926 5.97376 15.4908C6.53895 16.0556 7.25893 16.4401 8.04265 16.5957C8.82638 16.7513 9.63864 16.671 10.3767 16.365C11.1148 16.0589 11.7456 15.5409 12.1892 14.8764C12.6329 14.2118 12.8695 13.4307 12.8692 12.6316C12.8692 12.575 12.8692 12.5188 12.8653 12.4629V8.1875C13.9024 9.13633 15.8739 9.21836 15.8739 9.21836Z" fill="white"/>
<path d="M12.2588 3.94922C12.3674 4.54063 12.6846 5.46523 13.6092 6.00625C12.9025 5.1832 12.867 4.12109 12.867 3.96797V3.94922H12.2588Z" fill="#FF004F"/>
<path d="M15.8738 9.21875V6.98828C15.6507 6.98011 15.4287 6.95398 15.2098 6.91016V8.66602C15.2098 8.66602 13.2383 8.58516 12.202 7.63633V11.9105C12.2043 11.9664 12.2059 12.0227 12.2059 12.0793C12.2058 12.8102 12.0074 13.5274 11.6319 14.1545C11.2564 14.7815 10.7178 15.295 10.0735 15.6401C9.42923 15.9853 8.70339 16.1492 7.97332 16.1144C7.24324 16.0796 6.53627 15.8474 5.92773 15.4426C6.48738 16.0205 7.20686 16.4182 7.99398 16.5847C8.78109 16.7511 9.59998 16.6787 10.3457 16.3768C11.0914 16.0749 11.73 15.5571 12.1796 14.89C12.6291 14.2228 12.8693 13.4366 12.8691 12.632C12.8691 12.5754 12.8691 12.5191 12.8652 12.4633V8.18789C13.9023 9.13672 15.8738 9.21875 15.8738 9.21875Z" fill="#FF004F"/>
<path d="M8.68628 10.3723C8.2562 10.2411 7.79246 10.2771 7.38778 10.4731C6.9831 10.669 6.66729 11.0105 6.50349 11.4293C6.3397 11.848 6.33999 12.3131 6.50431 12.7317C6.66863 13.1502 6.98486 13.4913 7.38979 13.6867C7.16851 13.3845 7.04794 13.0203 7.04517 12.6457C7.0424 12.2711 7.15757 11.9051 7.37436 11.5996C7.59115 11.2941 7.89857 11.0645 8.25307 10.9435C8.60757 10.8224 8.99118 10.8159 9.34956 10.925V8.62541C9.17658 8.60375 9.0024 8.59318 8.82807 8.59377C8.78003 8.59377 8.73276 8.59377 8.6851 8.59651L8.68628 10.3723Z" fill="#FF004F"/>
</g>
<defs>
<clipPath id="clip0_425_6228">
<rect width="20" height="20" fill="white"/>
</clipPath>
</defs>
</svg>
