<svg width="16" height="16" viewBox="0 0 16 16" fill="none" xmlns="http://www.w3.org/2000/svg">
<path d="M13.4665 6.73268C13.4665 6.87935 13.3465 7.00002 13.1999 6.99268C12.4162 6.9534 11.6509 6.7417 10.9585 6.37268C10.7712 6.27268 10.5332 6.40268 10.5332 6.61535V10.3327C10.5332 11.1124 10.3052 11.8752 9.87739 12.5271C9.44957 13.179 8.84054 13.6917 8.1252 14.002C7.40986 14.3123 6.61942 14.4068 5.85108 14.2739C5.08275 14.1409 4.37004 13.7862 3.8006 13.2536C3.23116 12.7209 2.82984 12.0334 2.64598 11.2756C2.46213 10.5178 2.50376 9.72283 2.76577 8.98841C3.02777 8.25399 3.49872 7.61217 4.12069 7.14187C4.74265 6.67158 5.48852 6.39333 6.26654 6.34135C6.30131 6.33951 6.33608 6.34486 6.36869 6.35706C6.4013 6.36926 6.43105 6.38805 6.45607 6.41226C6.48109 6.43647 6.50086 6.46558 6.51413 6.49777C6.5274 6.52996 6.53389 6.56454 6.5332 6.59935V8.46602C6.5332 8.61268 6.4132 8.73068 6.26787 8.75468C5.96699 8.80528 5.68686 8.94084 5.46048 9.1454C5.23411 9.34995 5.07095 9.61497 4.99022 9.9092C4.9095 10.2034 4.91458 10.5146 5.00487 10.806C5.09517 11.0975 5.2669 11.357 5.49983 11.5541C5.73276 11.7511 6.01718 11.8775 6.31955 11.9182C6.62192 11.9589 6.92963 11.9124 7.20641 11.784C7.48319 11.6556 7.7175 11.4508 7.88171 11.1937C8.04591 10.9365 8.13317 10.6378 8.1332 10.3327V1.93268C8.1332 1.86196 8.1613 1.79413 8.21131 1.74412C8.26132 1.69411 8.32915 1.66602 8.39987 1.66602H10.2665C10.3378 1.66783 10.4059 1.69616 10.4574 1.74547C10.509 1.79479 10.5403 1.86153 10.5452 1.93268C10.6075 2.61583 10.9074 3.25552 11.3925 3.74053C11.8776 4.22553 12.5174 4.52517 13.2005 4.58735C13.3472 4.60068 13.4672 4.71868 13.4672 4.86602L13.4665 6.73268Z" stroke="#040231" stroke-linecap="round" stroke-linejoin="round"/>
</svg>
