<svg width="20" height="20" viewBox="0 0 20 20" fill="none" xmlns="http://www.w3.org/2000/svg">
<path d="M14.314 7.21939C15.6001 8.14204 17.1757 8.6849 18.8774 8.6849V5.39868C18.5553 5.39875 18.2341 5.36505 17.919 5.29805V7.88478C16.2175 7.88478 14.6421 7.34191 13.3557 6.41934V13.1256C13.3557 16.4804 10.6457 19.1998 7.30306 19.1998C6.05583 19.1998 4.89658 18.8214 3.93359 18.1724C5.03269 19.3002 6.56546 19.9998 8.2612 19.9998C11.6041 19.9998 14.3141 17.2804 14.3141 13.9255V7.21939H14.314V7.21939ZM15.4962 3.904C14.8389 3.18336 14.4074 2.25207 14.314 1.22248V0.799805H13.4058C13.6344 2.10841 14.4142 3.2264 15.4962 3.904ZM6.04783 15.598C5.6806 15.1148 5.48215 14.5237 5.48304 13.9159C5.48304 12.3815 6.72255 11.1374 8.25176 11.1374C8.53676 11.1374 8.82004 11.1812 9.09164 11.2676V7.90798C8.77424 7.86433 8.4539 7.84579 8.13371 7.85259V10.4676C7.86191 10.3811 7.57848 10.3372 7.29342 10.3375C5.76421 10.3375 4.52477 11.5814 4.52477 13.116C4.52477 14.201 5.14432 15.1404 6.04783 15.598Z" fill="#FF004F"/>
<path d="M13.3551 6.41927C14.6416 7.34185 16.217 7.88471 17.9185 7.88471V5.29799C16.9687 5.09495 16.1279 4.59684 15.4957 3.904C14.4136 3.22633 13.6339 2.10834 13.4053 0.799805H11.0198V13.9253C11.0144 15.4555 9.77704 16.6945 8.25111 16.6945C7.3519 16.6945 6.55304 16.2644 6.04711 15.598C5.14366 15.1404 4.52411 14.2009 4.52411 13.116C4.52411 11.5816 5.76355 10.3375 7.29277 10.3375C7.58576 10.3375 7.86815 10.3833 8.13305 10.4677V7.85266C4.8491 7.92075 2.20801 10.6136 2.20801 13.9254C2.20801 15.5787 2.8657 17.0774 3.93314 18.1724C4.89613 18.8214 6.05538 19.1998 7.30261 19.1998C10.6453 19.1998 13.3552 16.4803 13.3552 13.1256V6.41927H13.3551Z" fill="black"/>
<path d="M17.9188 5.29817V4.59874C17.0623 4.60004 16.2226 4.35932 15.496 3.90411C16.1392 4.61089 16.9863 5.09822 17.9188 5.29817ZM13.4056 0.799986C13.3838 0.674926 13.367 0.549042 13.3554 0.422678V0H10.0617V13.1257C10.0564 14.6556 8.8191 15.8946 7.29303 15.8946C6.845 15.8946 6.42199 15.7879 6.04737 15.5983C6.55331 16.2645 7.35216 16.6946 8.25137 16.6946C9.77717 16.6946 11.0148 15.4558 11.0201 13.9256V0.799986H13.4056ZM8.13345 7.85284V7.10824C7.85823 7.07049 7.58076 7.05155 7.30294 7.05169C3.95993 7.05162 1.25 9.77116 1.25 13.1257C1.25 15.2288 2.31505 17.0822 3.93347 18.1725C2.86603 17.0775 2.20834 15.5787 2.20834 13.9255C2.20834 10.6138 4.84936 7.92093 8.13345 7.85284Z" fill="#00F2EA"/>
</svg>
