<svg width="24" height="24" viewBox="0 0 24 24" fill="none" xmlns="http://www.w3.org/2000/svg">
<g clip-path="url(#clip0_3131_260745)">
<path d="M12 24C18.6274 24 24 18.6274 24 12C24 5.37258 18.6274 0 12 0C5.37258 0 0 5.37258 0 12C0 18.6274 5.37258 24 12 24Z" fill="white"/>
<path d="M4.81099 11.6173C4.96168 7.86658 8.51145 4.57133 12.2822 4.81244C16.2941 4.96649 19.7568 9.02528 18.9833 13.0372C18.3369 13.0305 17.694 12.7927 17.3423 12.2201C16.408 10.8102 15.9794 9.13914 15.1288 7.6824C14.5193 7.77951 13.9131 7.89672 13.3103 8.03068C13.5414 9.66826 14.5695 11.0379 14.9479 12.6286C14.7738 14.0184 13.0257 14.7987 11.8201 14.1524C10.8188 13.7672 10.4069 12.699 10.0586 11.7747C9.72373 10.8102 9.34531 9.85914 8.83629 8.9717C8.06271 8.95495 7.26568 8.9784 6.56578 9.35347C7.19536 12.5784 8.9602 15.4517 9.69024 18.6498C6.77675 17.7189 4.6268 14.6915 4.81099 11.6173Z" fill="#00853E"/>
<path d="M13.97 15.6258C14.7202 15.224 15.2794 14.5609 15.9191 14.015C16.8199 14.2327 17.7375 14.3633 18.6618 14.4236C17.637 16.7778 15.4904 18.603 12.9486 19.0919C12.2655 18.0939 11.8335 16.9587 11.4986 15.8033C12.3224 15.8 13.1797 15.9071 13.97 15.6258Z" fill="#00853E"/>
</g>
<defs>
<clipPath id="clip0_3131_260745">
<rect width="24" height="24" fill="white"/>
</clipPath>
</defs>
</svg>
