<svg width="24" height="24" viewBox="0 0 24 24" fill="none" xmlns="http://www.w3.org/2000/svg">
<path d="M12 24C18.6274 24 24 18.6274 24 12C24 5.37258 18.6274 0 12 0C5.37258 0 0 5.37258 0 12C0 18.6274 5.37258 24 12 24Z" fill="#25D366"/>
<path fill-rule="evenodd" clip-rule="evenodd" d="M12.3955 18.6763H12.3926C11.1984 18.6759 10.0249 18.3762 8.98269 17.8078L5.20001 18.8L6.21232 15.1024C5.58788 14.0203 5.2593 12.7928 5.25984 11.5351C5.2614 7.60087 8.46242 4.40002 12.3955 4.40002C14.3043 4.40085 16.0959 5.14396 17.4431 6.49273C18.7903 7.84143 19.5318 9.63419 19.5311 11.5408C19.5295 15.4742 16.3298 18.6747 12.3955 18.6763ZM9.15795 16.516L9.37451 16.6445C10.2851 17.1849 11.3289 17.4708 12.3931 17.4712H12.3955C15.6644 17.4712 18.325 14.8106 18.3263 11.5404C18.3269 9.95563 17.7106 8.46557 16.5908 7.34452C15.4711 6.22347 13.982 5.60579 12.3979 5.60524C9.12648 5.60524 6.4659 8.26558 6.4646 11.5356C6.46414 12.6562 6.7777 13.7476 7.37138 14.6918L7.5124 14.9162L6.91325 17.1048L9.15795 16.516ZM15.7462 13.0771C15.8706 13.1372 15.9545 13.1777 15.9904 13.2376C16.035 13.3119 16.035 13.6689 15.8865 14.0855C15.7378 14.5019 15.0255 14.882 14.683 14.9332C14.3758 14.9791 13.9871 14.9983 13.56 14.8625C13.301 14.7804 12.9689 14.6707 12.5436 14.487C10.8721 13.7652 9.74253 12.1452 9.52904 11.839C9.51409 11.8176 9.50363 11.8026 9.49779 11.7948L9.49635 11.7929C9.402 11.667 8.76977 10.8234 8.76977 9.95041C8.76977 9.12914 9.17319 8.69868 9.35889 8.50053C9.37161 8.48696 9.38331 8.47447 9.39379 8.46303C9.55721 8.28453 9.75038 8.2399 9.86923 8.2399C9.98808 8.2399 10.1071 8.241 10.211 8.24622C10.2238 8.24686 10.2371 8.24678 10.2509 8.2467C10.3548 8.24609 10.4843 8.24533 10.6121 8.55228C10.6613 8.6704 10.7332 8.84552 10.8091 9.03022C10.9625 9.40373 11.132 9.81641 11.1618 9.87613C11.2064 9.96538 11.2361 10.0695 11.1767 10.1885C11.1678 10.2064 11.1595 10.2232 11.1516 10.2393C11.107 10.3304 11.0742 10.3975 10.9984 10.4859C10.9686 10.5207 10.9378 10.5582 10.907 10.5957C10.8457 10.6704 10.7843 10.7451 10.7309 10.7983C10.6417 10.8872 10.5488 10.9837 10.6528 11.1622C10.7568 11.3407 11.1146 11.9245 11.6446 12.3973C12.2144 12.9055 12.7096 13.1203 12.9606 13.2291C13.0096 13.2504 13.0493 13.2676 13.0785 13.2822C13.2567 13.3715 13.3607 13.3565 13.4647 13.2376C13.5687 13.1186 13.9104 12.717 14.0292 12.5385C14.1481 12.3601 14.267 12.3898 14.4304 12.4493C14.5938 12.5088 15.4704 12.9401 15.6487 13.0293C15.6835 13.0467 15.7161 13.0625 15.7462 13.0771Z" fill="white"/>
</svg>
