<svg width="12" height="12" viewBox="0 0 12 12" fill="none" xmlns="http://www.w3.org/2000/svg">
<path d="M1.00007 11.3751C0.900069 11.3751 0.805054 11.3351 0.735054 11.2651C0.640054 11.1701 0.600079 11.0301 0.635079 10.9001L1.26508 8.54512C0.845084 7.76512 0.625069 6.88512 0.625069 5.99512C0.625069 3.03012 3.03507 0.620117 6.00007 0.620117C8.96507 0.620117 11.3751 3.03012 11.3751 5.99512C11.3751 8.96012 8.96507 11.3701 6.00007 11.3701C5.09507 11.3701 4.21008 11.1451 3.42008 10.7151L1.10008 11.3601C1.06508 11.3701 1.03507 11.3751 1.00007 11.3751ZM3.47007 9.94012C3.53507 9.94012 3.60007 9.96013 3.66007 9.99013C4.36507 10.4051 5.17507 10.6251 6.00007 10.6251C8.55007 10.6251 10.6251 8.55012 10.6251 6.00012C10.6251 3.45012 8.55007 1.37512 6.00007 1.37512C3.45007 1.37512 1.37507 3.45012 1.37507 6.00012C1.37507 6.81512 1.59006 7.61012 1.99506 8.31012C2.04506 8.39512 2.06007 8.50012 2.03507 8.59512L1.53507 10.4651L3.37507 9.95512C3.40507 9.94512 3.44007 9.94012 3.47007 9.94012Z" fill="#CCCCCC"/>
<path d="M7.37012 8.88015C7.06012 8.88015 6.74012 8.81014 6.40512 8.66514C6.09012 8.53014 5.77512 8.35014 5.47012 8.12514C5.17012 7.90514 4.87513 7.65514 4.60513 7.38514C4.33513 7.11014 4.08511 6.82015 3.86511 6.52015C3.64011 6.20515 3.46011 5.89514 3.33011 5.59014C3.19011 5.26014 3.12012 4.93514 3.12012 4.62514C3.12012 4.40514 3.16011 4.19514 3.23511 4.00014C3.31511 3.79514 3.44511 3.61014 3.61511 3.45014C3.93511 3.13514 4.39513 3.02015 4.76013 3.19515C4.88513 3.25015 4.99013 3.34015 5.07013 3.46015L5.65012 4.27514C5.71012 4.35514 5.75513 4.44014 5.79013 4.52514C5.83013 4.62514 5.85513 4.72515 5.85513 4.82015C5.85513 4.95015 5.82012 5.08015 5.75012 5.19515C5.70512 5.27015 5.64011 5.36015 5.55511 5.44515L5.49011 5.51514C5.52011 5.55514 5.55511 5.60514 5.61011 5.66514C5.71511 5.78514 5.83011 5.91514 5.95511 6.04014C6.08011 6.16014 6.20511 6.28014 6.33011 6.38514C6.39011 6.43514 6.44013 6.47514 6.48013 6.50014L6.55011 6.43014C6.64011 6.34014 6.73013 6.27015 6.82013 6.22515C6.98513 6.12015 7.24012 6.09515 7.46512 6.19015C7.54512 6.22015 7.62511 6.26514 7.71011 6.32514L8.54514 6.91514C8.66014 6.99514 8.75012 7.10514 8.81012 7.23014C8.86012 7.35514 8.88013 7.46515 8.88013 7.58014C8.88013 7.73014 8.84512 7.87514 8.78012 8.01514C8.71512 8.14514 8.64011 8.26015 8.55011 8.36515C8.39011 8.54015 8.20513 8.67015 8.00513 8.75515C7.80513 8.84015 7.59012 8.88015 7.37012 8.88015ZM4.39511 3.87014C4.36511 3.87014 4.26514 3.87014 4.14014 3.99514C4.04514 4.08514 3.98012 4.18015 3.93512 4.28515C3.89012 4.39015 3.87012 4.51015 3.87012 4.63015C3.87012 4.84015 3.92011 5.06514 4.02011 5.30514C4.12511 5.55514 4.28012 5.82015 4.47012 6.08515C4.66512 6.35015 4.88513 6.61514 5.13013 6.86014C5.37513 7.10014 5.63512 7.32514 5.90512 7.52514C6.16512 7.71514 6.43013 7.86514 6.69513 7.98014C7.07513 8.14514 7.42511 8.18515 7.71011 8.06515C7.81011 8.02515 7.90011 7.95515 7.99011 7.86515C8.03511 7.81515 8.07013 7.76514 8.10013 7.70014C8.11513 7.66514 8.12512 7.62514 8.12512 7.59014C8.12512 7.58014 8.12511 7.56515 8.11011 7.53515L7.27512 6.95514C7.24012 6.93014 7.20511 6.91014 7.17511 6.90014C7.15511 6.91014 7.12513 6.92514 7.07013 6.98014L6.88013 7.17014C6.73513 7.31514 6.50513 7.35514 6.32013 7.29014L6.23013 7.25014C6.11513 7.19014 5.98512 7.10015 5.84012 6.97515C5.70012 6.85515 5.56514 6.73014 5.42014 6.59014C5.28014 6.44514 5.15513 6.31014 5.03513 6.17014C4.90513 6.01514 4.81513 5.89015 4.75513 5.78515L4.70013 5.65514C4.68513 5.60514 4.68011 5.55014 4.68011 5.50014C4.68011 5.36014 4.73013 5.23514 4.82513 5.13514L5.01514 4.94015C5.07014 4.88515 5.09013 4.85515 5.10013 4.83515C5.08513 4.80015 5.06513 4.77014 5.04013 4.73514L4.45511 3.91015L4.39511 3.87014Z" fill="#CCCCCC"/>
</svg>
