<svg width="20" height="20" viewBox="0 0 20 20" fill="none" xmlns="http://www.w3.org/2000/svg">
<g clip-path="url(#clip0_425_6239)">
<path d="M16.25 0H3.75C1.67893 0 0 1.67893 0 3.75V16.25C0 18.3211 1.67893 20 3.75 20H16.25C18.3211 20 20 18.3211 20 16.25V3.75C20 1.67893 18.3211 0 16.25 0Z" fill="#E21A20"/>
<path fill-rule="evenodd" clip-rule="evenodd" d="M15.4095 8.42522C15.3329 7.37053 15.1407 6.28147 13.7923 6.20178C11.2657 6.05774 8.73294 6.05774 6.20634 6.20178C4.85791 6.2799 4.66572 7.37053 4.58916 8.42522C4.51065 9.47375 4.51065 10.5267 4.58916 11.5752C4.66572 12.6299 4.85791 13.719 6.20634 13.7987C8.73294 13.9427 11.2657 13.9427 13.7923 13.7987C15.1407 13.7205 15.3329 12.6299 15.4095 11.5752C15.488 10.5267 15.488 9.47375 15.4095 8.42522ZM8.90634 11.4065V8.28147L11.8751 9.84397L8.90634 11.4065Z" fill="white"/>
</g>
<defs>
<clipPath id="clip0_425_6239">
<rect width="20" height="20" fill="white"/>
</clipPath>
</defs>
</svg>
