<svg width="24" height="25" viewBox="0 0 24 25" fill="none" xmlns="http://www.w3.org/2000/svg">
<path d="M9.818 15.636L15.136 12.364L9.818 9.364V15.636ZM12 6.778C15.155 6.778 17.722 9.345 17.722 12.5C17.722 15.655 15.155 18.222 12 18.222C8.845 18.222 6.278 15.655 6.278 12.5C6.278 9.345 8.845 6.778 12 6.778ZM12 6.228C11.1763 6.228 10.3606 6.39024 9.59962 6.70547C8.8386 7.02069 8.14713 7.48272 7.56467 8.06517C6.98222 8.64763 6.52019 9.3391 6.20497 10.1001C5.88974 10.8611 5.7275 11.6768 5.7275 12.5005C5.7275 13.3242 5.88974 14.1399 6.20497 14.9009C6.52019 15.6619 6.98222 16.3534 7.56467 16.9358C8.14713 17.5183 8.8386 17.9803 9.59962 18.2955C10.3606 18.6108 11.1763 18.773 12 18.773C15.465 18.773 18.273 15.965 18.273 12.5C18.273 9.035 15.465 6.228 12 6.228ZM24 12.5C24 15.6826 22.7357 18.7348 20.4853 20.9853C18.2348 23.2357 15.1826 24.5 12 24.5C8.8174 24.5 5.76516 23.2357 3.51472 20.9853C1.26428 18.7348 0 15.6826 0 12.5C0 9.3174 1.26428 6.26516 3.51472 4.01472C5.76516 1.76428 8.8174 0.5 12 0.5C15.1826 0.5 18.2348 1.76428 20.4853 4.01472C22.7357 6.26516 24 9.3174 24 12.5Z" fill="#F61C0D"/>
</svg>
