<svg width="17" height="16" viewBox="0 0 17 16" fill="none" xmlns="http://www.w3.org/2000/svg">
<g clip-path="url(#clip0_9278_8444)">
<path d="M16.2807 4.12328C16.1902 3.78289 16.012 3.47223 15.7637 3.22239C15.5155 2.97254 15.2059 2.79228 14.8661 2.69964C13.6152 2.36328 8.61523 2.36328 8.61523 2.36328C8.61523 2.36328 3.61523 2.36328 2.36433 2.69964C2.02452 2.79228 1.71501 2.97254 1.46676 3.22239C1.21851 3.47223 1.04024 3.78289 0.94978 4.12328C0.615234 5.37964 0.615234 7.99964 0.615234 7.99964C0.615234 7.99964 0.615234 10.6196 0.94978 11.876C1.04024 12.2164 1.21851 12.5271 1.46676 12.7769C1.71501 13.0267 2.02452 13.207 2.36433 13.2996C3.61523 13.636 8.61523 13.636 8.61523 13.636C8.61523 13.636 13.6152 13.636 14.8661 13.2996C15.2059 13.207 15.5155 13.0267 15.7637 12.7769C16.012 12.5271 16.1902 12.2164 16.2807 11.876C16.6152 10.6196 16.6152 7.99964 16.6152 7.99964C16.6152 7.99964 16.6152 5.37964 16.2807 4.12328Z" fill="#FF0302"/>
<path d="M6.97852 10.3793V5.62109L11.1603 8.00018L6.97852 10.3793Z" fill="#FEFEFE"/>
</g>
<defs>
<clipPath id="clip0_9278_8444">
<rect width="16" height="16" fill="white" transform="translate(0.599609)"/>
</clipPath>
</defs>
</svg>
