<svg width="24" height="24" viewBox="0 0 24 24" fill="none" xmlns="http://www.w3.org/2000/svg">
<g clip-path="url(#clip0_3131_260765)">
<path d="M12 24C18.6274 24 24 18.6274 24 12C24 5.37258 18.6274 0 12 0C5.37258 0 0 5.37258 0 12C0 18.6274 5.37258 24 12 24Z" fill="#2D8CFF"/>
<path fill-rule="evenodd" clip-rule="evenodd" d="M19.0435 7.96766L15.6522 10.442V13.5675L19.0435 16.0418C19.2834 16.2252 19.5652 16.2818 19.5652 15.7814V8.22813C19.5652 7.78193 19.3391 7.72584 19.0435 7.96766ZM4.17389 13.8783V8.24364C4.17389 8.01315 4.36243 7.82609 4.59501 7.82609H12.8127C14.0922 7.82609 15.1304 8.85385 15.1304 10.1217V15.7564C15.1304 15.9869 14.9419 16.1739 14.7093 16.1739H6.49163C5.21206 16.1739 4.17389 15.1462 4.17389 13.8783Z" fill="white"/>
</g>
<defs>
<clipPath id="clip0_3131_260765">
<rect width="24" height="24" fill="white"/>
</clipPath>
</defs>
</svg>
