<?xml version="1.0" encoding="utf-8"?>
<!-- Generator: Adobe Illustrator 24.3.0, SVG Export Plug-In . SVG Version: 6.00 Build 0)  -->
<svg version="1.1" id="Layer_1" xmlns="http://www.w3.org/2000/svg" xmlns:xlink="http://www.w3.org/1999/xlink" x="0px" y="0px"
	 viewBox="0 0 375 186.4" style="enable-background:new 0 0 375 186.4;" xml:space="preserve">
<style type="text/css">
	.st0{clip-path:url(#SVGID_2_);fill-rule:evenodd;clip-rule:evenodd;fill:#FFD21F;}
	.st1{clip-path:url(#SVGID_4_);}
	.st2{clip-path:url(#SVGID_6_);}
	.st3{clip-path:url(#SVGID_8_);}
	.st4{clip-path:url(#SVGID_12_);}
	.st5{clip-path:url(#SVGID_14_);}
	
		.st6{clip-path:url(#SVGID_16_);fill:none;stroke:#17142B;stroke-width:1.1869;stroke-linecap:round;stroke-linejoin:round;stroke-miterlimit:10;}
	.st7{clip-path:url(#SVGID_18_);fill:#38B6FF;}
	
		.st8{clip-path:url(#SVGID_20_);fill:none;stroke:#17142B;stroke-width:1.1869;stroke-linecap:round;stroke-linejoin:round;stroke-miterlimit:10;}
	
		.st9{clip-path:url(#SVGID_22_);fill:none;stroke:#FFFFFF;stroke-width:1.1869;stroke-linecap:round;stroke-linejoin:round;stroke-miterlimit:10;}
	
		.st10{clip-path:url(#SVGID_24_);fill:none;stroke:#17142B;stroke-width:1.1869;stroke-linecap:round;stroke-linejoin:round;stroke-miterlimit:10;}
	.st11{clip-path:url(#SVGID_26_);fill:#38B6FF;}
	
		.st12{clip-path:url(#SVGID_28_);fill:none;stroke:#17142B;stroke-width:1.1869;stroke-linecap:round;stroke-linejoin:round;stroke-miterlimit:10;}
	
		.st13{clip-path:url(#SVGID_30_);fill:none;stroke:#17142B;stroke-width:1.1869;stroke-linecap:round;stroke-linejoin:round;stroke-miterlimit:10;}
	.st14{clip-path:url(#SVGID_32_);fill:#38B6FF;}
	
		.st15{clip-path:url(#SVGID_34_);fill:none;stroke:#17142B;stroke-width:1.1869;stroke-linecap:round;stroke-linejoin:round;stroke-miterlimit:10;}
	.st16{clip-path:url(#SVGID_36_);fill:#FFFFFF;}
	
		.st17{clip-path:url(#SVGID_38_);fill:none;stroke:#17142B;stroke-width:1.1869;stroke-linecap:round;stroke-linejoin:round;stroke-miterlimit:10;}
	
		.st18{clip-path:url(#SVGID_40_);fill:none;stroke:#FFFFFF;stroke-width:1.1869;stroke-linecap:round;stroke-linejoin:round;stroke-miterlimit:10;}
	
		.st19{clip-path:url(#SVGID_42_);fill:none;stroke:#FFFFFF;stroke-width:1.1869;stroke-linecap:round;stroke-linejoin:round;stroke-miterlimit:10;}
	
		.st20{clip-path:url(#SVGID_44_);fill:none;stroke:#17142B;stroke-width:1.1869;stroke-linecap:round;stroke-linejoin:round;stroke-miterlimit:10;}
	
		.st21{clip-path:url(#SVGID_46_);fill:none;stroke:#FFFFFF;stroke-width:1.1869;stroke-linecap:round;stroke-linejoin:round;stroke-miterlimit:10;}
	.st22{clip-path:url(#SVGID_48_);fill:#38B6FF;}
	
		.st23{clip-path:url(#SVGID_50_);fill:none;stroke:#17142B;stroke-width:1.1869;stroke-linecap:round;stroke-linejoin:round;stroke-miterlimit:10;}
	
		.st24{clip-path:url(#SVGID_52_);fill:none;stroke:#FFFFFF;stroke-width:1.1869;stroke-linecap:round;stroke-linejoin:round;stroke-miterlimit:10;}
	
		.st25{clip-path:url(#SVGID_54_);fill:none;stroke:#17142B;stroke-width:1.1869;stroke-linecap:round;stroke-linejoin:round;stroke-miterlimit:10;}
	
		.st26{clip-path:url(#SVGID_56_);fill:none;stroke:#17142B;stroke-width:1.1869;stroke-linecap:round;stroke-linejoin:round;stroke-miterlimit:10;}
	.st27{clip-path:url(#SVGID_58_);fill:#FFFFFF;}
	
		.st28{clip-path:url(#SVGID_60_);fill:none;stroke:#17142B;stroke-width:1.1869;stroke-linecap:round;stroke-linejoin:round;stroke-miterlimit:10;}
	.st29{clip-path:url(#SVGID_62_);fill:#FFFFFF;}
	
		.st30{clip-path:url(#SVGID_64_);fill:none;stroke:#17142B;stroke-width:1.1869;stroke-linecap:round;stroke-linejoin:round;stroke-miterlimit:10;}
	.st31{clip-path:url(#SVGID_66_);fill:#FFFFFF;}
	
		.st32{clip-path:url(#SVGID_68_);fill:none;stroke:#17142B;stroke-width:1.1869;stroke-linecap:round;stroke-linejoin:round;stroke-miterlimit:10;}
	.st33{clip-path:url(#SVGID_70_);fill:#FFFFFF;}
	
		.st34{clip-path:url(#SVGID_72_);fill:none;stroke:#17142B;stroke-width:1.1869;stroke-linecap:round;stroke-linejoin:round;stroke-miterlimit:10;}
	.st35{clip-path:url(#SVGID_74_);fill:#FFFFFF;}
	
		.st36{clip-path:url(#SVGID_76_);fill:none;stroke:#17142B;stroke-width:1.1869;stroke-linecap:round;stroke-linejoin:round;stroke-miterlimit:10;}
	
		.st37{clip-path:url(#SVGID_78_);fill:none;stroke:#17142B;stroke-width:1.1869;stroke-linecap:round;stroke-linejoin:round;stroke-miterlimit:10;}
	.st38{clip-path:url(#SVGID_80_);fill:#38B6FF;}
	
		.st39{clip-path:url(#SVGID_82_);fill:none;stroke:#17142B;stroke-width:1.1869;stroke-linecap:round;stroke-linejoin:round;stroke-miterlimit:10;}
	.st40{fill:none;}
</style>
<g>
	<defs>
		<rect id="SVGID_1_" x="0" width="375" height="186.4"/>
	</defs>
	<clipPath id="SVGID_2_">
		<use xlink:href="#SVGID_1_"  style="overflow:visible;"/>
	</clipPath>
	<rect x="0" y="0" class="st0" width="375" height="186.4"/>
</g>
<g>
	<g>
		<defs>
			<rect id="SVGID_3_" x="0" y="-73.8" width="375" height="375"/>
		</defs>
		<clipPath id="SVGID_4_">
			<use xlink:href="#SVGID_3_"  style="overflow:visible;"/>
		</clipPath>
		<g class="st1">
			<defs>
				<rect id="SVGID_5_" x="69.8" y="28.5" width="286.2" height="123.2"/>
			</defs>
			<clipPath id="SVGID_6_">
				<use xlink:href="#SVGID_5_"  style="overflow:visible;"/>
			</clipPath>
			<g class="st2">
				<g>
					<defs>
						<rect id="SVGID_7_" x="69.8" y="28.5" width="286.2" height="123.2"/>
					</defs>
					<clipPath id="SVGID_8_">
						<use xlink:href="#SVGID_7_"  style="overflow:visible;"/>
					</clipPath>
					<g class="st3">
						<defs>
							<rect id="SVGID_9_" x="69.8" y="28.5" width="286.2" height="123.2"/>
						</defs>
						<clipPath id="SVGID_10_">
							<use xlink:href="#SVGID_9_"  style="overflow:visible;"/>
						</clipPath>
						<g style="clip-path:url(#SVGID_10_);">
							
								<image style="overflow:visible;" width="1194" height="514" xlink:href="4A7B2C25.jpg"  transform="matrix(0.24 0 0 0.24 69.6 28.3328)">
							</image>
						</g>
					</g>
				</g>
			</g>
		</g>
	</g>
	<g>
		<defs>
			<rect id="SVGID_11_" x="54.1" y="40.2" width="89.2" height="80.3"/>
		</defs>
		<clipPath id="SVGID_12_">
			<use xlink:href="#SVGID_11_"  style="overflow:visible;"/>
		</clipPath>
		<g class="st4">
			<defs>
				<rect id="SVGID_13_" x="54.1" y="40.2" width="89.2" height="80.3"/>
			</defs>
			<clipPath id="SVGID_14_">
				<use xlink:href="#SVGID_13_"  style="overflow:visible;"/>
			</clipPath>
			<g class="st5">
				<defs>
					<rect id="SVGID_15_" x="54.4" y="40.5" width="88.8" height="79.9"/>
				</defs>
				<clipPath id="SVGID_16_">
					<use xlink:href="#SVGID_15_"  style="overflow:visible;"/>
				</clipPath>
				<line class="st6" x1="132.9" y1="70.8" x2="138.1" y2="67.1"/>
			</g>
			<g class="st5">
				<defs>
					<rect id="SVGID_17_" x="54.4" y="40.5" width="88.8" height="79.9"/>
				</defs>
				<clipPath id="SVGID_18_">
					<use xlink:href="#SVGID_17_"  style="overflow:visible;"/>
				</clipPath>
				<path class="st7" d="M136.2,62.9c-0.8,0.5-0.9,1.6-0.4,2.3l3.3,4.5c0.5,0.8,1.6,0.9,2.4,0.4c0.8-0.5,0.9-1.6,0.4-2.3l-3.3-4.5
					C138.1,62.5,137,62.3,136.2,62.9z"/>
			</g>
			<g class="st5">
				<defs>
					<rect id="SVGID_19_" x="54.4" y="40.5" width="88.8" height="79.9"/>
				</defs>
				<clipPath id="SVGID_20_">
					<use xlink:href="#SVGID_19_"  style="overflow:visible;"/>
				</clipPath>
				<path class="st8" d="M136.2,62.9c-0.8,0.5-0.9,1.6-0.4,2.3l3.3,4.5c0.5,0.8,1.6,0.9,2.4,0.4c0.8-0.5,0.9-1.6,0.4-2.3l-3.3-4.5
					C138.1,62.5,137,62.3,136.2,62.9z"/>
			</g>
			<g class="st5">
				<defs>
					<rect id="SVGID_21_" x="54.4" y="40.5" width="88.8" height="79.9"/>
				</defs>
				<clipPath id="SVGID_22_">
					<use xlink:href="#SVGID_21_"  style="overflow:visible;"/>
				</clipPath>
				<line class="st9" x1="138.7" y1="66.5" x2="140.5" y2="69"/>
			</g>
			<g class="st5">
				<defs>
					<rect id="SVGID_23_" x="54.4" y="40.5" width="88.8" height="79.9"/>
				</defs>
				<clipPath id="SVGID_24_">
					<use xlink:href="#SVGID_23_"  style="overflow:visible;"/>
				</clipPath>
				<line class="st10" x1="125.1" y1="61.7" x2="129.4" y2="56.9"/>
			</g>
			<g class="st5">
				<defs>
					<rect id="SVGID_25_" x="54.4" y="40.5" width="88.8" height="79.9"/>
				</defs>
				<clipPath id="SVGID_26_">
					<use xlink:href="#SVGID_25_"  style="overflow:visible;"/>
				</clipPath>
				<path class="st11" d="M126.6,53.2c-0.6,0.7-0.5,1.8,0.2,2.4l4.2,3.7c0.7,0.6,1.8,0.5,2.4-0.2c0.6-0.7,0.5-1.8-0.2-2.4L129,53
					C128.3,52.4,127.2,52.5,126.6,53.2z"/>
			</g>
			<g class="st5">
				<defs>
					<rect id="SVGID_27_" x="54.4" y="40.5" width="88.8" height="79.9"/>
				</defs>
				<clipPath id="SVGID_28_">
					<use xlink:href="#SVGID_27_"  style="overflow:visible;"/>
				</clipPath>
				<path class="st12" d="M126.6,53.2c-0.6,0.7-0.5,1.8,0.2,2.4l4.2,3.7c0.7,0.6,1.8,0.5,2.4-0.2c0.6-0.7,0.5-1.8-0.2-2.4L129,53
					C128.3,52.4,127.2,52.5,126.6,53.2z"/>
			</g>
			<g class="st5">
				<defs>
					<rect id="SVGID_29_" x="54.4" y="40.5" width="88.8" height="79.9"/>
				</defs>
				<clipPath id="SVGID_30_">
					<use xlink:href="#SVGID_29_"  style="overflow:visible;"/>
				</clipPath>
				<line class="st13" x1="101.9" y1="50.6" x2="101.9" y2="44.2"/>
			</g>
			<g class="st5">
				<defs>
					<rect id="SVGID_31_" x="54.4" y="40.5" width="88.8" height="79.9"/>
				</defs>
				<clipPath id="SVGID_32_">
					<use xlink:href="#SVGID_31_"  style="overflow:visible;"/>
				</clipPath>
				<path class="st14" d="M137.5,85.1c0,19.2-15.6,34.7-34.8,34.7c-19.2,0-34.8-15.5-34.8-34.7c0-19.2,15.6-34.7,34.8-34.7
					C121.9,50.4,137.5,65.9,137.5,85.1z"/>
			</g>
			<g class="st5">
				<defs>
					<rect id="SVGID_33_" x="54.4" y="40.5" width="88.8" height="79.9"/>
				</defs>
				<clipPath id="SVGID_34_">
					<use xlink:href="#SVGID_33_"  style="overflow:visible;"/>
				</clipPath>
				<path class="st15" d="M137.5,85.1c0,19.2-15.6,34.7-34.8,34.7c-19.2,0-34.8-15.5-34.8-34.7c0-19.2,15.6-34.7,34.8-34.7
					C121.9,50.4,137.5,65.9,137.5,85.1z"/>
			</g>
			<g class="st5">
				<defs>
					<rect id="SVGID_35_" x="54.4" y="40.5" width="88.8" height="79.9"/>
				</defs>
				<clipPath id="SVGID_36_">
					<use xlink:href="#SVGID_35_"  style="overflow:visible;"/>
				</clipPath>
				<path class="st16" d="M131,85.1c0,15.6-12.7,28.3-28.3,28.3c-15.6,0-28.3-12.7-28.3-28.3c0-15.6,12.7-28.3,28.3-28.3
					C118.4,56.9,131,69.5,131,85.1z"/>
			</g>
			<g class="st5">
				<defs>
					<rect id="SVGID_37_" x="54.4" y="40.5" width="88.8" height="79.9"/>
				</defs>
				<clipPath id="SVGID_38_">
					<use xlink:href="#SVGID_37_"  style="overflow:visible;"/>
				</clipPath>
				<path class="st17" d="M131,85.1c0,15.6-12.7,28.3-28.3,28.3c-15.6,0-28.3-12.7-28.3-28.3c0-15.6,12.7-28.3,28.3-28.3
					C118.4,56.9,131,69.5,131,85.1z"/>
			</g>
			<g class="st5">
				<defs>
					<rect id="SVGID_39_" x="54.4" y="40.5" width="88.8" height="79.9"/>
				</defs>
				<clipPath id="SVGID_40_">
					<use xlink:href="#SVGID_39_"  style="overflow:visible;"/>
				</clipPath>
				<path class="st18" d="M102.9,53.4c0,0,32,1.2,31.5,33.2"/>
			</g>
			<g class="st5">
				<defs>
					<rect id="SVGID_41_" x="54.4" y="40.5" width="88.8" height="79.9"/>
				</defs>
				<clipPath id="SVGID_42_">
					<use xlink:href="#SVGID_41_"  style="overflow:visible;"/>
				</clipPath>
				<path class="st19" d="M102.9,116.9c0,0,25.2,0.4,31.5-26"/>
			</g>
			<g class="st5">
				<defs>
					<rect id="SVGID_43_" x="54.4" y="40.5" width="88.8" height="79.9"/>
				</defs>
				<clipPath id="SVGID_44_">
					<use xlink:href="#SVGID_43_"  style="overflow:visible;"/>
				</clipPath>
				<path class="st20" d="M101.9,58.9c14.5,0,27.1,11.8,27.1,26.3c0,14.5-12.6,26.3-27.1,26.3"/>
			</g>
			<g class="st5">
				<defs>
					<rect id="SVGID_45_" x="54.4" y="40.5" width="88.8" height="79.9"/>
				</defs>
				<clipPath id="SVGID_46_">
					<use xlink:href="#SVGID_45_"  style="overflow:visible;"/>
				</clipPath>
				<line class="st21" x1="129.8" y1="56.1" x2="132.2" y2="58.2"/>
			</g>
			<g class="st5">
				<defs>
					<rect id="SVGID_47_" x="54.4" y="40.5" width="88.8" height="79.9"/>
				</defs>
				<clipPath id="SVGID_48_">
					<use xlink:href="#SVGID_47_"  style="overflow:visible;"/>
				</clipPath>
				<path class="st22" d="M109.8,43.3c0,1.2-1,2.2-2.2,2.2H96.3c-1.2,0-2.2-1-2.2-2.2c0-1.2,1-2.2,2.2-2.2h11.3
					C108.8,41.1,109.8,42.1,109.8,43.3z"/>
			</g>
			<g class="st5">
				<defs>
					<rect id="SVGID_49_" x="54.4" y="40.5" width="88.8" height="79.9"/>
				</defs>
				<clipPath id="SVGID_50_">
					<use xlink:href="#SVGID_49_"  style="overflow:visible;"/>
				</clipPath>
				<path class="st23" d="M109.8,43.3c0,1.2-1,2.2-2.2,2.2H96.3c-1.2,0-2.2-1-2.2-2.2c0-1.2,1-2.2,2.2-2.2h11.3
					C108.8,41.1,109.8,42.1,109.8,43.3z"/>
			</g>
			<g class="st5">
				<defs>
					<rect id="SVGID_51_" x="54.4" y="40.5" width="88.8" height="79.9"/>
				</defs>
				<clipPath id="SVGID_52_">
					<use xlink:href="#SVGID_51_"  style="overflow:visible;"/>
				</clipPath>
				<line class="st24" x1="101.2" y1="43.3" x2="107.7" y2="43.3"/>
			</g>
			<g class="st5">
				<defs>
					<rect id="SVGID_53_" x="54.4" y="40.5" width="88.8" height="79.9"/>
				</defs>
				<clipPath id="SVGID_54_">
					<use xlink:href="#SVGID_53_"  style="overflow:visible;"/>
				</clipPath>
				<line class="st25" x1="101.9" y1="58.9" x2="101.9" y2="63.4"/>
			</g>
			<g class="st5">
				<defs>
					<rect id="SVGID_55_" x="54.4" y="40.5" width="88.8" height="79.9"/>
				</defs>
				<clipPath id="SVGID_56_">
					<use xlink:href="#SVGID_55_"  style="overflow:visible;"/>
				</clipPath>
				<line class="st26" x1="101.9" y1="106.8" x2="101.9" y2="111.4"/>
			</g>
			<g class="st5">
				<defs>
					<rect id="SVGID_57_" x="54.4" y="40.5" width="88.8" height="79.9"/>
				</defs>
				<clipPath id="SVGID_58_">
					<use xlink:href="#SVGID_57_"  style="overflow:visible;"/>
				</clipPath>
				<path class="st27" d="M72.8,79.6H57.1c-1.1,0-2-0.8-2-1.8c0-1,0.9-1.8,2-1.8h15.7c1.1,0,2,0.8,2,1.8
					C74.8,78.8,73.9,79.6,72.8,79.6z"/>
			</g>
			<g class="st5">
				<defs>
					<rect id="SVGID_59_" x="54.4" y="40.5" width="88.8" height="79.9"/>
				</defs>
				<clipPath id="SVGID_60_">
					<use xlink:href="#SVGID_59_"  style="overflow:visible;"/>
				</clipPath>
				<path class="st28" d="M72.8,79.6H57.1c-1.1,0-2-0.8-2-1.8c0-1,0.9-1.8,2-1.8h15.7c1.1,0,2,0.8,2,1.8
					C74.8,78.8,73.9,79.6,72.8,79.6z"/>
			</g>
			<g class="st5">
				<defs>
					<rect id="SVGID_61_" x="54.4" y="40.5" width="88.8" height="79.9"/>
				</defs>
				<clipPath id="SVGID_62_">
					<use xlink:href="#SVGID_61_"  style="overflow:visible;"/>
				</clipPath>
				<path class="st29" d="M72.8,94.3H57.1c-1.1,0-2-0.8-2-1.8c0-1,0.9-1.8,2-1.8h15.7c1.1,0,2,0.8,2,1.8
					C74.8,93.5,73.9,94.3,72.8,94.3z"/>
			</g>
			<g class="st5">
				<defs>
					<rect id="SVGID_63_" x="54.4" y="40.5" width="88.8" height="79.9"/>
				</defs>
				<clipPath id="SVGID_64_">
					<use xlink:href="#SVGID_63_"  style="overflow:visible;"/>
				</clipPath>
				<path class="st30" d="M72.8,94.3H57.1c-1.1,0-2-0.8-2-1.8c0-1,0.9-1.8,2-1.8h15.7c1.1,0,2,0.8,2,1.8
					C74.8,93.5,73.9,94.3,72.8,94.3z"/>
			</g>
			<g class="st5">
				<defs>
					<rect id="SVGID_65_" x="54.4" y="40.5" width="88.8" height="79.9"/>
				</defs>
				<clipPath id="SVGID_66_">
					<use xlink:href="#SVGID_65_"  style="overflow:visible;"/>
				</clipPath>
				<path class="st31" d="M84,71.4H68.2c-1.1,0-2-0.8-2-1.8c0-1,0.9-1.8,2-1.8H84c1.1,0,2,0.8,2,1.8C85.9,70.6,85.1,71.4,84,71.4z"
					/>
			</g>
			<g class="st5">
				<defs>
					<rect id="SVGID_67_" x="54.4" y="40.5" width="88.8" height="79.9"/>
				</defs>
				<clipPath id="SVGID_68_">
					<use xlink:href="#SVGID_67_"  style="overflow:visible;"/>
				</clipPath>
				<path class="st32" d="M84,71.4H68.2c-1.1,0-2-0.8-2-1.8c0-1,0.9-1.8,2-1.8H84c1.1,0,2,0.8,2,1.8C85.9,70.6,85.1,71.4,84,71.4z"
					/>
			</g>
			<g class="st5">
				<defs>
					<rect id="SVGID_69_" x="54.4" y="40.5" width="88.8" height="79.9"/>
				</defs>
				<clipPath id="SVGID_70_">
					<use xlink:href="#SVGID_69_"  style="overflow:visible;"/>
				</clipPath>
				<path class="st33" d="M84,102.5H68.2c-1.1,0-2-0.8-2-1.8c0-1,0.9-1.8,2-1.8H84c1.1,0,2,0.8,2,1.8
					C85.9,101.6,85.1,102.5,84,102.5z"/>
			</g>
			<g class="st5">
				<defs>
					<rect id="SVGID_71_" x="54.4" y="40.5" width="88.8" height="79.9"/>
				</defs>
				<clipPath id="SVGID_72_">
					<use xlink:href="#SVGID_71_"  style="overflow:visible;"/>
				</clipPath>
				<path class="st34" d="M84,102.5H68.2c-1.1,0-2-0.8-2-1.8c0-1,0.9-1.8,2-1.8H84c1.1,0,2,0.8,2,1.8
					C85.9,101.6,85.1,102.5,84,102.5z"/>
			</g>
			<g class="st5">
				<defs>
					<rect id="SVGID_73_" x="54.4" y="40.5" width="88.8" height="79.9"/>
				</defs>
				<clipPath id="SVGID_74_">
					<use xlink:href="#SVGID_73_"  style="overflow:visible;"/>
				</clipPath>
				<path class="st35" d="M84,86.9H68.2c-1.1,0-2-0.8-2-1.8s0.9-1.8,2-1.8H84c1.1,0,2,0.8,2,1.8C85.9,86.1,85.1,86.9,84,86.9z"/>
			</g>
			<g class="st5">
				<defs>
					<rect id="SVGID_75_" x="54.4" y="40.5" width="88.8" height="79.9"/>
				</defs>
				<clipPath id="SVGID_76_">
					<use xlink:href="#SVGID_75_"  style="overflow:visible;"/>
				</clipPath>
				<path class="st36" d="M84,86.9H68.2c-1.1,0-2-0.8-2-1.8s0.9-1.8,2-1.8H84c1.1,0,2,0.8,2,1.8C85.9,86.1,85.1,86.9,84,86.9z"/>
			</g>
			<g class="st5">
				<defs>
					<rect id="SVGID_77_" x="54.4" y="40.5" width="88.8" height="79.9"/>
				</defs>
				<clipPath id="SVGID_78_">
					<use xlink:href="#SVGID_77_"  style="overflow:visible;"/>
				</clipPath>
				<line class="st37" x1="102.7" y1="85.1" x2="113.3" y2="96.2"/>
			</g>
			<g class="st5">
				<defs>
					<rect id="SVGID_79_" x="54.4" y="40.5" width="88.8" height="79.9"/>
				</defs>
				<clipPath id="SVGID_80_">
					<use xlink:href="#SVGID_79_"  style="overflow:visible;"/>
				</clipPath>
				<path class="st38" d="M107.1,85.1c0,2.4-1.9,4.3-4.4,4.3c-2.4,0-4.4-1.9-4.4-4.3c0-2.4,1.9-4.3,4.4-4.3
					C105.1,80.8,107.1,82.7,107.1,85.1z"/>
			</g>
			<g class="st5">
				<defs>
					<rect id="SVGID_81_" x="54.4" y="40.5" width="88.8" height="79.9"/>
				</defs>
				<clipPath id="SVGID_82_">
					<use xlink:href="#SVGID_81_"  style="overflow:visible;"/>
				</clipPath>
				<path class="st39" d="M107.1,85.1c0,2.4-1.9,4.3-4.4,4.3c-2.4,0-4.4-1.9-4.4-4.3c0-2.4,1.9-4.3,4.4-4.3
					C105.1,80.8,107.1,82.7,107.1,85.1z"/>
			</g>
		</g>
	</g>
	<rect y="-73.8" class="st40" width="375" height="375"/>
</g>
</svg>
