<svg width="250" height="197" viewBox="0 0 250 197" fill="none" xmlns="http://www.w3.org/2000/svg">
<path fill-rule="evenodd" clip-rule="evenodd" d="M207 63.9257C210.866 63.9257 214 67.0079 214 70.81C214 74.6121 210.866 77.6943 207 77.6943H167C170.866 77.6943 174 80.7765 174 84.5786C174 88.3806 170.866 91.4629 167 91.4629H189C192.866 91.4629 196 94.5451 196 98.3471C196 102.149 192.866 105.231 189 105.231H178.826C173.952 105.231 170 108.314 170 112.116C170 114.65 172 116.945 176 119C179.866 119 183 122.082 183 125.884C183 129.686 179.866 132.769 176 132.769H93C89.134 132.769 86 129.686 86 125.884C86 122.082 89.134 119 93 119H54C50.134 119 47 115.918 47 112.116C47 108.314 50.134 105.231 54 105.231H94C97.866 105.231 101 102.149 101 98.3471C101 94.5451 97.866 91.4629 94 91.4629H69C65.134 91.4629 62 88.3806 62 84.5786C62 80.7765 65.134 77.6943 69 77.6943H109C105.134 77.6943 102 74.6121 102 70.81C102 67.0079 105.134 63.9257 109 63.9257H207ZM207 91.4629C210.866 91.4629 214 94.5451 214 98.3471C214 102.149 210.866 105.231 207 105.231C203.134 105.231 200 102.149 200 98.3471C200 94.5451 203.134 91.4629 207 91.4629Z" fill="#F2F2F2"/>
<path d="M120.5 130.802C139.002 130.802 154 116.051 154 97.8553C154 79.6596 139.002 64.9091 120.5 64.9091C101.998 64.9091 87 79.6596 87 97.8553C87 116.051 101.998 130.802 120.5 130.802Z" fill="#F2F2F2" stroke="#666666" stroke-width="2.5"/>
<path fill-rule="evenodd" clip-rule="evenodd" d="M115.132 123.42C116.891 123.739 118.68 123.905 120.5 123.917C135.136 123.917 147 112.249 147 97.8553C147 83.4617 135.136 71.7933 120.5 71.7933C116.74 71.7933 113.164 72.5633 109.924 73.9517C104.294 76.3644 99.6816 80.6445 96.896 85.9965C95.0445 89.5538 94 93.5846 94 97.8553C94 101.73 94.8599 105.408 96.4021 108.713C97.5032 111.073 98.9521 113.243 100.684 115.16" fill="white"/>
<path d="M115.132 123.42C116.891 123.739 118.68 123.905 120.5 123.917C135.136 123.917 147 112.249 147 97.8553C147 83.4617 135.136 71.7933 120.5 71.7933C116.74 71.7933 113.164 72.5633 109.924 73.9517C104.294 76.3644 99.6816 80.6445 96.896 85.9965C95.0445 89.5538 94 93.5846 94 97.8553C94 101.73 94.8599 105.408 96.4021 108.713C97.5032 111.073 98.9521 113.243 100.684 115.16" stroke="#666666" stroke-width="2.5" stroke-linecap="round"/>
<path d="M103.798 118.09C105.946 119.807 108.373 121.2 111.001 122.193" stroke="#666666" stroke-width="2.5" stroke-linecap="round"/>
<path d="M148 123.917L154 129.818" stroke="#666666" stroke-width="2.5"/>
<path fill-rule="evenodd" clip-rule="evenodd" d="M153.03 128.864C151.137 130.726 151.137 133.744 153.03 135.605L164.115 146.507C166.008 148.369 169.077 148.369 170.969 146.507C172.862 144.646 172.862 141.628 170.969 139.767L159.884 128.864C157.991 127.003 154.923 127.003 153.03 128.864Z" fill="#FFFAE5" stroke="#666666" stroke-width="2.5"/>
<path d="M158 130.802L169 141.62" stroke="white" stroke-width="2.5" stroke-linecap="round"/>
<path fill-rule="evenodd" clip-rule="evenodd" d="M114.001 86.5455C114.001 97.9517 123.403 107.198 135.001 107.198C137.279 107.198 139.472 106.842 141.527 106.182C138.174 114.365 130.023 120.142 120.501 120.142C107.985 120.142 97.8398 110.164 97.8398 97.8554C97.8398 86.7024 106.17 77.4629 117.046 75.8267C115.113 78.9524 114.001 82.6211 114.001 86.5455Z" fill="#FFFAE5"/>
<path d="M121 79.6611C119.727 79.6611 118.482 79.7843 117.279 80.0193M113.645 81.1128C106.804 83.94 102 90.5918 102 98.3471" stroke="#FFD21F" stroke-width="2.5" stroke-linecap="round"/>
<path d="M174.176 98.128H166M180.5 90.4792H163.324H180.5ZM187.5 90.4792H185.279H187.5Z" stroke="#FFD21F" stroke-width="2.5" stroke-linecap="round" stroke-linejoin="round"/>
<path d="M84.1763 119.764H76.0005M79.5005 111.132H62.3247H79.5005ZM56.5005 111.132H52.2793H56.5005Z" stroke="#FFD21F" stroke-width="2.5" stroke-linecap="round" stroke-linejoin="round"/>
</svg>
