<svg width="238" height="191" viewBox="0 0 238 191" fill="none" xmlns="http://www.w3.org/2000/svg">
<path fill-rule="evenodd" clip-rule="evenodd" d="M197.064 61.88C200.745 61.88 203.728 64.8636 203.728 68.544C203.728 72.2244 200.745 75.208 197.064 75.208H158.984C162.665 75.208 165.648 78.1916 165.648 81.872C165.648 85.5524 162.665 88.536 158.984 88.536H179.928C183.609 88.536 186.592 91.5196 186.592 95.2C186.592 98.8804 183.609 101.864 179.928 101.864H170.243C165.602 101.864 161.84 104.848 161.84 108.528C161.84 110.982 163.744 113.203 167.552 115.192C171.233 115.192 174.216 118.176 174.216 121.856C174.216 125.536 171.233 128.52 167.552 128.52H88.5361C84.8557 128.52 81.8721 125.536 81.8721 121.856C81.8721 118.176 84.8557 115.192 88.5361 115.192H51.4081C47.7277 115.192 44.7441 112.208 44.7441 108.528C44.7441 104.848 47.7277 101.864 51.4081 101.864H89.4881C93.1686 101.864 96.1521 98.8804 96.1521 95.2C96.1521 91.5196 93.1686 88.536 89.4881 88.536H65.6881C62.0077 88.536 59.0241 85.5524 59.0241 81.872C59.0241 78.1916 62.0077 75.208 65.6881 75.208H103.768C100.088 75.208 97.1041 72.2244 97.1041 68.544C97.1041 64.8636 100.088 61.88 103.768 61.88H197.064ZM197.064 88.536C200.745 88.536 203.728 91.5196 203.728 95.2C203.728 98.8804 200.745 101.864 197.064 101.864C193.384 101.864 190.4 98.8804 190.4 95.2C190.4 91.5196 193.384 88.536 197.064 88.536Z" fill="#F2F2F2"/>
<path fill-rule="evenodd" clip-rule="evenodd" d="M146.295 60.9276L155.15 125.514L155.946 131.994C156.202 134.081 154.718 135.981 152.63 136.237L96.881 143.082C94.7936 143.339 92.8936 141.854 92.6373 139.767L84.0543 69.8638C83.9262 68.8201 84.6684 67.8701 85.7121 67.742C85.7187 67.7412 85.7253 67.7404 85.7319 67.7396L90.357 67.2208M94.097 66.8013L98.4639 66.3114L94.097 66.8013Z" fill="white"/>
<path d="M147.533 60.7578C147.44 60.0739 146.809 59.5954 146.125 59.6892C145.441 59.783 144.963 60.4135 145.056 61.0974L146.295 60.9276L147.533 60.7578ZM155.15 125.514L156.391 125.362C156.39 125.356 156.389 125.35 156.389 125.344L155.15 125.514ZM155.946 131.994L157.187 131.841L155.946 131.994ZM152.63 136.237L152.783 137.478L152.63 136.237ZM96.881 143.082L97.0333 144.323L96.881 143.082ZM92.6373 139.767L93.878 139.614L92.6373 139.767ZM84.0543 69.8638L85.295 69.7115L84.0543 69.8638ZM85.7319 67.7396L85.8712 68.9818L85.7319 67.7396ZM90.4964 68.463C91.1824 68.3861 91.6762 67.7675 91.5992 67.0815C91.5223 66.3954 90.9037 65.9016 90.2177 65.9786L90.357 67.2208L90.4964 68.463ZM93.9576 65.5591C93.2716 65.636 92.7778 66.2546 92.8548 66.9406C92.9317 67.6267 93.5503 68.1205 94.2363 68.0435L94.097 66.8013L93.9576 65.5591ZM98.6032 67.5536C99.2893 67.4767 99.783 66.8581 99.7061 66.1721C99.6291 65.486 99.0106 64.9923 98.3245 65.0692L98.4639 66.3114L98.6032 67.5536ZM146.295 60.9276L145.056 61.0974L153.912 125.684L155.15 125.514L156.389 125.344L147.533 60.7578L146.295 60.9276ZM155.15 125.514L153.91 125.666L154.705 132.146L155.946 131.994L157.187 131.841L156.391 125.362L155.15 125.514ZM155.946 131.994L154.705 132.146C154.877 133.548 153.88 134.824 152.478 134.997L152.63 136.237L152.783 137.478C155.555 137.137 157.527 134.614 157.187 131.841L155.946 131.994ZM152.63 136.237L152.478 134.997L96.7287 141.842L96.881 143.082L97.0333 144.323L152.783 137.478L152.63 136.237ZM96.881 143.082L96.7287 141.842C95.3265 142.014 94.0502 141.017 93.878 139.614L92.6373 139.767L91.3966 139.919C91.7371 142.692 94.2607 144.663 97.0333 144.323L96.881 143.082ZM92.6373 139.767L93.878 139.614L85.295 69.7115L84.0543 69.8638L82.8136 70.0161L91.3966 139.919L92.6373 139.767ZM84.0543 69.8638L85.295 69.7115C85.251 69.353 85.5059 69.0267 85.8644 68.9826L85.7121 67.742L85.5597 66.5013C83.8308 66.7136 82.6013 68.2872 82.8136 70.0161L84.0543 69.8638ZM85.7121 67.742L85.8644 68.9826C85.8667 68.9824 85.8689 68.9821 85.8712 68.9818L85.7319 67.7396L85.5925 66.4974C85.5816 66.4987 85.5707 66.4999 85.5597 66.5013L85.7121 67.742ZM85.7319 67.7396L85.8712 68.9818L90.4964 68.463L90.357 67.2208L90.2177 65.9786L85.5925 66.4974L85.7319 67.7396ZM94.097 66.8013L94.2363 68.0435L98.6032 67.5536L98.4639 66.3114L98.3245 65.0692L93.9576 65.5591L94.097 66.8013Z" fill="#B3B3B3"/>
<path fill-rule="evenodd" clip-rule="evenodd" d="M143.886 64.9926L151.902 123.525L152.623 129.397C152.855 131.289 151.528 133.009 149.658 133.238L99.7337 139.368C97.8643 139.598 96.1606 138.25 95.9284 136.358L88.1812 73.2633C88.0466 72.167 88.8263 71.1691 89.9226 71.0345L96.0035 70.2878" fill="#FFFAE5"/>
<path d="M105.551 48.85H148.649C149.378 48.85 150.078 49.1393 150.594 49.6547L163.278 62.3324C163.794 62.8482 164.085 63.5481 164.085 64.2777V123.568C164.085 125.086 162.854 126.318 161.335 126.318H105.551C104.032 126.318 102.801 125.087 102.801 123.568V51.6C102.801 50.0812 104.032 48.85 105.551 48.85Z" fill="white" stroke="#B3B3B3" stroke-width="2.5"/>
<path d="M149.152 49.887V60.9275C149.152 62.5048 150.431 63.7835 152.008 63.7835H159.561" stroke="#B3B3B3" stroke-width="2.5" stroke-linecap="round" stroke-linejoin="round"/>
<path d="M112.336 112.336H137.088M112.336 63.7839H137.088H112.336ZM112.336 75.2079H153.272H112.336ZM112.336 87.5839H153.272H112.336ZM112.336 99.9599H153.272H112.336Z" stroke="#FFD21F" stroke-width="2.5" stroke-linecap="round" stroke-linejoin="round"/>
</svg>
