<svg width="234" height="188" viewBox="0 0 234 188" fill="none" xmlns="http://www.w3.org/2000/svg">
<path fill-rule="evenodd" clip-rule="evenodd" d="M193.752 60.9053C197.371 60.9053 200.304 63.8419 200.304 67.4643C200.304 71.0868 197.371 74.0234 193.752 74.0234H156.312C159.931 74.0234 162.864 76.96 162.864 80.5824C162.864 84.2049 159.931 87.1415 156.312 87.1415H176.904C180.523 87.1415 183.456 90.0781 183.456 93.7006C183.456 97.323 180.523 100.26 176.904 100.26H167.381C162.819 100.26 159.12 103.196 159.12 106.819C159.12 109.234 160.992 111.42 164.736 113.378C168.355 113.378 171.288 116.314 171.288 119.937C171.288 123.559 168.355 126.496 164.736 126.496H87.0482C83.4296 126.496 80.4962 123.559 80.4962 119.937C80.4962 116.314 83.4296 113.378 87.0482 113.378H50.5442C46.9256 113.378 43.9922 110.441 43.9922 106.819C43.9922 103.196 46.9256 100.26 50.5442 100.26H87.9842C91.6028 100.26 94.5362 97.323 94.5362 93.7006C94.5362 90.0781 91.6028 87.1415 87.9842 87.1415H64.5842C60.9656 87.1415 58.0322 84.2049 58.0322 80.5824C58.0322 76.96 60.9656 74.0234 64.5842 74.0234H102.024C98.4056 74.0234 95.4722 71.0868 95.4722 67.4643C95.4722 63.8419 98.4056 60.9053 102.024 60.9053H193.752ZM193.752 87.1415C197.371 87.1415 200.304 90.0781 200.304 93.7006C200.304 97.323 197.371 100.26 193.752 100.26C190.134 100.26 187.2 97.323 187.2 93.7006C187.2 90.0781 190.134 87.1415 193.752 87.1415Z" fill="#F2F2F2"/>
<path fill-rule="evenodd" clip-rule="evenodd" d="M164.844 75.5615C164.844 89.0936 153.878 100.063 140.351 100.063C126.824 100.063 115.858 89.0936 115.858 75.5615C115.858 62.0295 126.824 51.0596 140.351 51.0596C153.876 51.0641 164.84 62.0313 164.844 75.5615Z" fill="#FFFAE5"/>
<path fill-rule="evenodd" clip-rule="evenodd" d="M140.35 51.0596C139.534 51.0596 138.718 51.1053 137.922 51.1853C150.423 52.4517 159.938 62.9748 159.948 75.5437C159.957 88.1127 150.458 98.6505 137.96 99.9361C138.747 100.013 139.542 100.063 140.35 100.063C153.878 100.063 164.843 89.0936 164.843 75.5615C164.843 62.0295 153.878 51.0596 140.35 51.0596Z" fill="#FFD21F"/>
<path fill-rule="evenodd" clip-rule="evenodd" d="M136.155 132.455C128.917 133.993 121.586 135.052 114.209 135.624C111.057 135.853 107.775 136 104.428 136C101.08 136 97.7984 135.853 94.647 135.624C87.27 135.052 79.9388 133.993 72.7012 132.455C71.5693 132.208 70.6532 131.379 70.2939 130.277C69.9346 129.175 70.1858 127.965 70.954 127.097C76.8283 120.193 80.0169 111.401 79.9348 102.334V93.5297C79.9269 86.8223 82.6715 80.4056 87.527 75.7799C92.3825 71.1542 98.9232 68.7251 105.62 69.0604C107.428 69.1428 109.22 69.4389 110.959 69.9425C112.752 70.4514 114.478 71.1697 116.103 72.0823C114.644 82.3327 119.772 92.3964 128.921 97.2377V102.334C128.842 111.4 132.03 120.191 137.902 127.097C138.67 127.965 138.921 129.175 138.562 130.277C138.202 131.379 137.286 132.208 136.155 132.455Z" fill="#FFFAE5"/>
<path fill-rule="evenodd" clip-rule="evenodd" d="M137.901 127.098C132.029 120.191 128.841 111.4 128.92 102.334V97.2379C119.772 92.3966 114.643 82.3329 116.102 72.0826C114.478 71.1699 112.751 70.4517 110.959 69.9427C109.22 69.4391 107.428 69.143 105.619 69.0606C104.346 69 103.07 69.0382 101.803 69.175C103.243 69.2981 104.668 69.5551 106.06 69.9427C107.853 70.4517 109.579 71.1699 111.204 72.0826C109.745 82.3329 114.873 92.3966 124.022 97.2379V102.334C123.942 111.4 127.131 120.191 133.002 127.098C133.771 127.965 134.022 129.175 133.663 130.277C133.303 131.379 132.387 132.208 131.255 132.455C124.018 133.993 116.686 135.052 109.31 135.624C106.935 135.788 104.473 135.899 101.978 135.951C102.794 135.969 103.601 136.002 104.427 136.002C107.775 136.002 111.057 135.855 114.208 135.626C121.585 135.054 128.916 133.995 136.154 132.457C137.286 132.21 138.203 131.381 138.563 130.278C138.922 129.176 138.67 127.965 137.901 127.098Z" fill="#FFD21F"/>
<path fill-rule="evenodd" clip-rule="evenodd" d="M114.225 136C114.225 141.413 109.839 145.801 104.428 145.801C99.0171 145.801 94.6307 141.413 94.6307 136C94.6277 135.874 94.6331 135.749 94.647 135.624C97.7985 135.853 101.081 136 104.428 136C107.775 136 111.057 135.853 114.209 135.624C114.223 135.749 114.228 135.874 114.225 136Z" fill="#FFFAE5"/>
<path fill-rule="evenodd" clip-rule="evenodd" d="M114.209 135.624C112.611 135.739 110.982 135.831 109.322 135.898V136C109.315 140.463 106.294 144.358 101.974 145.474C104.907 146.248 108.034 145.614 110.434 143.758C112.834 141.902 114.235 139.035 114.225 136C114.228 135.874 114.223 135.749 114.209 135.624Z" fill="#FFD21F"/>
<path fill-rule="evenodd" clip-rule="evenodd" d="M110.959 65.7609V69.9426C109.22 69.439 107.428 69.1429 105.619 69.0605C103.016 68.9321 100.409 69.2188 97.896 69.9099V65.7609C97.896 62.1524 100.82 59.2271 104.427 59.2271C108.035 59.2271 110.959 62.1524 110.959 65.7609Z" fill="#FFD21F"/>
<path fill-rule="evenodd" clip-rule="evenodd" d="M72.7012 132.455C79.9388 133.993 87.27 135.051 94.647 135.624C94.633 135.748 94.6276 135.874 94.6306 135.999C94.6362 140.895 98.2527 145.036 103.102 145.699L103.221 145.719C104.47 145.885 105.74 145.797 106.954 145.459C102.603 144.382 99.5427 140.483 99.5292 135.999C99.5262 135.874 99.5316 135.748 99.5456 135.624C92.1686 135.051 84.8374 133.993 77.5998 132.455C76.4679 132.207 75.5518 131.378 75.1925 130.276C74.8332 129.175 75.0844 127.965 75.8526 127.097C81.727 120.192 84.9155 111.4 84.8334 102.334V93.5294C84.8311 82.5118 92.1802 72.8475 102.795 69.9095V65.7605C102.8 63.1029 104.414 60.7133 106.877 59.7167C104.866 58.8915 102.576 59.1248 100.773 60.3385C98.9693 61.5522 97.8902 63.5861 97.8964 65.7605V69.9095C87.2816 72.8475 79.9325 82.5118 79.9348 93.5294V102.334C80.0169 111.4 76.8283 120.192 70.954 127.097C70.1858 127.965 69.9346 129.175 70.2939 130.276C70.6532 131.378 71.5693 132.207 72.7012 132.455Z" fill="white"/>
<path fill-rule="evenodd" clip-rule="evenodd" d="M81.9501 80.248L84.7602 81.9109C82.6916 85.4349 81.5903 89.4431 81.568 93.5297H78.3022C78.3255 88.8581 79.584 84.2758 81.9501 80.248Z" fill="white"/>
<path fill-rule="evenodd" clip-rule="evenodd" d="M80.8476 88.6912C79.9458 88.6958 79.2111 87.9681 79.2066 87.0659C79.2021 86.1638 79.9295 85.4288 80.8313 85.4243H80.8476C81.7494 85.4243 82.4805 86.1556 82.4805 87.0578C82.4805 87.9599 81.7494 88.6912 80.8476 88.6912Z" fill="#B3B3B3"/>
<path d="M72.3632 134.053C79.1923 135.493 86.1021 136.519 93.055 137.125C93.6413 142.969 98.5573 147.417 104.428 147.417C110.298 147.417 115.215 142.969 115.801 137.125C122.751 136.52 129.658 135.495 136.484 134.056C138.168 133.716 139.543 132.502 140.088 130.872C140.661 129.203 140.298 127.355 139.136 126.027C133.519 119.42 130.472 111.008 130.554 102.334V99.7728C140.697 103.888 152.329 101.243 159.696 93.1448C167.063 85.0469 168.603 73.2136 163.554 63.4986C158.506 53.7836 147.938 48.2466 137.08 49.6268C126.222 51.007 117.375 59.0118 114.916 69.6811C114.153 69.3348 113.378 69.0359 112.592 68.7697V65.7608C112.592 61.2501 108.937 57.5935 104.428 57.5935C99.9188 57.5935 96.2635 61.2501 96.2635 65.7608V68.7321C94.8013 69.1979 93.3877 69.8046 92.0426 70.5436C89.9645 71.6715 88.0431 73.0669 86.3275 74.6942C84.6371 76.3495 83.1673 78.2162 81.9547 80.248C81.7153 80.6268 81.647 81.0892 81.7667 81.521C81.8865 81.9529 82.1831 82.314 82.5834 82.5153C83.358 82.9019 84.2994 82.6411 84.7649 81.9109C85.8269 80.1338 87.1121 78.5001 88.5891 77.0497C90.0919 75.6255 91.7751 74.4046 93.5954 73.4185C97.2607 71.4521 101.388 70.5103 105.543 70.6923C108.612 70.8445 111.614 71.6451 114.351 73.0412C114.272 73.871 114.225 74.7106 114.225 75.5616C114.238 84.8864 119.215 93.4982 127.288 98.1606V102.334C127.207 111.79 130.536 120.959 136.664 128.159C137.062 128.614 137.186 129.246 136.991 129.817C136.815 130.351 136.363 130.747 135.812 130.853C125.493 133.064 114.98 134.241 104.428 134.366C93.8717 134.243 83.354 133.067 73.0311 130.856C72.4824 130.749 72.0345 130.353 71.8603 129.822C71.6657 129.252 71.7902 128.621 72.1869 128.167C78.3183 120.965 81.6488 111.794 81.5677 102.334V93.5297C81.5677 92.6276 80.8367 91.8962 79.9348 91.8962C79.033 91.8962 78.302 92.6276 78.302 93.5297V102.334C78.3846 111.011 75.3362 119.426 69.7163 126.036C68.5563 127.363 68.1944 129.21 68.7676 130.877C69.3127 132.502 70.6835 133.713 72.3632 134.053ZM99.5293 67.9023V65.7608C99.5293 64.0101 100.463 62.3923 101.979 61.517C103.494 60.6416 105.362 60.6416 106.877 61.517C108.393 62.3923 109.327 64.0101 109.327 65.7608V67.8941C108.129 67.6514 106.916 67.4958 105.697 67.4286C103.63 67.3617 101.562 67.5206 99.5293 67.9023ZM117.491 75.5616C117.491 62.9317 127.726 52.6931 140.351 52.6931C152.976 52.6931 163.211 62.9317 163.211 75.5616C163.211 88.1915 152.976 98.4301 140.351 98.4301C127.731 98.4166 117.504 88.1859 117.491 75.5616ZM112.453 137.372C111.795 141.292 108.402 144.163 104.428 144.163C100.454 144.163 97.0613 141.292 96.4023 137.372C99.0149 137.535 101.708 137.633 104.428 137.633C107.148 137.633 109.838 137.534 112.453 137.372Z" fill="#B3B3B3"/>
<path fill-rule="evenodd" clip-rule="evenodd" d="M88.0987 93.5298C88.0987 84.5084 95.4094 77.1952 104.427 77.1952C105.329 77.1952 106.06 76.4638 106.06 75.5617C106.06 74.6595 105.329 73.9282 104.427 73.9282C93.6057 73.9282 84.833 82.7041 84.833 93.5298C84.833 94.4319 85.5641 95.1633 86.4659 95.1633C87.3677 95.1633 88.0987 94.4319 88.0987 93.5298Z" fill="#B3B3B3"/>
<path d="M147.781 81.6368C147.85 81.7065 147.906 81.7892 147.943 81.8802C147.981 81.9713 148 82.0689 148 82.1674C148 82.266 147.981 82.3635 147.943 82.4546C147.906 82.5456 147.85 82.6284 147.781 82.698C147.711 82.7677 147.628 82.823 147.537 82.8607C147.446 82.8984 147.348 82.9178 147.25 82.9178C147.151 82.9178 147.054 82.8984 146.963 82.8607C146.872 82.823 146.789 82.7677 146.719 82.698L140.5 76.4777L134.281 82.698C134.14 82.8388 133.949 82.9178 133.75 82.9178C133.551 82.9178 133.36 82.8388 133.219 82.698C133.079 82.5573 133 82.3664 133 82.1674C133 81.9684 133.079 81.7775 133.219 81.6368L139.44 75.4174L133.219 69.198C133.079 69.0573 133 68.8664 133 68.6674C133 68.4684 133.079 68.2775 133.219 68.1368C133.36 67.9961 133.551 67.917 133.75 67.917C133.949 67.917 134.14 67.9961 134.281 68.1368L140.5 74.3571L146.719 68.1368C146.86 67.9961 147.051 67.917 147.25 67.917C147.449 67.917 147.64 67.9961 147.781 68.1368C147.921 68.2775 148 68.4684 148 68.6674C148 68.8664 147.921 69.0573 147.781 69.198L141.56 75.4174L147.781 81.6368Z" fill="#B3B3B3"/>
</svg>
