<svg width="229" height="183" viewBox="0 0 229 183" fill="none" xmlns="http://www.w3.org/2000/svg">
<path d="M124.576 58.5132C128.117 58.5132 130.988 61.3783 130.988 64.9126C130.988 68.4472 128.117 71.313 124.576 71.313H183.2C186.741 71.313 189.612 74.178 189.612 77.7124C189.612 81.247 186.741 84.1128 183.2 84.1128H203.352C206.893 84.1129 209.764 86.9779 209.764 90.5122C209.764 94.0467 206.893 96.9125 203.352 96.9126H185.948C182.407 96.9126 179.536 99.7776 179.536 103.312C179.536 106.847 182.407 109.712 185.948 109.712H191.444C194.985 109.712 197.856 112.577 197.856 116.112C197.856 119.646 194.985 122.512 191.444 122.512H143.812C143.34 122.512 142.881 122.461 142.438 122.365C141.995 122.461 141.536 122.512 141.064 122.512H57.7075C54.1664 122.512 51.2954 119.646 51.2954 116.112C51.2956 112.577 54.1665 109.713 57.7075 109.712H21.9839C18.4426 109.712 15.5718 106.847 15.5718 103.312C15.5719 99.7776 18.4427 96.9126 21.9839 96.9126H58.6235C62.1648 96.9126 65.0356 94.0468 65.0356 90.5122C65.0354 86.9778 62.1647 84.1128 58.6235 84.1128H35.7241C32.1829 84.1128 29.312 81.247 29.312 77.7124C29.3122 74.178 32.183 71.313 35.7241 71.313H72.3638C68.8225 71.313 65.9517 68.4472 65.9517 64.9126C65.9519 61.3783 68.8227 58.5132 72.3638 58.5132H124.576ZM207.016 109.712C210.557 109.713 213.428 112.577 213.428 116.112C213.428 119.646 210.557 122.512 207.016 122.512C203.475 122.512 200.604 119.646 200.604 116.112C200.604 112.577 203.475 109.712 207.016 109.712Z" fill="#F2F2F2"/>
<g clip-path="url(#clip0_3564_37669)">
<path d="M151.125 124.372H117.125C116.113 124.372 115.242 123.658 115.042 122.663L110.792 101.413C110.669 100.793 110.831 100.143 111.234 99.6497C111.634 99.1567 112.237 98.872 112.875 98.872H154.776L157.564 87.7327C157.844 86.5895 158.992 85.8882 160.139 86.1857C161.278 86.4705 161.971 87.6222 161.686 88.7612L153.186 122.761C152.948 123.709 152.098 124.372 151.125 124.372ZM118.867 120.122H149.467L153.717 103.122H115.467L118.867 120.122Z" fill="#B3B3B3"/>
<path d="M75.5 38.1219L71 69.1219H159.5L155.5 38.1219H75.5Z" fill="#FFFAE5"/>
<path d="M127.75 137.122C125.408 137.122 123.5 135.214 123.5 132.872C123.5 130.53 125.408 128.622 127.75 128.622C130.092 128.622 132 130.53 132 132.872C132 135.214 130.092 137.122 127.75 137.122Z" fill="#B3B3B3"/>
<path d="M144.75 137.122C142.408 137.122 140.5 135.214 140.5 132.872C140.5 130.53 142.408 128.622 144.75 128.622C147.092 128.622 149 130.53 149 132.872C149 135.214 147.092 137.122 144.75 137.122Z" fill="#B3B3B3"/>
<path d="M163.875 73.3719H66.125C64.952 73.3719 64 72.4199 64 71.2469C64 70.0739 64.952 69.1219 66.125 69.1219H163.875C165.048 69.1219 166 70.0739 166 71.2469C166 72.4199 165.048 73.3719 163.875 73.3719Z" fill="#B3B3B3"/>
<path d="M159.625 73.3719H70.3748C69.7628 73.3719 69.1848 73.1084 68.7811 72.6537C68.3773 72.1947 68.1903 71.5869 68.2668 70.9834L72.0536 40.7064C72.4488 37.5232 75.1688 35.1219 78.3776 35.1219H151.622C154.831 35.1219 157.551 37.5232 157.946 40.7064L161.733 70.9834C161.809 71.5869 161.622 72.1947 161.219 72.6537C160.815 73.1084 160.237 73.3719 159.625 73.3719ZM72.7803 69.1219H157.215L153.73 41.2334C153.598 40.1709 152.693 39.3719 151.622 39.3719H78.3776C77.3066 39.3719 76.4013 40.1709 76.2696 41.2334L72.7803 69.1219Z" fill="#B3B3B3"/>
<path d="M91.6249 73.3719C91.5399 73.3719 91.4507 73.3677 91.3614 73.3549C90.1969 73.2104 89.3724 72.1479 89.5169 70.9834L93.7669 36.9834C93.9114 35.8189 94.9654 34.9986 96.1384 35.1389C97.3029 35.2834 98.1274 36.3459 97.9829 37.5104L93.7329 71.5104C93.5969 72.5857 92.6832 73.3719 91.6249 73.3719Z" fill="#B3B3B3"/>
<path d="M115 73.3719C113.827 73.3719 112.875 72.4199 112.875 71.2469V37.2469C112.875 36.0739 113.827 35.1219 115 35.1219C116.173 35.1219 117.125 36.0739 117.125 37.2469V71.2469C117.125 72.4199 116.173 73.3719 115 73.3719Z" fill="#B3B3B3"/>
<path d="M138.375 73.3719C137.317 73.3719 136.403 72.5857 136.267 71.5104L132.017 37.5104C131.873 36.3459 132.697 35.2834 133.862 35.1389C135.039 34.9986 136.085 35.8189 136.233 36.9834L140.483 70.9834C140.628 72.1479 139.803 73.2104 138.639 73.3549C138.55 73.3677 138.46 73.3719 138.375 73.3719Z" fill="#B3B3B3"/>
<path d="M104.375 128.622H83.125C77.2685 128.622 72.5 123.858 72.5 117.997V71.2469C72.5 70.0739 73.452 69.1219 74.625 69.1219H155.375C156.548 69.1219 157.5 70.0739 157.5 71.2469C157.5 72.4199 156.548 73.3719 155.375 73.3719H76.75V117.997C76.75 121.512 79.6102 124.372 83.125 124.372H104.375C105.548 124.372 106.5 125.324 106.5 126.497C106.5 127.67 105.548 128.622 104.375 128.622Z" fill="#B3B3B3"/>
<path d="M100.125 111.622H91.625C88.1102 111.622 85.25 108.762 85.25 105.247V92.4969C85.25 88.9822 88.1102 86.1219 91.625 86.1219H104.375C105.548 86.1219 106.5 87.0739 106.5 88.2469C106.5 89.4199 105.548 90.3719 104.375 90.3719H91.625C90.452 90.3719 89.5 91.3282 89.5 92.4969V105.247C89.5 106.416 90.452 107.372 91.625 107.372H100.125C101.298 107.372 102.25 108.324 102.25 109.497C102.25 110.67 101.298 111.622 100.125 111.622Z" fill="#FFD21F"/>
</g>
<path d="M155.748 18.6076C157.266 18.6076 158.496 17.3796 158.496 15.8648C158.496 14.3499 157.266 13.1219 155.748 13.1219C154.23 13.1219 153 14.3499 153 15.8648C153 17.3796 154.23 18.6076 155.748 18.6076Z" stroke="#FFD21F" stroke-width="2"/>
<path d="M184.144 33.2355C185.661 33.2355 186.892 32.0075 186.892 30.4927C186.892 28.9779 185.661 27.7499 184.144 27.7499C182.626 27.7499 181.396 28.9779 181.396 30.4927C181.396 32.0075 182.626 33.2355 184.144 33.2355Z" fill="#FFD21F"/>
<path d="M162.854 25.7001L170.51 33.3417M170.626 25.7001L162.97 33.3417L170.626 25.7001Z" stroke="#FFD21F" stroke-width="2.5" stroke-linecap="round" stroke-linejoin="round"/>
<path d="M56 33.0092L61.496 38.4948M61.496 33.0092L56 38.4948L61.496 33.0092Z" stroke="#FFD21F" stroke-width="2.5" stroke-linecap="round" stroke-linejoin="round"/>
<path d="M68.4545 26.9787C69.9722 26.9787 71.2025 25.7507 71.2025 24.2358C71.2025 22.721 69.9722 21.493 68.4545 21.493C66.9369 21.493 65.7065 22.721 65.7065 24.2358C65.7065 25.7507 66.9369 26.9787 68.4545 26.9787Z" fill="#FFD21F"/>
<defs>
<clipPath id="clip0_3564_37669">
<rect width="102" height="102" fill="white" transform="translate(64 35.1219)"/>
</clipPath>
</defs>
</svg>
