<svg width="250" height="200" viewBox="0 0 250 200" fill="none" xmlns="http://www.w3.org/2000/svg">
<path fill-rule="evenodd" clip-rule="evenodd" d="M207 65C210.866 65 214 68.134 214 72C214 75.866 210.866 79 207 79H167C170.866 79 174 82.134 174 86C174 89.866 170.866 93 167 93H189C192.866 93 196 96.134 196 100C196 103.866 192.866 107 189 107H178.826C173.952 107 170 110.134 170 114C170 116.577 172 118.911 176 121C179.866 121 183 124.134 183 128C183 131.866 179.866 135 176 135H93C89.134 135 86 131.866 86 128C86 124.134 89.134 121 93 121H54C50.134 121 47 117.866 47 114C47 110.134 50.134 107 54 107H94C97.866 107 101 103.866 101 100C101 96.134 97.866 93 94 93H69C65.134 93 62 89.866 62 86C62 82.134 65.134 79 69 79H109C105.134 79 102 75.866 102 72C102 68.134 105.134 65 109 65H207ZM207 93C210.866 93 214 96.134 214 100C214 103.866 210.866 107 207 107C203.134 107 200 103.866 200 100C200 96.134 203.134 93 207 93Z" fill="#F2F2F2"/>
<path d="M163.013 73.0786C166.799 73.0786 169.869 70.0093 169.869 66.2231C169.869 62.437 166.799 59.3677 163.013 59.3677C159.227 59.3677 156.158 62.437 156.158 66.2231C156.158 70.0093 159.227 73.0786 163.013 73.0786Z" fill="#FFD21F"/>
<path d="M86.4604 129.065C89.6163 129.065 92.1733 131.622 92.1733 134.778C92.1733 137.934 89.6163 140.491 86.4604 140.491C83.3046 140.491 80.7476 137.934 80.7476 134.778C80.7476 131.622 83.3046 129.065 86.4604 129.065Z" fill="#FFD21F"/>
<path d="M169.736 84.4152C170.1 85.2881 169.688 86.2913 168.815 86.6569C167.943 87.0226 166.937 86.609 166.574 85.736C166.208 84.8631 166.622 83.8576 167.494 83.4943C168.367 83.1287 169.371 83.54 169.736 84.4152Z" fill="#B3B3B3"/>
<path d="M168.461 141.455C168.827 142.328 168.413 143.331 167.54 143.697C166.667 144.063 165.664 143.649 165.298 142.776C164.933 141.903 165.346 140.9 166.219 140.534C167.092 140.169 168.095 140.582 168.461 141.455Z" fill="#B3B3B3"/>
<path d="M100.473 76.2754C98.6882 78.0601 98.6882 80.9554 100.473 82.7401C102.258 84.5248 105.151 84.5248 106.935 82.7401C108.72 80.9554 108.72 78.0601 106.935 76.2754C105.151 74.4907 102.258 74.4907 100.473 76.2754ZM91.5862 67.3884H128.749L167.289 105.928C171.438 110.077 171.438 116.805 167.289 120.955L145.15 143.091C141 147.241 134.273 147.241 130.123 143.091L91.5859 104.554L91.5862 67.3884Z" fill="white"/>
<path d="M141.172 54.7082C141.537 55.5811 141.124 56.5843 140.251 56.9499C139.378 57.3155 138.375 56.9019 138.009 56.029C137.646 55.1561 138.057 54.1506 138.93 53.7873C139.803 53.4216 140.808 53.833 141.172 54.7082Z" fill="#B3B3B3"/>
<path d="M111.465 136.974C111.83 137.846 111.417 138.85 110.544 139.215C109.671 139.579 108.665 139.167 108.302 138.295C107.936 137.422 108.348 136.416 109.223 136.053C110.096 135.687 111.099 136.101 111.465 136.974Z" fill="#B3B3B3"/>
<path d="M106.894 54.7081C107.26 55.581 106.846 56.5865 105.973 56.9498C105.1 57.3155 104.095 56.9041 103.732 56.0289C103.366 55.156 103.777 54.1528 104.653 53.7872C105.525 53.4216 106.528 53.8352 106.894 54.7081Z" fill="#B3B3B3"/>
<path d="M81.7577 82.13C82.1233 83.0029 81.712 84.0084 80.8368 84.3717C79.9638 84.7373 78.9607 84.3237 78.595 83.4508C78.2294 82.5779 78.643 81.5747 79.516 81.2091C80.3889 80.8434 81.3944 81.257 81.7577 82.13Z" fill="#B3B3B3"/>
<path d="M137.636 147.346C134.493 147.346 131.538 146.122 129.315 143.899L90.7779 105.362C90.5636 105.148 90.4434 104.857 90.4434 104.554V67.3884C90.4434 66.7575 90.955 66.2458 91.5859 66.2458H128.749C129.052 66.2458 129.343 66.3663 129.557 66.5804L168.096 105.12C172.685 109.708 172.685 117.174 168.096 121.762L145.958 143.899C143.735 146.122 140.78 147.346 137.636 147.346ZM92.7285 104.081L130.931 142.283C132.722 144.074 135.104 145.061 137.636 145.061C140.169 145.061 142.551 144.074 144.342 142.283L166.481 120.147C170.178 116.449 170.178 110.433 166.481 106.736L128.276 68.531H92.7285V104.081Z" fill="#B3B3B3"/>
<path d="M103.704 85.2211C102.178 85.2211 100.744 84.627 99.6649 83.5479C98.5858 82.4689 97.9917 81.0342 97.9917 79.5078C97.9917 77.9813 98.5858 76.5464 99.6649 75.4674C100.744 74.3883 102.178 73.7942 103.704 73.7942C105.23 73.7942 106.664 74.3883 107.743 75.4674C108.822 76.5464 109.417 77.9811 109.417 79.5078C109.417 81.0342 108.822 82.4689 107.743 83.5479C106.664 84.627 105.23 85.2211 103.704 85.2211ZM103.704 76.0796C102.789 76.0796 101.928 76.4361 101.281 77.0834C100.634 77.7308 100.277 78.5919 100.277 79.5078C100.277 80.4237 100.634 81.2847 101.281 81.9321C101.928 82.5795 102.789 82.936 103.704 82.936C104.619 82.936 105.48 82.5795 106.127 81.9321C106.775 81.2847 107.131 80.4237 107.131 79.5078C107.131 78.5916 106.775 77.7306 106.127 77.0834C105.48 76.4361 104.619 76.0796 103.704 76.0796Z" fill="#B3B3B3"/>
<path d="M100.473 77.4181C100.18 77.4181 99.8879 77.3066 99.6647 77.0836L81.0818 58.5007C80.6355 58.0544 80.6355 57.3309 81.0818 56.8848C81.5281 56.4388 82.2513 56.4388 82.6976 56.8848L101.281 75.4677C101.727 75.914 101.727 76.6375 101.281 77.0836C101.058 77.3066 100.765 77.4181 100.473 77.4181Z" fill="#B3B3B3"/>
<path d="M132.79 135.589C132.498 135.589 132.205 135.478 131.982 135.254C131.536 134.808 131.536 134.085 131.982 133.639L157.836 107.784C158.282 107.338 159.006 107.338 159.452 107.784C159.898 108.23 159.898 108.954 159.452 109.4L133.598 135.254C133.375 135.477 133.082 135.589 132.79 135.589Z" fill="#B3B3B3"/>
<path d="M127.943 130.742C127.651 130.742 127.358 130.631 127.135 130.408C126.689 129.961 126.689 129.238 127.135 128.792L152.987 102.937C153.433 102.491 154.156 102.491 154.603 102.937C155.049 103.384 155.049 104.107 154.603 104.553L128.751 130.407C128.528 130.631 128.235 130.742 127.943 130.742Z" fill="#B3B3B3"/>
<path d="M123.094 125.893C122.801 125.893 122.509 125.782 122.286 125.558C121.84 125.112 121.84 124.389 122.286 123.942L148.14 98.0907C148.586 97.6447 149.31 97.6444 149.756 98.0907C150.202 98.537 150.202 99.2603 149.756 99.7066L123.901 125.559C123.679 125.782 123.386 125.893 123.094 125.893Z" fill="#B3B3B3"/>
<path d="M118.247 121.046C117.955 121.046 117.662 120.935 117.439 120.711C116.993 120.265 116.993 119.542 117.439 119.096L143.294 93.2413C143.74 92.7952 144.463 92.7952 144.909 93.2413C145.356 93.6876 145.356 94.4111 144.909 94.8571L119.055 120.711C118.832 120.935 118.54 121.046 118.247 121.046Z" fill="#B3B3B3"/>
<path d="M119.165 110.434C118.873 110.434 118.581 110.322 118.358 110.099C117.911 109.653 117.911 108.93 118.358 108.484L132.679 94.1602C133.125 93.714 133.848 93.7137 134.294 94.1602C134.741 94.6063 134.741 95.3298 134.295 95.7761L119.974 110.099C119.75 110.322 119.458 110.434 119.165 110.434Z" fill="#B3B3B3"/>
<path d="M163.013 74.2212C158.603 74.2212 155.015 70.6333 155.015 66.2231C155.015 61.813 158.603 58.2251 163.013 58.2251C167.423 58.2251 171.011 61.813 171.011 66.2231C171.011 70.6333 167.423 74.2212 163.013 74.2212ZM163.013 60.5103C159.863 60.5103 157.3 63.0731 157.3 66.2231C157.3 69.3732 159.863 71.936 163.013 71.936C166.163 71.936 168.726 69.3732 168.726 66.2231C168.726 63.0731 166.163 60.5103 163.013 60.5103Z" fill="#B3B3B3"/>
<path d="M86.4604 141.633C82.6803 141.633 79.605 138.558 79.605 134.778C79.605 130.998 82.6803 127.922 86.4604 127.922C90.2406 127.922 93.3159 130.998 93.3159 134.778C93.3159 138.558 90.2406 141.633 86.4604 141.633ZM86.4604 130.208C83.9404 130.208 81.8901 132.258 81.8901 134.778C81.8901 137.298 83.9404 139.348 86.4604 139.348C88.9805 139.348 91.0308 137.298 91.0308 134.778C91.0308 132.258 88.9803 130.208 86.4604 130.208Z" fill="#B3B3B3"/>
</svg>
