<svg width="234" height="188" viewBox="0 0 234 188" fill="none" xmlns="http://www.w3.org/2000/svg">
<path fill-rule="evenodd" clip-rule="evenodd" d="M193.752 60.9055C197.371 60.9055 200.304 63.8421 200.304 67.4646C200.304 71.087 197.371 74.0236 193.752 74.0236H156.312C159.931 74.0236 162.864 76.9602 162.864 80.5827C162.864 84.2052 159.931 87.1417 156.312 87.1417H176.904C180.523 87.1417 183.456 90.0783 183.456 93.7008C183.456 97.3233 180.523 100.26 176.904 100.26H167.381C162.819 100.26 159.12 103.196 159.12 106.819C159.12 109.234 160.992 111.42 164.736 113.378C168.355 113.378 171.288 116.315 171.288 119.937C171.288 123.559 168.355 126.496 164.736 126.496H87.0482C83.4296 126.496 80.4962 123.559 80.4962 119.937C80.4962 116.315 83.4296 113.378 87.0482 113.378H50.5442C46.9256 113.378 43.9922 110.441 43.9922 106.819C43.9922 103.196 46.9256 100.26 50.5442 100.26H87.9842C91.6028 100.26 94.5362 97.3233 94.5362 93.7008C94.5362 90.0783 91.6028 87.1417 87.9842 87.1417H64.5842C60.9656 87.1417 58.0322 84.2052 58.0322 80.5827C58.0322 76.9602 60.9656 74.0236 64.5842 74.0236H102.024C98.4056 74.0236 95.4722 71.087 95.4722 67.4646C95.4722 63.8421 98.4056 60.9055 102.024 60.9055H193.752ZM193.752 87.1417C197.371 87.1417 200.304 90.0783 200.304 93.7008C200.304 97.3233 197.371 100.26 193.752 100.26C190.134 100.26 187.2 97.3233 187.2 93.7008C187.2 90.0783 190.134 87.1417 193.752 87.1417Z" fill="#F2F2F2"/>
<path fill-rule="evenodd" clip-rule="evenodd" d="M68.1133 88.0787H67.2261C61.5506 88.0787 56.9497 83.4796 56.9497 77.8063C56.9497 72.1331 61.5506 67.5339 67.2261 67.5339C67.2627 67.5339 67.2993 67.5341 67.3359 67.5345C68.2494 59.5778 74.7533 53.4094 82.6407 53.4094C90.954 53.4094 97.7302 60.262 98.0439 68.8383C103.071 69.1631 107.494 74.0607 107.494 79.1675C107.494 83.3606 104.392 88.0787 100.717 88.0787H75.1626" fill="white"/>
<path d="M68.1133 88.0787H67.2261C61.5506 88.0787 56.9497 83.4796 56.9497 77.8063C56.9497 72.1331 61.5506 67.534 67.2261 67.534C67.2627 67.534 67.2993 67.5341 67.3359 67.5345C68.2494 59.5778 74.7533 53.4094 82.6407 53.4094C90.954 53.4094 97.7302 60.262 98.0439 68.8383C103.071 69.1631 107.494 74.0607 107.494 79.1675C107.494 83.3606 104.392 88.0787 100.717 88.0787H75.1626" stroke="#FFD21F" stroke-width="2.5" stroke-linecap="round"/>
<path d="M121.68 45.2894C139.059 45.2894 153.189 59.6663 153.189 77.4535C153.189 82.926 150.894 90.0763 146.104 98.9711C141.328 107.839 134.141 118.32 124.519 130.422C124.398 130.574 124.266 130.716 124.124 130.846L123.979 130.972C122.414 132.266 120.119 132.028 118.842 130.422C109.219 118.32 102.031 107.839 97.2559 98.9711C92.4659 90.0763 90.1699 82.926 90.1699 77.4535C90.1701 59.6664 104.301 45.2896 121.68 45.2894Z" fill="white" stroke="#B3B3B3" stroke-width="2.5"/>
<path d="M133.164 51.265C142.928 55.8075 149.76 65.9658 149.76 77.8324C149.76 82.632 147.752 89.1923 143.243 97.6849C138.769 106.11 132 116.133 122.874 127.774C122.803 127.863 122.726 127.944 122.641 128.015C121.988 128.563 121.035 128.473 120.487 127.774C111.361 116.133 104.591 106.11 100.118 97.6849C99.0662 95.7046 98.1525 93.8284 97.3667 92.056C101.304 90.3245 105.034 88.2077 108.509 85.7543C111.118 90.3961 116.039 93.5248 121.68 93.5248C130.05 93.5248 136.834 86.6366 136.834 78.139C136.834 71.8747 133.147 66.4847 127.856 64.0844C130.064 60.0544 131.854 55.7622 133.164 51.265Z" fill="#FFFAE5"/>
<path d="M105.709 129.601C106.388 129.479 106.84 128.829 106.718 128.15C106.597 127.47 105.947 127.018 105.267 127.14L105.488 128.37L105.709 129.601ZM98.7319 128.67C98.0706 128.868 97.6952 129.565 97.8933 130.226C98.0915 130.887 98.7882 131.263 99.4495 131.065L99.0907 129.867L98.7319 128.67ZM95.6965 132.41C96.3304 132.136 96.6229 131.401 96.3496 130.767C96.0763 130.133 95.3409 129.841 94.7069 130.114L95.2017 131.262L95.6965 132.41ZM138.587 127.23C137.908 127.104 137.256 127.551 137.129 128.23C137.003 128.909 137.45 129.561 138.129 129.688L138.358 128.459L138.587 127.23ZM105.488 128.37L105.267 127.14C102.903 127.564 100.708 128.078 98.7319 128.67L99.0907 129.867L99.4495 131.065C101.322 130.504 103.423 130.01 105.709 129.601L105.488 128.37ZM95.2017 131.262L94.7069 130.114C92.6578 130.997 90.9421 132.018 89.7192 133.178C88.4948 134.339 87.6699 135.736 87.6699 137.332H88.9199H90.1699C90.1699 136.659 90.5108 135.872 91.4396 134.991C92.3701 134.109 93.7952 133.229 95.6965 132.41L95.2017 131.262ZM88.9199 137.332H87.6699C87.6699 139.334 88.9577 141.015 90.7483 142.347C92.5622 143.696 95.1073 144.859 98.14 145.813C104.22 147.726 112.542 148.889 121.68 148.889V147.639V146.389C112.725 146.389 104.667 145.246 98.8903 143.428C95.9945 142.517 93.742 141.458 92.2404 140.341C90.7156 139.207 90.1699 138.176 90.1699 137.332H88.9199ZM121.68 147.639V148.889C130.817 148.889 139.14 147.726 145.22 145.813C148.253 144.859 150.798 143.696 152.612 142.347C154.402 141.015 155.69 139.334 155.69 137.332H154.44H153.19C153.19 138.176 152.644 139.207 151.119 140.341C149.618 141.458 147.365 142.517 144.47 143.428C138.693 145.246 130.635 146.389 121.68 146.389V147.639ZM154.44 137.332H155.69C155.69 134.693 153.477 132.605 150.603 131.053C147.628 129.446 143.468 128.14 138.587 127.23L138.358 128.459L138.129 129.688C142.875 130.573 146.756 131.816 149.415 133.252C152.176 134.744 153.19 136.196 153.19 137.332H154.44Z" fill="#B3B3B3"/>
<path d="M121.68 63.0925C129.776 63.0926 136.342 69.6631 136.342 77.7712C136.342 85.8795 129.776 92.4509 121.68 92.4509C113.584 92.4509 107.018 85.8796 107.018 77.7712C107.018 69.6631 113.584 63.0925 121.68 63.0925Z" stroke="#B3B3B3" stroke-width="2.5"/>
<path fill-rule="evenodd" clip-rule="evenodd" d="M161.822 53.8467C160.907 51.559 159.097 49.7462 156.811 48.831L155.376 48.2561L156.811 47.6812C159.097 46.766 160.907 44.9532 161.822 42.6655L162.396 41.2285L162.97 42.6655C163.885 44.9532 165.695 46.766 167.981 47.6812L169.416 48.2561L167.981 48.831C165.695 49.7462 163.885 51.559 162.97 53.8467L162.396 55.2837L161.822 53.8467Z" stroke="#FFD21F" stroke-width="2.5" stroke-linejoin="round"/>
<path fill-rule="evenodd" clip-rule="evenodd" d="M142.919 119.937H142.272C138.137 119.937 134.784 116.581 134.784 112.441C134.784 108.301 138.137 104.945 142.272 104.945C142.299 104.945 142.326 104.945 142.352 104.945C143.018 99.1391 147.757 94.6378 153.504 94.6378C159.562 94.6378 164.499 99.6383 164.728 105.897C168.391 106.134 171.614 109.708 171.614 113.434C171.614 116.494 169.353 119.937 166.676 119.937H148.055" fill="white"/>
<path d="M142.919 119.937H142.272C138.137 119.937 134.784 116.581 134.784 112.441C134.784 108.301 138.137 104.945 142.272 104.945C142.299 104.945 142.326 104.945 142.352 104.945C143.018 99.1391 147.757 94.6378 153.504 94.6378C159.562 94.6378 164.499 99.6383 164.728 105.897C168.391 106.134 171.614 109.708 171.614 113.434C171.614 116.494 169.353 119.937 166.676 119.937H148.055" stroke="#FFD21F" stroke-width="2.5" stroke-linecap="round"/>
</svg>
