<svg width="375" height="366" viewBox="0 0 375 366" fill="none" xmlns="http://www.w3.org/2000/svg">
<g opacity="0.05">
<path d="M313.541 298.985H258.595V312.863H313.541V298.985Z" fill="#B3B3B3"/>
<path d="M268.136 99.4655C268.357 99.8692 268.568 100.262 268.805 100.638C269.046 101.061 269.287 101.437 269.577 101.833C269.92 102.369 270.318 102.9 270.775 103.404C271.095 103.799 271.463 104.206 271.845 104.573C272.262 104.991 272.741 105.42 273.219 105.821C273.324 105.929 273.46 106.006 273.573 106.114C274.447 106.808 275.354 107.422 276.331 107.947C276.436 108.036 276.541 108.086 276.673 108.138C277.102 108.379 277.531 108.586 277.987 108.752C278.643 109.07 279.339 109.336 280.058 109.549C280.401 109.684 280.778 109.786 281.181 109.867C281.306 109.925 281.441 109.95 281.577 109.975C281.92 110.052 282.263 110.104 282.617 110.157C283.012 110.237 283.385 110.295 283.784 110.342C283.889 110.373 283.991 110.373 284.104 110.373C284.738 110.456 285.404 110.475 286.074 110.475C286.729 110.475 287.393 110.456 288.037 110.373C288.142 110.373 288.256 110.373 288.358 110.342C288.759 110.295 289.129 110.237 289.528 110.157C289.871 110.104 290.214 110.052 290.568 109.975C290.7 109.95 290.83 109.922 290.957 109.867C291.358 109.786 291.735 109.684 292.078 109.549C292.797 109.336 293.491 109.07 294.157 108.752C294.605 108.586 295.031 108.379 295.46 108.138C295.595 108.086 295.698 108.036 295.803 107.947C296.782 107.422 297.697 106.811 298.571 106.114C298.673 106.006 298.809 105.929 298.914 105.821C299.395 105.42 299.879 104.994 300.299 104.573C300.673 104.203 301.049 103.796 301.359 103.404C301.809 102.897 302.216 102.367 302.559 101.833C302.849 101.437 303.098 101.061 303.328 100.638C303.568 100.262 303.778 99.8692 304.002 99.4655C304.049 99.3299 304.127 99.1972 304.16 99.0949C304.34 98.7492 304.495 98.3758 304.663 97.9997H290.197V101.62H281.956V97.9997H267.486C267.641 98.3758 267.807 98.7492 267.995 99.0949C268.006 99.1972 268.086 99.3299 268.136 99.4655Z" fill="#B3B3B3"/>
<path d="M307.476 97.9997C305.563 103.37 301.707 107.815 296.732 110.472H315.292V127.475H293.19V111.968C290.952 112.712 288.568 113.138 286.071 113.138C283.571 113.138 281.179 112.71 278.941 111.968V127.475H256.842V110.472H275.427C270.432 107.817 266.58 103.37 264.655 97.9997H214.134V345.574H271.336V315.521H259.58V336.376H242.586V305.794H255.938V298.985V296.328H258.598H313.544H316.204V298.985V305.794H329.554V336.376H312.554V315.521H300.795V345.577H358.003V97.9997H307.476ZM237.505 336.376H220.508V305.794H237.505V336.376ZM242.583 295.025H220.508V278.028H242.583V295.025ZM242.583 267.096H220.508V250.102H242.583V267.096ZM242.583 239.17H220.508V222.175H242.583V239.17ZM242.583 211.246H220.508V194.249H242.583V211.246ZM242.583 183.322H220.508V166.32H242.583V183.322ZM242.583 155.401H220.508V138.399H242.583V155.401ZM242.583 127.472H220.508V110.47H242.583V127.472ZM278.941 295.025H256.842V278.028H278.941V295.025ZM278.941 267.096H256.842V250.102H278.941V267.096ZM278.941 239.17H256.842V222.175H278.941V239.17ZM278.941 211.246H256.842V194.249H278.941V211.246ZM278.941 183.322H256.842V166.32H278.941V183.322ZM278.941 155.401H256.842V138.399H278.941V155.401ZM315.292 295.025H293.19V278.028H315.292V295.025ZM315.292 267.096H293.19V250.102H315.292V267.096ZM315.292 239.17H293.19V222.175H315.292V239.17ZM315.292 211.246H293.19V194.249H315.292V211.246ZM315.292 183.322H293.19V166.32H315.292V183.322ZM315.292 155.401H293.19V138.399H315.292V155.401ZM351.65 336.376H334.656V305.794H351.65V336.376ZM351.65 295.025H329.554V278.028H351.65V295.025ZM351.65 267.096H329.554V250.102H351.65V267.096ZM351.65 239.17H329.554V222.175H351.65V239.17ZM351.65 211.246H329.554V194.249H351.65V211.246ZM351.65 183.322H329.554V166.32H351.65V183.322ZM351.65 155.401H329.554V138.399H351.65V155.401ZM351.65 127.472H329.554V110.47H351.65V127.472Z" fill="#B3B3B3"/>
<path d="M312.553 305.794H313.544V298.985H258.595V305.794H259.577V312.866H312.553V305.794Z" fill="#B3B3B3"/>
<path d="M263.302 90.3671C263.302 89.4655 263.36 88.5833 263.465 87.7038H225.737V95.3533H263.86C263.504 93.7438 263.302 92.0789 263.302 90.3671Z" fill="#B3B3B3"/>
<path d="M308.67 87.7036C308.77 88.5831 308.839 89.468 308.839 90.3668C308.839 92.0787 308.637 93.7436 308.269 95.3503H346.401V87.7009H308.67V87.7036Z" fill="#B3B3B3"/>
<path d="M286.071 70.2641C274.945 70.2641 265.963 79.2521 265.963 90.3724C265.963 93.0854 266.491 95.6628 267.475 97.9997C267.63 98.3758 267.796 98.7492 267.984 99.0949C268.006 99.1972 268.087 99.3299 268.136 99.4655C268.358 99.8692 268.568 100.262 268.806 100.638C269.046 101.061 269.287 101.437 269.577 101.833C269.92 102.369 270.318 102.9 270.775 103.404C271.096 103.799 271.463 104.206 271.845 104.573C272.263 104.991 272.741 105.42 273.219 105.821C273.325 105.929 273.46 106.006 273.573 106.114C274.447 106.808 275.354 107.422 276.331 107.947C276.436 108.036 276.541 108.086 276.674 108.138C277.102 108.379 277.531 108.586 277.987 108.752C278.643 109.07 279.34 109.336 280.059 109.549C280.402 109.684 280.778 109.786 281.181 109.867C281.306 109.925 281.441 109.95 281.577 109.975C281.92 110.052 282.263 110.104 282.617 110.157C283.012 110.237 283.386 110.295 283.784 110.342C283.889 110.373 283.991 110.373 284.105 110.373C284.738 110.456 285.404 110.475 286.074 110.475C286.729 110.475 287.393 110.456 288.037 110.373C288.142 110.373 288.256 110.373 288.358 110.342C288.759 110.295 289.13 110.237 289.528 110.157C289.871 110.104 290.214 110.052 290.568 109.975C290.7 109.95 290.83 109.922 290.958 109.867C291.359 109.786 291.735 109.684 292.078 109.549C292.797 109.336 293.491 109.07 294.157 108.752C294.605 108.586 295.031 108.379 295.46 108.138C295.595 108.086 295.698 108.036 295.803 107.947C296.782 107.422 297.697 106.811 298.571 106.114C298.673 106.006 298.809 105.929 298.914 105.821C299.395 105.42 299.879 104.994 300.3 104.573C300.673 104.203 301.049 103.796 301.359 103.404C301.81 102.897 302.216 102.367 302.559 101.833C302.849 101.437 303.098 101.061 303.328 100.638C303.568 100.262 303.779 99.8692 304.003 99.4655C304.05 99.3299 304.127 99.1972 304.16 99.0949C304.34 98.7492 304.495 98.3758 304.664 97.9997C305.648 95.6601 306.182 93.0854 306.182 90.3724C306.176 79.2549 297.186 70.2641 286.071 70.2641ZM290.189 101.62H281.948V94.4902H274.821V86.2489H281.948V79.0945H290.189V86.2489H297.318V94.4902H290.189V101.62Z" fill="#B3B3B3"/>
<path d="M360.674 196.019V345.579H443.269V196.019H360.674ZM363.472 205.563H398.52V215.756H363.472V205.563ZM363.472 222.435H398.52V232.624H363.472V222.435ZM363.472 239.305H398.52V249.499H363.472V239.305ZM363.472 256.175H398.52V266.366H363.472V256.175ZM363.472 273.045H398.52V283.241H363.472V273.045ZM363.472 289.914H398.52V300.111H363.472V289.914ZM380.467 336.373H363.472V305.78H380.467V336.373ZM408.88 336.373H391.877V305.78H408.88V336.373ZM437.287 336.373H420.296V305.78H437.287V336.373ZM437.827 300.111H402.768V289.914H437.827V300.111ZM437.827 283.238H402.768V273.042H437.827V283.238ZM437.827 266.366H402.768V256.175H437.827V266.366ZM437.827 249.496H402.768V239.302H437.827V249.496ZM437.827 232.624H402.768V222.435H437.827V232.624ZM437.827 215.754H402.768V205.563H437.827V215.754Z" fill="#B3B3B3"/>
<path d="M454.896 342.178H146.709V348.975H454.896V342.178Z" fill="#B3B3B3"/>
<path d="M448.375 186.713H360.287V193.201H448.375V186.713Z" fill="#B3B3B3"/>
<path d="M213.68 58.2312H76.6418V66.4283H213.68V58.2312Z" fill="#B3B3B3"/>
<path d="M145.164 27.8684C119.649 27.8684 98.9763 37.6031 98.9763 49.5945H191.34C191.34 37.6031 170.667 27.8684 145.164 27.8684Z" fill="#B3B3B3"/>
<path d="M60.6876 180.255H29.3955V207.609H60.6876V180.255Z" fill="#B3B3B3"/>
<path d="M45.043 168.858C36.3979 168.858 29.3955 173.958 29.3955 180.252H60.6876C60.6904 173.961 53.6908 168.858 45.043 168.858Z" fill="#B3B3B3"/>
<path d="M3.10608 177.061H-37.5972V183.452H3.10608V177.061Z" fill="#B3B3B3"/>
<path d="M65.4032 177.061H24.6917V183.452H65.4032V177.061Z" fill="#B3B3B3"/>
<path d="M83.1743 52.454V207.606H91.2304V185.725H114.934V209.421H112.547L119.284 218.58V213.887H142.987V237.593H119.284V232.505H116.411V343.541H207.148V52.454H83.1743ZM114.923 181.254H91.2276V157.556H114.923V181.254ZM114.931 153.087H91.2276V129.394H114.931V153.087ZM114.931 124.922H91.2276V101.222H114.931V124.922ZM114.931 96.7524H91.2276V73.0573H114.931V96.7524ZM175.397 157.556H199.089V181.254H175.397V157.556ZM147.34 73.0573H171.044V96.7607H147.34V73.0573ZM147.34 101.219H171.044V124.931H147.34V101.219ZM147.34 129.394H171.044V153.087H147.34V129.394ZM147.34 157.556H171.044V181.254H147.34V157.556ZM147.34 185.725H171.044V209.421H147.34V185.725ZM147.34 213.887H171.044V237.599H147.34V213.887ZM147.34 242.048H171.044V265.757H147.34V242.048ZM119.284 73.0573H142.987V96.7524H119.284V73.0573ZM119.284 101.219H142.987V124.919H119.284V101.219ZM119.284 129.394H142.987V153.087H119.284V129.394ZM119.284 157.556H142.987V181.254H119.284V157.556ZM119.284 209.421V185.725H142.987V209.421H119.284ZM119.284 242.048H142.987V265.757H119.284V242.048ZM156.331 322.728H119.284V311.793H156.331V322.728ZM156.331 303.562H119.284V292.616H156.331V303.562ZM156.331 284.394H119.284V273.454H156.331V284.394ZM199.089 322.728H162.05V311.793H199.089V322.728ZM199.089 303.562H162.05V292.616H199.089V303.562ZM199.089 284.394H162.05V273.454H199.089V284.394ZM199.089 265.76H175.397V242.051H199.089V265.76ZM199.089 237.593H175.397V213.887H199.089V237.593ZM199.089 209.421H175.397V185.725H199.089V209.421ZM199.089 153.087H175.397V129.394H199.089V153.087ZM199.089 124.922H175.397V101.222H199.089V124.922ZM199.089 96.7524H175.397V73.0573H199.089V96.7524Z" fill="#B3B3B3"/>
<path d="M-55.3767 229.659V343.541H-44.9727V305.565H-21.2693V343.541H113.554V229.659H-55.3767ZM63.1516 236.968H72.2668V260.674H63.1516V236.968ZM47.7061 236.968H56.8241V260.674H47.7061V236.968ZM51.199 265.76V298.579H32.9657V265.76H51.199ZM16.815 236.968H25.933V260.674H16.815V236.968ZM25.2139 265.76V298.579H6.98625V265.76H25.2139ZM-14.0734 236.968H-4.95812V260.674H-14.0734V236.968ZM-44.9727 236.968H-35.8547V260.674H-44.9727V236.968ZM-26.7368 298.576H-44.9727V265.757H-26.7368V298.576ZM-20.4175 260.674H-29.5272V236.968H-20.4175V260.674ZM-4.40502 329.16H-13.5285V305.462H-4.40502V329.16ZM-0.760017 298.576H-18.996V265.757H-0.760017V298.576ZM1.36389 236.968H10.4819V260.674H1.36389V236.968ZM10.9659 329.16H1.84234V305.462H10.9659V329.16ZM26.3229 329.16H17.2132V305.462H26.3229V329.16ZM32.2606 236.968H41.3757V260.674H32.2606V236.968ZM41.691 329.16H32.5758V305.462H41.691V329.16ZM57.0536 329.16H47.9439V305.462H57.0536V329.16ZM72.419 329.16H63.3092V305.462H72.419V329.16ZM77.184 298.576H58.948V265.757H77.184V298.576ZM78.5944 236.968H87.7124V260.674H78.5944V236.968ZM87.787 329.16H78.6719V305.462H87.787V329.16ZM103.158 329.16H94.0399V305.462H103.158V329.16ZM103.158 298.576H84.9303V265.757H103.158V298.576ZM103.158 260.674H94.0399V236.968H103.158V260.674Z" fill="#B3B3B3"/>
<path d="M146.989 5.23793H143.347V27.8684H146.989V5.23793Z" fill="#B3B3B3"/>
<path d="M150.399 5.23794C150.399 8.13622 148.06 10.4814 145.164 10.4814C142.269 10.4814 139.923 8.13346 139.923 5.23794C139.923 2.35071 142.271 2.43482e-06 145.164 2.43482e-06C148.06 -0.00276311 150.399 2.35071 150.399 5.23794Z" fill="#B3B3B3"/>
<path d="M248.468 339.893H-82.1167V347.181H248.468V339.893Z" fill="#B3B3B3"/>
<path d="M29.0887 210.46H109.762L123.891 229.659H29.0887H-65.7058L-51.5822 210.46H29.0887Z" fill="#B3B3B3"/>
<path opacity="0.8" d="M291.245 32.1604H291.128C290.55 28.2859 287.257 25.3129 283.222 25.3129C283.028 25.3129 282.859 25.3489 282.669 25.3599C282.669 25.3489 282.669 25.335 282.669 25.3129C282.669 21.1895 279.336 17.8404 275.196 17.8404C273.609 17.8404 272.148 18.3299 270.932 19.1845C268.788 16.56 265.533 14.8896 261.877 14.8896C255.995 14.8896 251.136 19.2232 250.284 24.8704C249.64 24.6879 248.965 24.5635 248.268 24.5635C244.081 24.5635 240.682 27.9568 240.682 32.1604V32.5725C240.682 37.4149 244.626 41.3614 249.479 41.3614H282.45C282.594 41.3614 282.707 41.3226 282.84 41.3226C282.97 41.3226 283.1 41.3614 283.227 41.3614C287.658 41.3614 291.25 37.7717 291.25 33.3385C291.25 33.2113 291.214 33.0786 291.214 32.9486C291.214 32.8214 291.25 32.7052 291.25 32.5725V32.1604H291.245Z" fill="white"/>
<path opacity="0.5" d="M48.3994 117.079H48.2528C47.5393 112.297 43.4712 108.633 38.4988 108.633C38.2609 108.633 38.0508 108.677 37.8129 108.691C37.8129 108.677 37.8129 108.661 37.8129 108.633C37.8129 103.545 33.7033 99.4156 28.5954 99.4156C26.6373 99.4156 24.837 100.021 23.3381 101.072C20.6887 97.8364 16.6759 95.7761 12.1625 95.7761C4.91125 95.7761 -1.08443 101.122 -2.13534 108.086C-2.92905 107.862 -3.76144 107.704 -4.62153 107.704C-9.78479 107.704 -13.9829 111.894 -13.9829 117.076V117.585C-13.9829 123.562 -9.11557 128.423 -3.12541 128.423H37.5391C37.7134 128.423 37.8544 128.376 38.0176 128.376C38.178 128.376 38.3356 128.423 38.496 128.423C43.9662 128.423 48.3966 123.993 48.3966 118.525C48.3966 118.368 48.3469 118.207 48.3469 118.047C48.3469 117.889 48.3966 117.746 48.3966 117.585V117.079H48.3994Z" fill="white"/>
<path d="M526.581 366H511.534C510.718 366 510.057 365.339 510.057 364.523C510.057 363.707 510.718 363.044 511.534 363.044H526.581C527.403 363.044 528.061 363.705 528.061 364.523C528.061 365.339 527.403 366 526.581 366ZM487.463 366H472.41C471.597 366 470.933 365.339 470.933 364.523C470.933 363.707 471.597 363.044 472.41 363.044H487.463C488.276 363.044 488.94 363.705 488.94 364.523C488.94 365.339 488.276 366 487.463 366ZM448.339 366H433.294C432.473 366 431.817 365.339 431.817 364.523C431.817 363.707 432.473 363.044 433.294 363.044H448.339C449.155 363.044 449.818 363.705 449.818 364.523C449.818 365.339 449.155 366 448.339 366ZM409.215 366H394.167C393.349 366 392.691 365.339 392.691 364.523C392.691 363.707 393.349 363.044 394.167 363.044H409.215C410.028 363.044 410.691 363.705 410.691 364.523C410.694 365.339 410.028 366 409.215 366ZM370.091 366H355.046C354.225 366 353.566 365.339 353.566 364.523C353.566 363.707 354.225 363.044 355.046 363.044H370.091C370.906 363.044 371.57 363.705 371.57 364.523C371.57 365.339 370.906 366 370.091 366ZM330.966 366H315.919C315.101 366 314.442 365.339 314.442 364.523C314.442 363.707 315.101 363.044 315.919 363.044H330.966C331.78 363.044 332.443 363.705 332.443 364.523C332.446 365.339 331.78 366 330.966 366ZM291.842 366H276.798C275.976 366 275.318 365.339 275.318 364.523C275.318 363.707 275.976 363.044 276.798 363.044H291.842C292.664 363.044 293.319 363.705 293.319 364.523C293.319 365.339 292.664 366 291.842 366ZM252.718 366H237.671C236.858 366 236.194 365.339 236.194 364.523C236.194 363.707 236.858 363.044 237.671 363.044H252.718C253.537 363.044 254.195 363.705 254.195 364.523C254.198 365.339 253.537 366 252.718 366ZM213.594 366H198.55C197.734 366 197.07 365.339 197.07 364.523C197.07 363.707 197.734 363.044 198.55 363.044H213.594C214.415 363.044 215.071 363.705 215.071 364.523C215.071 365.339 214.415 366 213.594 366ZM174.47 366H159.423C158.604 366 157.943 365.339 157.943 364.523C157.943 363.707 158.604 363.044 159.423 363.044H174.47C175.286 363.044 175.947 363.705 175.947 364.523C175.947 365.339 175.286 366 174.47 366ZM135.349 366H120.299C119.483 366 118.819 365.339 118.819 364.523C118.819 363.707 119.48 363.044 120.299 363.044H135.349C136.165 363.044 136.825 363.705 136.825 364.523C136.825 365.339 136.165 366 135.349 366ZM96.2245 366H81.1772C80.3614 366 79.6977 365.339 79.6977 364.523C79.6977 363.707 80.3586 363.044 81.1772 363.044H96.2245C97.0404 363.044 97.7013 363.705 97.7013 364.523C97.7013 365.339 97.0404 366 96.2245 366ZM57.1004 366H42.0531C41.2373 366 40.5735 365.339 40.5735 364.523C40.5735 363.707 41.2345 363.044 42.0531 363.044H57.1004C57.9163 363.044 58.5772 363.705 58.5772 364.523C58.5772 365.339 57.9163 366 57.1004 366ZM17.9763 366H2.929C2.11316 366 1.44943 365.339 1.44943 364.523C1.44943 363.707 2.1104 363.044 2.929 363.044H17.9763C18.7921 363.044 19.4531 363.705 19.4531 364.523C19.4531 365.339 18.7921 366 17.9763 366ZM-21.1478 366H-36.1923C-37.0082 366 -37.6719 365.339 -37.6719 364.523C-37.6719 363.707 -37.0109 363.044 -36.1923 363.044H-21.1478C-20.332 363.044 -19.6683 363.705 -19.6683 364.523C-19.671 365.339 -20.332 366 -21.1478 366ZM-60.2692 366H-75.3193C-76.1351 366 -76.796 365.339 -76.796 364.523C-76.796 363.707 -76.1351 363.044 -75.3193 363.044H-60.2692C-59.4533 363.044 -58.7896 363.705 -58.7896 364.523C-58.7924 365.339 -59.4533 366 -60.2692 366ZM-99.3933 366H-114.441C-115.256 366 -115.917 365.339 -115.917 364.523C-115.917 363.707 -115.256 363.044 -114.441 363.044H-99.3933C-98.5774 363.044 -97.9137 363.705 -97.9137 364.523C-97.9165 365.339 -98.5774 366 -99.3933 366ZM-138.517 366H-153.565C-154.381 366 -155.042 365.339 -155.042 364.523C-155.042 363.707 -154.381 363.044 -153.565 363.044H-138.517C-137.702 363.044 -137.038 363.705 -137.038 364.523C-137.041 365.339 -137.702 366 -138.517 366Z" fill="white"/>
</g>
<path d="M182.596 274.22L176.778 282.693L174.901 285.106L183.776 290.093L190.72 279.824L182.596 274.22Z" fill="#EFC79C"/>
<path d="M177.18 184.236C177.18 184.236 231.583 201.691 238.608 210.995C245.633 220.299 191.31 281.54 191.31 281.54L180.317 274.676C180.317 274.676 199.408 234.483 214.074 227.458C217.238 222.605 188.522 219.173 164.202 217.645C139.883 216.116 145.433 201.557 154.55 183.7C169.297 177.56 177.18 184.236 177.18 184.236Z" fill="#1D3D63"/>
<path d="M195.761 102.725C195.761 102.725 202.625 90.686 204.019 83.7147C211.634 94.8688 218.096 100.258 218.203 100.741C210.857 107.9 208.443 119.081 208.443 119.081L195.761 102.725Z" fill="#F7C58D"/>
<path d="M83.2813 246.656H74.031C71.5105 246.656 69.0706 247.836 67.435 249.874L58.9085 260.465C56.7903 263.092 56.4149 266.632 57.97 269.367L61.4021 275.426L83.2813 246.656Z" fill="#FF3355"/>
<path d="M57.8895 264.058L66.4161 253.467C68.0517 251.456 70.4916 250.249 73.012 250.249H80.5464L83.2813 246.629H74.0309C71.5105 246.629 69.0706 247.809 67.435 249.847L58.9084 260.438C57.7555 261.859 57.1388 263.575 57.0583 265.291C57.2997 264.862 57.5678 264.433 57.8895 264.058Z" fill="#FF7190"/>
<path d="M317.179 336.965C331.44 323.188 332.582 301.237 319.732 287.935C306.881 274.633 284.903 275.017 270.642 288.794C256.382 302.571 255.239 324.523 268.09 337.825C280.941 351.127 302.919 350.742 317.179 336.965Z" fill="#333333"/>
<path d="M311.87 331.469C322.871 320.841 323.749 303.902 313.831 293.635C303.912 283.369 286.953 283.662 275.952 294.29C264.95 304.918 264.072 321.857 273.991 332.124C283.909 342.391 300.868 342.098 311.87 331.469Z" fill="#FFECC5"/>
<path d="M305.833 325.221C313.129 318.173 313.705 306.934 307.12 300.118C300.535 293.302 289.283 293.49 281.988 300.538C274.692 307.586 274.116 318.825 280.701 325.641C287.286 332.457 298.538 332.269 305.833 325.221Z" fill="white"/>
<path d="M298.319 312.669L290.463 315.511L278.8 276.687L286.656 273.871L298.319 312.669Z" fill="#E2E2E2"/>
<path d="M297.506 316.601C299.711 314.472 299.888 311.079 297.903 309.023C295.917 306.968 292.52 307.028 290.315 309.158C288.111 311.288 287.933 314.68 289.919 316.736C291.905 318.791 295.302 318.731 297.506 316.601Z" fill="#333333"/>
<path d="M295.736 314.769C296.855 313.689 296.944 311.967 295.936 310.923C294.927 309.88 293.203 309.909 292.085 310.99C290.967 312.07 290.878 313.792 291.886 314.836C292.894 315.879 294.618 315.85 295.736 314.769Z" fill="#7F7F7F"/>
<path d="M122.463 336.705C136.723 322.928 137.866 300.976 125.015 287.674C112.165 274.372 90.1867 274.757 75.9262 288.534C61.6656 302.311 60.5228 324.262 73.3735 337.564C86.2243 350.866 108.202 350.482 122.463 336.705Z" fill="#333333"/>
<path d="M117.153 331.209C128.155 320.581 129.033 303.642 119.115 293.375C109.196 283.108 92.2371 283.401 81.2355 294.03C70.234 304.658 69.3559 321.597 79.2743 331.864C89.1927 342.13 106.152 341.837 117.153 331.209Z" fill="#FFECC5"/>
<path d="M111.117 324.961C118.413 317.913 118.989 306.674 112.404 299.858C105.819 293.042 94.5667 293.23 87.2714 300.278C79.976 307.326 79.4001 318.565 85.9849 325.381C92.5698 332.197 103.822 332.009 111.117 324.961Z" fill="white"/>
<path d="M102.79 316.341C104.995 314.211 105.172 310.819 103.187 308.763C101.201 306.708 97.8039 306.768 95.5994 308.898C93.3948 311.027 93.2174 314.42 95.2032 316.476C97.1889 318.531 100.586 318.471 102.79 316.341Z" fill="#333333"/>
<path d="M101.02 314.509C102.138 313.429 102.227 311.707 101.219 310.663C100.211 309.62 98.4868 309.649 97.3685 310.73C96.2503 311.81 96.1611 313.532 97.1694 314.575C98.1777 315.619 99.9016 315.59 101.02 314.509Z" fill="#7F7F7F"/>
<path d="M268.102 288.779C268.102 288.779 297.462 274.836 327.063 282.585C327.921 266.9 317.357 245.664 280.811 254.298C244.265 262.932 268.102 288.779 268.102 288.779Z" fill="#FFBC15"/>
<path d="M278.639 256.121C272.392 257.596 267.914 259.58 264.777 261.859C263.517 263.092 262.578 264.353 261.908 265.666C264.965 263.709 269.121 261.966 274.698 260.652C305.479 253.386 317.813 267.275 320.44 281.218C321.942 281.459 323.443 281.754 324.945 282.076C324.677 266.712 313.415 247.89 278.639 256.121Z" fill="#FFCF03"/>
<path d="M269.469 148.682C269.469 148.682 276.172 162.169 268.477 172.063C262.551 170.561 269.469 148.682 269.469 148.682Z" fill="#EFEFEF"/>
<path d="M280.838 254.298L292.153 251.188C292.153 251.188 283.975 220.058 260.005 173.457C257.511 174.503 254.723 175.334 254.723 175.334L280.838 254.298Z" fill="#FFBC15"/>
<path d="M244.641 175.736C244.641 175.736 264.67 233.035 248.448 264.245C244.963 274.863 258.557 271.994 258.557 271.994C258.557 271.994 276.307 237.433 248.77 173.457C247.349 172.546 244.641 175.736 244.641 175.736Z" fill="#FFB206"/>
<path d="M195.654 226.198C195.654 226.198 131.651 226.118 119.425 226.091C107.198 226.064 67.4347 242.742 51.8833 294.517C84.0587 294.571 117.307 294.598 126.611 294.624C135.941 294.624 136.612 311.355 136.612 311.355C171.656 311.409 219.222 311.463 230.162 311.49C241.101 311.516 263.356 269.393 254.588 247.836C248.502 270.359 237.696 281.915 226.22 285.106C217.399 287.573 192.007 287.358 180.746 287.117C177.394 287.036 174.713 284.704 174.203 281.432C173.238 275.185 172.273 264.728 174.552 255.773C178.118 241.937 193.375 240.033 195.654 226.198Z" fill="#FFBC15"/>
<path d="M50.0601 297.44L141.25 297.547C141.25 297.547 156.534 269.099 147.042 252.93C137.577 236.762 93.5504 241.749 73.8162 258.132C54.0819 274.515 50.0601 297.44 50.0601 297.44Z" fill="#FFCF03"/>
<path d="M138.248 297.547C141.331 291.165 150.501 269.957 142.833 256.979C134.226 242.393 95.8565 245.932 75.8005 259.607C96.7145 249.874 127.228 248.694 134.789 261.51C141.117 272.209 135.942 288.591 132.215 297.547H138.248Z" fill="#FFE10B"/>
<path d="M134.681 301.649C134.681 301.649 194.259 301.73 210.91 301.756C227.561 301.783 262.176 276.016 258.342 236.44C254.508 196.865 245.713 178.042 245.713 178.042L257.538 174.53C257.538 174.53 276.682 217.671 280.597 230.541C284.511 243.412 289.311 278 261.56 301.837C250.325 310.739 241.852 314.358 229.786 314.332C217.721 314.305 137.148 314.197 137.148 314.197L134.681 301.649Z" fill="#FFCF03"/>
<path d="M280.57 230.488C276.655 217.618 257.511 174.476 257.511 174.476L253.087 175.79C257.645 186.864 270.756 219.307 273.25 231.587C275.958 244.833 281.187 280.36 253.462 304.223C248.1 308.487 243.381 311.516 238.581 313.527C246.437 312.053 253.221 308.379 261.56 301.783C289.284 277.947 284.485 243.385 280.57 230.488Z" fill="#FFE10B"/>
<path d="M125.592 209.708C125.592 209.708 112.373 226.091 125.029 226.118C137.684 226.144 192.168 226.198 195.627 226.198C199.086 226.198 204.716 212.952 198.362 212.443C192.007 211.934 172.058 214.347 157.338 210.941C142.645 207.563 130.552 204.399 125.592 209.708Z" fill="#4C4C4C"/>
<path d="M244.641 178.981C244.641 178.981 260.433 173.94 262.391 173.457C264.348 172.975 268.477 172.492 268.477 172.492C268.477 172.492 267.244 153.911 270.167 148.736C265.099 143.534 257.377 145.223 248.904 152.677C240.431 160.131 237.535 161.472 238.018 163.51C238.474 165.574 244.641 178.981 244.641 178.981Z" fill="#FFCF03"/>
<path d="M247.215 160.346L246.732 159.407L258.128 152.945C258.959 152.463 259.603 151.658 259.844 150.747L265.609 129.591L266.654 129.806L260.89 150.961C260.568 152.168 259.737 153.24 258.61 153.884L247.215 160.346Z" fill="#A5A5A5"/>
<path d="M252.168 166.967C253.804 163.596 252.645 159.658 249.581 158.172C246.517 156.685 242.707 158.212 241.071 161.583C239.436 164.954 240.594 168.891 243.659 170.378C246.723 171.865 250.533 170.337 252.168 166.967Z" fill="#EFC100"/>
<path d="M232.333 158.576C232.333 158.576 239.358 158.335 242.093 156.002C244.801 153.669 247.59 153.75 250.03 155.895C252.443 158.04 254.159 162.357 252.872 164.743C251.585 167.129 248.877 168.175 247.054 167.532C247.67 169.221 243.648 169.462 241.718 168.765C239.787 168.068 235.202 166.861 233.325 167.263C231.878 165.226 232.333 158.576 232.333 158.576Z" fill="white"/>
<path d="M242.362 173.967C243.622 176.755 244.641 178.981 244.641 178.981C244.641 178.981 260.433 173.94 262.391 173.457C264.348 172.975 268.477 172.492 268.477 172.492C268.477 172.492 268.263 169.087 268.236 164.797C261.694 171.232 251.88 173.404 242.362 173.967Z" fill="#FFBC15"/>
<path d="M248.34 165.328C249.777 163.939 249.892 161.725 248.596 160.383C247.299 159.041 245.083 159.079 243.645 160.468C242.207 161.857 242.093 164.071 243.389 165.413C244.685 166.755 246.902 166.717 248.34 165.328Z" fill="#353535"/>
<path d="M267.91 127.768C269.283 122.296 268.697 117.433 266.6 116.907C264.503 116.381 261.69 120.39 260.316 125.862C258.943 131.335 259.53 136.197 261.627 136.723C263.724 137.25 266.537 133.24 267.91 127.768Z" fill="#FFCF03"/>
<path d="M265.926 127.296C267.002 122.925 266.791 119.114 265.454 118.785C264.116 118.455 262.16 121.732 261.083 126.103C260.007 130.474 260.219 134.285 261.556 134.614C262.893 134.943 264.85 131.667 265.926 127.296Z" fill="#EFEFEF"/>
<path d="M194.688 276.874L190.184 286.044L188.655 288.672L198.308 292.211L203.67 281.111L194.688 276.874Z" fill="#FFDAAE"/>
<path d="M177.904 186.971C177.904 186.971 234.371 198.018 242.469 206.383C250.566 214.749 204.046 283.148 204.046 283.148L192.275 277.625C192.275 277.625 205.896 234.001 219.785 225.394C222.413 220.246 193.267 220.138 168.734 221.372C144.2 222.632 137.363 205.579 144.468 186.917C158.518 179.222 177.904 186.971 177.904 186.971Z" fill="#21457A"/>
<path d="M204.046 283.148C204.046 283.148 250.566 214.749 242.469 206.383C236.49 200.19 204.073 192.548 187.556 188.982C182.542 189.25 175.732 190.886 169.565 196.623C183.025 193.862 224.558 203.568 232.602 205.767C240.646 207.939 240.967 212.175 237.804 219.28C234.747 226.144 208.792 272.343 202.089 282.264L204.046 283.148Z" fill="#275389"/>
<path d="M123.044 198.179C123.044 198.179 133.877 124.041 196.914 101.384C204.716 104.924 206.7 111.037 209.328 119.081C211.983 127.125 189.138 183.968 187.905 187.829C187.583 188.848 184.339 190.832 180.531 191.931C169.752 195.068 132.295 202.013 123.044 198.179Z" fill="#5AAA08"/>
<path d="M177.019 130.959C178.064 141.791 182.247 167.934 186.752 173.001C194.232 181.34 233.728 170.374 233.728 170.374L233.272 158.603C221.233 158.415 204.824 158.388 202.33 157.262C199.836 156.136 196.458 130.691 195.385 125.382C194.313 120.073 190.479 116.829 183.695 117.15C176.938 117.445 176.643 127.125 177.019 130.959Z" fill="#75C618"/>
<path d="M190.184 286.044C190.184 286.044 191.846 291.192 198.925 290.951C203.295 295.107 215.227 295.241 219.41 295.107C223.593 294.946 221.796 299.933 215.736 301.542C209.677 303.151 184.848 301.73 182.274 301.73C179.7 301.703 184.446 288.994 190.184 286.044Z" fill="#6D361D"/>
<path d="M231.743 92.2948C232.387 90.7129 229.84 87.6294 232.521 82.8299C235.202 78.0304 229.277 73.794 229.277 73.794C229.277 73.794 229.143 73.9548 228.901 74.2766C226.434 69.5575 222.225 66.4741 217.211 66.3936C208.631 66.2864 200.936 75.0005 200.024 85.8329C199.139 96.6921 205.413 105.245 213.993 105.353C214.235 105.353 214.422 105.674 214.664 105.674C217.881 107.954 222.734 105.996 223.431 104.441C224.316 102.51 224.853 101.384 226.032 101.384C227.212 101.411 227.024 99.8828 226.22 99.1321C226.837 99.3466 228.151 99.2393 227.963 98.7835C227.802 98.3277 228.285 97.3624 228.821 94.8957C231.797 96.3167 232.575 93.1528 231.743 92.2948Z" fill="#F7C58D"/>
<path d="M197.423 94.4398L197.369 99.8024C197.369 99.8024 206.218 102.645 209.328 97.282C212.411 91.9194 197.423 94.4398 197.423 94.4398Z" fill="#6D361D"/>
<path d="M225.363 84.3851C225.363 84.3851 229.518 83.1517 230.832 84.4655C230.966 84.9213 230.43 85.4576 229.706 85.2967C228.929 85.109 226.542 84.4923 225.363 84.3851Z" fill="#353535"/>
<path d="M232.199 90.1498C230.966 90.0693 223.512 90.0157 220.75 89.9889V89.9621L216.004 88.3265L215.629 89.2381L219.758 90.6592C219.705 93.6623 216.916 97.1747 215.602 98.6226L213.618 95.4319L212.787 95.995L214.986 99.4807C215.12 100.285 216.085 104.227 221.34 106.747C228.204 104.441 233.808 94.0376 232.199 90.1498Z" fill="#BBE0FF"/>
<path d="M224.558 80.8189C225.068 80.8994 232.119 81.7574 234.398 85.3503C236.624 83.6075 233.996 80.6044 233.996 80.6044L224.558 80.8189Z" fill="#353535"/>
<path d="M221.099 80.7117C221.099 80.7117 234.479 82.5618 238.447 84.1705C241.584 73.9549 235.176 65.2675 224.236 61.9963C213.296 58.7252 201.07 63.9269 196.351 74.3839C191.632 84.8141 193.777 89.5867 195.975 93.5282C197.772 96.7458 200.748 99.1053 209.864 98.6763C215.87 98.3813 216.594 89.828 217.667 86.6373C218.766 83.393 219.303 80.2559 221.099 80.7117Z" fill="#FFBC15"/>
<path d="M224.048 61.9695C217.238 59.9317 209.972 61.1919 204.287 64.9457C208.738 63.4978 213.645 63.337 218.337 64.7312C227.802 67.5466 233.862 74.4107 233.326 82.8031C235.39 83.2321 237.187 83.6879 238.286 84.1437C241.396 73.9012 234.988 65.2407 224.048 61.9695Z" fill="#FFE10B"/>
<path d="M219.839 79.2638C218.069 78.808 217.533 81.9451 216.407 85.1894C215.308 88.3533 214.584 96.9334 208.604 97.2283C201.955 97.5501 198.576 96.3703 196.539 94.4666C198.415 97.2015 201.66 99.0785 209.865 98.6763C215.871 98.3813 216.595 89.828 217.667 86.6373C218.766 83.3929 219.303 80.2559 221.099 80.7117C221.099 80.7117 234.479 82.5618 238.447 84.1705C238.635 83.527 238.796 82.9103 238.93 82.2936C234.8 80.6849 219.839 79.2638 219.839 79.2638Z" fill="#353535"/>
<path opacity="0.49" d="M239.976 80.4972C239.976 80.4972 239.118 96.3436 225.872 108.812C222.092 110.554 209.892 105.674 212.761 93.1528C214.798 84.2778 213.967 77.7891 216.809 76.4484C219.678 75.1346 231.932 80.6313 239.976 80.4972Z" fill="#D2F0FF"/>
<path d="M148.49 232.66L112.641 232.606C110.094 232.606 107.788 231.239 106.635 229.04L102.774 221.72C102.372 220.97 101.594 220.514 100.736 220.514L41.2656 220.433C39.925 220.433 38.9329 219.361 39.0134 218.02C39.1206 216.679 40.2735 215.607 41.5874 215.607L101.058 215.687C103.605 215.687 105.911 217.055 107.064 219.254L110.925 226.573C111.327 227.324 112.105 227.78 112.963 227.78L148.812 227.834C150.152 227.834 151.144 228.906 151.064 230.247C150.984 231.587 149.831 232.66 148.49 232.66Z" fill="#4C4C4C"/>
<path d="M106.421 215.714L37.9944 215.634C34.4551 215.634 31.7738 212.738 32.0151 209.199L36.4392 146.564C36.6805 142.998 39.764 140.129 43.3301 140.129L111.756 140.209C115.296 140.209 117.977 143.105 117.736 146.644L113.312 209.279C113.07 212.845 109.987 215.714 106.421 215.714Z" fill="#FFBC15"/>
<path d="M116.905 158.388L117.736 146.644C117.977 143.078 115.323 140.209 111.757 140.209L43.3303 140.129C39.791 140.129 36.7075 142.998 36.4393 146.564L35.6082 158.308L116.905 158.388Z" fill="#EA9C00"/>
<path d="M118.567 155.278L119.183 146.618C119.451 142.944 116.663 139.941 112.989 139.941L42.15 139.861C38.4766 139.861 35.2859 142.837 35.0178 146.51L34.4011 155.171L118.567 155.278Z" fill="#FFCF03"/>
<path d="M67.5473 32.5932L60.6372 26.1617L54.2057 33.0718L61.1158 39.5032L67.5473 32.5932Z" fill="#FFD21F"/>
<path d="M115.836 17.224L111.298 13L107.074 17.5384L111.612 21.7624L115.836 17.224Z" fill="#FFD21F"/>
<path d="M170.585 29.1103L166.047 24.8862L161.823 29.4246L166.361 33.6487L170.585 29.1103Z" fill="#FFD21F"/>
<path d="M132.715 101.498L126.632 95.8362L120.97 101.919L127.053 107.581L132.715 101.498Z" fill="#FFD21F"/>
<path d="M102.42 89.1861C100.82 89.1861 99.52 87.8861 99.52 86.2861C99.52 84.6861 100.82 83.3861 102.42 83.3861C104.02 83.3861 105.32 84.6861 105.32 86.2861C105.32 87.8861 104.02 89.1861 102.42 89.1861ZM102.42 84.3961C101.38 84.3961 100.52 85.2461 100.52 86.2961C100.52 87.3461 101.37 88.1961 102.42 88.1961C103.47 88.1961 104.32 87.3461 104.32 86.2961C104.32 85.2461 103.46 84.3961 102.42 84.3961Z" fill="#FFD21F"/>
<path d="M81.0899 46.8561C79.4899 46.8561 78.1899 45.5561 78.1899 43.9561C78.1899 42.3561 79.4899 41.0561 81.0899 41.0561C82.6899 41.0561 83.9899 42.3561 83.9899 43.9561C83.9899 45.5561 82.6799 46.8561 81.0899 46.8561ZM81.0899 42.0661C80.0499 42.0661 79.1899 42.9161 79.1899 43.9661C79.1899 45.0161 80.0399 45.8661 81.0899 45.8661C82.1399 45.8661 82.9899 45.0161 82.9899 43.9661C82.9899 42.9161 82.1299 42.0661 81.0899 42.0661Z" fill="#FFD21F"/>
<path d="M125.09 131.526C123.49 131.526 122.19 130.226 122.19 128.626C122.19 127.026 123.49 125.726 125.09 125.726C126.69 125.726 127.99 127.026 127.99 128.626C127.99 130.226 126.68 131.526 125.09 131.526ZM125.09 126.726C124.05 126.726 123.19 127.576 123.19 128.626C123.19 129.676 124.04 130.526 125.09 130.526C126.14 130.526 126.99 129.676 126.99 128.626C126.99 127.576 126.13 126.726 125.09 126.726Z" fill="#FFD21F"/>
<path d="M46.65 23.0861C45.05 23.0861 43.75 21.7861 43.75 20.1861C43.75 18.5861 45.05 17.2861 46.65 17.2861C48.25 17.2861 49.55 18.5861 49.55 20.1861C49.55 21.7861 48.25 23.0861 46.65 23.0861ZM46.65 18.2961C45.61 18.2961 44.75 19.1461 44.75 20.1961C44.75 21.2461 45.6 22.0961 46.65 22.0961C47.7 22.0961 48.55 21.2461 48.55 20.1961C48.55 19.1461 47.69 18.2961 46.65 18.2961Z" fill="#FFD21F"/>
<path d="M40.9 52.3761C39.3 52.3761 38 51.0761 38 49.4761C38 47.8761 39.3 46.5761 40.9 46.5761C42.5 46.5761 43.8 47.8761 43.8 49.4761C43.8 51.0761 42.5 52.3761 40.9 52.3761ZM40.9 47.5861C39.86 47.5861 39 48.4361 39 49.4861C39 50.5361 39.85 51.3861 40.9 51.3861C41.95 51.3861 42.8 50.5361 42.8 49.4861C42.8 48.4361 41.94 47.5861 40.9 47.5861Z" fill="#FFD21F"/>
<path d="M164.09 76.1861C162.49 76.1861 161.19 74.8861 161.19 73.2861C161.19 71.6861 162.49 70.3861 164.09 70.3861C165.69 70.3861 166.99 71.6861 166.99 73.2861C166.99 74.8861 165.68 76.1861 164.09 76.1861ZM164.09 71.3961C163.05 71.3961 162.19 72.2461 162.19 73.2961C162.19 74.3461 163.04 75.1961 164.09 75.1961C165.14 75.1961 165.99 74.3461 165.99 73.2961C165.99 72.2461 165.13 71.3961 164.09 71.3961Z" fill="#FFD21F"/>
<path d="M86.5699 22.5861C84.9699 22.5861 83.6699 21.2861 83.6699 19.6861C83.6699 18.0861 84.9699 16.7861 86.5699 16.7861C88.1699 16.7861 89.4699 18.0861 89.4699 19.6861C89.4699 21.2861 88.1599 22.5861 86.5699 22.5861ZM86.5699 17.7961C85.5299 17.7961 84.6699 18.6461 84.6699 19.6961C84.6699 20.7461 85.5199 21.5961 86.5699 21.5961C87.6199 21.5961 88.4699 20.7461 88.4699 19.6961C88.4699 18.6461 87.6099 17.7961 86.5699 17.7961Z" fill="#FFD21F"/>
</svg>
