<svg width="231" height="312" viewBox="0 0 231 312" fill="none" xmlns="http://www.w3.org/2000/svg">
<path d="M94.7659 87.2294L109.789 236.052C109.789 241.955 128.588 246.767 151.774 246.767C174.96 246.767 193.759 241.981 193.759 236.052L208.782 87.2294H94.7659Z" fill="#FF3355"/>
<path d="M192.004 87.0167C181.448 84.5173 167.329 83.0017 151.801 83.0017C136.272 83.0017 122.153 84.5173 111.597 87.0167H92.6387V98.078C92.6387 106.401 119.122 113.181 151.801 113.181C184.479 113.181 210.963 106.427 210.963 98.078V87.0167H192.004Z" fill="#E8E8E8"/>
<path d="M151.801 102.12C184.475 102.12 210.963 95.3578 210.963 87.0167C210.963 78.6756 184.475 71.9138 151.801 71.9138C119.126 71.9138 92.6387 78.6756 92.6387 87.0167C92.6387 95.3578 119.126 102.12 151.801 102.12Z" fill="#F7F7F7"/>
<path d="M151.801 93.6375C167.998 93.6375 181.129 90.2923 181.129 86.1658C181.129 82.0393 167.998 78.6941 151.801 78.6941C135.603 78.6941 122.472 82.0393 122.472 86.1658C122.472 90.2923 135.603 93.6375 151.801 93.6375Z" fill="#DDDDDD"/>
<path d="M151.801 91.9624C167.998 91.9624 181.129 88.6172 181.129 84.4907C181.129 80.3642 167.998 77.019 151.801 77.019C135.603 77.019 122.472 80.3642 122.472 84.4907C122.472 88.6172 135.603 91.9624 151.801 91.9624Z" fill="#EAEAEA"/>
<path d="M155.629 85.3681C155.629 85.3681 153.555 87.6017 149.434 86.0329C147.094 85.1288 148.211 82.9485 148.211 82.9485L184.001 0.706613L191.127 3.79101L155.629 85.3681Z" fill="#DDDDDD"/>
<path d="M191.105 3.84341C191.294 3.39738 189.848 2.35621 187.875 1.5179C185.901 0.679586 184.148 0.361586 183.959 0.807619C183.769 1.25365 185.215 2.29482 187.189 3.13313C189.162 3.97145 190.915 4.28945 191.105 3.84341Z" fill="#EAEAEA"/>
<path d="M19.9155 164.207L42.3572 151.124L115.346 154.342L92.4522 176.624L19.9155 164.207Z" fill="#FFD7E2"/>
<path d="M42.7296 169.365L38.6614 132.272L46.5851 133.735L51.3446 130.996V170.216L47.2498 172.768L42.7296 169.365Z" fill="#FFCF03"/>
<path d="M46.5852 133.735L51.3448 130.996V170.216L47.2499 172.768L46.5852 133.735Z" fill="#E8BB00"/>
<path d="M38.6614 132.272L43.7666 129.454L51.3446 130.996L46.5851 133.735L38.6614 132.272Z" fill="#FFE706"/>
<path d="M32.1997 181.277L36.8795 144.291L44.2448 147.535L49.5362 145.993L40.3627 184.122L35.7893 185.664L32.1997 181.277Z" fill="#FFCF03"/>
<path d="M44.2451 147.535L49.5364 145.993L40.363 184.122L35.7896 185.664L44.2451 147.535Z" fill="#E8BB00"/>
<path d="M36.8796 144.291L42.5167 142.749L49.5363 145.993L44.245 147.535L36.8796 144.291Z" fill="#FFE706"/>
<path d="M38.2092 177.501L18.3999 145.886L26.1641 143.732L29.2751 139.212L46.3191 174.523L43.7399 178.592L38.2092 177.501Z" fill="#FFCF03"/>
<path d="M26.1638 143.732L29.2748 139.212L46.3188 174.523L43.7396 178.592L26.1638 143.732Z" fill="#E8BB00"/>
<path d="M18.3999 145.886L21.7768 141.127L29.2751 139.212L26.1641 143.732L18.3999 145.886Z" fill="#FFE706"/>
<path d="M54.3492 171.333L52.4082 134.08L60.2522 135.968L65.1712 133.522L62.8845 172.689L58.6568 175.002L54.3492 171.333Z" fill="#FFCF03"/>
<path d="M60.2524 135.968L65.1714 133.522L62.8848 172.689L58.657 175.002L60.2524 135.968Z" fill="#E8BB00"/>
<path d="M52.4082 134.08L57.6729 131.554L65.1712 133.522L60.2522 135.968L52.4082 134.08Z" fill="#FFE706"/>
<path d="M50.8925 185.638L48.978 148.386L56.7954 150.3L61.7145 147.854L59.4544 186.994L55.2 189.307L50.8925 185.638Z" fill="#FFCF03"/>
<path d="M56.7956 150.3L61.7147 147.854L59.4546 186.994L55.2002 189.307L56.7956 150.3Z" fill="#E8BB00"/>
<path d="M48.978 148.386L54.2428 145.886L61.7145 147.854L56.7954 150.3L48.978 148.386Z" fill="#FFE706"/>
<path d="M87.1871 175.773L85.2461 138.521L93.09 140.435L98.0091 137.989L95.7224 177.129L91.4947 179.442L87.1871 175.773Z" fill="#FFCF03"/>
<path d="M93.0902 140.435L98.0093 137.989L95.7226 177.129L91.4949 179.442L93.0902 140.435Z" fill="#E8BB00"/>
<path d="M85.2461 138.521L90.5108 136.021L98.0091 137.989L93.09 140.435L85.2461 138.521Z" fill="#FFE706"/>
<path d="M66.3677 172.582L79.7689 137.776L86.1504 142.695L91.6278 142.483L73.6267 177.289L68.8139 177.688L66.3677 172.582Z" fill="#FFCF03"/>
<path d="M86.1502 142.695L91.6276 142.483L73.6264 177.289L68.8137 177.688L86.1502 142.695Z" fill="#E8BB00"/>
<path d="M79.769 137.776L85.5922 137.617L91.628 142.483L86.1505 142.695L79.769 137.776Z" fill="#FFE706"/>
<path d="M80.6995 184.282L72.3237 147.934L80.3538 148.439L84.7677 145.168L89.3677 184.122L85.592 187.127L80.6995 184.282Z" fill="#FFCF03"/>
<path d="M80.354 148.439L84.7679 145.168L89.3679 184.122L85.5922 187.127L80.354 148.439Z" fill="#E8BB00"/>
<path d="M72.3237 147.934L77.0567 144.53L84.7677 145.168L80.3538 148.439L72.3237 147.934Z" fill="#FFE706"/>
<path d="M67.5112 174.842L59.1089 138.494L67.139 139L71.5795 135.729L76.1529 174.683L72.4037 177.688L67.5112 174.842Z" fill="#FFCF03"/>
<path d="M67.1389 139L71.5794 135.729L76.1528 174.683L72.4037 177.688L67.1389 139Z" fill="#E8BB00"/>
<path d="M59.1089 138.494L63.8684 135.091L71.5795 135.729L67.139 139L59.1089 138.494Z" fill="#FFE706"/>
<path d="M86.2568 169.95L104.231 137.271L109.868 142.988L115.346 143.52L92.8245 175.614L88.0117 175.348L86.2568 169.95Z" fill="#FFCF03"/>
<path d="M109.868 142.988L115.346 143.52L92.8242 175.614L88.0115 175.348L109.868 142.988Z" fill="#E8BB00"/>
<path d="M104.231 137.271L110.028 137.909L115.346 143.52L109.868 142.988L104.231 137.271Z" fill="#FFE706"/>
<path d="M115.346 154.342L95.9617 269.502L83.3582 280.483L95.4033 169.524L115.346 154.342Z" fill="#FF7DA5"/>
<path d="M115.346 154.342L95.4033 169.524L93.8877 183.511L112.66 170.296L115.346 154.342Z" fill="#FFA6C6"/>
<path d="M110.267 184.548L92.399 197.231L90.9631 210.366L107.741 199.571L110.267 184.548Z" fill="#FFA6C6"/>
<path d="M105.534 212.626L89.6337 222.624L88.3574 234.456L103.487 224.725L105.534 212.626Z" fill="#FFA6C6"/>
<path d="M103.487 224.725L88.3576 234.456L87.1345 245.73L101.307 237.754L103.487 224.725Z" fill="#FFA6C6"/>
<path d="M83.3582 280.483L95.9617 269.502L97.4507 260.674L84.6079 268.943L83.3582 280.483Z" fill="#FFA6C6"/>
<path d="M101.306 237.754L87.1338 245.73L85.9106 257.031L99.2321 250.118L101.306 237.754Z" fill="#FFA6C6"/>
<path d="M19.9155 164.207L37.4115 275.165L83.3585 280.483L95.4036 169.524L19.9155 164.207Z" fill="#FF3355"/>
<path d="M95.4036 169.524L19.9155 164.207L22.1756 178.565L93.888 183.351L95.4036 169.524Z" fill="#FF7190"/>
<path d="M92.452 196.752L24.1697 191.142L26.031 203.001L91.0161 209.967L92.452 196.752Z" fill="#FF7190"/>
<path d="M89.6603 222.491L27.8127 214.222L29.5942 225.602L88.3574 234.563L89.6603 222.491Z" fill="#FF7190"/>
<path d="M35.6033 263.599L37.4114 275.165L83.3583 280.483L84.5549 269.422L35.6033 263.599Z" fill="#FF7190"/>
<path d="M87.2404 244.693L31.668 238.764L33.5027 250.357L85.9907 256.34L87.2404 244.693Z" fill="#FF7190"/>
<path d="M93.6225 276.282C93.6225 276.282 73.76 306.727 128.295 310.104C182.831 313.481 202.082 308.136 213.117 304.467C224.151 300.798 229.044 293.432 222.928 274.447C206.682 258.813 93.6225 276.282 93.6225 276.282Z" fill="#ED7E06"/>
<path d="M93.6225 269.688C93.6225 269.688 73.76 300.133 128.295 303.51C182.831 306.887 202.082 301.542 213.117 297.873C224.151 294.203 229.044 286.838 222.928 267.853C206.682 252.245 93.6225 269.688 93.6225 269.688Z" fill="#E8BB00"/>
<path d="M93.6225 276.282C93.6225 276.282 93.4896 276.521 93.2769 276.973C98.3023 282.557 108.885 287.529 130.077 288.832C184.612 292.209 199.636 289.763 210.67 286.067C217.105 283.913 221.439 280.483 222.715 274.261C205.831 258.946 93.6225 276.282 93.6225 276.282Z" fill="#A45000"/>
<path d="M227.901 269.262C226.571 268.092 224.869 267.481 223.194 266.896C221.599 266.338 219.977 265.753 218.381 265.194L212.08 267.906C198.333 269.847 184.586 271.788 170.839 273.703C162.969 274.82 155.045 275.91 147.121 275.777C145.526 275.75 143.824 275.67 142.415 276.415C140.208 277.558 139.33 280.244 139.144 282.717C138.852 287.077 140.234 291.545 142.973 294.975C143.266 295.347 143.611 295.746 144.063 295.905C144.515 296.091 145.021 296.038 145.499 296.091C147.068 296.224 148.371 297.341 149.78 298.032C152.785 299.495 156.401 299.043 159.485 297.767C162.57 296.49 165.255 294.469 168.1 292.714C169.589 291.784 171.53 290.933 173.019 291.864C174.136 292.555 174.535 293.991 175.572 294.788C176.715 295.639 178.337 295.48 179.667 295.001C180.996 294.523 182.246 293.725 183.655 293.432C186.474 292.821 189.266 294.203 192.004 295.081C194.743 295.958 198.226 296.198 200.008 293.938C201.151 292.502 201.284 290.428 202.481 289.045C203.757 287.583 205.938 287.264 207.905 287.45C209.846 287.636 211.761 288.221 213.728 288.114C215.669 288.008 217.796 286.971 218.302 285.083C218.647 283.86 218.249 282.557 218.062 281.281C217.903 280.005 218.062 278.516 219.126 277.824C219.658 277.479 220.296 277.399 220.934 277.372C222.583 277.266 224.284 277.346 225.88 276.947C227.502 276.548 229.071 275.511 229.576 273.942C230.081 272.32 229.23 270.432 227.901 269.262Z" fill="#508E07"/>
<path d="M130.742 278.436C121.329 276.734 112.448 272.852 103.168 270.485L96.3614 269.927C95.3244 271.788 93.6227 273.251 91.655 273.995C89.2354 274.926 85.9914 275.165 85.0608 277.585C84.1036 280.058 86.7359 282.637 89.3683 282.929C90.8042 283.089 92.2932 282.823 93.729 282.956C95.1915 283.089 96.7337 283.78 97.2123 285.163C97.6909 286.546 96.973 288.221 97.7707 289.444C98.8608 291.092 101.467 290.242 103.035 289.018C104.604 287.795 106.545 286.28 108.327 287.131C109.523 287.716 110.028 289.125 110.746 290.268C112.076 292.395 114.602 293.698 117.101 293.619C117.553 293.592 118.032 293.539 118.431 293.326C119.042 293.034 119.468 292.449 119.946 291.943C121.515 290.295 123.935 289.471 126.195 289.79C126.7 289.869 127.205 289.976 127.604 290.268C128.296 290.747 128.588 291.598 128.987 292.316C129.971 294.15 131.726 295.56 133.773 295.932C135.82 296.277 138.054 295.453 139.197 293.725C139.57 293.166 139.836 292.528 140.341 292.076C141.457 291.093 143.159 291.491 144.648 291.624C149.993 292.103 154.699 288.327 158.741 284.791C159.538 284.073 160.363 283.381 161.16 282.664C151.375 279.606 140.819 280.271 130.742 278.436Z" fill="#5AAA08"/>
<path d="M97.3447 257.164C97.3447 257.164 89.288 259.637 93.2765 270.353C97.2384 281.042 99.3123 282.318 119.547 284.551C139.782 286.785 163.899 287.583 180.677 286.147C197.455 284.711 210.324 283.435 216.307 279.951C222.29 276.442 223.885 277.771 223.885 273.783C223.885 269.794 225.48 264.37 221.12 264.051C216.759 263.732 225.48 257.004 215.828 254.08C206.176 251.155 173.258 246.422 147.307 249.666C121.382 252.883 97.3447 257.164 97.3447 257.164Z" fill="#703300"/>
<path d="M100.296 246.023C100.296 246.023 85.2731 254.851 83.146 267.986C80.9922 281.121 114.708 276.575 126.966 274.899C139.224 273.224 163.42 268.465 172.913 247.937C152.678 242.433 100.296 246.023 100.296 246.023Z" fill="#F63400"/>
<path d="M160.495 245.89C136.671 243.55 100.296 246.023 100.296 246.023C100.296 246.023 94.8187 249.267 90.0326 254.691C89.0487 256.42 88.3308 258.307 88.0649 260.275C86.2036 273.41 113.538 267.72 124.174 266.072C133.48 264.583 150.843 260.727 160.495 245.89Z" fill="#EE555A"/>
<path d="M209.58 240.625C209.58 240.625 224.603 249.453 226.73 262.588C228.884 275.724 195.168 271.177 182.91 269.502C170.652 267.827 146.456 263.067 136.963 242.54C157.172 237.062 209.58 240.625 209.58 240.625Z" fill="#E22500"/>
<path d="M149.381 240.492C173.205 238.152 209.58 240.625 209.58 240.625C209.58 240.625 215.057 243.869 219.843 249.294C220.827 251.022 221.545 252.91 221.811 254.877C223.672 268.013 196.338 262.322 185.702 260.674C176.369 259.211 159.033 255.356 149.381 240.492Z" fill="#EE555A"/>
<path d="M97.3447 222.677C97.3447 222.677 89.288 226.267 93.2765 241.689C97.265 257.111 99.3123 258.972 119.547 262.189C139.782 265.407 163.899 266.55 180.677 264.476C197.455 262.402 210.324 260.568 216.307 255.515C222.29 250.463 223.885 252.378 223.885 246.581C223.885 240.785 225.48 232.994 221.12 232.515C216.759 232.063 225.48 222.332 215.828 218.13C206.176 213.903 173.258 207.069 147.307 211.749C121.382 216.482 97.3447 222.677 97.3447 222.677Z" fill="#703300"/>
<path d="M114.948 241.609C114.948 241.609 87.6133 250.889 80.0087 256.393C77.2433 239.854 97.4781 222.544 97.4781 222.544L114.948 241.609Z" fill="#FFCF03"/>
<path d="M120.558 239.243C120.558 239.243 164.431 255.542 172.089 263.014C193.227 244.747 207.028 234.004 207.028 234.004L165.973 220.975L120.558 239.243Z" fill="#FFCF03"/>
<path d="M104.391 208.718C104.391 208.718 89.3681 220.045 87.2409 236.903C85.0872 253.761 118.803 247.937 131.061 245.784C143.319 243.63 167.515 237.514 177.008 211.164C156.773 204.118 104.391 208.718 104.391 208.718Z" fill="#F63400"/>
<path d="M164.59 208.558C140.766 205.554 104.391 208.718 104.391 208.718C104.391 208.718 98.9136 212.866 94.1275 219.859C93.1437 222.092 92.4258 224.485 92.1599 227.038C90.2986 243.896 117.633 236.61 128.269 234.457C137.575 232.569 154.938 227.623 164.59 208.558Z" fill="#EE555A"/>
<path d="M213.675 201.804C213.675 201.804 228.698 213.132 230.825 229.989C232.979 246.847 199.263 241.024 187.005 238.87C174.747 236.717 150.551 230.601 141.058 204.251C161.267 197.231 213.675 201.804 213.675 201.804Z" fill="#E22500"/>
<path d="M153.449 201.645C177.273 198.64 213.648 201.804 213.648 201.804C213.648 201.804 219.125 205.952 223.912 212.945C224.895 215.179 225.613 217.572 225.879 220.125C227.741 236.983 200.406 229.697 189.77 227.543C180.464 225.682 163.128 220.71 153.449 201.645Z" fill="#EE555A"/>
<path d="M225.454 204.304C224.124 203.134 222.423 202.522 220.747 201.937C219.152 201.379 217.53 200.794 215.935 200.236L209.633 202.948C195.886 204.889 182.139 206.83 168.392 208.744C160.522 209.861 152.598 210.951 144.674 210.818C143.079 210.792 141.377 210.712 139.968 211.456C137.761 212.6 136.884 215.285 136.697 217.758C136.405 222.119 137.788 226.586 140.526 230.016C140.819 230.388 141.164 230.787 141.617 230.947C142.069 231.133 142.574 231.08 143.052 231.133C144.621 231.266 145.924 232.382 147.333 233.074C150.338 234.536 153.954 234.084 157.039 232.808C160.123 231.532 162.809 229.511 165.654 227.756C167.143 226.825 169.084 225.974 170.573 226.905C171.689 227.596 172.088 229.032 173.125 229.83C174.269 230.681 175.891 230.521 177.22 230.043C178.55 229.564 179.799 228.766 181.209 228.474C184.027 227.862 186.819 229.245 189.558 230.122C192.296 231 195.78 231.239 197.561 228.979C198.705 227.543 198.838 225.469 200.034 224.086C201.31 222.624 203.491 222.305 205.458 222.491C207.399 222.677 209.314 223.262 211.281 223.156C213.223 223.05 215.35 222.013 215.855 220.125C216.201 218.902 215.802 217.599 215.616 216.322C215.456 215.046 215.616 213.557 216.679 212.866C217.211 212.52 217.849 212.44 218.487 212.414C220.136 212.307 221.838 212.387 223.433 211.988C225.055 211.589 226.624 210.552 227.129 208.984C227.634 207.362 226.783 205.474 225.454 204.304Z" fill="#508E07"/>
<path d="M128.295 213.504C118.882 211.802 110.001 207.92 100.722 205.553L93.9146 204.995C92.8776 206.856 91.1759 208.319 89.2083 209.063C86.7886 209.994 83.5447 210.233 82.614 212.653C81.6568 215.126 84.2892 217.705 86.9216 217.997C88.3574 218.157 89.8464 217.891 91.2823 218.024C92.7447 218.157 94.2869 218.848 94.7655 220.231C95.2441 221.614 94.5262 223.289 95.3239 224.512C96.4141 226.16 99.0199 225.31 100.589 224.086C102.157 222.863 104.098 221.348 105.88 222.199C107.077 222.784 107.582 224.193 108.3 225.336C109.629 227.463 112.155 228.766 114.655 228.687C115.107 228.66 115.585 228.607 115.984 228.394C116.596 228.102 117.021 227.517 117.5 227.011C119.069 225.363 121.488 224.539 123.748 224.858C124.253 224.937 124.759 225.044 125.158 225.336C125.849 225.815 126.141 226.666 126.54 227.384C127.524 229.218 129.279 230.628 131.326 231C133.374 231.345 135.607 230.521 136.751 228.793C137.123 228.234 137.389 227.596 137.894 227.144C139.011 226.161 140.712 226.559 142.202 226.692C147.546 227.171 152.252 223.395 156.294 219.859C157.092 219.141 157.916 218.449 158.714 217.732C148.929 214.647 138.373 215.338 128.295 213.504Z" fill="#5AAA08"/>
<path d="M219.738 199.544C219.738 212.733 190.728 221.002 154.938 221.002C119.149 221.002 90.1394 212.759 90.1394 199.544C90.1394 186.356 119.149 166.148 154.938 166.148C190.728 166.148 219.738 186.329 219.738 199.544Z" fill="#EEBA73"/>
<path d="M154.938 166.148C124.679 166.148 99.2596 180.586 92.1335 193.03C99.2596 202.841 124.679 208.744 154.938 208.744C185.197 208.744 210.617 202.841 217.743 193.03C210.617 180.586 185.197 166.148 154.938 166.148Z" fill="#FFBC15"/>
<path d="M160.496 168.355C160.496 168.355 184.825 172.237 204.475 184.255C224.125 196.274 184.559 204.729 168.18 202.283C151.801 199.81 166.478 173.194 160.496 168.355Z" fill="#FFC34A"/>
<path d="M147.387 178.592C148.136 178.592 148.743 176.853 148.743 174.709C148.743 172.565 148.136 170.827 147.387 170.827C146.638 170.827 146.031 172.565 146.031 174.709C146.031 176.853 146.638 178.592 147.387 178.592Z" fill="#FFE164"/>
<path d="M132.952 177.683C134.615 176.329 135.58 174.761 135.107 174.18C134.634 173.6 132.903 174.226 131.24 175.579C129.577 176.933 128.612 178.501 129.085 179.082C129.558 179.663 131.289 179.037 132.952 177.683Z" fill="#FFE164"/>
<path d="M110.143 183.175C111.806 181.821 112.771 180.253 112.298 179.672C111.825 179.091 110.094 179.718 108.431 181.071C106.768 182.425 105.803 183.993 106.276 184.574C106.749 185.155 108.48 184.528 110.143 183.175Z" fill="#FFE164"/>
<path d="M113.02 196.507C114.39 194.857 115.034 193.132 114.457 192.654C113.881 192.175 112.304 193.125 110.934 194.774C109.564 196.423 108.921 198.148 109.497 198.627C110.073 199.105 111.651 198.156 113.02 196.507Z" fill="#FFE164"/>
<path d="M132.335 198.379C132.843 196.296 132.665 194.464 131.938 194.286C131.21 194.109 130.208 195.653 129.7 197.736C129.192 199.819 129.369 201.652 130.097 201.829C130.825 202.007 131.827 200.462 132.335 198.379Z" fill="#FFE164"/>
<path d="M141.213 185.842C141.722 183.759 141.544 181.926 140.816 181.749C140.089 181.571 139.087 183.116 138.578 185.199C138.07 187.282 138.248 189.114 138.975 189.292C139.703 189.469 140.705 187.925 141.213 185.842Z" fill="#FFE164"/>
<path d="M126.387 188.025C127.756 186.376 128.4 184.651 127.824 184.172C127.247 183.694 125.67 184.643 124.3 186.293C122.93 187.942 122.287 189.667 122.863 190.145C123.439 190.624 125.017 189.675 126.387 188.025Z" fill="#FFE164"/>
<path d="M176.753 179.069C177.226 178.488 176.261 176.92 174.598 175.566C172.935 174.213 171.204 173.587 170.731 174.167C170.259 174.748 171.223 176.317 172.886 177.67C174.549 179.024 176.28 179.65 176.753 179.069Z" fill="#FFE164"/>
<path d="M199.544 184.549C200.017 183.968 199.052 182.4 197.389 181.046C195.726 179.693 193.995 179.066 193.522 179.647C193.049 180.228 194.014 181.796 195.677 183.15C197.34 184.503 199.071 185.129 199.544 184.549Z" fill="#FFE164"/>
<path d="M196.308 198.553C196.884 198.074 196.241 196.349 194.871 194.7C193.501 193.05 191.924 192.101 191.348 192.58C190.772 193.058 191.415 194.783 192.785 196.433C194.155 198.082 195.732 199.031 196.308 198.553Z" fill="#FFE164"/>
<path d="M175.702 201.829C176.43 201.651 176.608 199.819 176.099 197.736C175.591 195.653 174.589 194.108 173.861 194.286C173.134 194.464 172.956 196.296 173.464 198.379C173.973 200.462 174.975 202.007 175.702 201.829Z" fill="#FFE164"/>
<path d="M166.823 189.307C167.551 189.13 167.728 187.297 167.22 185.214C166.712 183.132 165.71 181.587 164.982 181.765C164.255 181.942 164.077 183.775 164.585 185.858C165.094 187.94 166.095 189.485 166.823 189.307Z" fill="#FFE164"/>
<path d="M182.928 190.076C183.504 189.598 182.86 187.873 181.491 186.224C180.121 184.574 178.543 183.625 177.967 184.103C177.391 184.582 178.034 186.307 179.404 187.956C180.774 189.606 182.351 190.555 182.928 190.076Z" fill="#FFE164"/>
<path d="M148.763 199.864C148.934 197.727 148.467 195.946 147.721 195.886C146.974 195.826 146.23 197.51 146.059 199.647C145.888 201.784 146.354 203.565 147.101 203.625C147.848 203.685 148.591 202.001 148.763 199.864Z" fill="#FFE164"/>
<path d="M156.748 190.377C157.496 190.346 158.029 188.584 157.939 186.442C157.849 184.3 157.17 182.589 156.421 182.62C155.673 182.652 155.14 184.413 155.23 186.556C155.32 188.698 155.999 190.409 156.748 190.377Z" fill="#FFE164"/>
<path d="M0 273.038L7.92371 296.251C7.92371 300.452 20.3145 303.829 35.6036 303.829C50.8926 303.829 63.2834 300.425 63.2834 296.251L71.2072 273.038H0Z" fill="#FFBC15"/>
<path d="M35.6036 282.797C55.2669 282.797 71.2072 278.428 71.2072 273.038C71.2072 267.649 55.2669 263.28 35.6036 263.28C15.9403 263.28 0 267.649 0 273.038C0 278.428 15.9403 282.797 35.6036 282.797Z" fill="#EAEAEA"/>
<path d="M35.6033 268.81C18.7188 268.81 5.02515 272.559 5.02515 277.186C5.02515 277.505 5.10491 277.798 5.21127 278.117C11.4598 280.935 22.7073 282.796 35.5767 282.796C48.4461 282.796 59.6935 280.909 65.9421 278.117C66.075 277.824 66.1282 277.505 66.1282 277.186C66.1814 272.559 52.4877 268.81 35.6033 268.81Z" fill="#F63400"/>
</svg>
