<svg width="259" height="330" viewBox="0 0 259 330" fill="none" xmlns="http://www.w3.org/2000/svg">
<path d="M241.573 183.777H17.7046V325.398H241.573V183.777Z" fill="#F7924D"/>
<path d="M241.647 187.122H17.6677V201.371H241.647V187.122Z" fill="#D37637"/>
<path d="M96.5331 223.29H26.4182V286.976H96.5331V223.29Z" fill="#F4D4C3"/>
<path opacity="0.2" d="M51.9112 223.29L26.4182 239.997V246.631L62.0677 223.29H51.9112Z" fill="white"/>
<path opacity="0.2" d="M58.6265 286.976H68.783L96.5329 268.79V262.137L58.6265 286.976Z" fill="white"/>
<path opacity="0.2" d="M96.5331 237.317L26.4182 283.483V286.976H36.1492L96.5331 246.631V237.317Z" fill="white"/>
<path opacity="0.2" d="M96.5331 223.29H81.6222L26.4182 259.457V271.507L96.5331 225.6V223.29Z" fill="white"/>
<path d="M155.493 223.992H105.08V318.394H155.493V223.992Z" fill="#D37637"/>
<path d="M129.759 226.857H106.172V316.102H129.759V226.857Z" fill="#F4D4C3"/>
<path d="M154.198 226.857H130.61V316.102H154.198V226.857Z" fill="#F4D4C3"/>
<path d="M128.779 264.558H127.114V271.396H128.779V264.558Z" fill="#D37637"/>
<path d="M133.496 264.299H131.831V271.137H133.496V264.299Z" fill="#D37637"/>
<path d="M130.61 226.857V231.052L137.122 226.857H130.61Z" fill="#F4D4C3"/>
<path opacity="0.2" d="M129.759 231.606L106.172 246.816V253.414L129.759 238.019V231.606Z" fill="white"/>
<path opacity="0.2" d="M146.872 226.857H137.122L130.61 231.052V237.465L146.872 226.857Z" fill="white"/>
<path opacity="0.2" d="M129.759 250.734L106.172 266.203V278.271L129.759 262.821V250.734Z" fill="white"/>
<path opacity="0.2" d="M130.61 262.266L154.198 246.816V234.711L130.61 250.18V262.266Z" fill="white"/>
<path opacity="0.2" d="M129.759 279.934L106.19 295.385V307.453L129.759 292.003V279.934Z" fill="white"/>
<path opacity="0.2" d="M130.628 291.448L154.216 275.998V263.911L130.628 279.362V291.448Z" fill="white"/>
<path d="M234.747 223.715H164.632V287.401H234.747V223.715Z" fill="#F4D4C3"/>
<path opacity="0.2" d="M190.106 223.715L164.632 240.403V247.056L200.281 223.715H190.106Z" fill="white"/>
<path opacity="0.2" d="M196.84 287.401H206.996L234.746 269.215V262.562L196.84 287.401Z" fill="white"/>
<path opacity="0.2" d="M234.746 237.723L164.631 283.908V287.401H174.344L234.746 247.056V237.723Z" fill="white"/>
<path opacity="0.2" d="M234.747 223.715H219.817L164.632 259.882V271.932L234.747 226.006V223.715Z" fill="white"/>
<path d="M251.618 194.644H8.45459L26.8251 141.898H230.769L251.618 194.644Z" fill="#7A4900"/>
<path d="M39.4605 141.898L22.1445 194.662L33.781 194.644L49.136 141.898H39.4605Z" fill="white"/>
<path d="M63.418 141.64L50.5605 194.681L61.7715 194.644L73.9445 141.899L63.418 141.64Z" fill="white"/>
<path d="M88.5779 141.64L75.7019 194.681L86.9314 194.644L99.0859 141.899L88.5779 141.64Z" fill="white"/>
<path d="M112.054 141.64L105.45 194.699L117.475 194.625L122.581 141.899L112.054 141.64Z" fill="white"/>
<path d="M218.004 141.898L235.32 194.662L223.683 194.644L208.328 141.898H218.004Z" fill="white"/>
<path d="M194.046 141.64L206.904 194.681L195.674 194.644L183.52 141.899L194.046 141.64Z" fill="white"/>
<path d="M168.886 141.64L181.762 194.681L170.532 194.644L158.378 141.899L168.886 141.64Z" fill="white"/>
<path d="M145.41 141.64L152.014 194.699L139.971 194.625L134.883 141.899L145.41 141.64Z" fill="white"/>
<path d="M257.871 329.981C258.593 328.096 259 326.064 259 323.938C259 314.513 251.304 306.862 241.813 306.862C239.797 306.862 237.873 307.213 236.078 307.86C234.025 300.726 227.42 295.496 219.558 295.496C212.047 295.496 205.664 300.301 203.333 306.972C201.983 306.64 200.577 306.436 199.134 306.436C189.643 306.436 181.948 314.069 181.948 323.513C181.948 325.805 182.41 328.004 183.243 330H257.871V329.981Z" fill="#068E61"/>
<path d="M216.525 329.982C217.08 328.54 217.394 326.988 217.394 325.361C217.394 318.154 211.511 312.314 204.241 312.314C202.705 312.314 201.225 312.591 199.856 313.071C198.284 307.619 193.233 303.609 187.221 303.609C181.467 303.609 176.602 307.287 174.807 312.387C173.771 312.129 172.698 311.981 171.588 311.981C164.336 311.981 158.435 317.821 158.435 325.029C158.435 326.784 158.786 328.466 159.415 329.982H216.525Z" fill="#19A36B"/>
<path d="M58.7376 328.78C59.2926 327.339 59.6071 325.786 59.6071 324.16C59.6071 316.952 53.7242 311.112 46.4537 311.112C44.9182 311.112 43.4382 311.389 42.0692 311.87C40.4967 306.418 35.4462 302.408 29.4337 302.408C23.6802 302.408 18.8147 306.085 17.0202 311.186C15.9842 310.927 14.9112 310.78 13.8012 310.78C6.5492 310.78 0.647705 316.62 0.647705 323.827C0.647705 325.583 0.999202 327.265 1.6282 328.78H58.7376Z" fill="#19A36B"/>
<path d="M96.5516 328.78C97.2731 326.895 97.6801 324.862 97.6801 322.737C97.6801 313.312 89.9841 305.66 80.4936 305.66C78.4771 305.66 76.5531 306.03 74.7586 306.658C72.7051 299.525 66.1006 294.294 58.2382 294.294C50.7272 294.294 44.3447 299.099 42.0137 305.771C40.6632 305.439 39.2572 305.235 37.8142 305.235C28.3237 305.235 20.6277 312.868 20.6277 322.312C20.6277 324.603 21.0902 326.803 21.9227 328.799H96.5516V328.78Z" fill="#068E61"/>
<path d="M23.5317 17.9822L14.1152 10.9778L21.3857 1.90357L30.8022 8.90794L23.5317 17.9822Z" fill="#F7924D"/>
<path d="M8.84299 155.113L0 147.443L7.95498 138.923L16.798 146.593L8.84299 155.113Z" fill="#F7924D"/>
<path d="M158.878 16.208L150.164 8.39046L158.267 0L166.981 7.79906L158.878 16.208Z" fill="#F7924D"/>
<path d="M247.715 77.4916L239.001 69.6926L247.104 61.2836L255.818 69.1012L247.715 77.4916Z" fill="#F7924D"/>
<path d="M203.204 56.1828L191.771 43.7265L204.683 32.7117L216.135 45.1495L203.204 56.1828Z" fill="#F7924D"/>
<path d="M5.84589 75.551C2.7934 75.551 0.295898 73.1485 0.295898 70.1915C0.295898 67.2345 2.7934 64.8319 5.84589 64.8319C8.89839 64.8319 11.3959 67.2345 11.3959 70.1915C11.3959 73.1485 8.91689 75.551 5.84589 75.551ZM5.84589 66.6985C3.84789 66.6985 2.2199 68.2694 2.2199 70.21C2.2199 72.1505 3.84789 73.7214 5.84589 73.7214C7.84389 73.7214 9.47189 72.1505 9.47189 70.21C9.47189 68.2694 7.84389 66.6985 5.84589 66.6985Z" fill="#F7924D"/>
<path d="M80.6227 36.1307C77.5703 36.1307 75.0728 33.7282 75.0728 30.7712C75.0728 27.8142 77.5703 25.4116 80.6227 25.4116C83.6752 25.4116 86.1727 27.8142 86.1727 30.7712C86.1727 33.7282 83.6752 36.1307 80.6227 36.1307ZM80.6227 27.2782C78.6247 27.2782 76.9968 28.8491 76.9968 30.7896C76.9968 32.7302 78.6247 34.3011 80.6227 34.3011C82.6207 34.3011 84.2488 32.7302 84.2488 30.7896C84.2488 28.8491 82.6207 27.2782 80.6227 27.2782Z" fill="#F7924D"/>
<path d="M243.885 25.966C240.833 25.966 238.335 23.5635 238.335 20.6065C238.335 17.6495 240.833 15.247 243.885 15.247C246.938 15.247 249.435 17.6495 249.435 20.6065C249.435 23.5635 246.956 25.966 243.885 25.966ZM243.885 17.1136C241.887 17.1136 240.259 18.6845 240.259 20.625C240.259 22.5655 241.887 24.1364 243.885 24.1364C245.883 24.1364 247.511 22.5655 247.511 20.625C247.511 18.6845 245.902 17.1136 243.885 17.1136Z" fill="#F7924D"/>
<path d="M244.847 134.081C241.795 134.081 239.297 131.678 239.297 128.721C239.297 125.764 241.795 123.362 244.847 123.362C247.9 123.362 250.397 125.764 250.397 128.721C250.397 131.678 247.918 134.081 244.847 134.081ZM244.847 125.228C242.849 125.228 241.221 126.799 241.221 128.74C241.221 130.68 242.849 132.251 244.847 132.251C246.845 132.251 248.473 130.68 248.473 128.74C248.473 126.799 246.845 125.228 244.847 125.228Z" fill="#F7924D"/>
<path d="M138.51 121.717L55.1671 45.7409L22.1816 126.208L136.882 125.654C139.028 125.635 140.064 123.122 138.51 121.717Z" fill="#FFDD90"/>
<path d="M13.0425 121.828L45.1584 43.4677C46.1019 41.1761 48.8029 40.0487 51.1894 40.9543L53.9274 41.9892C58.5709 43.7634 60.8649 48.8458 59.0334 53.3182L30.9505 121.828C28.8045 127.058 22.6255 129.645 17.205 127.576L15.2995 126.855C13.246 126.06 12.2285 123.805 13.0425 121.828Z" fill="#FAB881"/>
<path d="M59.681 50.7678C59.681 50.7678 56.4251 50.6754 54.4271 57.8091C52.4291 64.9244 55.1115 65.3679 51.5596 69.5262C48.0076 73.6845 43.8266 76.1609 44.0671 82.7033C44.3076 89.2456 44.1781 88.6912 40.6816 92.1841C36.6856 96.1576 33.2446 102.404 34.6506 108.854C36.0381 115.304 30.6176 116.82 28.9711 119.943C27.3246 123.066 29.1746 126.189 29.1746 126.189C29.1746 126.189 30.1181 123.269 32.9486 120.386C37.7216 115.489 36.5006 111.7 38.4986 105.121C40.4966 98.5417 43.9931 98.6156 46.2316 92.6646C48.4886 86.7137 44.4371 85.0874 50.357 77.8427C56.277 70.5981 56.9801 70.0622 57.6646 64.7765C58.3491 59.4724 58.2565 53.1704 59.681 50.7678Z" fill="#E76000"/>
<path d="M67.7469 92.6276C73.5606 92.6276 78.2734 88.085 78.2734 82.4815C78.2734 76.8779 73.5606 72.3353 67.7469 72.3353C61.9333 72.3353 57.2205 76.8779 57.2205 82.4815C57.2205 88.085 61.9333 92.6276 67.7469 92.6276Z" fill="#BC2820"/>
<path d="M67.303 82.1673C67.303 82.1673 70.966 76.5121 69.708 75.4956C68.45 74.4791 62.1785 76.05 61.6975 77.8058C61.198 79.5615 67.303 82.1673 67.303 82.1673Z" fill="#CC2D29"/>
<path d="M67.4695 83.4055C67.4695 83.4055 60.8096 85.1982 61.0316 86.7691C61.2536 88.34 66.97 91.26 68.561 90.2805C70.1335 89.2825 67.4695 83.4055 67.4695 83.4055Z" fill="#CC2D29"/>
<path d="M68.9124 82.5185C68.9124 82.5185 73.9073 87.1388 75.1838 86.1593C76.4603 85.1797 76.1643 78.9516 74.4808 78.1199C72.8158 77.2883 68.9124 82.5185 68.9124 82.5185Z" fill="#CC2D29"/>
<path d="M96.5702 118.132C102.384 118.132 107.097 113.589 107.097 107.986C107.097 102.382 102.384 97.8393 96.5702 97.8393C90.7566 97.8393 86.0437 102.382 86.0437 107.986C86.0437 113.589 90.7566 118.132 96.5702 118.132Z" fill="#BC2820"/>
<path d="M96.1072 107.671C96.1072 107.671 99.7702 102.016 98.5122 101C97.2542 99.9832 90.9827 101.554 90.5017 103.31C90.0207 105.065 96.1072 107.671 96.1072 107.671Z" fill="#CC2D29"/>
<path d="M96.274 108.91C96.274 108.91 89.614 110.702 89.836 112.273C90.058 113.844 95.7745 116.764 97.3655 115.785C98.9565 114.805 96.274 108.91 96.274 108.91Z" fill="#CC2D29"/>
<path d="M97.7356 108.022C97.7356 108.022 102.731 112.643 104.007 111.663C105.284 110.684 104.988 104.456 103.304 103.624C101.639 102.811 97.7356 108.022 97.7356 108.022Z" fill="#CC2D29"/>
<path d="M58.6637 122.271C64.4773 122.271 69.1902 117.729 69.1902 112.125C69.1902 106.522 64.4773 101.979 58.6637 101.979C52.8501 101.979 48.1372 106.522 48.1372 112.125C48.1372 117.729 52.8501 122.271 58.6637 122.271Z" fill="#BC2820"/>
<path d="M58.2012 111.811C58.2012 111.811 61.8642 106.156 60.6062 105.139C59.3482 104.123 53.0767 105.694 52.5957 107.45C52.0962 109.205 58.2012 111.811 58.2012 111.811Z" fill="#CC2D29"/>
<path d="M58.3677 113.049C58.3677 113.049 51.7077 114.842 51.9297 116.413C52.1517 117.984 57.8682 120.904 59.4592 119.924C61.0502 118.945 58.3677 113.049 58.3677 113.049Z" fill="#CC2D29"/>
<path d="M59.8291 112.162C59.8291 112.162 64.8241 116.783 66.1006 115.803C67.3771 114.824 67.0811 108.595 65.3976 107.764C63.7141 106.951 59.8291 112.162 59.8291 112.162Z" fill="#CC2D29"/>
<path d="M227.254 88.8205C227.254 88.8205 224.905 82.8881 211.992 79.5799C199.079 76.2718 190.754 74.0171 182.336 69.674C173.919 65.3125 166.5 56.2567 163.411 52.1908C160.303 48.125 153.069 40.4738 146.65 39.79C140.23 39.1061 138.547 40.7325 138.547 40.7325C138.547 40.7325 153.55 65.2385 175.325 75.7913C197.099 86.3441 222.944 89.6337 227.254 88.8205Z" fill="#FAB881"/>
<path d="M217.394 108.595C217.394 108.595 238.299 110.092 235.154 95.7695C232.009 81.4466 204.018 83.1099 188.09 76.3273C172.161 69.5447 158.083 56.46 149.906 46.9607C141.729 37.4613 131.461 34.4489 125.412 41.2685C119.381 48.1065 119.436 51.2114 119.436 51.2114C119.436 51.2114 122.452 89.412 217.394 108.595Z" fill="#DD5147"/>
<path d="M223.98 105.195C223.98 105.195 224.775 95.2705 189.403 86.8246C153.828 78.3047 145.207 68.4727 142.783 65.0537C140.36 61.6347 125.375 46.092 115.847 52.7453C106.32 59.3985 112.61 85.3461 142.395 99.4287C172.18 113.511 196.822 120.479 206.571 119.13C216.302 117.762 223.684 117.614 223.98 105.195Z" fill="#FAB881"/>
<path d="M213.582 93.5887C213.582 93.5887 216.801 87.6377 208.643 85.6972C200.484 83.7567 203.851 89.5967 195.582 85.7342C187.331 81.8716 190.309 78.1384 182.225 79.3767C174.14 80.5964 170.126 82.4815 169.053 77.4916C167.98 72.4832 164.095 68.5467 159.248 69.2859C154.401 70.0252 147.093 70.9123 147.13 65.2755C147.186 59.6388 151.404 55.5359 144.466 53.8172C137.529 52.1169 129.833 56.2012 130.24 49.6589C130.647 43.0981 138.731 41.8783 137.473 44.5581C136.197 47.2379 132.497 49.4371 135.993 50.509C139.49 51.5809 143.134 47.5705 146.76 52.1539C150.386 56.7372 150.682 56.8296 150.09 61.6532C149.498 66.4583 151.422 67.3824 155.437 66.5507C159.451 65.719 168.257 66.8464 169.589 70.8938C170.921 74.9412 173.567 78.7298 176.786 77.7133C180.005 76.6969 187.941 74.7748 189.995 76.9926C192.048 79.2103 195.619 85.3461 200.022 84.6438C204.425 83.96 210.474 80.1898 213.989 84.5144C217.504 88.839 217.208 93.4408 215.525 94.4018C213.86 95.3629 213.046 94.9563 213.582 93.5887Z" fill="#FFBD2D"/>
<path d="M206.571 119.111C207.885 118.926 209.161 118.76 210.382 118.594C198.043 116.838 177.933 110.185 154.679 99.1885C124.894 85.1058 118.604 59.1582 128.131 52.505C128.131 52.505 128.15 52.505 128.15 52.4865C123.821 50.7308 119.381 50.2503 115.847 52.7083C106.32 59.3615 112.61 85.3091 142.395 99.3918C172.198 113.493 196.84 120.46 206.571 119.111Z" fill="#E2A171"/>
</svg>
