<svg width="262" height="187" viewBox="0 0 262 187" fill="none" xmlns="http://www.w3.org/2000/svg">
<g opacity="0.05">
<path d="M199.966 67.0445C199.762 67.0445 199.57 66.9205 199.494 66.7187L193.831 51.7897C193.732 51.5294 193.862 51.238 194.123 51.1388C194.382 51.0403 194.675 51.1705 194.774 51.4316L200.437 66.3606C200.536 66.6216 200.405 66.9123 200.144 67.0115C200.085 67.0335 200.025 67.0445 199.966 67.0445Z" fill="#0E1A2D"/>
<path d="M155.291 141.259H206.691C206.691 141.259 200.239 152.8 179.253 152.8C158.268 152.801 155.291 141.259 155.291 141.259Z" fill="#1D2C49"/>
<path d="M176.618 181.643C223.65 181.643 261.776 179.299 261.776 176.407C261.776 173.514 223.65 171.17 176.618 171.17C129.587 171.17 91.4606 173.514 91.4606 176.407C91.4606 179.299 129.587 181.643 176.618 181.643Z" fill="url(#paint0_linear_3807_7382)"/>
<path d="M70.3816 176.407C70.3816 178.735 53.2829 180.622 32.1908 180.622C11.0987 180.622 -5.99991 178.735 -5.99991 176.407C-5.99991 174.079 11.0987 172.191 32.1908 172.191C53.2829 172.191 70.3816 174.079 70.3816 176.407Z" fill="url(#paint1_linear_3807_7382)"/>
<path d="M198.176 88.527C202.113 106.468 203.633 141.26 185.561 141.26C167.49 141.26 187.082 148.474 187.082 148.474C187.082 148.474 199.58 150.215 203.971 147.031C208.362 143.847 212.416 120.296 211.909 115.24C211.402 110.184 203.802 90.1787 202.282 88.5277C200.762 86.876 198.176 88.527 198.176 88.527Z" fill="#1D2C49"/>
<path d="M203.239 78.0352H196.692V82.7415H203.239V78.0352Z" fill="#F2A222"/>
<path d="M150.595 160.064C152.417 148.73 144.705 138.065 133.371 136.243C122.037 134.421 111.372 142.132 109.55 153.466C107.728 164.801 115.439 175.466 126.774 177.288C138.108 179.109 148.773 171.398 150.595 160.064Z" fill="#1D2C49"/>
<path d="M138.851 165.534C143.697 160.687 143.697 152.829 138.851 147.982C134.004 143.135 126.146 143.135 121.299 147.982C116.452 152.829 116.452 160.687 121.299 165.534C126.146 170.38 134.004 170.38 138.851 165.534Z" fill="#0E1A2D"/>
<path d="M141.08 158.543C142.061 152.466 137.93 146.745 131.854 145.763C125.777 144.782 120.055 148.913 119.074 154.99C118.093 161.066 122.224 166.788 128.3 167.769C134.377 168.75 140.099 164.62 141.08 158.543Z" fill="#FFCA36"/>
<path d="M130.078 163.645C133.881 163.645 136.964 160.562 136.964 156.758C136.964 152.955 133.881 149.872 130.078 149.872C126.274 149.872 123.191 152.955 123.191 156.758C123.191 160.562 126.274 163.645 130.078 163.645Z" fill="url(#paint2_linear_3807_7382)"/>
<path d="M131.755 156.758C131.755 157.685 131.004 158.435 130.078 158.435C129.151 158.435 128.4 157.685 128.4 156.758C128.4 155.832 129.151 155.081 130.078 155.081C131.004 155.081 131.755 155.832 131.755 156.758Z" fill="#FFCA36"/>
<path d="M244.501 171.456C252.618 163.339 252.618 150.178 244.501 142.06C236.383 133.943 223.222 133.943 215.105 142.06C206.987 150.178 206.987 163.339 215.105 171.456C223.222 179.574 236.383 179.574 244.501 171.456Z" fill="#1D2C49"/>
<path d="M238.579 165.534C243.425 160.687 243.425 152.829 238.579 147.983C233.732 143.136 225.874 143.136 221.027 147.983C216.18 152.829 216.18 160.687 221.027 165.534C225.874 170.381 233.732 170.381 238.579 165.534Z" fill="#0E1A2D"/>
<path d="M237.684 164.639C242.036 160.287 242.036 153.23 237.684 148.877C233.331 144.525 226.274 144.525 221.922 148.877C217.569 153.23 217.569 160.287 221.922 164.639C226.274 168.992 233.331 168.992 237.684 164.639Z" fill="#FFCA36"/>
<path d="M229.806 163.645C233.609 163.645 236.692 160.562 236.692 156.758C236.692 152.955 233.609 149.872 229.806 149.872C226.003 149.872 222.92 152.955 222.92 156.758C222.92 160.562 226.003 163.645 229.806 163.645Z" fill="url(#paint3_linear_3807_7382)"/>
<path d="M119.859 127.312C121.367 127.312 122.589 126.09 122.589 124.582C122.589 123.074 121.367 121.852 119.859 121.852C118.351 121.852 117.129 123.074 117.129 124.582C117.129 126.09 118.351 127.312 119.859 127.312Z" fill="#0457AA"/>
<path d="M169.332 109.226H139.713C116.114 109.226 96.9825 128.358 96.9825 151.957V156.758C96.9825 156.758 160.129 156.758 183.693 156.758C207.257 156.758 204.253 156.065 208.989 146.016C213.725 135.966 221.926 132.992 231.282 132.992C231.282 132.992 228.857 115.868 225.045 112.287C221.233 108.706 214.649 104.432 210.26 92.3034C206.161 80.9767 204.265 82.0415 197 82.2316C196.241 82.2516 195.738 83.0299 196.053 83.7207C198.239 88.5028 205.038 103.937 206.68 114.366C208.643 126.841 203.561 146.593 192.01 148.094C180.46 149.596 158.166 149.481 155.856 139.431C153.545 129.382 169.332 109.226 169.332 109.226Z" fill="#FFCA36"/>
<path d="M130.078 128.404C114.418 128.404 101.724 141.099 101.724 156.758H158.431C158.431 141.098 145.737 128.404 130.078 128.404Z" fill="#F2A222"/>
<path d="M141.693 138.932H118.462C118.023 138.932 117.667 138.576 117.667 138.137C117.667 137.697 118.023 137.341 118.462 137.341H141.693C142.132 137.341 142.488 137.697 142.488 138.137C142.488 138.576 142.132 138.932 141.693 138.932Z" fill="#FFCA36"/>
<path d="M141.693 142.851H118.462C118.023 142.851 117.667 142.495 117.667 142.055C117.667 141.616 118.023 141.26 118.462 141.26H141.693C142.132 141.26 142.488 141.616 142.488 142.055C142.488 142.495 142.132 142.851 141.693 142.851Z" fill="#FFCA36"/>
<path d="M141.693 146.769H118.462C118.023 146.769 117.667 146.413 117.667 145.974C117.667 145.534 118.023 145.178 118.462 145.178H141.693C142.132 145.178 142.488 145.534 142.488 145.974C142.488 146.413 142.132 146.769 141.693 146.769Z" fill="#FFCA36"/>
<path d="M141.693 150.688H118.462C118.023 150.688 117.667 150.332 117.667 149.893C117.667 149.453 118.023 149.097 118.462 149.097H141.693C142.132 149.097 142.488 149.453 142.488 149.893C142.488 150.332 142.132 150.688 141.693 150.688Z" fill="#FFCA36"/>
<path d="M221.721 115.246V125.177C221.721 125.708 222.151 126.138 222.681 126.138H225.152C225.683 126.138 226.112 125.708 226.112 125.177V119.638C226.112 117.213 224.146 115.246 221.721 115.246Z" fill="url(#paint4_linear_3807_7382)"/>
<path d="M210.67 64.9546H193.175C191.279 64.9546 189.741 66.4919 189.741 68.3881V75.9136C189.741 77.8097 191.279 79.3471 193.175 79.3471H210.67V64.9546Z" fill="#FFCA36"/>
<path d="M210.67 79.3478V64.9546C214.223 64.9546 217.103 67.835 217.103 71.3884V72.914C217.103 76.4673 214.223 79.3478 210.67 79.3478Z" fill="url(#paint5_linear_3807_7382)"/>
<path d="M229.807 157.516C229.519 157.516 229.245 157.351 229.117 157.072L221.565 140.502C221.391 140.122 221.56 139.673 221.94 139.5C222.323 139.326 222.769 139.494 222.943 139.874L230.495 156.444C230.668 156.825 230.5 157.273 230.12 157.447C230.018 157.493 229.911 157.516 229.807 157.516Z" fill="#0E1A2D"/>
<path d="M223.23 141.101H249.327C244.74 135.389 237.702 131.729 229.806 131.729C220.316 131.729 212.06 137.011 207.817 144.796H217.395L223.23 141.101Z" fill="#F2A222"/>
<path d="M231.281 156.758C231.281 157.573 230.621 158.233 229.806 158.233C228.991 158.233 228.331 157.573 228.331 156.758C228.331 155.943 228.991 155.283 229.806 155.283C230.621 155.283 231.281 155.943 231.281 156.758Z" fill="#FFCA36"/>
<path d="M119.859 127.959C121.724 127.959 123.236 126.447 123.236 124.582C123.236 122.717 121.724 121.205 119.859 121.205C117.994 121.205 116.482 122.717 116.482 124.582C116.482 126.447 117.994 127.959 119.859 127.959Z" fill="#F2A222"/>
<path d="M121.561 124.582C121.561 125.522 120.799 126.284 119.859 126.284C118.919 126.284 118.157 125.522 118.157 124.582C118.157 123.642 118.919 122.88 119.859 122.88C120.799 122.88 121.561 123.642 121.561 124.582Z" fill="#FFCA36"/>
<path d="M186.58 79.4208C185.769 79.4208 185.005 78.9291 184.696 78.1273C184.295 77.0873 184.813 75.9185 185.854 75.5176L199.48 70.2671C200.523 69.8656 201.689 70.3849 202.089 71.425C202.49 72.465 201.972 73.6331 200.931 74.034L187.305 79.2845C187.066 79.3775 186.821 79.4208 186.58 79.4208Z" fill="#0E1A2D"/>
<path d="M119.859 125.339C119.693 125.339 119.526 125.285 119.387 125.173L100.214 109.836C99.8877 109.575 99.8347 109.098 100.096 108.772C100.357 108.445 100.833 108.392 101.16 108.653L120.332 123.991C120.659 124.252 120.712 124.728 120.451 125.055C120.301 125.242 120.081 125.339 119.859 125.339Z" fill="#0E1A2D"/>
<path d="M170.437 112.796H94.7653C92.9401 112.796 91.4599 111.317 91.4599 109.492V107.387C91.4599 105.562 92.9394 104.082 94.7653 104.082H170.437C172.262 104.082 173.741 105.562 173.741 107.387V109.492C173.741 111.316 172.262 112.796 170.437 112.796Z" fill="#1D2C49"/>
<path d="M153.466 116.035H130.235C129.795 116.035 129.439 115.679 129.439 115.239C129.439 114.8 129.795 114.444 130.235 114.444H153.466C153.905 114.444 154.261 114.8 154.261 115.239C154.261 115.679 153.905 116.035 153.466 116.035Z" fill="#F2A222"/>
<path d="M153.466 119.439H130.235C129.795 119.439 129.439 119.083 129.439 118.643C129.439 118.204 129.795 117.848 130.235 117.848H153.466C153.905 117.848 154.261 118.204 154.261 118.643C154.261 119.082 153.905 119.439 153.466 119.439Z" fill="#F2A222"/>
<path d="M153.466 122.842H130.235C129.795 122.842 129.439 122.486 129.439 122.047C129.439 121.607 129.795 121.251 130.235 121.251H153.466C153.905 121.251 154.261 121.607 154.261 122.047C154.261 122.486 153.905 122.842 153.466 122.842Z" fill="#F2A222"/>
<path d="M195.555 59.6091C198.139 59.6091 200.234 56.028 200.234 51.6105C200.234 47.1929 198.139 43.6118 195.555 43.6118C192.971 43.6118 190.876 47.1929 190.876 51.6105C190.876 56.028 192.971 59.6091 195.555 59.6091Z" fill="#F2A222"/>
<path d="M194.302 59.6091C196.886 59.6091 198.981 56.028 198.981 51.6105C198.981 47.1929 196.886 43.6118 194.302 43.6118C191.718 43.6118 189.624 47.1929 189.624 51.6105C189.624 56.028 191.718 59.6091 194.302 59.6091Z" fill="url(#paint6_linear_3807_7382)"/>
<path d="M205.984 67.5052C205.949 67.5052 205.913 67.5017 205.878 67.4941C205.605 67.4363 205.432 67.1677 205.489 66.8949L208.916 50.8322C208.974 50.5594 209.244 50.3893 209.515 50.4437C209.788 50.5016 209.961 50.7702 209.904 51.0429L206.477 67.1057C206.426 67.3426 206.217 67.5052 205.984 67.5052Z" fill="#0E1A2D"/>
<path d="M210.662 59.6091C213.246 59.6091 215.341 56.028 215.341 51.6105C215.341 47.1929 213.246 43.6118 210.662 43.6118C208.078 43.6118 205.983 47.1929 205.983 51.6105C205.983 56.028 208.078 59.6091 210.662 59.6091Z" fill="#F2A222"/>
<path d="M209.409 59.6091C211.993 59.6091 214.088 56.028 214.088 51.6105C214.088 47.1929 211.993 43.6118 209.409 43.6118C206.825 43.6118 204.73 47.1929 204.73 51.6105C204.73 56.028 206.825 59.6091 209.409 59.6091Z" fill="url(#paint7_linear_3807_7382)"/>
<path d="M98.477 154.293C97.8344 146.329 100.244 138.914 103.546 131.787C103.608 131.654 103.433 131.55 103.349 131.671C100.795 135.344 99.3435 139.933 98.5466 144.297C97.9487 147.572 97.6119 151.03 98.1595 154.335C98.1891 154.514 98.4922 154.474 98.477 154.293Z" fill="white"/>
<path d="M106.4 127.433C107.326 126.189 108.132 124.896 109.209 123.766C110.189 122.739 111.297 121.878 112.398 120.991C112.489 120.918 112.373 120.778 112.277 120.833C109.828 122.224 107.364 124.727 106.223 127.329C106.17 127.451 106.321 127.539 106.4 127.433Z" fill="white"/>
<path d="M120.132 115.488C120.559 115.282 120.94 114.943 121.336 114.68C121.741 114.411 122.177 114.184 122.569 113.9C122.665 113.831 122.611 113.669 122.486 113.701C121.616 113.926 120.489 114.578 119.975 115.331C119.906 115.434 120.038 115.534 120.132 115.488Z" fill="white"/>
<path d="M203.796 83.6925C204.305 84.1285 204.858 84.5018 205.307 85.0046C205.784 85.5371 206.156 86.1721 206.463 86.8154C206.536 86.9683 206.778 86.8602 206.733 86.7018C206.359 85.3594 205.287 83.9205 203.901 83.5121C203.801 83.4818 203.712 83.6202 203.796 83.6925Z" fill="white"/>
<path d="M192.738 65.682C191.59 66.0966 190.556 67.7042 190.753 68.9295C190.773 69.0577 190.983 69.0845 191.037 68.9667C191.279 68.4378 191.394 67.873 191.687 67.3585C192.004 66.8019 192.459 66.3825 192.86 65.8921C192.932 65.806 192.868 65.6345 192.738 65.682Z" fill="white"/>
<path d="M205.534 149.449C205.235 150.3 204.847 151.092 204.237 151.766C203.65 152.414 202.945 152.779 202.219 153.23C202.015 153.356 202.159 153.62 202.371 153.591C204.243 153.337 205.755 151.289 205.863 149.493C205.874 149.295 205.593 149.28 205.534 149.449Z" fill="white"/>
<path d="M230.39 132.631C235.114 133.435 239.869 133.891 243.56 137.343C243.666 137.442 243.85 137.314 243.768 137.183C242.604 135.327 240.25 134.439 238.27 133.716C235.862 132.835 232.997 132.101 230.419 132.41C230.306 132.424 230.253 132.608 230.39 132.631Z" fill="white"/>
<path d="M224.676 113.021C225.473 114.314 226.128 115.62 226.712 117.022C226.73 117.064 226.787 117.049 226.781 117.003C226.56 115.488 225.82 114.051 224.735 112.975C224.705 112.946 224.654 112.984 224.676 113.021Z" fill="white"/>
<path d="M223.753 117.475C224.036 117.82 224.33 118.11 224.549 118.508C224.765 118.901 224.821 119.323 224.989 119.73C225.04 119.854 225.209 119.868 225.255 119.73C225.565 118.803 224.796 117.517 223.937 117.159C223.742 117.077 223.649 117.348 223.753 117.475Z" fill="white"/>
<path d="M194.351 44.8505C193.46 44.5371 192.554 45.4704 192.149 46.1784C191.504 47.3052 191.173 48.7971 191.231 50.0851C191.237 50.247 191.458 50.2752 191.509 50.123C191.855 49.1029 192.042 48.0291 192.45 47.029C192.671 46.4897 192.946 46.0186 193.404 45.6453C193.724 45.3843 194.096 45.2734 194.386 44.9827C194.429 44.938 194.405 44.8698 194.351 44.8505Z" fill="white"/>
<path d="M212.216 50.0608C212.128 51.2696 211.919 52.3337 211.321 53.3972C210.859 54.2196 210.219 54.9228 209.747 55.7349C209.672 55.8643 209.831 56.0503 209.966 55.9532C211.694 54.7072 213.119 52.1719 212.529 50.0181C212.48 49.8383 212.229 49.8858 212.216 50.0608Z" fill="white"/>
<path d="M206.604 47.5456C205.027 48.6552 205.086 51.2829 205.4 52.9545C205.44 53.1687 205.746 53.1005 205.76 52.9056C205.822 52.0081 205.762 51.1121 205.885 50.2173C206.014 49.2813 206.402 48.5781 206.788 47.7288C206.837 47.6207 206.725 47.4602 206.604 47.5456Z" fill="white"/>
<path d="M197.115 53.8539C196.914 54.3843 196.68 54.9015 196.338 55.3575C196.021 55.7804 195.61 56.1172 195.238 56.4905C195.145 56.5849 195.239 56.7584 195.371 56.7178C196.53 56.359 197.338 55.0634 197.425 53.8959C197.439 53.7065 197.174 53.699 197.115 53.8539Z" fill="white"/>
<path d="M122.554 109.576C122.136 109.576 121.797 109.238 121.797 108.819V21.5397C121.797 21.1216 122.136 20.7827 122.554 20.7827C122.972 20.7827 123.311 21.1216 123.311 21.5397V108.819C123.311 109.238 122.972 109.576 122.554 109.576Z" fill="#0E1A2D"/>
<path d="M123.526 40.5764V21.5396L95.6257 29.7352C94.3053 30.123 94.3053 31.993 95.6257 32.3807L123.526 40.5764Z" fill="#FFCA36"/>
<path d="M121.469 40.5766H123.476C123.77 40.5766 124.008 40.3383 124.008 40.0442V22.0715C124.008 21.7774 123.77 21.5391 123.476 21.5391H121.469C121.175 21.5391 120.937 21.7774 120.937 22.0715V40.0442C120.937 40.3383 121.175 40.5766 121.469 40.5766Z" fill="#F2A222"/>
<path d="M56.9019 64.1201C57.2883 67.9627 63.2586 77.3975 65.1912 78.2233C67.1232 79.0498 76.8521 82.5853 80.466 81.6148L79.1649 85.5449L77.1971 86.1675C77.1971 86.1675 64.7008 85.7081 60.6433 83.8691C56.5858 82.0301 48.6905 67.3821 48.6905 67.3821L56.9019 64.1201Z" fill="#FFCC99"/>
<path d="M19.4929 17.273C19.5142 21.1274 25.5898 28.524 30.1137 29.0268L30.5758 25.6946L28.5839 18.2407L25.6759 16.6469C25.6759 16.6469 24.4107 13.9649 24.3755 14.0565C24.3404 14.1481 20.6348 15.4836 20.6348 15.4836L19.4929 17.273Z" fill="#1D2C49"/>
<path d="M53.4159 47.3926C57.304 54.1225 59.0101 68.5047 59.0101 68.5047C59.0101 68.5047 54.0737 72.4485 44.5922 69.4531L49.9659 47.3933H53.4159V47.3926Z" fill="#FFCA36"/>
<path d="M45.4784 158C45.4295 158.146 44.5534 171.408 44.5534 171.408L38.3428 171.17L39.0536 155.566L45.4784 158Z" fill="#FFCC99"/>
<path d="M24.2675 158.507C24.2185 158.653 21.7411 171.407 21.7411 171.407L15.5304 171.17L17.8426 156.073L24.2675 158.507Z" fill="#FFCC99"/>
<path d="M37.6275 163.819L45.2501 163.661C47.1118 148.278 51.8071 115.301 51.3801 98.543L38.5828 99.5761C38.6138 117.142 38.4678 150.071 37.6275 163.819Z" fill="#1D2C49"/>
<path d="M16.3134 163.74H23.4834C23.4834 163.74 41.9975 99.8006 41.027 99.8L24.414 99.3247C24.4105 101.564 16.3134 163.74 16.3134 163.74Z" fill="#1D2C49"/>
<path d="M13.6809 172.734C13.6843 171.603 14.1672 170.605 14.9034 169.994C15.0026 169.344 15.1066 168.666 15.1762 168.219C15.2217 167.923 15.4731 167.702 15.7727 167.694L22.0108 167.523C22.3504 167.514 22.6348 167.779 22.6479 168.119L22.7072 169.603C23.7768 170.097 24.5317 171.311 24.5276 172.734L24.5214 174.817H13.6747L13.6809 172.734Z" fill="#1D2C49"/>
<path d="M37.5114 168.613C37.5114 168.239 37.8124 167.936 38.1857 167.935C40.8623 169.203 43.1132 168.862 45.2008 167.903L47.6205 170.909L51.751 171.571C54.5309 171.571 57.1027 171.807 56.768 174.912L37.6141 174.843L37.528 170.125L37.5128 170.123L37.5114 168.613Z" fill="#1D2C49"/>
<path d="M52.0039 65.0477C51.8434 65.1889 51.7201 65.368 51.5754 65.5257C51.4404 65.6731 51.302 65.7971 51.2166 65.981C51.1546 66.1146 51.26 66.3219 51.4301 66.2592C51.811 66.1187 52.1857 65.68 52.3434 65.3108C52.4378 65.0897 52.1988 64.8762 52.0039 65.0477Z" fill="#EAA86C"/>
<path d="M29.4234 102.476C28.7339 104.976 26.9707 106.111 24.8933 107.427C24.6199 107.6 24.8637 108.023 25.1482 107.863C27.1119 106.757 29.6644 105.035 29.6755 102.51C29.6755 102.366 29.4619 102.336 29.4234 102.476Z" fill="#0E1A2D"/>
<path d="M50.5223 106.192C49.6868 106.222 49.0848 104.866 48.7487 104.265C48.3905 103.626 48.1509 102.95 47.905 102.263C47.8485 102.106 47.6102 102.125 47.6067 102.303C47.5861 103.375 48.1715 104.33 48.7556 105.189C49.1881 105.826 49.662 106.725 50.5581 106.459C50.7021 106.417 50.68 106.187 50.5223 106.192Z" fill="#0E1A2D"/>
<path d="M39.4483 103.579C39.2672 105.237 39.1184 107.207 39.4545 108.849C39.4765 108.956 39.6494 108.956 39.6715 108.849C40.0076 107.205 39.8588 105.236 39.6777 103.579C39.6611 103.432 39.4641 103.432 39.4483 103.579Z" fill="#0E1A2D"/>
<path d="M49.7441 53.6651L54.5475 51.147C55.153 58.7337 52.5294 83.2965 52.163 94.0689C52.1148 95.4739 52.0322 96.9093 52.0012 98.2373C51.9957 98.4783 52.0136 99.1451 51.8517 99.3235C45.0846 106.775 27.9453 101.669 24.4264 100.594C24.0276 100.472 23.7459 100.117 23.7149 99.7016L23.5427 97.3908L22.8098 87.5738L17.9623 51.9115L49.7441 53.6651Z" fill="#FFCA36"/>
<path d="M31.7797 38.1389C32.7687 37.4192 35.4542 36.7476 35.8014 36.9006C36.1423 36.7346 38.6115 37.2821 39.6275 37.9633C45.8112 42.1069 54.5475 44.632 54.5475 51.1477C54.5475 52.862 53.8794 55.7969 50.6739 55.8595L36.1774 56.1764L21.3834 56.4939C18.1779 56.5566 17.9623 51.9122 17.9623 51.9122C17.8425 45.4261 25.7619 42.5209 31.7797 38.1389Z" fill="#FFCA36"/>
<path d="M35.2428 64.145C35.2751 64.145 35.2751 64.0947 35.2428 64.0947C35.2104 64.0947 35.2104 64.145 35.2428 64.145Z" fill="#F2A222"/>
<path d="M24.9464 109.333C23.2761 117.522 22.243 125.882 21.0314 134.15C19.7627 142.81 18.4072 151.511 17.5786 160.224C17.5607 160.412 17.8817 160.459 17.9113 160.269C19.2937 151.472 20.2951 142.606 21.5845 133.793C22.7747 125.663 24.2893 117.532 25.0972 109.353C25.1062 109.268 24.9636 109.249 24.9464 109.333Z" fill="#0E1A2D"/>
<path d="M39.5461 110.594C39.4097 124.377 39.0585 138.156 38.9276 151.939C38.9014 154.699 38.8711 157.463 38.9248 160.223C38.929 160.447 39.2733 160.447 39.272 160.223C39.1576 146.446 39.7334 132.656 39.8223 118.879C39.8402 116.118 39.8746 113.354 39.7706 110.594C39.7651 110.45 39.5475 110.449 39.5461 110.594Z" fill="#0E1A2D"/>
<path d="M53.5222 72.7645C53.9555 71.3471 53.9251 69.7491 53.9775 68.2807C54.0512 66.2247 54.0471 64.1667 53.9789 62.1107C53.8597 58.5243 53.8149 54.5487 52.6757 51.1076C52.6137 50.921 52.3575 50.9995 52.3871 51.1875C52.9636 54.9186 53.4761 58.5849 53.6021 62.3669C53.662 64.1825 53.6737 66.0008 53.6317 67.8171C53.5939 69.4467 53.3466 71.1342 53.474 72.7583C53.4747 72.7859 53.5133 72.7928 53.5222 72.7645Z" fill="#F2A222"/>
<path d="M49.9667 98.7462C50.2277 98.7462 50.2284 98.3398 49.9667 98.3398C49.7049 98.3398 49.7049 98.7462 49.9667 98.7462Z" fill="#F2A222"/>
<path d="M51.0789 92.2182C51.34 92.2182 51.3406 91.8125 51.0789 91.8125C50.8179 91.8125 50.8172 92.2182 51.0789 92.2182Z" fill="#F2A222"/>
<path d="M32.6188 40.5496C32.9149 43.5609 41.1533 45.643 40.9287 40.7907L40.0843 31.1087L32.3178 30.6968C32.979 34.8831 33.1787 38.4337 32.6188 40.5496Z" fill="#FFCC99"/>
<path d="M46.4126 29.0796L44.7072 12.9638C44.5522 12.0567 43.683 11.4416 42.7766 11.5966L38.4897 12.3295C37.4187 11.0904 36.0005 10.319 34.4742 10.58L28.4495 11.6097C25.9941 12.0292 24.2301 15.1252 25.1304 17.6991L30.9649 32.6453C31.8527 35.1814 34.9908 38.1135 41.129 37.2222C41.2468 37.207 41.3625 37.2015 41.481 37.1809L41.6442 37.1671C45.19 36.5617 47.0187 32.6254 46.4126 29.0796Z" fill="#FFCC99"/>
<path d="M38.8072 21.8083C39.0097 23.3105 39.5999 25.5627 40.8797 26.5614C41.4176 26.9816 43.7057 27.9197 42.1125 28.5086C41.4575 28.7503 40.6634 28.6994 39.9732 28.7634C39.7088 28.7882 39.6082 29.1925 39.9064 29.2593C40.859 29.4728 43.4033 29.3551 43.2855 27.9424C43.2091 27.0277 42.4521 26.8597 41.7468 26.485C39.9505 25.5297 39.8286 23.3842 38.8526 21.789C38.8375 21.7628 38.8037 21.7814 38.8072 21.8083Z" fill="#EAA86C"/>
<path d="M43.9977 23.1096C44.0466 22.1322 43.1719 20.7278 42.0774 20.8704C41.452 20.9517 41.1379 21.5089 40.9912 22.0696C40.8411 22.6419 40.7261 23.5428 41.1076 24.0525C41.1979 24.173 41.4079 24.1786 41.45 24.0077C41.6139 23.3417 41.2488 21.7617 42.074 21.4256C42.8027 21.1294 43.6953 22.5 43.7339 23.1096C43.7442 23.279 43.9894 23.2804 43.9977 23.1096Z" fill="#1D2C49"/>
<path d="M35.4404 25.1991C35.2248 24.6378 35.4301 23.4056 35.9563 23.0653C36.8944 22.4599 37.4915 24.5282 37.8655 25.0255C37.9523 25.1406 38.1734 25.1557 38.2079 24.9808C38.4179 23.9056 37.0866 21.9461 35.864 22.5115C34.9342 22.9413 34.7647 24.4669 35.1993 25.3004C35.2668 25.4312 35.4948 25.341 35.4404 25.1991Z" fill="#1D2C49"/>
<path d="M39.2631 37.3409C38.1762 37.055 37.0494 37.1721 35.9543 36.7926C34.8826 36.4214 33.9927 35.7188 32.9375 35.3441C32.8727 35.3214 32.8073 35.4054 32.8466 35.4626C33.9293 37.055 37.4654 38.133 39.2638 37.4587C39.3162 37.4387 39.3251 37.3574 39.2631 37.3409Z" fill="#EAA86C"/>
<path d="M77.1969 86.1674C77.137 86.1832 84.679 89.9948 85.4952 89.6532C86.3114 89.3122 83.4021 87.2563 83.4021 87.2563C83.4021 87.2563 88.6215 89.5023 88.8151 88.795C89.0086 88.0869 85.0916 85.7086 85.0916 85.7086C85.0916 85.7086 90.9275 86.7624 91.4331 85.8023C91.9386 84.8429 85.2741 83.7746 85.2741 83.7746C85.2741 83.7746 90.6885 82.9804 90.5473 82.1126C90.4061 81.2447 83.8656 82.1821 83.8656 82.1821C83.8656 82.1821 86.8245 79.9547 86.4285 79.2687C86.0324 78.5833 80.014 81.8564 80.014 81.8564L77.1969 86.1674Z" fill="#FFCC99"/>
<path d="M79.7586 82.1228C79.7579 82.1187 79.7573 82.1138 79.7566 82.1097C79.7518 82.0842 79.727 82.0629 79.7029 82.056C79.4694 81.9933 79.1518 82.4238 79.043 82.585C78.7992 82.9466 78.6298 83.3832 78.5202 83.8034C78.4968 83.8936 78.6139 83.9356 78.6642 83.864C78.9121 83.51 79.1821 83.1656 79.4205 82.8054C79.5141 82.6628 79.791 82.3026 79.7586 82.1228Z" fill="#EAA86C"/>
<path d="M83.9566 80.8562C84.1136 80.9685 84.2913 81.0477 84.4862 81.0429C84.604 81.0401 84.6584 80.923 84.6123 80.8231C84.5289 80.6454 84.3754 80.5249 84.2038 80.434C83.9215 80.2838 83.7038 80.6751 83.9566 80.8562Z" fill="#EAA86C"/>
<path d="M87.1161 82.5582C87.123 82.7559 87.1733 82.8434 87.3448 82.9502C87.382 82.9736 87.444 82.9529 87.4522 82.9068C87.4743 82.7814 87.4991 82.6864 87.4915 82.5582C87.4757 82.3192 87.1079 82.3151 87.1161 82.5582Z" fill="#EAA86C"/>
<path d="M86.121 82.5581C86.061 82.7502 86.0425 82.8832 86.1671 83.0395C86.1864 83.0636 86.2215 83.0609 86.2463 83.0499C86.4158 82.9734 86.4599 82.8405 86.4902 82.66C86.5301 82.421 86.1954 82.3191 86.121 82.5581Z" fill="#EAA86C"/>
<path d="M88.8367 85.2594C88.7451 85.3738 88.719 85.4 88.7238 85.5453C88.7252 85.5839 88.7575 85.6052 88.7933 85.5983C88.9332 85.5735 88.9352 85.5653 89.0289 85.4516C89.1405 85.3166 88.9463 85.1231 88.8367 85.2594Z" fill="#EAA86C"/>
<path d="M87.2826 84.9901C87.1945 85.1403 87.16 85.318 87.3109 85.4358C87.3426 85.4606 87.3873 85.4613 87.4101 85.4227C87.4714 85.3207 87.4851 85.2037 87.5244 85.0921C87.574 84.9481 87.357 84.8634 87.2826 84.9901Z" fill="#EAA86C"/>
<path d="M85.3861 86.8581C85.2834 86.949 85.2655 86.9876 85.2704 87.1239C85.2745 87.2307 85.4005 87.2837 85.4791 87.2107C85.5231 87.168 85.5686 87.1267 85.6147 87.0868C85.7704 86.9483 85.541 86.7203 85.3861 86.8581Z" fill="#EAA86C"/>
<path d="M86.5994 87.5056C86.5071 87.5504 86.4761 87.5751 86.4058 87.6509C86.2019 87.8713 86.5098 88.1737 86.7337 87.9781C86.8108 87.9106 86.8356 87.8789 86.8831 87.788C86.9809 87.5993 86.7853 87.4154 86.5994 87.5056Z" fill="#EAA86C"/>
<path d="M83.4816 87.9801C83.4692 87.9718 83.4561 87.9642 83.4437 87.956C83.3983 87.927 83.3383 87.9305 83.2929 87.956C83.2694 87.9691 83.2453 87.9822 83.2219 87.9959C83.1682 88.0262 83.1324 88.0882 83.1338 88.1502C83.1345 88.1771 83.1351 88.2039 83.1358 88.2308C83.1386 88.3506 83.3011 88.4367 83.3879 88.3355C83.4444 88.27 83.6042 88.0579 83.4816 87.9801Z" fill="#EAA86C"/>
<path d="M84.001 88.5812C83.9589 88.6618 83.941 88.7024 83.9486 88.7927C83.9548 88.8684 84.0182 88.9249 84.096 88.9049C84.1821 88.8829 84.2159 88.8588 84.2765 88.7941C84.4562 88.604 84.1174 88.3594 84.001 88.5812Z" fill="#EAA86C"/>
<path d="M83.4107 83.8143C83.0332 84.5285 82.7811 85.2958 82.839 86.1127C82.8431 86.1664 82.9278 86.1864 82.9395 86.1265C83.0883 85.3654 83.2509 84.625 83.5973 83.9238C83.6593 83.7998 83.4768 83.6903 83.4107 83.8143Z" fill="#EAA86C"/>
<path d="M82.9842 84.466C82.6474 83.9715 81.7003 84.2001 81.2168 84.2972C81.097 84.3213 81.1356 84.4901 81.2444 84.4984C81.5399 84.5211 81.8388 84.5211 82.135 84.5211C82.407 84.5204 82.6853 84.4625 82.956 84.5032C82.9753 84.5059 82.998 84.486 82.9842 84.466Z" fill="#EAA86C"/>
<path d="M36.3187 20.191C34.791 18.8589 32.0531 20.7641 31.819 22.4736C31.801 22.6065 31.9367 22.7009 32.0463 22.6058C32.6448 22.0885 33.0016 21.3688 33.6628 20.9011C34.4804 20.3232 35.3158 20.3157 36.2691 20.3088C36.3269 20.3081 36.3655 20.2309 36.3187 20.191Z" fill="#1D2C49"/>
<path d="M40.1725 19.3296C40.8929 18.9329 41.5238 18.5506 42.3793 18.5506C43.3353 18.5506 44.0826 19.0761 44.9794 19.2738C45.1199 19.3048 45.1943 19.1512 45.1116 19.0465C44.0523 17.7076 40.7655 17.3129 40.0712 19.2518C40.0499 19.3117 40.1229 19.3572 40.1725 19.3296Z" fill="#1D2C49"/>
<path d="M51.1823 81.0293C51.3779 81.0293 51.3779 80.7256 51.1823 80.7256C50.9874 80.7256 50.9867 81.0293 51.1823 81.0293Z" fill="#F2A222"/>
<path d="M50.457 71.8542C50.6878 72.3625 51.1348 73.1063 51.132 73.6828C51.13 74.1726 50.7739 74.0196 50.4515 74.2146C49.9129 74.539 49.8096 75.2264 49.9281 75.7946C49.9584 75.9413 50.2077 75.9489 50.2325 75.7946C50.2662 75.5873 50.2538 75.3028 50.3207 75.1093C50.9488 73.2896 50.7821 74.7208 51.2436 74.4329C51.3986 74.3365 51.515 74.3427 51.5866 74.1416C51.6913 73.844 51.3876 73.2957 51.2973 73.0471C51.1293 72.5815 50.9454 72.1448 50.7201 71.7013C50.6299 71.5242 50.3778 71.6792 50.457 71.8542Z" fill="#F2A222"/>
<path d="M26.3507 22.5093C25.8996 22.054 25.6826 25.2968 25.184 25.1562C24.6853 25.0157 24.2941 24.6369 23.9297 24.2677C23.3064 23.6355 22.6851 22.9777 22.2904 22.1822C21.8958 21.3866 19.733 16.7409 20.5423 15.1829C20.667 14.9432 20.8234 14.7152 20.8936 14.4549C20.9914 14.0933 20.9143 13.711 20.864 13.3391C20.7235 12.2983 20.8185 11.1874 21.3634 10.2892C21.9082 9.39107 22.9689 8.76222 24.0048 8.93785C24.2224 6.68627 26.5043 4.85071 28.7504 5.12002C29.7153 3.31683 32.5372 2.90838 33.974 4.36375C34.7681 3.79001 35.594 3.20249 36.5534 3.00619C37.5129 2.80989 38.6486 3.11778 39.1184 3.97736C39.1886 3.44632 39.7865 3.11502 40.321 3.15222C40.8555 3.18941 41.3307 3.49316 41.7695 3.80104C42.8853 4.58485 44.052 5.71581 43.8633 7.06648C44.6788 7.04719 45.4385 7.5858 45.8449 8.29316C46.2513 9.00053 46.347 9.8484 46.2926 10.6625C46.2664 11.0558 46.212 11.4753 46.3945 11.8252C46.5192 12.0642 46.7403 12.2384 46.8939 12.4602C47.5627 13.4238 46.7499 14.7063 45.9303 15.5466C45.2257 16.2691 34.6876 20.5945 32.1515 19.1082C32.0647 19.9216 28.583 24.7623 26.3507 22.5093Z" fill="#1D2C49"/>
<path d="M36.5232 31.5058C36.3855 31.6959 36.3255 31.9004 36.2257 32.1112C36.1279 32.3178 36.0493 32.468 36.0039 32.6918C35.977 32.8241 36.1106 32.9405 36.2353 32.8695C36.6713 32.6236 36.9303 32.0389 36.84 31.5464C36.8111 31.3852 36.6017 31.3976 36.5232 31.5058Z" fill="#EAA86C"/>
<path d="M36.4545 32.2261C36.6673 32.7041 37.354 33.0857 37.832 33.2393C38.3809 33.4163 38.9871 33.4397 39.516 33.2035C39.6455 33.1456 39.5821 32.9782 39.4809 32.9369C38.974 32.7275 38.4181 32.7861 37.8981 32.6146C37.4325 32.461 37.0571 32.0518 36.5598 32.0415C36.4593 32.0401 36.4186 32.1455 36.4545 32.2261Z" fill="#EAA86C"/>
<path d="M24.0867 132.694C25.6778 133.442 28.0712 133.796 29.5486 132.591C29.6705 132.492 29.5328 132.339 29.4122 132.357C28.5293 132.49 27.7303 132.81 26.8204 132.823C25.9347 132.836 25.0592 132.658 24.2348 132.34C24.033 132.263 23.889 132.601 24.0867 132.694Z" fill="#0E1A2D"/>
<path d="M43.8201 133.468C45.2197 133.653 46.9946 133.709 48.3054 133.099C48.4596 133.028 48.3791 132.784 48.2206 132.787C47.4871 132.798 46.7646 132.996 46.0345 133.064C45.2968 133.132 44.5612 133.138 43.8208 133.134C43.5976 133.132 43.6135 133.441 43.8201 133.468Z" fill="#0E1A2D"/>
<path d="M30.3347 40.0973C30.8837 46.1674 42.2566 48.4562 42.6437 41.1938C42.6554 40.9776 42.2965 40.9232 42.26 41.1422C41.7455 44.2499 39.3706 45.6123 36.3421 45.0413C33.8591 44.5729 31.0965 42.8173 30.8155 40.0973C30.7845 39.7936 30.3072 39.7874 30.3347 40.0973Z" fill="#F2A222"/>
<path d="M16.0071 161.345L15.5304 164.521H24.1207L25.021 161.345H16.0071Z" fill="#0E1A2D"/>
<path d="M37.2148 161.345L37.1886 164.521H45.7789L46.2287 161.345H37.2148Z" fill="#0E1A2D"/>
<path d="M24.5276 174.817H13.6747V176.262H24.5276V174.817Z" fill="#0E1A2D"/>
<path d="M56.7978 174.817H37.5888V176.262H56.7978V174.817Z" fill="#0E1A2D"/>
<path d="M27.7924 67.8627C30.0695 71.4863 39.3031 83.5659 42.3185 85.1032C45.3339 86.6405 64.5326 94.6529 64.5326 94.6529L66.5328 91.8806L65.3887 90.1587C65.3887 90.1587 47.5559 79.9581 45.8043 78.4731C44.0528 76.9881 35.0107 63.0303 35.0107 63.0303L27.7924 67.8627Z" fill="#FFCC99"/>
<path d="M27.2987 68.0145L31.4196 74.4593C31.4196 74.4593 36.721 73.347 39.9699 68.0145L36.2547 59.8389L27.2987 68.0145Z" fill="#FFCA36"/>
<path d="M31.3512 70.0682C32.259 70.4801 33.3948 70.83 33.6572 69.6246C33.6655 69.5867 33.6166 69.5316 33.6241 69.5034C33.7674 69.3181 33.91 69.1322 34.0532 68.9469C34.1262 68.9531 34.1999 68.9593 34.2729 68.9655C34.4968 68.9173 34.6924 68.973 34.9142 68.8711C35.2792 68.7037 35.4748 68.3607 35.3991 67.9702C35.3715 67.8263 35.1732 67.8228 35.1036 67.9316C34.7262 68.5219 34.3783 68.3718 33.7715 68.4737C33.5084 68.5178 33.2501 68.6225 33.1062 68.8615C32.9429 69.1322 33.1082 69.2355 33.1103 69.511C33.1158 70.2982 31.8795 69.8471 31.4208 69.8133C31.2892 69.8051 31.2286 70.0124 31.3512 70.0682Z" fill="#F2A222"/>
<path d="M20.4827 58.576C22.0407 61.3972 24.0188 64.0111 25.8585 66.6518C27.5804 69.1238 29.228 71.7163 31.2034 73.9961C31.2826 74.0877 31.4244 73.9707 31.3673 73.8694C29.7783 71.0703 27.7623 68.4791 25.9267 65.8377C24.2048 63.3602 22.571 60.7753 20.6342 58.4582C20.5626 58.3721 20.4317 58.483 20.4827 58.576Z" fill="#F2A222"/>
<path d="M32.0606 54.1089C32.9043 56.5099 34.3307 58.8049 35.5788 61.0152C36.8316 63.233 38.1031 65.5617 39.6707 67.5736C39.7114 67.6253 39.7837 67.5591 39.7575 67.5068C38.6052 65.2222 37.1712 63.0519 35.9301 60.8099C34.6944 58.579 33.675 56.149 32.2982 54.0083C32.2224 53.8906 32.0096 53.9636 32.0606 54.1089Z" fill="#F2A222"/>
<path d="M31.5545 74.4144C33.4307 74.1926 35.2621 73.0018 36.7264 71.8736C38.0199 70.8776 39.724 69.5145 40.2075 67.8877C40.2164 67.8574 40.1779 67.8215 40.1496 67.8429C38.7831 68.8754 37.8478 70.4196 36.4695 71.4934C34.9281 72.6953 33.1759 73.3186 31.5228 74.2994C31.4753 74.329 31.4911 74.422 31.5545 74.4144Z" fill="#F2A222"/>
<path d="M63.7376 78.3765C63.4008 78.7615 62.8946 79.181 62.7024 79.6576C62.6266 79.8463 62.8767 80.0034 63.0323 79.9111C63.2541 79.7802 63.3953 79.5639 63.5599 79.3683C63.7376 79.1569 63.916 78.9448 64.0937 78.7333C64.301 78.4874 63.9532 78.1299 63.7376 78.3765Z" fill="#EAA86C"/>
<path d="M45.1074 78.6729C44.7486 79.1764 44.3236 79.6868 44.1025 80.2709C44.0495 80.4114 44.2416 80.492 44.3367 80.4072C44.8023 79.9919 45.1281 79.3996 45.4683 78.8844C45.6185 78.6571 45.2617 78.4573 45.1074 78.6729Z" fill="#EAA86C"/>
<path d="M23.8053 25.1606C23.8053 25.1606 31.9024 16.0468 47.1414 14.0549C47.1414 14.0549 47.992 4.86881 41.6609 1.22317C35.3297 -2.42248 24.4906 2.9499 20.9414 6.01905C17.3922 9.08957 14.7742 20.6085 23.8053 25.1606Z" fill="#FFCA36"/>
<path d="M32.191 18.9087C32.191 18.9087 43.2877 5.87659 55.1628 6.49234C67.0371 7.1081 47.1414 14.0557 47.1414 14.0557C47.1414 14.0557 38.1096 16.3947 32.191 18.9087Z" fill="#F2A222"/>
<path d="M43.8661 53.3406L50.0746 52.3081L50.3942 54.5934L43.8661 55.9069V53.3406Z" fill="white"/>
<path d="M43.3724 56.213C45.9201 55.6531 48.5822 55.3052 51.0948 54.6296C51.247 54.5889 51.2223 54.3341 51.057 54.3472C48.5188 54.5469 45.6915 55.0835 43.3001 55.9506C43.1368 56.0099 43.1995 56.2509 43.3724 56.213Z" fill="#F2A222"/>
<path d="M26.8247 1.63108C24.507 2.4335 24.0001 5.51503 26.8247 4.01421C29.6494 2.51408 31.4147 0.0427886 26.8247 1.63108Z" fill="#F2A222"/>
<path d="M21.9906 23.7614C21.995 23.7614 21.995 23.7539 21.9906 23.7539C21.9862 23.7539 21.9862 23.7614 21.9906 23.7614Z" fill="#F2A222"/>
<path d="M22.1183 23.8886C24.9547 21.3953 27.5492 18.6636 30.7499 16.607C33.7282 14.6936 37.0501 13.6921 40.2102 12.1734C40.3617 12.1004 40.2542 11.8648 40.0979 11.9068C32.996 13.8065 26.917 18.4508 21.8559 23.6262C21.6885 23.7991 21.9406 24.045 22.1183 23.8886Z" fill="#F2A222"/>
<path d="M25.8487 3.75167C24.1977 6.03425 24.2439 9.96435 24.5793 12.6244C24.87 14.9311 25.514 17.3548 27.1939 19.0561C27.3234 19.1869 27.5403 19.0196 27.448 18.8605C26.1407 16.6006 25.2584 14.6735 25.0105 12.0203C24.7398 9.12819 25.4857 6.59353 25.9472 3.79369C25.9555 3.73239 25.8845 3.70139 25.8487 3.75167Z" fill="#F2A222"/>
<path d="M28.28 2.42227C32.3238 5.07333 35.1305 8.87325 37.9331 12.7297C37.993 12.8123 38.1115 12.7427 38.0695 12.6498C36.2133 8.53645 32.496 4.20272 28.475 2.0889C28.2539 1.9725 28.072 2.28589 28.28 2.42227Z" fill="#F2A222"/>
<path d="M43.2989 8.83228C44.5296 8.0135 44.5842 5.93197 43.4207 4.18306C42.2572 2.43414 40.3163 1.68012 39.0855 2.4989C37.8547 3.31769 37.8002 5.39922 38.9637 7.14813C40.1272 8.89705 42.0681 9.65106 43.2989 8.83228Z" fill="white"/>
<path d="M24.2709 98.6401C27.6066 100.423 31.7599 101.297 35.4648 101.781C40.9659 102.499 46.868 102.086 51.4545 98.6711C51.6046 98.5589 51.4607 98.3033 51.305 98.4156C46.5222 101.884 40.3619 102.145 34.7078 101.329C31.286 100.836 27.4847 100.062 24.3839 98.4459C24.2565 98.3791 24.1428 98.5719 24.2709 98.6401Z" fill="#F2A222"/>
<path d="M21.3484 60.8911C22.1811 65.4383 22.5992 70.0964 23.1688 74.6815C23.9519 80.9907 24.7344 87.2991 25.492 93.6116C25.7228 95.5333 25.9735 97.4543 26.1835 99.3787C26.2028 99.5571 26.4832 99.5626 26.4673 99.3787C25.5347 88.461 23.9705 77.5523 22.469 66.7015C22.1997 64.7537 21.9717 62.7611 21.5192 60.8442C21.493 60.732 21.3277 60.7802 21.3484 60.8911Z" fill="#F2A222"/>
<path d="M30.5297 40.4381C25.8419 42.959 19.5728 46.6853 19.7505 52.7657C19.7553 52.9351 19.9977 52.931 20.0108 52.7657C20.2698 49.4982 21.8712 47.062 24.379 45.0219C26.3716 43.4005 28.7465 42.3123 30.7232 40.6889C30.8679 40.5704 30.6833 40.3562 30.5297 40.4381Z" fill="#F2A222"/>
<path d="M134.856 50.061H69.8243C68.6603 50.061 67.7166 51.0046 67.7166 52.1687V102.228C67.7166 103.392 68.6603 104.335 69.8243 104.335H134.856C136.02 104.335 136.963 103.392 136.963 102.228V52.1687C136.963 51.0046 136.02 50.061 134.856 50.061Z" fill="#9E5A2D"/>
<path d="M134.856 50.061H92.3878C91.2238 50.061 90.2802 51.0046 90.2802 52.1687V102.228C90.2802 103.392 91.2238 104.335 92.3878 104.335H134.856C136.02 104.335 136.963 103.392 136.963 102.228V52.1687C136.963 51.0046 136.02 50.061 134.856 50.061Z" fill="#AD6D42"/>
<path d="M116.486 50.061H110.757V104.336H116.486V50.061Z" fill="#E2BE91"/>
<path d="M81.2711 50.061H75.5419V104.336H81.2711V50.061Z" fill="#C69F75"/>
<path d="M136.964 80.0627V74.3335L90.28 74.3335V80.0627L136.964 80.0627Z" fill="#E2BE91"/>
<path d="M90.2802 80.0627V74.3335H67.7168V80.0627H90.2802Z" fill="#C69F75"/>
<path d="M64.5325 94.6539C64.4753 94.678 71.1674 97.5488 71.9264 97.0949C72.6854 96.641 69.5129 95.021 69.5129 95.021C69.5129 95.021 74.999 96.4998 75.0899 95.7718C75.1808 95.0438 70.9642 93.2481 70.9642 93.2481C70.9642 93.2481 76.8903 93.4582 77.254 92.4368C77.6177 91.4146 70.8684 91.3086 70.8684 91.3086C70.8684 91.3086 76.1141 89.7499 75.8503 88.9117C75.5865 88.0727 69.2471 89.9338 69.2471 89.9338C69.2471 89.9338 71.8582 87.3068 71.3678 86.6849C70.8781 86.0629 65.3879 90.1604 65.3879 90.1604L64.5325 94.6539Z" fill="#CEEDF9"/>
<path opacity="0.5" d="M69.2303 88.3939C69.3426 88.4394 69.4542 88.4827 69.5685 88.5234C69.696 88.5681 69.8075 88.3808 69.7028 88.2926C69.5982 88.2045 69.4893 88.1211 69.3812 88.0371C69.1766 87.8801 68.9438 88.2789 69.2303 88.3939Z" fill="white"/>
<path opacity="0.5" d="M72.0913 89.9367C72.103 89.9663 72.114 89.996 72.1257 90.0263C72.1622 90.1206 72.2242 90.1633 72.322 90.1757C72.342 90.1785 72.3627 90.1812 72.3826 90.1833C72.4309 90.1895 72.477 90.1523 72.5011 90.1151C72.5424 90.0518 72.5245 89.945 72.5204 89.8782C72.5032 89.5414 71.9825 89.6543 72.0913 89.9367Z" fill="white"/>
<g opacity="0.5">
<path d="M73.1073 89.5238C73.1672 89.8035 73.2691 89.9612 73.5508 90.0204C73.5928 90.0294 73.6479 90.0005 73.6431 89.9502C73.6252 89.7559 73.5825 89.5969 73.5446 89.4033C73.4881 89.1182 73.046 89.238 73.1073 89.5238Z" fill="white"/>
</g>
<path opacity="0.5" d="M72.652 92.2768C72.6761 92.3105 72.7002 92.3443 72.725 92.378C72.7959 92.4758 72.9674 92.4214 72.9302 92.2913C72.9192 92.252 72.9082 92.2127 72.8972 92.1735C72.8414 91.9779 72.5411 92.1232 72.652 92.2768Z" fill="white"/>
<path opacity="0.5" d="M74.4844 92.3637C74.4886 92.4319 74.4927 92.5008 74.4975 92.569C74.5051 92.6854 74.6601 92.7067 74.6986 92.5958C74.7214 92.5311 74.7441 92.4664 74.7668 92.4016C74.8371 92.2033 74.4706 92.1495 74.4844 92.3637Z" fill="white"/>
<path opacity="0.5" d="M71.6568 94.2374C71.6017 94.3442 71.5397 94.4468 71.4839 94.5536C71.4412 94.6362 71.4419 94.7574 71.5191 94.8235C71.5335 94.8359 71.548 94.8483 71.5638 94.8587C71.6726 94.9262 71.8001 94.8752 71.8683 94.7788C71.9523 94.6603 72.0005 94.5398 72.0494 94.4034C72.1307 94.1747 71.7677 94.0218 71.6568 94.2374Z" fill="white"/>
<g opacity="0.5">
<path d="M72.7425 94.7767C72.6785 94.8621 72.6206 94.9385 72.571 95.0329C72.467 95.2299 72.7329 95.4641 72.8927 95.2816C72.9739 95.1886 73.0366 95.0921 73.1028 94.9875C73.2502 94.7546 72.8996 94.5666 72.7425 94.7767Z" fill="white"/>
</g>
<path opacity="0.5" d="M69.4754 95.7525C69.4472 95.8117 69.4182 95.871 69.39 95.9302C69.35 96.0135 69.3638 96.0845 69.4189 96.1547C69.4568 96.203 69.4912 96.2036 69.5498 96.2091C69.6138 96.2153 69.6786 96.1692 69.7103 96.1175C69.744 96.0618 69.7785 96.0053 69.8122 95.9495C69.9444 95.7325 69.5828 95.5286 69.4754 95.7525Z" fill="white"/>
<path d="M136.964 80.063H116.486V80.8971H136.964V80.063Z" fill="#A3743B"/>
<path d="M33.7518 28.1115C33.7518 28.1115 40.344 29.3892 46.1482 26.5811C46.1482 26.5811 48.4528 35.8484 41.6443 37.1674C34.8359 38.4864 32.937 35.3435 32.937 35.3435C32.937 35.3435 33.9722 31.9948 33.7518 28.1115Z" fill="#CEEDF9"/>
<path d="M34.9769 29.8057C32.5256 26.7208 28.1278 25.5078 28.0755 25.4934L27.8785 24.7378C28.101 24.7977 32.9258 26.1167 35.5162 29.3766L34.9769 29.8057Z" fill="#CEEDF9"/>
<path opacity="0.5" d="M37.5715 31.2259C38.9097 31.2693 40.2432 31.2411 41.5456 31.0627C42.8495 30.8747 44.1023 30.5372 45.2629 29.8746C45.2994 29.8512 45.3483 29.8622 45.371 29.8994C45.3903 29.9297 45.3834 29.9703 45.3607 29.9958C44.8793 30.4917 44.2745 30.8692 43.6312 31.1357C42.9831 31.3906 42.3019 31.5414 41.6193 31.6275C40.9361 31.715 40.248 31.726 39.5661 31.684C38.8842 31.6461 38.2079 31.5607 37.5439 31.3899C37.4998 31.3782 37.473 31.3334 37.484 31.2886C37.4943 31.2494 37.5329 31.2246 37.5715 31.2259Z" fill="white"/>
<path opacity="0.5" d="M38.115 33.1234C39.277 33.1792 40.4341 33.1613 41.5561 32.9919C42.1154 32.8975 42.6616 32.768 43.194 32.5903C43.7202 32.3975 44.223 32.1557 44.7183 31.843L44.7217 31.8409C44.7582 31.8175 44.8071 31.8285 44.8298 31.865C44.8484 31.894 44.845 31.9312 44.8243 31.9566C44.4441 32.4257 43.9413 32.8018 43.3882 33.0676C42.829 33.3163 42.2352 33.4733 41.6367 33.5546C41.0382 33.6366 40.4348 33.6462 39.839 33.5973C39.2433 33.5539 38.6544 33.4616 38.0813 33.2846C38.0372 33.2708 38.0131 33.2247 38.0262 33.1806C38.0379 33.1434 38.0723 33.12 38.1095 33.122L38.115 33.1234Z" fill="white"/>
<path opacity="0.5" d="M37.6101 34.8784C38.9353 34.9225 40.2563 34.8949 41.5457 34.7172C42.8365 34.5299 44.0755 34.1924 45.223 33.5319C45.2595 33.5084 45.3077 33.5195 45.3312 33.556C45.3505 33.5863 45.3436 33.6269 45.3215 33.6524C44.8476 34.1469 44.2498 34.5237 43.6127 34.7902C42.9708 35.0451 42.2958 35.1959 41.6194 35.282C40.9423 35.3688 40.2605 35.3798 39.5848 35.3378C38.9091 35.2992 38.2389 35.2138 37.5819 35.0423C37.5378 35.0306 37.5109 34.9852 37.5226 34.9411C37.5336 34.9025 37.5722 34.877 37.6101 34.8784Z" fill="white"/>
<path d="M33.6987 34.6799C31.2027 33.6543 29.5048 31.2746 29.4339 31.1741L29.9966 30.7773C30.0125 30.8001 31.6538 33.095 33.9605 34.0435L33.6987 34.6799Z" fill="#CEEDF9"/>
<path d="M26.7897 29.7918C27.9007 31.3485 29.6047 32.0358 30.5952 31.3278C30.693 31.2582 30.7798 31.177 30.8569 31.0867C31.5567 30.2602 31.379 28.6313 30.3775 27.2283C29.2665 25.6716 27.5625 24.9842 26.5721 25.6923C25.581 26.4004 25.6788 28.2352 26.7897 29.7918Z" fill="#FFCC99"/>
<path d="M66.5329 91.8806L65.3889 90.1587C65.3889 90.1587 64.873 89.8632 64.0203 89.3735C63.4224 89.8963 62.2288 91.1953 61.799 93.5082C63.4631 94.2059 64.5327 94.6529 64.5327 94.6529L66.5329 91.8806Z" fill="#CEEDF9"/>
</g>
<defs>
<linearGradient id="paint0_linear_3807_7382" x1="176.618" y1="134.682" x2="176.618" y2="337.307" gradientUnits="userSpaceOnUse">
<stop stop-color="#E4ECF4"/>
<stop offset="1" stop-color="#E4ECF4" stop-opacity="0"/>
</linearGradient>
<linearGradient id="paint1_linear_3807_7382" x1="32.1909" y1="134.682" x2="32.1909" y2="337.307" gradientUnits="userSpaceOnUse">
<stop stop-color="#E4ECF4"/>
<stop offset="1" stop-color="#E4ECF4" stop-opacity="0"/>
</linearGradient>
<linearGradient id="paint2_linear_3807_7382" x1="130.077" y1="174.225" x2="130.077" y2="140.655" gradientUnits="userSpaceOnUse">
<stop stop-color="#E4ECF4"/>
<stop offset="1" stop-color="#E4ECF4" stop-opacity="0"/>
</linearGradient>
<linearGradient id="paint3_linear_3807_7382" x1="229.806" y1="174.225" x2="229.806" y2="140.655" gradientUnits="userSpaceOnUse">
<stop stop-color="#E4ECF4"/>
<stop offset="1" stop-color="#E4ECF4" stop-opacity="0"/>
</linearGradient>
<linearGradient id="paint4_linear_3807_7382" x1="223.917" y1="126.138" x2="223.917" y2="115.246" gradientUnits="userSpaceOnUse">
<stop stop-color="#CEEDF9"/>
<stop offset="1" stop-color="#B3EFFF"/>
</linearGradient>
<linearGradient id="paint5_linear_3807_7382" x1="213.887" y1="79.3475" x2="213.887" y2="64.9546" gradientUnits="userSpaceOnUse">
<stop stop-color="#CEEDF9"/>
<stop offset="1" stop-color="#B3EFFF"/>
</linearGradient>
<linearGradient id="paint6_linear_3807_7382" x1="194.302" y1="59.6091" x2="194.302" y2="43.6124" gradientUnits="userSpaceOnUse">
<stop stop-color="#CEEDF9"/>
<stop offset="1" stop-color="#B3EFFF"/>
</linearGradient>
<linearGradient id="paint7_linear_3807_7382" x1="209.409" y1="59.6091" x2="209.409" y2="43.6124" gradientUnits="userSpaceOnUse">
<stop stop-color="#CEEDF9"/>
<stop offset="1" stop-color="#B3EFFF"/>
</linearGradient>
</defs>
</svg>
