<svg width="229" height="183" viewBox="0 0 229 183" fill="none" xmlns="http://www.w3.org/2000/svg">
<path d="M124.576 58.5131C128.117 58.5131 130.988 61.3781 130.988 64.9125C130.988 68.447 128.117 71.3129 124.576 71.3129H183.2C186.741 71.3129 189.612 74.1779 189.612 77.7123C189.612 81.2468 186.741 84.1127 183.2 84.1127H203.352C206.893 84.1128 209.764 86.9778 209.764 90.5121C209.764 94.0466 206.893 96.9123 203.352 96.9125H185.948C182.407 96.9125 179.536 99.7775 179.536 103.312C179.536 106.846 182.407 109.712 185.948 109.712H191.444C194.985 109.712 197.856 112.577 197.856 116.112C197.856 119.646 194.985 122.512 191.444 122.512H143.812C143.34 122.512 142.881 122.461 142.438 122.365C141.995 122.461 141.536 122.512 141.064 122.512H57.7075C54.1664 122.512 51.2954 119.646 51.2954 116.112C51.2956 112.577 54.1665 109.712 57.7075 109.712H21.9839C18.4426 109.712 15.5718 106.846 15.5718 103.312C15.5719 99.7775 18.4427 96.9125 21.9839 96.9125H58.6235C62.1648 96.9125 65.0356 94.0466 65.0356 90.5121C65.0354 86.9777 62.1647 84.1127 58.6235 84.1127H35.7241C32.1829 84.1127 29.312 81.2468 29.312 77.7123C29.3122 74.1779 32.183 71.3129 35.7241 71.3129H72.3638C68.8225 71.3129 65.9517 68.447 65.9517 64.9125C65.9519 61.3781 68.8227 58.5131 72.3638 58.5131H124.576ZM207.016 109.712C210.557 109.712 213.428 112.577 213.428 116.112C213.428 119.646 210.557 122.512 207.016 122.512C203.475 122.512 200.604 119.646 200.604 116.112C200.604 112.577 203.475 109.712 207.016 109.712Z" fill="#F2F2F2"/>
<path fill-rule="evenodd" clip-rule="evenodd" d="M84.2721 127.998C73.1425 127.998 64.1201 119.197 64.1201 108.341C64.1201 97.4848 73.1425 88.6841 84.2721 88.6841C84.7454 88.6841 85.2149 88.7 85.68 88.7314C85.3568 86.9359 85.1881 85.0869 85.1881 83.1985C85.1881 66.0307 99.1318 52.1134 116.332 52.1134C130.064 52.1134 141.72 60.9836 145.863 73.2965C146.844 73.1941 147.841 73.1416 148.85 73.1416C164.28 73.1416 176.788 85.4215 176.788 100.57C176.788 114.961 165.499 126.834 151.14 127.978V127.998H99.3933H84.2721ZM95.2604 127.998H88.8809H95.2604Z" fill="white"/>
<path d="M95.2604 127.998H88.8809M84.2721 127.998C73.1425 127.998 64.1201 119.197 64.1201 108.341C64.1201 97.4848 73.1425 88.6841 84.2721 88.6841C84.7454 88.6841 85.2149 88.7 85.68 88.7314C85.3568 86.9359 85.1881 85.0869 85.1881 83.1985C85.1881 66.0307 99.1318 52.1134 116.332 52.1134C130.064 52.1134 141.72 60.9836 145.863 73.2965C146.844 73.1941 147.841 73.1416 148.85 73.1416C164.28 73.1416 176.788 85.4215 176.788 100.57C176.788 114.961 165.499 126.834 151.14 127.978V127.998H99.3933H84.2721Z" stroke="#B3B3B3" stroke-width="2.5" stroke-linecap="round"/>
<path fill-rule="evenodd" clip-rule="evenodd" d="M106.817 58.8263C106.817 88.2868 133.399 112.563 167.628 115.84C163.338 121.105 156.714 124.676 149.167 125.237V125.255H87.7003C80.2425 125.255 67.7837 122.118 67.7837 108.385C67.7837 94.6513 77.4696 91.5151 87.7003 91.5151C88.1354 91.5151 88.5669 91.5287 88.9945 91.5556C88.6974 90.0147 88.6452 88.4264 88.5424 86.8072C87.8476 75.8697 92.6283 62.085 106.833 57.5988C106.822 58.0077 106.817 58.4165 106.817 58.8263ZM116.438 104.919C113.655 104.919 111.398 107.145 111.398 109.89C111.398 112.636 113.655 114.861 116.438 114.861C119.222 114.861 121.478 112.636 121.478 109.89C121.478 107.145 119.222 104.919 116.438 104.919Z" fill="#FFFAE5"/>
<path d="M116.79 115.198C119.572 115.198 121.828 112.947 121.828 110.17C121.828 107.393 119.572 105.141 116.79 105.141C114.008 105.141 111.752 107.393 111.752 110.17C111.752 112.947 114.008 115.198 116.79 115.198Z" stroke="#B3B3B3" stroke-width="2.5"/>
<path d="M102.592 99.6556L109.004 94.6334L102.592 89.8524" stroke="#B3B3B3" stroke-width="2.5" stroke-linecap="round" stroke-linejoin="round"/>
<path d="M130.988 99.6556L124.576 94.6334L130.988 89.8524" stroke="#B3B3B3" stroke-width="2.5" stroke-linecap="round" stroke-linejoin="round"/>
<path d="M125.492 61.256C131.454 62.8309 136.162 67.4848 137.803 73.4095" stroke="#FFD21F" stroke-width="2.5" stroke-linecap="round"/>
<path d="M144.728 45.7138C146.246 45.7138 147.476 44.4858 147.476 42.971C147.476 41.4561 146.246 40.2281 144.728 40.2281C143.21 40.2281 141.98 41.4561 141.98 42.971C141.98 44.4858 143.21 45.7138 144.728 45.7138Z" stroke="#FFD21F" stroke-width="2"/>
<path d="M173.124 60.3414C174.642 60.3414 175.872 59.1135 175.872 57.5986C175.872 56.0838 174.642 54.8558 173.124 54.8558C171.606 54.8558 170.376 56.0838 170.376 57.5986C170.376 59.1135 171.606 60.3414 173.124 60.3414Z" fill="#FFD21F"/>
<path d="M151.834 52.8058L159.49 60.4474M159.607 52.8058L151.95 60.4474L159.607 52.8058Z" stroke="#FFD21F" stroke-width="2.5" stroke-linecap="round" stroke-linejoin="round"/>
<path d="M65.4058 69.1151L70.9018 74.6007M70.9018 69.1151L65.4058 74.6007L70.9018 69.1151Z" stroke="#FFD21F" stroke-width="2.5" stroke-linecap="round" stroke-linejoin="round"/>
<path d="M77.8603 63.0844C79.378 63.0844 80.6083 61.8564 80.6083 60.3416C80.6083 58.8268 79.378 57.5988 77.8603 57.5988C76.3426 57.5988 75.1123 58.8268 75.1123 60.3416C75.1123 61.8564 76.3426 63.0844 77.8603 63.0844Z" fill="#FFD21F"/>
</svg>
