<svg width="166" height="223" viewBox="0 0 166 223" fill="none" xmlns="http://www.w3.org/2000/svg">
<g opacity="0.05">
<path d="M67.856 62.4595L78.6131 169.022C78.6131 173.249 92.0738 176.695 108.676 176.695C125.278 176.695 138.739 173.268 138.739 169.022L149.496 62.4595H67.856Z" fill="#FF3355"/>
<path d="M137.482 62.307C129.924 60.5174 119.814 59.4321 108.695 59.4321C97.5761 59.4321 87.4663 60.5174 79.9077 62.307H66.3328V70.2274C66.3328 76.1866 85.2958 81.0416 108.695 81.0416C132.094 81.0416 151.057 76.2057 151.057 70.2274V62.307H137.482Z" fill="#E8E8E8"/>
<path d="M108.695 73.1212C132.091 73.1212 151.057 68.2795 151.057 62.3069C151.057 56.3344 132.091 51.4927 108.695 51.4927C85.299 51.4927 66.3328 56.3344 66.3328 62.3069C66.3328 68.2795 85.299 73.1212 108.695 73.1212Z" fill="#F7F7F7"/>
<path d="M108.695 67.0482C120.293 67.0482 129.695 64.6529 129.695 61.6982C129.695 58.7434 120.293 56.3481 108.695 56.3481C97.0967 56.3481 87.6946 58.7434 87.6946 61.6982C87.6946 64.6529 97.0967 67.0482 108.695 67.0482Z" fill="#DDDDDD"/>
<path d="M108.695 65.8485C120.293 65.8485 129.695 63.4532 129.695 60.4984C129.695 57.5437 120.293 55.1484 108.695 55.1484C97.0967 55.1484 87.6946 57.5437 87.6946 60.4984C87.6946 63.4532 97.0967 65.8485 108.695 65.8485Z" fill="#EAEAEA"/>
<path d="M111.436 61.1267C111.436 61.1267 109.951 62.726 107 61.6026C105.325 60.9553 106.125 59.3941 106.125 59.3941L131.751 0.505859L136.854 2.7144L111.436 61.1267Z" fill="#DDDDDD"/>
<path d="M136.838 2.7522C136.974 2.43282 135.938 1.6873 134.525 1.08704C133.112 0.486777 131.857 0.259078 131.721 0.578454C131.586 0.89783 132.621 1.64335 134.034 2.24361C135.447 2.84387 136.702 3.07157 136.838 2.7522Z" fill="#EAEAEA"/>
<path d="M14.2603 117.578L30.3293 108.211L82.592 110.515L66.1992 126.47L14.2603 117.578Z" fill="#FFD7E2"/>
<path d="M30.5961 121.272L27.6831 94.7122L33.3568 95.7594L36.7648 93.7983V121.881L33.8328 123.709L30.5961 121.272Z" fill="#FFCF03"/>
<path d="M33.3567 95.7594L36.7647 93.7983V121.881L33.8327 123.709L33.3567 95.7594Z" fill="#E8BB00"/>
<path d="M27.6831 94.7125L31.3386 92.6943L36.7648 93.7986L33.3568 95.7596L27.6831 94.7125Z" fill="#FFE706"/>
<path d="M23.0562 129.801L26.407 103.318L31.6809 105.641L35.4697 104.536L28.9012 131.839L25.6264 132.943L23.0562 129.801Z" fill="#FFCF03"/>
<path d="M31.6812 105.641L35.47 104.537L28.9015 131.839L25.6267 132.943L31.6812 105.641Z" fill="#E8BB00"/>
<path d="M26.4072 103.318L30.4435 102.214L35.4699 104.537L31.6811 105.641L26.4072 103.318Z" fill="#FFE706"/>
<path d="M27.3592 127.098L13.175 104.46L18.7345 102.918L20.9621 99.6816L33.1662 124.966L31.3194 127.879L27.3592 127.098Z" fill="#FFCF03"/>
<path d="M18.7344 102.918L20.962 99.6816L33.1661 124.966L31.3193 127.879L18.7344 102.918Z" fill="#E8BB00"/>
<path d="M13.175 104.46L15.593 101.052L20.9621 99.6816L18.7345 102.918L13.175 104.46Z" fill="#FFE706"/>
<path d="M38.916 122.681L37.5261 96.0073L43.1427 97.359L46.6649 95.6074L45.0276 123.652L42.0003 125.309L38.916 122.681Z" fill="#FFCF03"/>
<path d="M43.1428 97.359L46.6651 95.6074L45.0277 123.652L42.0005 125.309L43.1428 97.359Z" fill="#E8BB00"/>
<path d="M37.5261 96.007L41.2959 94.1982L46.6649 95.6072L43.1427 97.3588L37.5261 96.007Z" fill="#FFE706"/>
<path d="M36.4409 132.924L35.0701 106.25L40.6676 107.621L44.1898 105.87L42.5715 133.895L39.5252 135.552L36.4409 132.924Z" fill="#FFCF03"/>
<path d="M40.6678 107.621L44.19 105.87L42.5717 133.895L39.5254 135.552L40.6678 107.621Z" fill="#E8BB00"/>
<path d="M35.0701 106.25L38.8398 104.46L44.1898 105.869L40.6676 107.621L35.0701 106.25Z" fill="#FFE706"/>
<path d="M62.4292 125.861L61.0393 99.1869L66.6559 100.558L70.1781 98.8062L68.5408 126.832L65.5135 128.488L62.4292 125.861Z" fill="#FFCF03"/>
<path d="M66.656 100.558L70.1783 98.8062L68.5409 126.832L65.5137 128.488L66.656 100.558Z" fill="#E8BB00"/>
<path d="M61.0393 99.1867L64.8091 97.397L70.1781 98.8059L66.6559 100.557L61.0393 99.1867Z" fill="#FFE706"/>
<path d="M47.5217 123.576L57.1175 98.6533L61.6869 102.176L65.609 102.023L52.7194 126.946L49.2733 127.231L47.5217 123.576Z" fill="#FFCF03"/>
<path d="M61.6867 102.176L65.6088 102.023L52.7193 126.946L49.2732 127.231L61.6867 102.176Z" fill="#E8BB00"/>
<path d="M57.1177 98.6533L61.2873 98.5391L65.6091 102.023L61.6871 102.176L57.1177 98.6533Z" fill="#FFE706"/>
<path d="M57.7837 131.953L51.7864 105.926L57.5362 106.288L60.6967 103.946L63.9905 131.839L61.2869 133.99L57.7837 131.953Z" fill="#FFCF03"/>
<path d="M57.5364 106.288L60.6969 103.946L63.9907 131.839L61.2871 133.99L57.5364 106.288Z" fill="#E8BB00"/>
<path d="M51.7864 105.926L55.1754 103.489L60.6967 103.946L57.5362 106.288L51.7864 105.926Z" fill="#FFE706"/>
<path d="M48.3406 125.194L42.3242 99.1676L48.0741 99.5293L51.2536 97.1875L54.5284 125.08L51.8438 127.231L48.3406 125.194Z" fill="#FFCF03"/>
<path d="M48.074 99.5293L51.2535 97.1875L54.5283 125.08L51.8437 127.231L48.074 99.5293Z" fill="#E8BB00"/>
<path d="M42.3242 99.1675L45.7322 96.7305L51.2536 97.1874L48.0741 99.5292L42.3242 99.1675Z" fill="#FFE706"/>
<path d="M61.7632 121.691L74.6337 98.2915L78.67 102.385L82.5921 102.766L66.4659 125.746L63.0197 125.556L61.7632 121.691Z" fill="#FFCF03"/>
<path d="M78.6698 102.385L82.5919 102.766L66.4657 125.746L63.0195 125.556L78.6698 102.385Z" fill="#E8BB00"/>
<path d="M74.6335 98.2915L78.7841 98.7484L82.5919 102.766L78.6698 102.385L74.6335 98.2915Z" fill="#FFE706"/>
<path d="M82.5917 110.515L68.7121 192.974L59.6875 200.837L68.3123 121.387L82.5917 110.515Z" fill="#FF7DA5"/>
<path d="M82.5917 110.515L68.3123 121.387L67.2271 131.401L80.6687 121.939L82.5917 110.515Z" fill="#FFA6C6"/>
<path d="M78.9555 132.143L66.1612 141.225L65.1331 150.63L77.1468 142.9L78.9555 132.143Z" fill="#FFA6C6"/>
<path d="M75.5664 152.249L64.181 159.407L63.2671 167.88L74.1004 160.911L75.5664 152.249Z" fill="#FFA6C6"/>
<path d="M74.1007 160.912L63.2674 167.88L62.3916 175.953L72.5395 170.241L74.1007 160.912Z" fill="#FFA6C6"/>
<path d="M59.6875 200.837L68.7121 192.974L69.7783 186.653L60.5823 192.574L59.6875 200.837Z" fill="#FFA6C6"/>
<path d="M72.5388 170.241L62.391 175.952L61.5151 184.044L71.0538 179.094L72.5388 170.241Z" fill="#FFA6C6"/>
<path d="M14.2603 117.579L26.7881 197.029L59.6878 200.837L68.3126 121.386L14.2603 117.579Z" fill="#FF3355"/>
<path d="M68.3126 121.386L14.2603 117.579L15.8786 127.86L67.2273 131.287L68.3126 121.386Z" fill="#FF7190"/>
<path d="M66.1991 140.883L17.3064 136.865L18.6391 145.357L65.1709 150.345L66.1991 140.883Z" fill="#FF7190"/>
<path d="M64.2002 159.312L19.915 153.391L21.1907 161.54L63.2673 167.956L64.2002 159.312Z" fill="#FF7190"/>
<path d="M25.4932 188.747L26.7878 197.029L59.6876 200.837L60.5443 192.917L25.4932 188.747Z" fill="#FF7190"/>
<path d="M62.4675 175.21L22.6755 170.964L23.9892 179.265L61.5726 183.549L62.4675 175.21Z" fill="#FF7190"/>
<path d="M67.0373 197.828C67.0373 197.828 52.815 219.628 91.8644 222.046C130.914 224.464 144.698 220.637 152.599 218.01C160.501 215.382 164.004 210.108 159.625 196.514C147.992 185.319 67.0373 197.828 67.0373 197.828Z" fill="#ED7E06"/>
<path d="M67.0373 193.107C67.0373 193.107 52.815 214.907 91.8644 217.325C130.914 219.743 144.698 215.916 152.599 213.288C160.501 210.661 164.004 205.387 159.625 191.793C147.992 180.617 67.0373 193.107 67.0373 193.107Z" fill="#E8BB00"/>
<path d="M67.0373 197.828C67.0373 197.828 66.9421 198 66.7898 198.323C70.3882 202.321 77.9658 205.882 93.14 206.815C132.189 209.233 142.947 207.481 150.848 204.835C155.455 203.292 158.559 200.836 159.473 196.381C147.383 185.415 67.0373 197.828 67.0373 197.828Z" fill="#A45000"/>
<path d="M163.185 192.802C162.233 191.964 161.015 191.526 159.815 191.107C158.673 190.707 157.512 190.288 156.369 189.889L151.857 191.831C142.014 193.221 132.171 194.61 122.327 195.981C116.692 196.781 111.018 197.561 105.344 197.466C104.202 197.447 102.983 197.39 101.974 197.923C100.394 198.742 99.7658 200.665 99.6326 202.435C99.4231 205.558 100.413 208.757 102.374 211.213C102.584 211.479 102.831 211.765 103.155 211.879C103.478 212.012 103.84 211.974 104.183 212.012C105.306 212.107 106.239 212.907 107.248 213.402C109.4 214.449 111.989 214.126 114.198 213.212C116.406 212.298 118.329 210.851 120.366 209.594C121.432 208.928 122.822 208.319 123.888 208.985C124.688 209.48 124.974 210.508 125.716 211.079C126.535 211.689 127.696 211.574 128.648 211.232C129.6 210.889 130.495 210.318 131.504 210.108C133.522 209.67 135.521 210.66 137.482 211.289C139.444 211.917 141.938 212.088 143.213 210.47C144.032 209.442 144.127 207.957 144.984 206.967C145.898 205.92 147.459 205.691 148.868 205.824C150.258 205.958 151.629 206.377 153.038 206.3C154.427 206.224 155.95 205.482 156.312 204.13C156.56 203.254 156.274 202.321 156.141 201.407C156.027 200.494 156.141 199.427 156.902 198.932C157.283 198.685 157.74 198.628 158.197 198.609C159.378 198.532 160.596 198.59 161.738 198.304C162.9 198.018 164.023 197.276 164.385 196.153C164.747 194.991 164.137 193.639 163.185 192.802Z" fill="#508E07"/>
<path d="M93.6162 199.37C86.8763 198.152 80.5172 195.372 73.8725 193.678L68.9985 193.278C68.256 194.611 67.0374 195.658 65.6285 196.191C63.896 196.857 61.5732 197.029 60.9068 198.761C60.2214 200.532 62.1063 202.379 63.9912 202.588C65.0193 202.702 66.0855 202.512 67.1136 202.607C68.1607 202.702 69.265 203.197 69.6077 204.187C69.9504 205.177 69.4364 206.377 70.0076 207.253C70.7882 208.433 72.654 207.824 73.7773 206.948C74.9006 206.072 76.2905 204.987 77.5661 205.596C78.4229 206.015 78.7846 207.024 79.2987 207.843C80.2506 209.366 82.0593 210.299 83.849 210.242C84.1727 210.223 84.5154 210.185 84.801 210.032C85.2389 209.823 85.5435 209.404 85.8862 209.042C87.0096 207.862 88.7421 207.272 90.3604 207.5C90.7222 207.557 91.084 207.633 91.3695 207.843C91.8646 208.186 92.074 208.795 92.3596 209.309C93.064 210.623 94.3206 211.632 95.7866 211.898C97.2526 212.146 98.8519 211.555 99.6706 210.318C99.9372 209.918 100.128 209.461 100.489 209.137C101.289 208.433 102.507 208.719 103.574 208.814C107.401 209.157 110.77 206.453 113.664 203.921C114.236 203.407 114.826 202.912 115.397 202.398C108.391 200.208 100.832 200.684 93.6162 199.37Z" fill="#5AAA08"/>
<path d="M69.7024 184.139C69.7024 184.139 63.9335 185.91 66.7894 193.583C69.6262 201.236 71.1112 202.15 85.6001 203.75C100.089 205.349 117.357 205.92 129.371 204.892C141.385 203.864 150.6 202.95 154.884 200.456C159.168 197.943 160.31 198.895 160.31 196.039C160.31 193.183 161.452 189.299 158.33 189.07C155.207 188.842 161.452 184.025 154.541 181.931C147.63 179.836 124.059 176.447 105.477 178.77C86.9138 181.074 69.7024 184.139 69.7024 184.139Z" fill="#703300"/>
<path d="M71.816 176.161C71.816 176.161 61.0588 182.482 59.5357 191.888C57.9935 201.293 82.1352 198.037 90.9123 196.838C99.6894 195.639 117.015 192.23 123.812 177.532C109.323 173.591 71.816 176.161 71.816 176.161Z" fill="#F63400"/>
<path d="M114.921 176.066C97.8614 174.391 71.8158 176.162 71.8158 176.162C71.8158 176.162 67.8937 178.484 64.4667 182.368C63.7622 183.606 63.2481 184.958 63.0578 186.367C61.725 195.772 81.2973 191.698 88.913 190.517C95.5767 189.451 108.009 186.69 114.921 176.066Z" fill="#EE555A"/>
<path d="M150.067 172.297C150.067 172.297 160.824 178.618 162.347 188.023C163.889 197.428 139.748 194.173 130.971 192.973C122.193 191.774 104.868 188.366 98.0708 173.667C112.541 169.745 150.067 172.297 150.067 172.297Z" fill="#E22500"/>
<path d="M106.962 172.202C124.021 170.526 150.067 172.297 150.067 172.297C150.067 172.297 153.989 174.62 157.416 178.504C158.12 179.741 158.635 181.093 158.825 182.502C160.158 191.907 140.585 187.833 132.97 186.652C126.287 185.605 113.873 182.845 106.962 172.202Z" fill="#EE555A"/>
<path d="M69.7024 159.445C69.7024 159.445 63.9335 162.015 66.7894 173.058C69.6452 184.101 71.1112 185.433 85.6001 187.737C100.089 190.041 117.357 190.859 129.371 189.374C141.385 187.889 150.6 186.576 154.884 182.958C159.168 179.341 160.31 180.712 160.31 176.561C160.31 172.41 161.452 166.832 158.33 166.489C155.207 166.166 161.452 159.197 154.541 156.189C147.63 153.162 124.059 148.269 105.477 151.62C86.9138 155.009 69.7024 159.445 69.7024 159.445Z" fill="#703300"/>
<path d="M82.3067 173.001C82.3067 173.001 62.7344 179.645 57.2892 183.587C55.3091 171.744 69.798 159.35 69.798 159.35L82.3067 173.001Z" fill="#FFCF03"/>
<path d="M86.324 171.306C86.324 171.306 117.739 182.978 123.222 188.328C138.358 175.248 148.239 167.556 148.239 167.556L118.843 158.227L86.324 171.306Z" fill="#FFCF03"/>
<path d="M74.7481 149.449C74.7481 149.449 63.991 157.56 62.4678 169.631C60.9256 181.702 85.0673 177.532 93.8444 175.99C102.621 174.448 119.947 170.069 126.744 151.201C112.255 146.156 74.7481 149.449 74.7481 149.449Z" fill="#F63400"/>
<path d="M117.853 149.335C100.794 147.184 74.7479 149.449 74.7479 149.449C74.7479 149.449 70.8258 152.42 67.3988 157.427C66.6943 159.026 66.1803 160.74 65.9899 162.567C64.6571 174.638 84.2294 169.422 91.8451 167.879C98.5088 166.528 110.941 162.986 117.853 149.335Z" fill="#EE555A"/>
<path d="M152.999 144.499C152.999 144.499 163.756 152.61 165.279 164.681C166.821 176.752 142.68 172.582 133.903 171.04C125.126 169.498 107.8 165.119 101.003 146.251C115.473 141.225 152.999 144.499 152.999 144.499Z" fill="#E22500"/>
<path d="M109.875 144.385C126.934 142.234 152.98 144.5 152.98 144.5C152.98 144.5 156.902 147.47 160.329 152.477C161.034 154.076 161.548 155.79 161.738 157.618C163.071 169.689 143.498 164.472 135.883 162.93C129.219 161.597 116.806 158.037 109.875 144.385Z" fill="#EE555A"/>
<path d="M161.433 146.289C160.481 145.451 159.263 145.013 158.063 144.594C156.921 144.195 155.76 143.776 154.617 143.376L150.105 145.318C140.262 146.708 130.418 148.098 120.575 149.469C114.939 150.268 109.266 151.049 103.592 150.954C102.45 150.935 101.231 150.877 100.222 151.411C98.6419 152.229 98.0136 154.152 97.8804 155.923C97.6709 159.045 98.6609 162.244 100.622 164.7C100.831 164.966 101.079 165.252 101.403 165.366C101.726 165.5 102.088 165.461 102.431 165.5C103.554 165.595 104.487 166.394 105.496 166.889C107.647 167.937 110.237 167.613 112.445 166.699C114.654 165.785 116.577 164.338 118.614 163.082C119.68 162.415 121.07 161.806 122.136 162.472C122.936 162.967 123.222 163.995 123.964 164.567C124.783 165.176 125.944 165.062 126.896 164.719C127.848 164.376 128.743 163.805 129.752 163.596C131.77 163.158 133.769 164.148 135.73 164.776C137.691 165.404 140.185 165.576 141.461 163.957C142.28 162.929 142.375 161.444 143.232 160.454C144.146 159.407 145.707 159.179 147.116 159.312C148.506 159.445 149.876 159.864 151.285 159.788C152.675 159.712 154.198 158.969 154.56 157.617C154.808 156.742 154.522 155.809 154.389 154.895C154.274 153.981 154.389 152.915 155.15 152.42C155.531 152.172 155.988 152.115 156.445 152.096C157.625 152.02 158.844 152.077 159.986 151.791C161.148 151.506 162.271 150.763 162.633 149.64C162.994 148.478 162.385 147.127 161.433 146.289Z" fill="#508E07"/>
<path d="M91.864 152.877C85.1241 151.658 78.765 148.878 72.1203 147.184L67.2463 146.784C66.5038 148.117 65.2853 149.164 63.8764 149.697C62.1438 150.364 59.821 150.535 59.1546 152.267C58.4692 154.038 60.3541 155.885 62.239 156.094C63.2671 156.209 64.3333 156.018 65.3614 156.113C66.4086 156.209 67.5128 156.704 67.8555 157.694C68.1983 158.684 67.6842 159.883 68.2554 160.759C69.036 161.939 70.9018 161.33 72.0251 160.454C73.1485 159.579 74.5383 158.493 75.8139 159.103C76.6707 159.521 77.0324 160.53 77.5465 161.349C78.4985 162.872 80.3072 163.805 82.0969 163.748C82.4205 163.729 82.7632 163.691 83.0488 163.539C83.4867 163.329 83.7914 162.91 84.1341 162.549C85.2574 161.368 86.9899 160.778 88.6083 161.006C88.97 161.064 89.3318 161.14 89.6173 161.349C90.1124 161.692 90.3218 162.301 90.6074 162.815C91.3118 164.129 92.5684 165.138 94.0345 165.405C95.5005 165.652 97.0998 165.062 97.9184 163.824C98.185 163.424 98.3754 162.968 98.7371 162.644C99.5368 161.939 100.755 162.225 101.821 162.32C105.648 162.663 109.018 159.959 111.912 157.427C112.483 156.913 113.074 156.418 113.645 155.904C106.638 153.695 99.0798 154.19 91.864 152.877Z" fill="#5AAA08"/>
<path d="M157.34 142.881C157.34 152.324 136.569 158.246 110.942 158.246C85.315 158.246 64.5432 152.343 64.5432 142.881C64.5432 133.438 85.315 118.968 110.942 118.968C136.569 118.968 157.34 133.419 157.34 142.881Z" fill="#EEBA73"/>
<path d="M110.942 118.968C89.2749 118.968 71.0735 129.306 65.9709 138.216C71.0735 145.242 89.2749 149.469 110.942 149.469C132.608 149.469 150.81 145.242 155.912 138.216C150.81 129.306 132.608 118.968 110.942 118.968Z" fill="#FFBC15"/>
<path d="M114.921 120.548C114.921 120.548 132.342 123.328 146.412 131.933C160.482 140.539 132.151 146.593 120.423 144.842C108.695 143.071 119.205 124.013 114.921 120.548Z" fill="#FFC34A"/>
<path d="M105.535 127.878C106.071 127.878 106.506 126.633 106.506 125.098C106.506 123.563 106.071 122.318 105.535 122.318C104.998 122.318 104.564 123.563 104.564 125.098C104.564 126.633 104.998 127.878 105.535 127.878Z" fill="#FFE164"/>
<path d="M95.1986 127.227C96.3893 126.258 97.0801 125.135 96.7416 124.72C96.403 124.304 95.1633 124.752 93.9726 125.721C92.7819 126.69 92.0911 127.813 92.4297 128.229C92.7682 128.645 94.0079 128.197 95.1986 127.227Z" fill="#FFE164"/>
<path d="M78.8665 131.16C80.0572 130.191 80.7481 129.068 80.4095 128.652C80.071 128.236 78.8313 128.685 77.6406 129.654C76.4499 130.623 75.7591 131.746 76.0976 132.162C76.4362 132.578 77.6758 132.129 78.8665 131.16Z" fill="#FFE164"/>
<path d="M80.9267 140.706C81.9075 139.525 82.3682 138.29 81.9557 137.947C81.5431 137.604 80.4136 138.284 79.4327 139.465C78.4519 140.646 77.9912 141.881 78.4037 142.224C78.8163 142.567 79.9459 141.887 80.9267 140.706Z" fill="#FFE164"/>
<path d="M94.7567 142.047C95.1207 140.555 94.9934 139.243 94.4724 139.116C93.9514 138.989 93.234 140.095 92.87 141.586C92.506 143.078 92.6333 144.39 93.1543 144.517C93.6753 144.644 94.3927 143.538 94.7567 142.047Z" fill="#FFE164"/>
<path d="M101.114 133.07C101.478 131.578 101.351 130.266 100.83 130.139C100.309 130.012 99.5912 131.118 99.2272 132.609C98.8632 134.101 98.9904 135.413 99.5114 135.54C100.032 135.667 100.75 134.561 101.114 133.07Z" fill="#FFE164"/>
<path d="M90.4975 134.633C91.4783 133.452 91.939 132.217 91.5265 131.874C91.1139 131.532 89.9844 132.211 89.0035 133.392C88.0227 134.573 87.562 135.809 87.9745 136.151C88.3871 136.494 89.5167 135.814 90.4975 134.633Z" fill="#FFE164"/>
<path d="M126.562 128.22C126.9 127.804 126.21 126.681 125.019 125.712C123.828 124.743 122.589 124.294 122.25 124.71C121.911 125.126 122.602 126.249 123.793 127.218C124.984 128.187 126.223 128.636 126.562 128.22Z" fill="#FFE164"/>
<path d="M142.881 132.144C143.219 131.728 142.529 130.605 141.338 129.636C140.147 128.667 138.908 128.218 138.569 128.634C138.23 129.05 138.921 130.173 140.112 131.142C141.303 132.111 142.542 132.56 142.881 132.144Z" fill="#FFE164"/>
<path d="M140.564 142.171C140.977 141.828 140.516 140.593 139.535 139.412C138.554 138.231 137.425 137.551 137.012 137.894C136.6 138.236 137.06 139.472 138.041 140.653C139.022 141.834 140.151 142.513 140.564 142.171Z" fill="#FFE164"/>
<path d="M125.809 144.517C126.33 144.39 126.458 143.078 126.094 141.586C125.73 140.095 125.012 138.989 124.491 139.116C123.97 139.243 123.843 140.555 124.207 142.047C124.571 143.538 125.288 144.644 125.809 144.517Z" fill="#FFE164"/>
<path d="M119.452 135.551C119.973 135.424 120.1 134.112 119.736 132.62C119.372 131.129 118.654 130.023 118.134 130.15C117.613 130.277 117.485 131.589 117.849 133.081C118.213 134.572 118.931 135.678 119.452 135.551Z" fill="#FFE164"/>
<path d="M130.983 136.102C131.396 135.759 130.935 134.524 129.954 133.343C128.973 132.162 127.844 131.482 127.431 131.825C127.019 132.168 127.479 133.403 128.46 134.584C129.441 135.765 130.57 136.444 130.983 136.102Z" fill="#FFE164"/>
<path d="M106.519 143.11C106.642 141.579 106.308 140.304 105.773 140.261C105.239 140.219 104.706 141.424 104.584 142.955C104.461 144.485 104.795 145.76 105.33 145.803C105.864 145.846 106.397 144.64 106.519 143.11Z" fill="#FFE164"/>
<path d="M112.237 136.317C112.773 136.294 113.155 135.033 113.09 133.499C113.026 131.965 112.539 130.74 112.004 130.762C111.468 130.785 111.086 132.047 111.15 133.58C111.215 135.114 111.701 136.339 112.237 136.317Z" fill="#FFE164"/>
<path d="M0 195.505L5.67367 212.127C5.67367 215.135 14.5459 217.553 25.4935 217.553C36.441 217.553 45.3133 215.116 45.3133 212.127L50.987 195.505H0Z" fill="#FFBC15"/>
<path d="M25.4935 202.493C39.5732 202.493 50.987 199.364 50.987 195.505C50.987 191.646 39.5732 188.518 25.4935 188.518C11.4138 188.518 0 191.646 0 195.505C0 199.364 11.4138 202.493 25.4935 202.493Z" fill="#EAEAEA"/>
<path d="M25.4932 192.479C13.4033 192.479 3.59814 195.163 3.59814 198.476C3.59814 198.704 3.65526 198.914 3.73142 199.142C8.20563 201.16 16.2592 202.493 25.4742 202.493C34.6892 202.493 42.7427 201.141 47.2169 199.142C47.3121 198.933 47.3502 198.704 47.3502 198.476C47.3883 195.163 37.5831 192.479 25.4932 192.479Z" fill="#F63400"/>
</g>
</svg>
