<svg width="20" height="20" viewBox="0 0 20 20" fill="none" xmlns="http://www.w3.org/2000/svg">
<path d="M10.0001 14.792C10.3453 14.792 10.6251 14.5122 10.6251 14.167V9.16699C10.6251 8.82181 10.3453 8.54199 10.0001 8.54199C9.6549 8.54199 9.37508 8.82181 9.37508 9.16699V14.167C9.37508 14.5122 9.6549 14.792 10.0001 14.792Z" fill="#1A1A1A"/>
<path d="M10.0001 5.83366C10.4603 5.83366 10.8334 6.20675 10.8334 6.66699C10.8334 7.12723 10.4603 7.50033 10.0001 7.50033C9.53984 7.50033 9.16675 7.12723 9.16675 6.66699C9.16675 6.20675 9.53984 5.83366 10.0001 5.83366Z" fill="#1A1A1A"/>
<path fill-rule="evenodd" clip-rule="evenodd" d="M1.04175 10.0003C1.04175 5.05277 5.05253 1.04199 10.0001 1.04199C14.9476 1.04199 18.9584 5.05277 18.9584 10.0003C18.9584 14.9479 14.9476 18.9587 10.0001 18.9587C5.05253 18.9587 1.04175 14.9479 1.04175 10.0003ZM10.0001 2.29199C5.74289 2.29199 2.29175 5.74313 2.29175 10.0003C2.29175 14.2575 5.74289 17.7087 10.0001 17.7087C14.2573 17.7087 17.7084 14.2575 17.7084 10.0003C17.7084 5.74313 14.2573 2.29199 10.0001 2.29199Z" fill="#1A1A1A"/>
</svg>
