<svg width="14" height="16" viewBox="0 0 14 16" fill="none" xmlns="http://www.w3.org/2000/svg">
<path d="M7 4.16634C7.27614 4.16634 7.5 4.3902 7.5 4.66634V8.66634C7.5 8.94248 7.27614 9.16634 7 9.16634C6.72386 9.16634 6.5 8.94248 6.5 8.66634V4.66634C6.5 4.3902 6.72386 4.16634 7 4.16634Z" fill="#CCCCCC"/>
<path d="M7.66667 10.6663C7.66667 11.0345 7.36819 11.333 7 11.333C6.63181 11.333 6.33333 11.0345 6.33333 10.6663C6.33333 10.2982 6.63181 9.99967 7 9.99967C7.36819 9.99967 7.66667 10.2982 7.66667 10.6663Z" fill="#CCCCCC"/>
<path fill-rule="evenodd" clip-rule="evenodd" d="M7 0.833008C6.53027 0.833008 6.10124 0.962069 5.63239 1.17992C5.17872 1.39071 4.65359 1.7017 3.99638 2.09091L3.49432 2.38823C2.83689 2.77756 2.31181 3.0885 1.90717 3.38597C1.48876 3.69356 1.16785 4.00841 0.935563 4.42109C0.703651 4.8331 0.598941 5.27364 0.548704 5.79638C0.499991 6.30327 0.499995 6.92401 0.5 7.70366V8.29568C0.499995 9.07533 0.499991 9.69608 0.548704 10.203C0.598941 10.7257 0.703651 11.1662 0.935563 11.5783C1.16785 11.9909 1.48876 12.3058 1.90717 12.6134C2.31181 12.9108 2.83689 13.2218 3.49432 13.6111L3.9964 13.9084C4.65359 14.2976 5.17873 14.6086 5.63239 14.8194C6.10124 15.0373 6.53027 15.1663 7 15.1663C7.46972 15.1663 7.89876 15.0373 8.36761 14.8194C8.82127 14.6086 9.3464 14.2977 10.0036 13.9084L10.5057 13.6111C11.1631 13.2218 11.6882 12.9108 12.0928 12.6134C12.5112 12.3058 12.8322 11.9909 13.0644 11.5783C13.2963 11.1662 13.4011 10.7257 13.4513 10.203C13.5 9.69608 13.5 9.07535 13.5 8.29571V7.70369C13.5 6.92405 13.5 6.30326 13.4513 5.79638C13.4011 5.27364 13.2963 4.8331 13.0644 4.42109C12.8322 4.00841 12.5112 3.69356 12.0928 3.38597C11.6882 3.0885 11.1631 2.77756 10.5057 2.38824L10.0036 2.09091C9.3464 1.7017 8.82128 1.39071 8.36761 1.17992C7.89876 0.962069 7.46972 0.833008 7 0.833008ZM4.4835 2.96464C5.16826 2.55912 5.65071 2.27408 6.05377 2.0868C6.4468 1.90418 6.72716 1.83301 7 1.83301C7.27284 1.83301 7.5532 1.90418 7.94623 2.0868C8.34929 2.27408 8.83174 2.55912 9.5165 2.96464L9.97394 3.23553C10.6586 3.64099 11.1406 3.9271 11.5005 4.19167C11.8512 4.44945 12.054 4.66465 12.193 4.91159C12.3324 5.1592 12.4133 5.44894 12.4559 5.89204C12.4995 6.34557 12.5 6.91836 12.5 7.72878V8.27057C12.5 9.08099 12.4995 9.65378 12.4559 10.1073C12.4133 10.5504 12.3324 10.8401 12.193 11.0878C12.054 11.3347 11.8512 11.5499 11.5005 11.8077C11.1406 12.0722 10.6586 12.3584 9.97394 12.7638L9.5165 13.0347C8.83174 13.4402 8.34929 13.7253 7.94623 13.9125C7.5532 14.0952 7.27284 14.1663 7 14.1663C6.72716 14.1663 6.4468 14.0952 6.05377 13.9125C5.65071 13.7253 5.16826 13.4402 4.4835 13.0347L4.02606 12.7638C3.3414 12.3584 2.85938 12.0722 2.49949 11.8077C2.14884 11.5499 1.946 11.3347 1.807 11.0878C1.66763 10.8401 1.5867 10.5504 1.54412 10.1073C1.50053 9.65378 1.5 9.08099 1.5 8.27057V7.72878C1.5 6.91835 1.50053 6.34557 1.54412 5.89204C1.5867 5.44894 1.66763 5.1592 1.807 4.91159C1.946 4.66465 2.14884 4.44945 2.49949 4.19167C2.85938 3.9271 3.3414 3.64099 4.02606 3.23553L4.4835 2.96464Z" fill="#CCCCCC"/>
</svg>
