<svg width="19" height="18" viewBox="0 0 19 18" fill="none" xmlns="http://www.w3.org/2000/svg">
<path d="M2 2.25L2.19868 2.31623C3.18871 2.64624 3.68373 2.81124 3.96686 3.20407C4.25 3.5969 4.25 4.1187 4.25 5.16228V7.125C4.25 9.24632 4.25 10.307 4.90901 10.966C5.56802 11.625 6.62868 11.625 8.75 11.625H14.75" stroke="white" stroke-linecap="round"/>
<path d="M6.125 13.5C6.74632 13.5 7.25 14.0037 7.25 14.625C7.25 15.2463 6.74632 15.75 6.125 15.75C5.50368 15.75 5 15.2463 5 14.625C5 14.0037 5.50368 13.5 6.125 13.5Z" stroke="white"/>
<path d="M12.875 13.5001C13.4963 13.5001 14 14.0037 14 14.6251C14 15.2464 13.4963 15.7501 12.875 15.7501C12.2537 15.7501 11.75 15.2464 11.75 14.6251C11.75 14.0037 12.2537 13.5001 12.875 13.5001Z" stroke="white"/>
<path d="M8.75 6.75H6.5" stroke="white" stroke-linecap="round"/>
<path d="M4.25 4.5H12.8378C14.379 4.5 15.1496 4.5 15.4831 5.0057C15.8165 5.5114 15.513 6.2197 14.9059 7.63632L14.5844 8.38632C14.301 9.0477 14.1593 9.37839 13.8775 9.5642C13.5957 9.75 13.2359 9.75 12.5164 9.75H4.25" stroke="white"/>
</svg>
