<svg width="24" height="24" viewBox="0 0 24 24" fill="none" xmlns="http://www.w3.org/2000/svg">
<rect x="0.4" y="0.4" width="23.2" height="23.2" rx="11.6" stroke="#1A1A1A" stroke-width="0.8" stroke-linejoin="bevel" stroke-dasharray="3 3"/>
<path d="M16.9783 12.9576H7.78641C7.47235 12.9576 7.21191 12.6971 7.21191 12.3831C7.21191 12.069 7.47235 11.8086 7.78641 11.8086H16.9783C17.2924 11.8086 17.5528 12.069 17.5528 12.3831C17.5528 12.6971 17.2924 12.9576 16.9783 12.9576Z" fill="#1A1A1A"/>
<path d="M12.3802 17.5538C12.0661 17.5538 11.8057 17.2933 11.8057 16.9793V7.78738C11.8057 7.47333 12.0661 7.21289 12.3802 7.21289C12.6942 7.21289 12.9547 7.47333 12.9547 7.78738V16.9793C12.9547 17.2933 12.6942 17.5538 12.3802 17.5538Z" fill="#1A1A1A"/>
</svg>
