<svg width="20" height="20" viewBox="0 0 20 20" fill="none" xmlns="http://www.w3.org/2000/svg">
<path fill-rule="evenodd" clip-rule="evenodd" d="M10 20C4.47715 20 0 15.5228 0 10C0 4.47715 4.47715 0 10 0C15.5228 0 20 4.47715 20 10C20 15.5228 15.5228 20 10 20ZM12.25 7C12.25 6.58579 11.9142 6.25 11.5 6.25H7C6.58579 6.25 6.25 6.58579 6.25 7V11.5C6.25 11.9142 6.58579 12.25 7 12.25C7.41421 12.25 7.75 11.9142 7.75 11.5V8.81066L12.4697 13.5303C12.7626 13.8232 13.2374 13.8232 13.5303 13.5303C13.8232 13.2374 13.8232 12.7626 13.5303 12.4697L8.81066 7.75H11.5C11.9142 7.75 12.25 7.41421 12.25 7Z" fill="#FFD21F"/>
</svg>
