<svg width="16" height="16" viewBox="0 0 16 16" fill="none" xmlns="http://www.w3.org/2000/svg">
<path d="M8.4999 3.99967C8.4999 3.72353 8.27604 3.49967 7.9999 3.49967C7.72376 3.49967 7.4999 3.72353 7.4999 3.99967V6.66634C7.4999 6.94248 7.72376 7.16634 7.9999 7.16634C8.27604 7.16634 8.4999 6.94248 8.4999 6.66634V3.99967Z" fill="#CCCCCC"/>
<path fill-rule="evenodd" clip-rule="evenodd" d="M2.83328 5.99967C2.83328 3.1462 5.14647 0.833008 7.99994 0.833008C10.8534 0.833008 13.1666 3.1462 13.1666 5.99967V6.46908C13.1666 6.93369 13.3041 7.38791 13.5619 7.77449L14.3276 8.92309C15.2163 10.2562 14.5379 12.0682 12.9921 12.4898C12.4884 12.6272 11.9803 12.7434 11.4694 12.8384L11.4681 12.8418C10.9554 14.2097 9.58523 15.1663 7.9999 15.1663C6.41457 15.1663 5.04437 14.2097 4.5317 12.8418L4.53044 12.8384C4.0195 12.7434 3.51151 12.6271 3.00776 12.4898C1.46204 12.0682 0.783564 10.2562 1.67229 8.92309L2.43803 7.77449C2.69575 7.38791 2.83328 6.93369 2.83328 6.46908V5.99967ZM5.74891 13.0243C7.24421 13.203 8.75558 13.203 10.2509 13.0243C9.77691 13.7053 8.95254 14.1663 7.9999 14.1663C7.04726 14.1663 6.22288 13.7053 5.74891 13.0243ZM7.99994 1.83301C5.69876 1.83301 3.83328 3.69849 3.83328 5.99967V6.46908C3.83328 7.13112 3.63731 7.77834 3.27008 8.32919L2.50435 9.47779C1.99423 10.243 2.38366 11.283 3.27088 11.525C6.36705 12.3694 9.63284 12.3694 12.729 11.525C13.6162 11.283 14.0057 10.243 13.4955 9.4778L12.7298 8.32919C12.3626 7.77834 12.1666 7.13112 12.1666 6.46908V5.99967C12.1666 3.69849 10.3011 1.83301 7.99994 1.83301Z" fill="#CCCCCC"/>
</svg>
