<svg width="16" height="16" viewBox="0 0 16 16" fill="none" xmlns="http://www.w3.org/2000/svg">
<path fill-rule="evenodd" clip-rule="evenodd" d="M11.3333 1.83301C9.76853 1.83301 8.50001 3.10153 8.50001 4.66634C8.50001 5.12048 8.60648 5.54833 8.79538 5.92758C8.90139 6.14041 8.9453 6.40117 8.87539 6.66245L8.70667 7.29301L9.33723 7.12429C9.59851 7.05438 9.85927 7.09829 10.0721 7.2043C10.4514 7.3932 10.8792 7.49967 11.3333 7.49967C12.8981 7.49967 14.1667 6.23115 14.1667 4.66634C14.1667 3.10153 12.8981 1.83301 11.3333 1.83301ZM7.50001 4.66634C7.50001 2.54925 9.21625 0.833008 11.3333 0.833008C13.4504 0.833008 15.1667 2.54925 15.1667 4.66634C15.1667 6.78343 13.4504 8.49967 11.3333 8.49967C10.721 8.49967 10.1409 8.35574 9.62626 8.09941C9.61474 8.09367 9.60547 8.09143 9.59987 8.09074C9.59724 8.09041 9.59568 8.09044 9.59504 8.09049L8.85369 8.28885C8.15991 8.47448 7.5252 7.83977 7.71083 7.14599L7.90919 6.40464C7.90924 6.404 7.90927 6.40244 7.90894 6.39981C7.90825 6.39421 7.90601 6.38494 7.90027 6.37342C7.64394 5.85878 7.50001 5.27865 7.50001 4.66634ZM2.47844 2.72776C3.2959 1.86713 4.64804 2.02837 5.32377 2.9841L6.16443 4.17309C6.70492 4.93753 6.65926 6.00031 6.01421 6.67943L5.85098 6.85128C5.85052 6.85247 5.85005 6.85376 5.84955 6.85515C5.84093 6.87939 5.81912 6.95658 5.84058 7.10308C5.88508 7.40677 6.11951 8.0239 7.07128 9.02593C8.02605 10.0311 8.60516 10.268 8.87352 10.3116C8.98931 10.3304 9.04986 10.3141 9.06917 10.3073L9.34158 10.0205C9.9241 9.40719 10.8323 9.28636 11.5646 9.70788L12.8383 10.441C13.9269 11.0676 14.1803 12.6004 13.3103 13.5163L12.3633 14.5134C12.0677 14.8245 11.6647 15.0902 11.1666 15.1393C9.95073 15.2593 7.13397 15.103 4.18105 11.9941C1.42561 9.09318 0.902154 6.56991 0.835983 5.3371C0.80329 4.72798 1.07481 4.20552 1.43204 3.82942L1.79457 4.17376L1.43204 3.82942L2.47844 2.72776ZM4.50725 3.56141C4.16568 3.07831 3.55206 3.04948 3.2035 3.41645L2.1571 4.51811C1.93617 4.7507 1.82026 5.0173 1.83455 5.2835C1.88857 6.29004 2.32203 8.5849 4.90611 11.3055C7.61556 14.158 10.1117 14.2386 11.0684 14.1442C11.2576 14.1255 11.4522 14.0205 11.6382 13.8247L12.5853 12.8276C12.9938 12.3975 12.8867 11.6227 12.3395 11.3077L11.0658 10.5746C10.724 10.3778 10.3236 10.4386 10.0666 10.7092L9.76301 11.0288L9.40048 10.6845C9.76301 11.0288 9.76255 11.0293 9.76208 11.0298L9.76113 11.0308L9.75916 11.0328L9.75494 11.0371L9.74537 11.0466C9.73849 11.0532 9.73058 11.0605 9.72162 11.0684C9.70371 11.0841 9.68153 11.102 9.65488 11.1209C9.60148 11.1588 9.53034 11.2004 9.44039 11.2359C9.25639 11.3085 9.0134 11.3474 8.71322 11.2987C8.12821 11.2037 7.36146 10.7835 6.34622 9.71462C5.32799 8.64261 4.93829 7.84279 4.85114 7.24805C4.80679 6.94534 4.84229 6.70294 4.90742 6.5199C4.93945 6.42988 4.97728 6.3581 5.01215 6.3036C5.02955 6.27642 5.04612 6.25366 5.06078 6.23514C5.06811 6.22588 5.07496 6.21768 5.08119 6.21051L5.09008 6.20052L5.09414 6.19609L5.09608 6.19402L5.09702 6.19302C5.09748 6.19253 5.09795 6.19205 5.46047 6.53639L5.09795 6.19205L5.28916 5.99074C5.58618 5.67803 5.62933 5.14844 5.3479 4.7504L4.50725 3.56141Z" fill="#CCCCCC"/>
</svg>
