<svg width="16" height="16" viewBox="0 0 16 16" fill="none" xmlns="http://www.w3.org/2000/svg">
<path d="M11.634 15.1663C10.8807 15.1663 10.0873 14.9863 9.26732 14.6397C8.46732 14.2997 7.66065 13.833 6.87398 13.2663C6.09398 12.693 5.34065 12.053 4.62732 11.353C3.92065 10.6397 3.28065 9.88634 2.71398 9.11301C2.14065 8.31301 1.68065 7.51301 1.35398 6.73967C1.00732 5.91301 0.833984 5.11301 0.833984 4.35967C0.833984 3.83967 0.927318 3.34634 1.10732 2.88634C1.29398 2.41301 1.59398 1.97301 2.00065 1.59301C2.51398 1.08634 3.10065 0.833008 3.72732 0.833008C3.98732 0.833008 4.25398 0.893008 4.48065 0.999674C4.74065 1.11967 4.96065 1.29967 5.12065 1.53967L6.66732 3.71967C6.80732 3.91301 6.91398 4.09967 6.98732 4.28634C7.07398 4.48634 7.12065 4.68634 7.12065 4.87967C7.12065 5.13301 7.04732 5.37967 6.90732 5.61301C6.80732 5.79301 6.65398 5.98634 6.46065 6.17968L6.00732 6.65301C6.01398 6.67301 6.02065 6.68634 6.02732 6.69967C6.10732 6.83967 6.26732 7.07967 6.57398 7.43967C6.90065 7.81301 7.20732 8.15301 7.51398 8.46634C7.90732 8.85301 8.23398 9.15967 8.54065 9.41301C8.92065 9.73301 9.16732 9.89301 9.31398 9.96634L9.30065 9.99967L9.78732 9.51967C9.99399 9.31301 10.194 9.15967 10.3873 9.05968C10.754 8.83301 11.2207 8.79301 11.6873 8.98634C11.8607 9.05967 12.0473 9.15967 12.2473 9.29967L14.4607 10.873C14.7073 11.0397 14.8873 11.253 14.994 11.5063C15.094 11.7597 15.1407 11.993 15.1407 12.2263C15.1407 12.5463 15.0673 12.8663 14.9273 13.1663C14.7873 13.4663 14.614 13.7263 14.394 13.9663C14.014 14.3863 13.6007 14.6863 13.1207 14.8797C12.6607 15.0663 12.1607 15.1663 11.634 15.1663ZM3.72732 1.83301C3.36065 1.83301 3.02065 1.99301 2.69398 2.31301C2.38732 2.59967 2.17398 2.91301 2.04065 3.25301C1.90065 3.59967 1.83398 3.96634 1.83398 4.35967C1.83398 4.97967 1.98065 5.65301 2.27398 6.34634C2.57398 7.05301 2.99398 7.78634 3.52732 8.51967C4.06065 9.25301 4.66732 9.96634 5.33398 10.6397C6.00065 11.2997 6.72065 11.913 7.46065 12.453C8.18065 12.9797 8.92065 13.4063 9.65398 13.713C10.794 14.1997 11.8607 14.313 12.7407 13.9463C13.0807 13.8063 13.3807 13.593 13.654 13.2863C13.8073 13.1197 13.9273 12.9397 14.0273 12.7263C14.1073 12.5597 14.1473 12.3863 14.1473 12.213C14.1473 12.1063 14.1273 11.9997 14.074 11.8797C14.054 11.8397 14.014 11.7663 13.8873 11.6797L11.674 10.1063C11.5407 10.013 11.4207 9.94634 11.3073 9.89968C11.1607 9.83967 11.1007 9.77967 10.874 9.91967C10.7407 9.98634 10.6207 10.0863 10.4873 10.2197L9.98065 10.7197C9.72065 10.973 9.32065 11.033 9.01398 10.9197L8.83398 10.8397C8.56065 10.693 8.24065 10.4663 7.88732 10.1663C7.56732 9.89301 7.22065 9.57301 6.80065 9.15967C6.47398 8.82634 6.14732 8.47301 5.80732 8.07967C5.49398 7.71301 5.26732 7.39967 5.12732 7.13967L5.04732 6.93967C5.00732 6.78634 4.99398 6.69967 4.99398 6.60634C4.99398 6.36634 5.08065 6.15301 5.24732 5.98634L5.74732 5.46634C5.88065 5.33301 5.98065 5.20634 6.04732 5.09301C6.10065 5.00634 6.12065 4.93301 6.12065 4.86634C6.12065 4.81301 6.10065 4.73301 6.06732 4.65301C6.02065 4.54634 5.94732 4.42634 5.85398 4.29967L4.30732 2.11301C4.24065 2.01967 4.16065 1.95301 4.06065 1.90634C3.95398 1.85967 3.84065 1.83301 3.72732 1.83301ZM9.30065 10.0063L9.19398 10.4597L9.37399 9.99301C9.34065 9.98634 9.31398 9.99301 9.30065 10.0063Z" fill="#405950"/>
</svg>
