<svg width="12" height="12" viewBox="0 0 12 12" fill="none" xmlns="http://www.w3.org/2000/svg">
<path d="M3.275 11.375C3.84 11.375 4.435 11.24 5.05 10.98C5.65 10.725 6.255 10.375 6.845 9.95C7.43 9.52 7.995 9.04 8.53 8.515C9.06 7.98 9.54 7.415 9.965 6.835C10.395 6.235 10.74 5.635 10.985 5.055C11.245 4.435 11.375 3.835 11.375 3.27C11.375 2.88 11.305 2.51 11.17 2.165C11.03 1.81 10.805 1.48 10.5 1.195C10.115 0.815 9.675 0.625 9.205 0.625C9.01 0.625 8.81 0.67 8.64 0.75C8.445 0.84 8.28 0.975 8.16 1.155L7 2.79C6.895 2.935 6.815 3.075 6.76 3.215C6.695 3.365 6.66 3.515 6.66 3.66C6.66 3.85 6.715 4.035 6.82 4.21C6.895 4.345 7.01 4.49 7.155 4.635L7.495 4.99C7.49 5.005 7.485 5.015 7.48 5.025C7.42 5.13 7.3 5.31 7.07 5.58C6.825 5.86 6.595 6.115 6.365 6.35C6.07 6.64 5.825 6.87 5.595 7.06C5.31 7.3 5.125 7.42 5.015 7.475L5.025 7.5L4.66 7.14C4.505 6.985 4.355 6.87 4.21 6.795C3.935 6.625 3.585 6.595 3.235 6.74C3.105 6.795 2.965 6.87 2.815 6.975L1.155 8.155C0.969999 8.28 0.835 8.44 0.755 8.63C0.68 8.82 0.645 8.995 0.645 9.17C0.645 9.41 0.700001 9.65 0.805 9.875C0.91 10.1 1.04 10.295 1.205 10.475C1.49 10.79 1.8 11.015 2.16 11.16C2.505 11.3 2.88 11.375 3.275 11.375ZM9.205 1.375C9.48 1.375 9.735 1.495 9.98 1.735C10.21 1.95 10.37 2.185 10.47 2.44C10.575 2.7 10.625 2.975 10.625 3.27C10.625 3.735 10.515 4.24 10.295 4.76C10.07 5.29 9.755 5.84 9.355 6.39C8.955 6.94 8.5 7.475 8 7.98C7.5 8.475 6.96 8.935 6.405 9.34C5.865 9.735 5.31 10.055 4.76 10.285C3.905 10.65 3.105 10.735 2.445 10.46C2.19 10.355 1.965 10.195 1.76 9.965C1.645 9.84 1.555 9.705 1.48 9.545C1.42 9.42 1.39 9.29 1.39 9.16C1.39 9.08 1.405 9 1.445 8.91C1.46 8.88 1.49 8.825 1.585 8.76L3.245 7.58C3.345 7.51 3.435 7.46 3.52 7.425C3.63 7.38 3.675 7.335 3.845 7.44C3.945 7.49 4.035 7.565 4.135 7.665L4.515 8.04C4.71 8.23 5.01 8.275 5.24 8.19L5.375 8.13C5.58 8.02 5.82 7.85 6.085 7.625C6.325 7.42 6.585 7.18 6.9 6.87C7.145 6.62 7.39 6.355 7.645 6.06C7.88 5.785 8.05 5.55 8.155 5.355L8.215 5.205C8.245 5.09 8.255 5.025 8.255 4.955C8.255 4.775 8.19 4.615 8.065 4.49L7.69 4.1C7.59 4 7.515 3.905 7.465 3.82C7.425 3.755 7.41 3.7 7.41 3.65C7.41 3.61 7.425 3.55 7.45 3.49C7.485 3.41 7.54 3.32 7.61 3.225L8.77 1.585C8.82 1.515 8.88 1.465 8.955 1.43C9.035 1.395 9.12 1.375 9.205 1.375ZM5.025 7.505L5.105 7.845L4.97 7.495C4.995 7.49 5.015 7.495 5.025 7.505Z" fill="#CCCCCC"/>
</svg>
