<svg width="18" height="19" viewBox="0 0 18 19" fill="none" xmlns="http://www.w3.org/2000/svg">
<path fill-rule="evenodd" clip-rule="evenodd" d="M13.4944 3.05527C12.2344 1.79521 10.108 1.891 9.23064 3.4631L8.74388 4.33529C8.17094 5.36191 8.4151 6.65722 9.25382 7.5062C9.26499 7.5215 9.32419 7.6077 9.33157 7.75831C9.34098 7.95055 9.27271 8.39514 8.58389 9.08396C7.89529 9.77255 7.45076 9.841 7.25844 9.83164C7.10771 9.82431 7.02144 9.76507 7.00611 9.75388C6.15714 8.91516 4.86183 8.67102 3.83522 9.24395L2.96302 9.73071C1.39093 10.6081 1.29514 12.7344 2.55519 13.9945C3.22919 14.6685 4.12538 15.2673 5.17853 15.3073C6.73922 15.3664 9.33065 14.9634 11.897 12.3971C14.4633 9.83072 14.8664 7.2393 14.8072 5.6786C14.7673 4.62545 14.1684 3.72926 13.4944 3.05527ZM10.213 4.01134C10.6623 3.20633 11.8695 3.02139 12.6989 3.85076C13.2804 4.43227 13.6585 5.07413 13.683 5.72122C13.7323 7.02272 13.411 9.29204 11.1015 11.6016C8.79197 13.9111 6.52265 14.2324 5.22114 14.1831C4.57406 14.1585 3.9322 13.7805 3.35069 13.199C2.52132 12.3696 2.70626 11.1623 3.51127 10.7131L4.38347 10.2263C4.92602 9.92353 5.68812 10.0268 6.2231 10.5618L6.22327 10.562C6.27582 10.6145 6.61018 10.9264 7.20378 10.9553C7.81145 10.9849 8.547 10.7118 9.37938 9.87945C10.212 9.04679 10.485 8.31104 10.4552 7.70329C10.4262 7.10966 10.114 6.77546 10.0618 6.72322L10.0617 6.72319C9.52675 6.1882 9.42346 5.4261 9.72625 4.88354L10.213 4.01134Z" fill="#CCCCCC"/>
</svg>
