<svg width="14" height="12" viewBox="0 0 14 12" fill="none" xmlns="http://www.w3.org/2000/svg">
<path fill-rule="evenodd" clip-rule="evenodd" d="M6.66667 4.83333C6.94281 4.83333 7.16667 5.05719 7.16667 5.33333V6.16667H8C8.27614 6.16667 8.5 6.39052 8.5 6.66667C8.5 6.94281 8.27614 7.16667 8 7.16667H7.16667V8C7.16667 8.27614 6.94281 8.5 6.66667 8.5C6.39052 8.5 6.16667 8.27614 6.16667 8V7.16667H5.33333C5.05719 7.16667 4.83333 6.94281 4.83333 6.66667C4.83333 6.39052 5.05719 6.16667 5.33333 6.16667H6.16667V5.33333C6.16667 5.05719 6.39052 4.83333 6.66667 4.83333Z" fill="#7A4900"/>
<path fill-rule="evenodd" clip-rule="evenodd" d="M5.18519 12H8.14815C10.2288 12 11.2692 12 12.0165 11.5097C12.34 11.2975 12.6178 11.0248 12.834 10.7071C13.3333 9.97337 13.3333 8.95195 13.3333 6.90909C13.3333 4.86624 13.3333 3.84481 12.834 3.11107C12.6178 2.79342 12.34 2.5207 12.0165 2.30845C11.5363 1.99342 10.9351 1.88082 10.0147 1.84057C9.57543 1.84057 9.19725 1.51379 9.11111 1.09091C8.9819 0.456592 8.41463 0 7.75577 0H5.57756C4.9187 0 4.35143 0.456592 4.22222 1.09091C4.13608 1.51379 3.7579 1.84057 3.31866 1.84057C2.39822 1.88082 1.79704 1.99342 1.31683 2.30845C0.993303 2.5207 0.715523 2.79342 0.499349 3.11107C0 3.84481 0 4.86624 0 6.90909C0 8.95195 0 9.97337 0.499349 10.7071C0.715523 11.0248 0.993303 11.2975 1.31683 11.5097C2.06416 12 3.1045 12 5.18519 12ZM9.33333 6.66667C9.33333 8.13943 8.13943 9.33333 6.66667 9.33333C5.19391 9.33333 4 8.13943 4 6.66667C4 5.19391 5.19391 4 6.66667 4C8.13943 4 9.33333 5.19391 9.33333 6.66667ZM10.6667 4.16667C10.3905 4.16667 10.1667 4.39052 10.1667 4.66667C10.1667 4.94281 10.3905 5.16667 10.6667 5.16667H11.3333C11.6095 5.16667 11.8333 4.94281 11.8333 4.66667C11.8333 4.39052 11.6095 4.16667 11.3333 4.16667H10.6667Z" fill="#7A4900"/>
</svg>
