<svg width="12" height="12" viewBox="0 0 12 12" fill="none" xmlns="http://www.w3.org/2000/svg">
<path d="M11 6.75V10.5C11 10.7761 10.7761 11 10.5 11H10C9.72385 11 9.5 10.7761 9.5 10.5V10H2.5V10.5C2.5 10.7761 2.27614 11 2 11H1.5C1.22386 11 1 10.7761 1 10.5V6.75L0.378732 6.5947C0.156148 6.53905 0 6.33905 0 6.1096V5.75C0 5.61195 0.111929 5.5 0.25 5.5H1.1875L2.25667 2.64887C2.40303 2.25857 2.77615 2 3.193 2H8.807C9.22385 2 9.59695 2.25857 9.74335 2.64887L10.8125 5.5H11.75C11.8881 5.5 12 5.61195 12 5.75V6.1096C12 6.33905 11.8439 6.53905 11.6213 6.5947L11 6.75ZM2 7.5V8.5C2 8.77615 2.22386 9 2.5 9H4.12248C4.1636 9 4.20409 8.98985 4.24035 8.97045C4.36209 8.90535 4.40801 8.7539 4.34291 8.63215C3.93931 7.8774 3.15836 7.5 2 7.5ZM10 7.5C8.84165 7.5 8.06065 7.8774 7.65705 8.63215C7.59195 8.7539 7.6379 8.90535 7.75965 8.97045C7.7959 8.98985 7.8364 9 7.8775 9H9.5C9.77615 9 10 8.77615 10 8.5V7.5ZM3 3L2.21937 5.3419C2.20237 5.39285 2.19372 5.44625 2.19372 5.5C2.19372 5.77615 2.41757 6 2.69372 6H9.3063C9.36005 6 9.4134 5.99135 9.4644 5.97435C9.72635 5.887 9.86795 5.60385 9.78065 5.3419L9 3H3Z" fill="#666666"/>
</svg>
