<svg width="16" height="16" viewBox="0 0 16 16" fill="none" xmlns="http://www.w3.org/2000/svg">
<path fill-rule="evenodd" clip-rule="evenodd" d="M11.6667 1.8335C11.9428 1.8335 12.1667 2.05735 12.1667 2.3335V3.8335H13.6667C13.9428 3.8335 14.1667 4.05735 14.1667 4.3335C14.1667 4.60964 13.9428 4.8335 13.6667 4.8335H12.1667V6.3335C12.1667 6.60964 11.9428 6.8335 11.6667 6.8335C11.3905 6.8335 11.1667 6.60964 11.1667 6.3335V4.8335H9.66669C9.39054 4.8335 9.16669 4.60964 9.16669 4.3335C9.16669 4.05735 9.39054 3.8335 9.66669 3.8335H11.1667V2.3335C11.1667 2.05735 11.3905 1.8335 11.6667 1.8335Z" fill="#28A4A2"/>
<path d="M1.33331 4.3335C1.33331 2.91928 1.33331 2.21218 1.77265 1.77284C2.21199 1.3335 2.9191 1.3335 4.33331 1.3335C5.74753 1.3335 6.45463 1.3335 6.89397 1.77284C7.33331 2.21218 7.33331 2.91928 7.33331 4.3335C7.33331 5.74771 7.33331 6.45482 6.89397 6.89416C6.45463 7.3335 5.74753 7.3335 4.33331 7.3335C2.9191 7.3335 2.21199 7.3335 1.77265 6.89416C1.33331 6.45482 1.33331 5.74771 1.33331 4.3335Z" fill="#28A4A2"/>
<path d="M8.66669 11.6665C8.66669 10.2523 8.66669 9.54518 9.10603 9.10584C9.54537 8.6665 10.2525 8.6665 11.6667 8.6665C13.0809 8.6665 13.788 8.6665 14.2273 9.10584C14.6667 9.54518 14.6667 10.2523 14.6667 11.6665C14.6667 13.0807 14.6667 13.7878 14.2273 14.2272C13.788 14.6665 13.0809 14.6665 11.6667 14.6665C10.2525 14.6665 9.54537 14.6665 9.10603 14.2272C8.66669 13.7878 8.66669 13.0807 8.66669 11.6665Z" fill="#28A4A2"/>
<path opacity="0.5" d="M1.33331 11.6665C1.33331 10.2523 1.33331 9.54518 1.77265 9.10584C2.21199 8.6665 2.9191 8.6665 4.33331 8.6665C5.74753 8.6665 6.45463 8.6665 6.89397 9.10584C7.33331 9.54518 7.33331 10.2523 7.33331 11.6665C7.33331 13.0807 7.33331 13.7878 6.89397 14.2272C6.45463 14.6665 5.74753 14.6665 4.33331 14.6665C2.9191 14.6665 2.21199 14.6665 1.77265 14.2272C1.33331 13.7878 1.33331 13.0807 1.33331 11.6665Z" fill="#28A4A2"/>
</svg>
