<svg width="20" height="20" viewBox="0 0 20 20" fill="none" xmlns="http://www.w3.org/2000/svg">
<path fill-rule="evenodd" clip-rule="evenodd" d="M10.0412 1.04199H9.95887C9.40484 1.04196 8.92743 1.04194 8.54515 1.09333C8.13545 1.14842 7.74273 1.27263 7.42419 1.59117C7.10566 1.90971 6.98144 2.30243 6.92636 2.71213C6.87496 3.09441 6.87499 3.5718 6.87502 4.12585L6.87502 6.14869C6.67953 6.07959 6.46917 6.042 6.25002 6.042H3.75002C2.71449 6.042 1.87502 6.88146 1.87502 7.917V17.7087H1.66669C1.32151 17.7087 1.04169 17.9885 1.04169 18.3337C1.04169 18.6788 1.32151 18.9587 1.66669 18.9587H18.3334C18.6785 18.9587 18.9584 18.6788 18.9584 18.3337C18.9584 17.9885 18.6785 17.7087 18.3334 17.7087H18.125V12.0837C18.125 11.0481 17.2856 10.2087 16.25 10.2087H13.75C13.5309 10.2087 13.3205 10.2463 13.125 10.3154L13.125 4.12586C13.1251 3.5718 13.1251 3.09442 13.0737 2.71213C13.0186 2.30243 12.8944 1.90971 12.5758 1.59117C12.2573 1.27263 11.8646 1.14842 11.4549 1.09333C11.0726 1.04194 10.5952 1.04196 10.0412 1.04199ZM16.875 17.7087V12.0837C16.875 11.7385 16.5952 11.4587 16.25 11.4587H13.75C13.4048 11.4587 13.125 11.7385 13.125 12.0837V17.7087H16.875ZM11.875 17.7087V4.167C11.875 3.56007 11.8737 3.16775 11.8348 2.87869C11.7984 2.6076 11.7395 2.52263 11.692 2.47505C11.6444 2.42748 11.5594 2.36863 11.2883 2.33219C10.9993 2.29332 10.6069 2.292 10 2.292C9.39309 2.292 9.00078 2.29332 8.71171 2.33219C8.44062 2.36863 8.35565 2.42748 8.30808 2.47505C8.2605 2.52263 8.20166 2.6076 8.16521 2.87869C8.12635 3.16775 8.12502 3.56007 8.12502 4.167V17.7087H11.875ZM6.87502 17.7087V7.917C6.87502 7.57182 6.5952 7.292 6.25002 7.292H3.75002C3.40484 7.292 3.12502 7.57182 3.12502 7.917V17.7087H6.87502Z" fill="#1A1A1A"/>
</svg>
