<svg width="18" height="18" viewBox="0 0 18 18" fill="none" xmlns="http://www.w3.org/2000/svg">
<path d="M9.37498 17.0625H3.05998C1.88248 17.0625 0.914978 16.1175 0.914978 14.9475V3.81752C0.914978 2.67002 1.34248 1.77752 2.12248 1.29002C2.90998 0.795018 3.92998 0.810018 4.98748 1.33502L8.31748 2.97002C9.22498 3.42002 9.93748 4.55252 9.93748 5.55752V16.5C9.93748 16.8075 9.68248 17.0625 9.37498 17.0625ZM3.41998 2.06252C3.15748 2.06252 2.91748 2.12252 2.71498 2.25002C2.27998 2.52002 2.03998 3.08252 2.03998 3.81752V14.9475C2.03998 15.495 2.49748 15.9375 3.05998 15.9375H8.81248V5.55752C8.81248 4.98002 8.34748 4.23752 7.81498 3.98252L4.48498 2.34752C4.10248 2.16002 3.74248 2.06252 3.41998 2.06252Z" fill="#CCCCCC"/>
<path d="M14.1075 17.0625H9.375C9.0675 17.0625 8.8125 16.8075 8.8125 16.5V7.81496C8.8125 7.64246 8.8875 7.48496 9.0225 7.37996C9.1575 7.27496 9.3225 7.22996 9.495 7.26746L9.8475 7.34246L14.7525 8.43746C16.245 8.76746 16.995 9.64496 17.04 11.1375C17.0475 11.1375 17.0475 11.2125 17.0475 11.295V14.13C17.04 16.05 16.0275 17.0625 14.1075 17.0625ZM9.9375 15.9375H14.1075C15.4275 15.9375 15.915 15.45 15.915 14.13V11.235C15.8775 10.2075 15.4875 9.74996 14.505 9.53246L9.9375 8.51246V15.9375Z" fill="#CCCCCC"/>
<path d="M6.7275 7.3125H4.125C3.8175 7.3125 3.5625 7.0575 3.5625 6.75C3.5625 6.4425 3.8175 6.1875 4.125 6.1875H6.7275C7.035 6.1875 7.29 6.4425 7.29 6.75C7.29 7.0575 7.0425 7.3125 6.7275 7.3125Z" fill="#CCCCCC"/>
<path d="M6.7275 10.3125H4.125C3.8175 10.3125 3.5625 10.0575 3.5625 9.75C3.5625 9.4425 3.8175 9.1875 4.125 9.1875H6.7275C7.035 9.1875 7.29 9.4425 7.29 9.75C7.29 10.0575 7.0425 10.3125 6.7275 10.3125Z" fill="#CCCCCC"/>
<path d="M11.415 13.3124C10.1775 13.3124 9.16498 12.2999 9.16498 11.0624V7.88986C9.16498 7.71736 9.23998 7.55986 9.37498 7.44736C9.50998 7.33486 9.68248 7.29736 9.84748 7.33486L13.2225 8.09236C13.4775 8.15236 13.665 8.37736 13.665 8.63986V11.0549C13.665 12.2999 12.66 13.3124 11.415 13.3124ZM10.29 8.59486V11.0624C10.29 11.6849 10.7925 12.1874 11.415 12.1874C12.0375 12.1874 12.54 11.6849 12.54 11.0624V9.09736L10.29 8.59486Z" fill="#CCCCCC"/>
<path d="M14.79 13.3125C13.5525 13.3125 12.54 12.3 12.54 11.0625V8.64748C12.54 8.47498 12.615 8.31748 12.75 8.21248C12.885 8.10748 13.0575 8.06248 13.2225 8.09998L14.745 8.43748C16.2375 8.76748 16.9875 9.64498 17.0325 11.1375C17.0325 11.1525 17.0325 11.1675 17.0325 11.1825C16.9725 12.375 15.99 13.3125 14.79 13.3125ZM13.665 9.34498V11.0625C13.665 11.685 14.1675 12.1875 14.79 12.1875C15.3825 12.1875 15.87 11.73 15.9075 11.145C15.87 10.2 15.48 9.74998 14.505 9.53248L13.665 9.34498Z" fill="#CCCCCC"/>
</svg>
