<svg width="24" height="24" viewBox="0 0 24 24" fill="none" xmlns="http://www.w3.org/2000/svg">
<path d="M13.6977 12L18.8492 6.84849C19.318 6.37974 19.318 5.62036 18.8492 5.15161C18.3805 4.68286 17.6211 4.68286 17.1523 5.15161L12.0008 10.3032L6.84922 5.15161C6.38047 4.68286 5.62109 4.68286 5.15234 5.15161C4.68359 5.62036 4.68359 6.37974 5.15234 6.84849L10.3039 12L5.15234 17.1516C4.68359 17.6204 4.68359 18.3797 5.15234 18.8485C5.38672 19.0829 5.69375 19.2 6.00078 19.2C6.30781 19.2 6.61484 19.0829 6.84922 18.8485L12.0008 13.6969L17.1523 18.8485C17.3867 19.0829 17.6938 19.2 18.0008 19.2C18.3078 19.2 18.6148 19.0829 18.8492 18.8485C19.318 18.3797 19.318 17.6204 18.8492 17.1516L13.6977 12Z" fill="#666666"/>
</svg>
