<svg width="13" height="16" viewBox="0 0 13 16" fill="none" xmlns="http://www.w3.org/2000/svg">
<path fill-rule="evenodd" clip-rule="evenodd" d="M5.99992 0.833008C4.25102 0.833008 2.83325 2.25077 2.83325 3.99967C2.83325 5.74858 4.25102 7.16634 5.99992 7.16634C7.74882 7.16634 9.16659 5.74858 9.16659 3.99967C9.16659 2.25077 7.74882 0.833008 5.99992 0.833008ZM3.83325 3.99967C3.83325 2.80306 4.8033 1.83301 5.99992 1.83301C7.19654 1.83301 8.16659 2.80306 8.16659 3.99967C8.16659 5.19629 7.19654 6.16634 5.99992 6.16634C4.8033 6.16634 3.83325 5.19629 3.83325 3.99967Z" fill="#DB5757"/>
<path d="M8.79781 10.7572C8.60255 10.562 8.28596 10.562 8.0907 10.7572C7.89544 10.9525 7.89544 11.2691 8.0907 11.4643L8.62615 11.9998L8.09092 12.535C7.89566 12.7303 7.89566 13.0468 8.09092 13.2421C8.28618 13.4374 8.60276 13.4374 8.79803 13.2421L9.33325 12.7069L9.86848 13.2421C10.0637 13.4374 10.3803 13.4374 10.5756 13.2421C10.7708 13.0468 10.7708 12.7303 10.5756 12.535L10.0404 11.9998L10.5758 11.4643C10.7711 11.2691 10.7711 10.9525 10.5758 10.7572C10.3805 10.562 10.064 10.562 9.8687 10.7572L9.33325 11.2927L8.79781 10.7572Z" fill="#DB5757"/>
<path fill-rule="evenodd" clip-rule="evenodd" d="M5.99992 8.16634C7.20291 8.16634 8.32161 8.41192 9.20775 8.83545C9.24939 8.83383 9.29122 8.83301 9.33325 8.83301C11.0822 8.83301 12.4999 10.2508 12.4999 11.9997C12.4999 13.7486 11.0822 15.1663 9.33325 15.1663C8.54687 15.1663 7.82745 14.8797 7.27375 14.4052C6.86599 14.467 6.43908 14.4997 5.99992 14.4997C4.64036 14.4997 3.38493 14.1858 2.45202 13.6527C1.53325 13.1277 0.833252 12.3263 0.833252 11.333C0.833252 10.3398 1.53325 9.53828 2.45202 9.01327C3.38493 8.48017 4.64036 8.16634 5.99992 8.16634ZM1.83325 11.333C1.83325 10.8535 2.17792 10.3216 2.94816 9.88151C3.70425 9.44946 4.78215 9.16634 5.99992 9.16634C6.57399 9.16634 7.11773 9.2293 7.61163 9.34145C6.74189 9.9059 6.16659 10.8856 6.16659 11.9997C6.16659 12.5349 6.2994 13.0392 6.53386 13.4813C6.35911 13.4934 6.18091 13.4997 5.99992 13.4997C4.78215 13.4997 3.70425 13.2166 2.94816 12.7845C2.17792 12.3444 1.83325 11.8125 1.83325 11.333ZM9.33325 9.83301C8.13663 9.83301 7.16659 10.8031 7.16659 11.9997C7.16659 13.1963 8.13663 14.1663 9.33325 14.1663C10.5299 14.1663 11.4999 13.1963 11.4999 11.9997C11.4999 10.8031 10.5299 9.83301 9.33325 9.83301Z" fill="#DB5757"/>
</svg>
