<svg width="18" height="18" viewBox="0 0 18 18" fill="none" xmlns="http://www.w3.org/2000/svg">
<path d="M17.25 17.0625H0.75C0.4425 17.0625 0.1875 16.8075 0.1875 16.5C0.1875 16.1925 0.4425 15.9375 0.75 15.9375H17.25C17.5575 15.9375 17.8125 16.1925 17.8125 16.5C17.8125 16.8075 17.5575 17.0625 17.25 17.0625Z" fill="#CCCCCC"/>
<path d="M14.8352 17.0701C14.5277 17.0701 14.2727 16.8151 14.2727 16.5076V13.1626C14.2727 12.8551 14.5277 12.6001 14.8352 12.6001C15.1427 12.6001 15.3977 12.8551 15.3977 13.1626V16.5076C15.3977 16.8151 15.1502 17.0701 14.8352 17.0701Z" fill="#CCCCCC"/>
<path d="M14.8501 13.7251C13.6276 13.7251 12.6376 12.7351 12.6376 11.5126V9.81017C12.6376 8.58767 13.6276 7.59766 14.8501 7.59766C16.0726 7.59766 17.0626 8.58767 17.0626 9.81017V11.5126C17.0626 12.7351 16.0726 13.7251 14.8501 13.7251ZM14.8501 8.73016C14.2501 8.73016 13.7626 9.21767 13.7626 9.81767V11.5201C13.7626 12.1201 14.2501 12.6077 14.8501 12.6077C15.4501 12.6077 15.9376 12.1201 15.9376 11.5201V9.81767C15.9376 9.21767 15.4501 8.73016 14.8501 8.73016Z" fill="#CCCCCC"/>
<path d="M10.7249 17.0623C10.4174 17.0623 10.1624 16.8073 10.1624 16.4998V4.52234C10.1624 3.32984 9.65987 2.81982 8.48987 2.81982H3.81738C2.63988 2.81982 2.12988 3.32984 2.12988 4.52234V16.4998C2.12988 16.8073 1.87488 17.0623 1.56738 17.0623C1.25988 17.0623 1.00488 16.8073 1.00488 16.4998V4.52234C1.00488 2.69984 2.00238 1.69482 3.81738 1.69482H8.48987C10.2974 1.69482 11.2874 2.69984 11.2874 4.52234V16.4998C11.2874 16.8073 11.0324 17.0623 10.7249 17.0623Z" fill="#CCCCCC"/>
<path d="M8.06236 6.75H4.34985C4.04235 6.75 3.78735 6.495 3.78735 6.1875C3.78735 5.88 4.04235 5.625 4.34985 5.625H8.06236C8.36986 5.625 8.62486 5.88 8.62486 6.1875C8.62486 6.495 8.36986 6.75 8.06236 6.75Z" fill="#CCCCCC"/>
<path d="M8.06236 9.5625H4.34985C4.04235 9.5625 3.78735 9.3075 3.78735 9C3.78735 8.6925 4.04235 8.4375 4.34985 8.4375H8.06236C8.36986 8.4375 8.62486 8.6925 8.62486 9C8.62486 9.3075 8.36986 9.5625 8.06236 9.5625Z" fill="#CCCCCC"/>
<path d="M6.1875 17.0625C5.88 17.0625 5.625 16.8075 5.625 16.5V13.6875C5.625 13.38 5.88 13.125 6.1875 13.125C6.495 13.125 6.75 13.38 6.75 13.6875V16.5C6.75 16.8075 6.495 17.0625 6.1875 17.0625Z" fill="#CCCCCC"/>
</svg>
