<svg width="18" height="19" viewBox="0 0 18 19" fill="none" xmlns="http://www.w3.org/2000/svg">
<path fill-rule="evenodd" clip-rule="evenodd" d="M10.5744 2.29332C11.7155 1.15223 13.5656 1.15223 14.7067 2.29332C15.8478 3.43441 15.8478 5.28449 14.7067 6.42558L9.01118 12.1211C8.69019 12.4421 8.49415 12.6382 8.27566 12.8086C8.01824 13.0094 7.73971 13.1815 7.445 13.322C7.19486 13.4412 6.93183 13.5288 6.50113 13.6724L4.49665 14.3405L4.0154 14.501C3.58464 14.6445 3.10972 14.5324 2.78865 14.2114C2.46757 13.8903 2.35546 13.4154 2.49905 12.9846L3.32763 10.4989C3.47117 10.0682 3.55883 9.80515 3.67804 9.55501C3.81849 9.2603 3.99063 8.98177 4.19142 8.72435C4.36184 8.50586 4.55789 8.30982 4.87893 7.98882L10.5744 2.29332ZM4.47069 13.1633L3.83667 12.5293L4.38299 10.8904C4.54205 10.4132 4.60775 10.2192 4.6936 10.039C4.7989 9.81806 4.92796 9.60924 5.07849 9.41625C5.20123 9.25889 5.34539 9.11336 5.70106 8.75768L10.1193 4.33945C10.3017 4.79695 10.6102 5.34911 11.1306 5.86945C11.6509 6.38979 12.2031 6.69835 12.6606 6.88073L8.24233 11.299C7.88666 11.6546 7.74113 11.7988 7.58377 11.9215C7.39077 12.0721 7.18195 12.2011 6.961 12.3064C6.78085 12.3923 6.58683 12.458 6.10965 12.617L4.47069 13.1633ZM13.557 5.9843C13.4641 5.96391 13.348 5.93324 13.216 5.88743C12.8529 5.76149 12.3754 5.52334 11.9261 5.07396C11.4767 4.62458 11.2385 4.14707 11.1126 3.78405C11.0668 3.65203 11.0361 3.5359 11.0157 3.44303L11.3699 3.08881C12.0717 2.38706 13.2094 2.38706 13.9112 3.08881C14.613 3.79057 14.613 4.92833 13.9112 5.63008L13.557 5.9843ZM2.43752 17C2.43752 16.6893 2.68936 16.4375 3.00002 16.4375H15V17.5625H3.00002C2.68936 17.5625 2.43752 17.3107 2.43752 17Z" fill="#1B706F"/>
</svg>
