<svg width="20" height="20" viewBox="0 0 20 20" fill="none" xmlns="http://www.w3.org/2000/svg">
<path fill-rule="evenodd" clip-rule="evenodd" d="M4.68705 3.68724C3.30455 4.31918 2.29175 5.82227 2.29175 7.61466C2.29175 9.44583 3.0411 10.8573 4.11532 12.0669C5.00069 13.0638 6.07244 13.8901 7.11769 14.6959C7.36594 14.8873 7.61271 15.0776 7.85512 15.2687C8.29348 15.6142 8.68452 15.9175 9.06142 16.1378C9.43853 16.3581 9.74208 16.4587 10.0001 16.4587C10.2581 16.4587 10.5616 16.3581 10.9387 16.1378C11.3156 15.9175 11.7067 15.6142 12.145 15.2687C12.3875 15.0776 12.6342 14.8873 12.8825 14.6959C13.9277 13.8901 14.9995 13.0638 15.8848 12.0669C16.9591 10.8573 17.7084 9.44583 17.7084 7.61466C17.7084 5.82227 16.6956 4.31918 15.3131 3.68724C13.97 3.07331 12.1654 3.23589 10.4504 5.01769C10.3326 5.14011 10.17 5.20928 10.0001 5.20928C9.83018 5.20928 9.6676 5.14011 9.54978 5.01769C7.8348 3.23589 6.03014 3.07331 4.68705 3.68724ZM10.0001 3.71609C8.07337 1.99228 5.91588 1.75114 4.16738 2.55038C2.32068 3.39452 1.04175 5.35461 1.04175 7.61466C1.04175 9.83594 1.96716 11.5305 3.18068 12.8969C4.15248 13.9912 5.34193 14.907 6.39244 15.7159C6.63057 15.8993 6.86156 16.0771 7.08126 16.2503C7.50813 16.5868 7.96637 16.9456 8.43077 17.217C8.89496 17.4883 9.42475 17.7087 10.0001 17.7087C10.5754 17.7087 11.1052 17.4883 11.5694 17.217C12.0338 16.9456 12.492 16.5868 12.9189 16.2503C13.1386 16.0771 13.3696 15.8993 13.6077 15.7159C14.6582 14.907 15.8477 13.9912 16.8195 12.8969C18.033 11.5305 18.9584 9.83594 18.9584 7.61466C18.9584 5.35461 17.6795 3.39452 15.8328 2.55038C14.0843 1.75114 11.9268 1.99228 10.0001 3.71609Z" fill="#1A1A1A"/>
</svg>
