<svg width="20" height="20" viewBox="0 0 20 20" fill="none" xmlns="http://www.w3.org/2000/svg">
<g clip-path="url(#clip0_4030_20427)">
<path d="M6.5625 9.375H4.6875C3.825 9.375 3.125 10.075 3.125 10.9375V12.1875C3.125 13.05 3.825 13.75 4.6875 13.75H6.5625C7.425 13.75 8.125 13.05 8.125 12.1875V10.9375C8.125 10.075 7.425 9.375 6.5625 9.375ZM6.875 12.1875C6.875 12.3625 6.7375 12.5 6.5625 12.5H4.6875C4.5125 12.5 4.375 12.3625 4.375 12.1875V10.9375C4.375 10.7625 4.5125 10.625 4.6875 10.625H6.5625C6.7375 10.625 6.875 10.7625 6.875 10.9375V12.1875Z" fill="#1A1A1A"/>
<path d="M7.5 14.375H3.75C3.40625 14.375 3.125 14.6562 3.125 15C3.125 15.3438 3.40625 15.625 3.75 15.625H7.5C7.84375 15.625 8.125 15.3438 8.125 15C8.125 14.6562 7.84375 14.375 7.5 14.375Z" fill="#1A1A1A"/>
<path d="M14.375 8.76875V1.25C14.375 0.90625 14.0938 0.625 13.75 0.625H1.25C0.90625 0.625 0.625 0.90625 0.625 1.25V17.5C0.625 17.8438 0.90625 18.125 1.25 18.125H10.6438C11.5688 18.9062 12.7625 19.375 14.0625 19.375C16.9937 19.375 19.375 16.9937 19.375 14.0625C19.375 11.1313 17.1562 8.93125 14.375 8.76875ZM1.875 1.875H13.125V8.8375C10.6438 9.28125 8.75 11.4563 8.75 14.0625C8.75 15.0938 9.05 16.0562 9.5625 16.875H1.875V1.875ZM14.0625 18.125C11.825 18.125 10 16.3 10 14.0625C10 11.825 11.825 10 14.0625 10C16.3 10 18.125 11.825 18.125 14.0625C18.125 16.3 16.3 18.125 14.0625 18.125Z" fill="#1A1A1A"/>
<path d="M13.5938 12.8125H15.4688C15.8125 12.8125 16.0938 12.5312 16.0938 12.1875C16.0938 11.8438 15.8125 11.5625 15.4688 11.5625H14.6875V11.25C14.6875 10.9062 14.4062 10.625 14.0625 10.625C13.7188 10.625 13.4375 10.9062 13.4375 11.25V11.5813C12.65 11.6625 12.0312 12.3188 12.0312 13.125C12.0312 13.9875 12.7312 14.6875 13.5938 14.6875H14.5312C14.7062 14.6875 14.8438 14.825 14.8438 15C14.8438 15.175 14.7062 15.3125 14.5312 15.3125H12.6562C12.3125 15.3125 12.0312 15.5938 12.0312 15.9375C12.0312 16.2812 12.3125 16.5625 12.6562 16.5625H13.4375V16.875C13.4375 17.2188 13.7188 17.5 14.0625 17.5C14.4062 17.5 14.6875 17.2188 14.6875 16.875V16.5437C15.475 16.4625 16.0938 15.8063 16.0938 15C16.0938 14.1375 15.3937 13.4375 14.5312 13.4375H13.5938C13.4188 13.4375 13.2812 13.3 13.2812 13.125C13.2812 12.95 13.4188 12.8125 13.5938 12.8125Z" fill="#1A1A1A"/>
<path d="M11.875 8.125C12.2188 8.125 12.5 7.84375 12.5 7.5C12.5 7.15625 12.2188 6.875 11.875 6.875H11.25V3.125C11.25 2.78125 10.9688 2.5 10.625 2.5C10.2812 2.5 10 2.78125 10 3.125V6.875H8.125V4.375C8.125 4.03125 7.84375 3.75 7.5 3.75C7.15625 3.75 6.875 4.03125 6.875 4.375V6.875H5V5.625C5 5.28125 4.71875 5 4.375 5C4.03125 5 3.75 5.28125 3.75 5.625V6.875H3.125C2.78125 6.875 2.5 7.15625 2.5 7.5C2.5 7.84375 2.78125 8.125 3.125 8.125H11.875Z" fill="#1A1A1A"/>
</g>
<defs>
<clipPath id="clip0_4030_20427">
<rect width="20" height="20" fill="white"/>
</clipPath>
</defs>
</svg>
