<svg width="11" height="13" viewBox="0 0 11 13" fill="none" xmlns="http://www.w3.org/2000/svg">
<path d="M10.6667 8.23322C10.6667 11.0695 8.92127 12.3142 7.57252 12.7339C7.28491 12.8234 7.09589 12.4881 7.26794 12.2408C7.85487 11.3974 8.53333 10.1105 8.53333 8.89988C8.53333 7.59948 7.43729 6.06421 6.58141 5.11728C6.38574 4.90079 6.04444 5.04404 6.03377 5.33566C5.99842 6.30179 5.84596 7.59439 5.18855 8.60745C5.08273 8.77051 4.8581 8.78403 4.73754 8.63155C4.53213 8.37177 4.32672 8.05085 4.12131 7.79734C4.01067 7.66079 3.81069 7.65891 3.68307 7.77975C3.1855 8.25089 2.48889 8.98559 2.48889 9.89988C2.48889 10.5198 2.72906 11.1697 3.00005 11.6926C3.14912 11.9803 2.88405 12.3266 2.59715 12.176C1.40871 11.5523 0 10.289 0 8.23322C0 6.13558 2.87353 3.22976 3.9707 0.484485C4.14383 0.0512912 4.67739 -0.152266 5.04849 0.130427C7.29596 1.84247 10.6667 5.15195 10.6667 8.23322Z" fill="#FB8A00"/>
</svg>
