<svg width="32" height="32" viewBox="0 0 32 32" fill="none" xmlns="http://www.w3.org/2000/svg">
<g clip-path="url(#clip0_17_755)">
<path d="M31.4488 26.4827H0.552359C0.247672 26.4827 0.000610352 26.2357 0.000610352 25.931V6.06896C0.000610352 5.76427 0.247672 5.51721 0.552359 5.51721H31.4489C31.7536 5.51721 32.0006 5.76427 32.0006 6.06896V25.931C32.0005 26.2357 31.7535 26.4827 31.4488 26.4827Z" fill="#73AF00"/>
<path d="M6.62122 12.6424C6.6756 12.991 6.88629 13.1004 7.06947 13.0861C7.28547 13.0693 7.47491 12.8718 7.47491 12.6632V11.4671C7.47491 11.4072 7.52366 11.3583 7.58366 11.3583C7.64366 11.3583 7.69241 11.4071 7.69241 11.4671V12.6683C7.69241 12.8128 7.76379 12.9474 7.88347 13.0283C7.95653 13.0778 8.0416 13.1033 8.12728 13.1033C8.18185 13.1033 8.23666 13.0928 8.28891 13.072L8.3976 13.0286C8.4076 14.0326 8.34653 14.9151 8.34541 14.9312C8.33691 15.0511 8.42703 15.1551 8.54685 15.1636C8.55216 15.1641 8.55735 15.1642 8.5626 15.1642C8.67572 15.1642 8.77116 15.0767 8.77935 14.9622C8.78441 14.8916 8.85141 13.9251 8.83135 12.8551L8.8971 12.8288C8.95472 12.8059 9.01947 12.8086 9.07491 12.8363C9.31447 12.9556 9.60272 12.9091 9.79203 12.7198L9.83122 12.6807C10.007 12.5046 10.0674 12.2489 9.98872 12.0129L9.80353 11.4574C9.90366 11.4875 10.0137 11.4432 10.062 11.3468C10.1158 11.2393 10.0722 11.1087 9.96478 11.0549L9.52984 10.8374C9.45116 10.7979 9.35672 10.8101 9.29003 10.8676C9.22353 10.9254 9.19841 11.0173 9.22622 11.1008L9.57616 12.1506C9.60234 12.2292 9.58222 12.3146 9.52366 12.3732L9.48453 12.4123C9.42785 12.469 9.34147 12.4828 9.26928 12.4471C9.12835 12.3767 8.96785 12.3635 8.81728 12.4019C8.78672 11.7038 8.71153 11.0087 8.55141 10.5281C8.51347 10.4143 8.39053 10.3525 8.27622 10.3907C8.16228 10.4285 8.10072 10.5516 8.13872 10.6658C8.29541 11.1357 8.36366 11.8519 8.38791 12.564L8.12753 12.6681V11.4669C8.12753 11.167 7.8836 10.9231 7.58379 10.9231C7.28397 10.9231 7.04004 11.1669 7.04004 11.4669V12.5197L6.81816 11.4238C6.79454 11.3059 6.67991 11.229 6.56191 11.2536C6.4441 11.2776 6.36798 11.3923 6.39191 11.51L6.62122 12.6424Z" fill="#F5F5F5"/>
<path d="M7.03977 10.8146C7.15989 10.8146 7.25727 10.7174 7.25727 10.5971V10.3796C7.25727 10.2594 7.15989 10.1621 7.03977 10.1621C6.91964 10.1621 6.82227 10.2594 6.82227 10.3796V10.5971C6.82227 10.7173 6.91964 10.8146 7.03977 10.8146Z" fill="#F5F5F5"/>
<path d="M9.21463 10.5971H9.43213C9.55226 10.5971 9.64963 10.4999 9.64963 10.3796C9.64963 10.2594 9.55226 10.1621 9.43213 10.1621H9.21463C9.09451 10.1621 8.99713 10.2594 8.99713 10.3796C8.99713 10.4999 9.09451 10.5971 9.21463 10.5971Z" fill="#F5F5F5"/>
<path d="M7.79779 13.4554L6.71036 14.1079C6.60729 14.1697 6.57398 14.3032 6.63579 14.4063C6.67654 14.4742 6.74854 14.5119 6.82248 14.5119C6.86061 14.5119 6.89917 14.5019 6.93423 14.4808L8.02167 13.8283C8.12473 13.7665 8.15804 13.6329 8.09623 13.5299C8.03442 13.4269 7.90092 13.3936 7.79779 13.4554Z" fill="#F5F5F5"/>
<path d="M10.7298 13.8401L10.735 13.8366C10.7532 13.9101 10.7845 13.9813 10.8353 14.041C10.9237 14.1451 11.0562 14.1974 11.206 14.185C11.4184 14.1695 11.5628 14.0724 11.6584 13.9471C11.673 13.9571 11.6883 13.9663 11.7043 13.9743C11.8218 14.0336 11.9578 14.0291 12.0872 13.9619C12.4159 13.7927 12.4867 13.4011 12.4767 13.1963C12.4708 13.0769 12.3693 12.9927 12.2503 12.9903C12.1308 12.9954 12.0378 13.0968 12.0422 13.2161C12.0423 13.2189 12.0471 13.4769 11.8893 13.5728C11.8636 13.5369 11.8331 13.4561 11.8216 13.3894C11.8032 13.2775 11.7004 13.1996 11.5898 13.2085C11.477 13.2174 11.3899 13.3121 11.3895 13.4253C11.3894 13.4569 11.3824 13.736 11.167 13.7594C11.1419 13.7252 11.1415 13.5812 11.1662 13.4748C11.187 13.3874 11.152 13.2963 11.0781 13.2454C11.0041 13.1942 10.9065 13.1942 10.8322 13.2446L10.7108 13.3271C10.6532 12.0659 10.5204 10.5962 10.5188 10.5774C10.508 10.458 10.4028 10.369 10.2825 10.3805C10.1629 10.3913 10.0747 10.4971 10.0856 10.617C10.0875 10.6371 10.241 12.3375 10.2884 13.6361C10.2773 13.6466 10.2658 13.6582 10.255 13.6683C10.169 13.4515 9.99847 13.3149 9.7789 13.2941C9.46903 13.2668 9.13328 13.4776 9.0129 13.7788C8.90916 14.0379 8.97447 14.2926 9.17915 14.4274C9.32634 14.5245 9.54847 14.5551 9.82778 14.4572C9.75959 14.6968 9.6354 14.9398 9.47403 15.1277C9.32947 15.2961 9.08809 15.4904 8.77922 15.4818C8.59941 15.4747 8.46128 15.4159 8.35684 15.3016C8.10503 15.0266 8.12672 14.5288 8.12691 14.5234C8.13316 14.4036 8.04141 14.3015 7.92172 14.2949C7.80116 14.2821 7.69916 14.3801 7.69253 14.5001C7.69103 14.5276 7.65947 15.1819 8.03403 15.5933C8.21841 15.7961 8.46334 15.9046 8.76209 15.9163C8.77666 15.9169 8.79122 15.9171 8.80584 15.9171C9.16965 15.9171 9.52265 15.7387 9.80384 15.411C10.0683 15.103 10.248 14.6846 10.3018 14.2963C10.3012 15.0403 9.85278 15.8794 9.25834 16.2491C9.0059 16.4058 8.61234 16.5473 8.16903 16.3287C7.62253 16.0589 7.68766 15.4343 7.69053 15.4088C7.70547 15.2896 7.62091 15.1809 7.50172 15.1661C7.38309 15.1516 7.27372 15.2355 7.25897 15.3549C7.2541 15.3938 7.1496 16.3106 7.97659 16.7186C8.18903 16.8235 8.41116 16.8756 8.63503 16.8756C8.92259 16.8756 9.21284 16.7896 9.48797 16.6184C10.2117 16.1685 10.737 15.1911 10.737 14.2944C10.737 14.1543 10.7343 14.0011 10.7298 13.8401ZM9.4184 14.0643C9.37953 14.0385 9.4099 13.9564 9.41647 13.94C9.46228 13.8253 9.60553 13.7261 9.71997 13.7261C9.72584 13.7261 9.73178 13.7263 9.73747 13.7269C9.76528 13.7295 9.83909 13.7365 9.87084 13.9007C9.87422 13.9181 9.87709 13.9359 9.87934 13.9542C9.63697 14.0966 9.47447 14.1011 9.4184 14.0643Z" fill="#F5F5F5"/>
<path d="M7.14969 16.0646C7.04662 16.004 6.9135 16.0386 6.85237 16.1417C6.84237 16.1584 6.82912 16.1767 6.81562 16.1932C6.81325 16.1877 6.81094 16.1818 6.80856 16.1754C6.71787 15.9334 6.78244 15.5607 6.81506 15.4375C6.84575 15.3216 6.77669 15.2026 6.66081 15.1716C6.54506 15.1418 6.426 15.2094 6.39487 15.3254C6.37906 15.3842 6.24537 15.9122 6.40125 16.3281C6.50106 16.594 6.65431 16.6611 6.76537 16.6702C6.77525 16.671 6.785 16.6714 6.79469 16.6714C7.02881 16.6714 7.18462 16.4355 7.22794 16.3607C7.288 16.2572 7.25281 16.1253 7.14969 16.0646Z" fill="#F5F5F5"/>
<path d="M11.163 12.1195C11.2101 12.1195 11.2575 12.1044 11.2972 12.073L12.3937 11.2122C12.4088 11.2004 12.4185 11.1848 12.4296 11.1702C12.5875 11.0749 12.6943 10.9034 12.6943 10.706C12.6943 10.4061 12.4504 10.1622 12.1506 10.1622C11.8508 10.1622 11.6068 10.406 11.6068 10.706C11.6068 10.8738 11.6848 11.0221 11.8046 11.1219L11.0285 11.7312C10.9341 11.8053 10.9177 11.942 10.9918 12.0364C11.0347 12.091 11.0986 12.1195 11.163 12.1195ZM12.1507 10.5972C12.2107 10.5972 12.2594 10.646 12.2594 10.7059C12.2594 10.7659 12.2107 10.8147 12.1507 10.8147C12.0907 10.8147 12.0419 10.7659 12.0419 10.7059C12.0419 10.646 12.0907 10.5972 12.1507 10.5972Z" fill="#F5F5F5"/>
<path d="M11.8933 11.9133C11.7787 11.8751 11.656 11.9368 11.6181 12.0507C11.5949 12.1203 11.4897 12.4792 11.7029 12.6921C11.7856 12.7749 11.8943 12.8163 12.0278 12.8161C12.117 12.8161 12.2172 12.7978 12.3282 12.7607C12.4422 12.7228 12.5037 12.5997 12.4657 12.4856C12.4277 12.3717 12.3048 12.3097 12.1905 12.3482C12.069 12.3885 12.0177 12.382 12.013 12.3862C12.0002 12.3539 12.0086 12.2568 12.0309 12.1873C12.0685 12.0738 12.007 11.9511 11.8933 11.9133Z" fill="#F5F5F5"/>
<path d="M14.3825 11.0142C14.403 11.0201 14.4234 11.0229 14.4436 11.0229C14.5378 11.0229 14.6245 10.9613 14.6523 10.8663L14.7792 10.4314C14.8128 10.3161 14.7465 10.1952 14.6314 10.1616C14.5157 10.1282 14.3953 10.1941 14.3616 10.3094L14.2347 10.7444C14.201 10.8599 14.2673 10.9807 14.3825 11.0142Z" fill="#F5F5F5"/>
<path d="M13.1148 10.9887C13.1493 11.0089 13.1872 11.0185 13.2244 11.0185C13.2992 11.0185 13.3719 10.9801 13.4123 10.9109C13.473 10.8072 13.4381 10.6738 13.3344 10.6133C13.2907 10.5878 13.2966 10.5158 13.2982 10.5016C13.3047 10.4444 13.3388 10.3747 13.398 10.3563C13.5127 10.3207 13.5768 10.1987 13.5411 10.0841C13.5052 9.96918 13.3835 9.90562 13.2687 9.94087C13.0518 10.0084 12.8938 10.2091 12.866 10.4521C12.8402 10.6782 12.9356 10.8839 13.1148 10.9887Z" fill="#F5F5F5"/>
<path d="M11.3894 14.5118C11.2693 14.5118 11.1719 14.6091 11.1719 14.7293C11.1719 14.8355 11.248 14.9239 11.3486 14.943C11.3601 14.9597 11.3894 15.0173 11.3894 15.1643C11.3894 15.2845 11.4867 15.3818 11.6069 15.3818C11.727 15.3818 11.8244 15.2845 11.8244 15.1643C11.8244 14.5193 11.4072 14.5118 11.3894 14.5118Z" fill="#F5F5F5"/>
<path d="M15.0791 13.6113C15.1064 13.6158 15.1336 13.6179 15.1609 13.6179C15.3318 13.6179 15.5044 13.5317 15.6754 13.3607C15.7603 13.2758 15.7603 13.1382 15.6754 13.0532C15.5905 12.9683 15.4528 12.9683 15.3679 13.0532C15.2379 13.1834 15.1678 13.1862 15.1499 13.1821C15.1084 13.1762 15.0708 13.122 15.0624 13.1072C15.0079 13.0013 14.8785 12.9592 14.772 13.0124C14.6645 13.0662 14.6209 13.1968 14.6747 13.3042C14.6882 13.3312 14.8137 13.5682 15.0791 13.6113Z" fill="#F5F5F5"/>
<path d="M18.776 12.083C18.7747 12.0796 18.7734 12.0764 18.7723 12.0734C18.7337 11.9605 18.6105 11.8991 18.4978 11.9375C18.3837 11.9753 18.3222 12.0984 18.3602 12.2126C18.3771 12.2635 18.474 12.5192 18.714 12.5515C18.7301 12.5536 18.746 12.5547 18.7619 12.5547C18.9125 12.5547 19.0539 12.4572 19.1825 12.2643C19.249 12.1645 19.222 12.0294 19.1221 11.9627C19.022 11.8962 18.887 11.923 18.8205 12.0231C18.8034 12.0488 18.7885 12.0684 18.776 12.083Z" fill="#F5F5F5"/>
<path d="M18.349 16.0342C18.349 15.1068 18.3083 14.2367 18.2517 13.4744C18.5605 14.0099 18.8383 14.5511 19.0153 15.0232C19.0481 15.1105 19.1309 15.1643 19.2189 15.1643C19.2443 15.1643 19.2701 15.1598 19.2952 15.1505C19.4077 15.1082 19.4647 14.9829 19.4225 14.8704C19.1472 14.1365 18.6525 13.2625 18.1648 12.4866C18.0459 11.3151 17.9128 10.5714 17.9105 10.5582C17.889 10.4399 17.776 10.3601 17.6577 10.3831C17.5395 10.4046 17.4611 10.5177 17.4825 10.6359C17.4843 10.6453 17.5528 11.0284 17.6347 11.6731C17.4676 11.4251 17.3124 11.2014 17.1821 11.0173L17.1927 11.0207C17.3073 11.0589 17.4299 10.9971 17.4679 10.8832C17.5059 10.7692 17.4444 10.646 17.3304 10.6082L16.6779 10.3907C16.5874 10.3601 16.4881 10.3924 16.4327 10.4697C16.4179 10.4904 16.4078 10.513 16.4009 10.5364C16.2707 10.4401 16.1037 10.3619 15.947 10.4275C15.8522 10.4668 15.7392 10.5657 15.7392 10.8144C15.7392 11.0054 15.812 11.2118 15.8892 11.4306C16.0173 11.7933 16.0975 12.0601 15.9619 12.1873C15.8869 12.2576 15.812 12.2841 15.739 12.2657C15.6049 12.2317 15.4721 12.0531 15.3837 11.7878C15.3798 11.7763 15.3718 11.7679 15.3663 11.7576C15.4121 11.4207 15.3921 11.0149 15.2999 10.5543C15.2765 10.4364 15.1622 10.3597 15.044 10.3837C14.9262 10.4073 14.8499 10.5218 14.8734 10.6397C15.0154 11.3499 14.9728 11.9292 14.7595 12.1895C14.677 12.2902 14.5736 12.3369 14.4342 12.3369C14.3902 12.3369 14.3601 12.3229 14.3302 12.2884C14.1586 12.0907 14.1593 11.4527 14.2147 11.0625C14.2235 11.0003 14.2048 10.937 14.1635 10.8894C14.1222 10.8418 14.0623 10.8144 13.9993 10.8144C13.6251 10.8144 13.4832 11.2401 13.358 11.6156C13.3031 11.7806 13.2007 12.0875 13.1294 12.1194C12.9977 12.1194 12.9126 11.7328 12.9119 11.4667C12.9115 11.3467 12.8143 11.2496 12.6944 11.2496C12.6944 11.2496 12.6942 11.2496 12.694 11.2496C12.574 11.2496 12.4768 11.3469 12.4768 11.4669C12.4768 11.9685 12.6477 12.5543 13.1293 12.5543C13.4879 12.5543 13.6332 12.1635 13.7548 11.8003C13.7759 12.0891 13.8412 12.3884 14.0015 12.5732C14.1142 12.7032 14.2637 12.7717 14.4342 12.7717C14.7027 12.7717 14.9314 12.6657 15.0958 12.4652C15.1256 12.429 15.1512 12.3873 15.1766 12.3452C15.3028 12.5247 15.4577 12.6432 15.6323 12.6872C15.6835 12.7002 15.735 12.7067 15.7859 12.7067C15.9538 12.7067 16.1179 12.6375 16.2596 12.5043C16.289 12.4766 16.3097 12.4464 16.3322 12.4166C16.3854 12.4317 16.4393 12.4407 16.4929 12.4407C16.669 12.4407 16.8387 12.3698 16.9439 12.3022C17.0446 12.2377 17.0737 12.1043 17.0098 12.0032C16.9457 11.9023 16.8117 11.8721 16.7104 11.9354C16.7085 11.9363 16.5632 12.0198 16.4642 12.0002C16.4644 11.7617 16.3782 11.5086 16.2994 11.2855C16.2546 11.1584 16.2086 11.0283 16.1869 10.9219C16.2049 10.9371 16.2224 10.9527 16.2381 10.968C16.3228 11.0529 16.4605 11.0529 16.5455 10.968C16.5595 10.9539 16.5677 10.9369 16.577 10.9204C16.8025 11.231 17.2662 11.8836 17.7431 12.6359C17.8342 13.5606 17.914 14.7402 17.914 16.0339C17.914 16.1541 18.0114 16.2514 18.1315 16.2514C18.2517 16.2517 18.349 16.1545 18.349 16.0342Z" fill="#F5F5F5"/>
<path d="M18.5665 11.2496C18.5665 11.3697 18.6639 11.4671 18.784 11.4671C18.9041 11.4671 19.0015 11.3698 19.0015 11.2496C19.0015 10.9936 18.8012 10.5801 18.7611 10.4998C18.7073 10.3926 18.5768 10.3492 18.4692 10.4026C18.3618 10.4563 18.3182 10.5869 18.372 10.6944C18.4504 10.8513 18.5665 11.1361 18.5665 11.2496Z" fill="#F5F5F5"/>
<path d="M17.5769 16.0579C17.4702 16.0036 17.3392 16.0467 17.2849 16.1538C17.2615 16.1994 17.2254 16.2502 17.1948 16.2829C17.1852 16.1964 17.2082 16.0238 17.252 15.8806C17.2812 15.7851 17.2416 15.6818 17.1561 15.6304C17.0708 15.5789 16.9609 15.5923 16.8903 15.6629L16.4554 16.0979C16.3704 16.1828 16.3704 16.3204 16.4554 16.4054C16.5403 16.4903 16.6779 16.4903 16.7629 16.4054L16.7739 16.3943C16.7927 16.4816 16.8287 16.5613 16.8904 16.6229C16.9719 16.7044 17.0705 16.7476 17.1729 16.7476C17.1928 16.7476 17.2127 16.7458 17.2327 16.7427C17.4791 16.7028 17.6325 16.4311 17.6736 16.3489C17.727 16.2416 17.6837 16.1119 17.5769 16.0579Z" fill="#F5F5F5"/>
<path d="M17.4926 14.3079H15.9598C15.9734 14.2538 15.9874 14.2021 16.0017 14.1531C16.6129 14.026 16.9762 13.8287 17.083 13.5654C17.12 13.4741 17.1585 13.2896 17.0012 13.0774C16.8594 12.8862 16.6593 12.8004 16.4514 12.8429C16.1424 12.9055 15.867 13.2385 15.6694 13.7716C15.0555 13.8768 14.6625 14.0971 14.4137 14.3146C14.3254 13.4233 13.9795 12.8939 13.9626 12.8687C13.8959 12.7686 13.7608 12.7416 13.661 12.8083C13.5611 12.875 13.5342 13.0099 13.6007 13.1099C13.6046 13.1158 13.9991 13.7192 13.9991 14.7291C13.9991 15.7218 13.2075 16.469 12.6942 16.469C12.45 16.469 12.3431 16.1788 12.2962 15.9333C12.7988 15.581 13.2423 15.1734 13.3402 14.7818C13.4728 14.2518 13.306 13.8613 13.1956 13.6028C13.1904 13.5909 13.185 13.5782 13.1795 13.565C13.1842 13.5693 13.1886 13.5737 13.193 13.5779C13.2778 13.6629 13.4155 13.6629 13.5005 13.5779C13.5854 13.493 13.5854 13.3554 13.5005 13.2704C13.3734 13.1432 13.1265 12.9433 12.902 13.0373C12.8072 13.0766 12.6942 13.1755 12.6942 13.4242C12.6942 13.5366 12.7412 13.6463 12.7955 13.7738C12.8935 14.0029 13.0153 14.2882 12.9182 14.6764C12.8607 14.9061 12.5786 15.1848 12.2063 15.4616C12.1664 15.4138 12.1087 15.3818 12.0417 15.3818H12.0414C11.9214 15.3819 11.8242 15.479 11.8242 15.599C11.8242 15.6381 11.8259 15.6799 11.8284 15.7229C11.363 16.0243 10.8363 16.3033 10.4292 16.4884C10.3199 16.5382 10.2716 16.6671 10.3213 16.7764C10.3577 16.8565 10.4367 16.9039 10.5194 16.9039C10.5495 16.9039 10.5801 16.8977 10.6092 16.8844C10.7315 16.8288 11.3119 16.5584 11.9082 16.1889C12.018 16.5617 12.2507 16.904 12.6942 16.904C13.2159 16.904 13.8078 16.4774 14.1494 15.8404C14.1906 15.9133 14.238 15.983 14.2945 16.0481C14.842 16.6793 15.9112 16.6865 15.9565 16.6865C16.0736 16.6865 16.1696 16.5939 16.1739 16.4769C16.178 16.3598 16.0888 16.2604 15.972 16.2522C15.9703 16.252 15.797 16.2329 15.7006 16.1203C15.6424 16.0524 15.6192 15.9589 15.6294 15.8347C15.6517 15.5667 16.5162 15.3663 17.2782 15.3545C17.369 15.353 17.4494 15.2954 17.4798 15.2099L17.6973 14.5983C17.7209 14.5318 17.7108 14.4576 17.67 14.4001C17.6297 14.3423 17.5632 14.3079 17.4926 14.3079ZM16.538 13.2693C16.5421 13.2685 16.5476 13.2672 16.5545 13.2672C16.5754 13.2672 16.6082 13.2774 16.6519 13.3364C16.6602 13.3475 16.6867 13.3853 16.68 13.4019C16.655 13.4634 16.5049 13.5652 16.192 13.6574C16.3296 13.3889 16.4642 13.2842 16.538 13.2693ZM15.2245 16.1283C15.0036 16.0564 14.7784 15.9426 14.6225 15.7623C14.4512 15.5642 14.388 15.3136 14.4295 14.9964C14.4357 14.9798 14.45 14.9469 14.4749 14.9043C14.7811 14.8762 15.5993 14.9969 15.656 15.2312C15.4036 15.36 15.2177 15.5411 15.1962 15.7986C15.1854 15.9278 15.1986 16.0372 15.2245 16.1283Z" fill="#F5F5F5"/>
<path d="M19.8603 11.1807L19.6428 10.5282C19.6077 10.4233 19.4989 10.3607 19.391 10.3844C19.2825 10.4076 19.209 10.5084 19.22 10.6187C19.3701 12.1194 19.654 15.0461 19.654 15.3817C19.654 15.6831 19.1179 16.2765 18.2518 16.7096C18.1443 16.7633 18.1007 16.8939 18.1545 17.0014C18.1926 17.0776 18.2694 17.1216 18.3493 17.1216C18.3819 17.1216 18.4151 17.1141 18.4463 17.0986C19.2375 16.703 20.089 15.997 20.089 15.3817C20.089 15.0604 19.8667 12.7483 19.7394 11.4496C19.8425 11.4056 19.8963 11.2891 19.8603 11.1807Z" fill="#F5F5F5"/>
<path d="M21.6749 13.1432C21.7168 13.1851 21.7724 13.207 21.8288 13.207C21.8656 13.207 21.9026 13.1977 21.9363 13.1785C22.0213 13.1301 22.0636 13.0307 22.0395 12.9357C22.0006 12.7829 21.9876 12.5917 22.0082 12.5136C22.1171 12.5169 22.2183 12.4394 22.2343 12.3271C22.2512 12.2081 22.1686 12.0979 22.0498 12.0809C21.9059 12.0614 21.7797 12.1037 21.6915 12.2017C21.6344 12.2655 21.6004 12.3472 21.5819 12.4352L21.3301 12.1833C21.2451 12.0984 21.1075 12.0984 21.0226 12.1833C20.9376 12.2682 20.9376 12.4059 21.0226 12.4908L21.6749 13.1432Z" fill="#F5F5F5"/>
<path d="M22.1644 13.37L21.3488 13.9545C21.2513 14.0244 21.2287 14.1604 21.2987 14.258C21.3412 14.3173 21.408 14.3487 21.4758 14.3487C21.5196 14.3487 21.5639 14.3355 21.6023 14.308L22.4178 13.7235C22.5154 13.6536 22.538 13.5177 22.468 13.42C22.3978 13.3222 22.2617 13.2995 22.1644 13.37Z" fill="#F5F5F5"/>
<path d="M22.0921 14.1879C22.0237 14.276 22.0335 14.4001 22.1112 14.4763C22.1205 14.4921 22.1629 14.5753 22.1552 14.7894C22.151 14.9096 22.2449 15.0103 22.3649 15.0145C22.3675 15.0147 22.3702 15.0147 22.3727 15.0147C22.4894 15.0147 22.5858 14.9223 22.59 14.8051C22.6058 14.3612 22.4606 14.199 22.3974 14.1498C22.3027 14.0758 22.1659 14.0932 22.0921 14.1879Z" fill="#F5F5F5"/>
<path d="M23.9901 15.7895C24.1102 15.7895 24.2076 15.6923 24.2076 15.572C24.2076 15.2511 24.1911 14.8929 24.1641 14.5202C24.3798 14.8736 24.5589 15.1994 24.6738 15.4673C24.7091 15.5499 24.7893 15.5992 24.8738 15.5992C24.9023 15.5992 24.9314 15.5937 24.9593 15.5816C25.0697 15.5342 25.1208 15.4063 25.0734 15.2961C24.8743 14.8314 24.5022 14.2159 24.0784 13.5805C23.9931 12.7823 23.8816 12.0001 23.795 11.439C23.8411 11.4437 23.8889 11.4325 23.9308 11.4052C23.9995 11.3612 24.0317 11.2848 24.0271 11.2087C24.0326 11.2301 24.0386 11.2515 24.0511 11.2712C24.0526 11.2733 24.1924 11.5041 24.1304 11.8037C24.106 11.9211 24.1817 12.0363 24.2993 12.0606C24.3142 12.0636 24.3291 12.0651 24.3436 12.0651C24.4445 12.0651 24.535 11.9944 24.5564 11.8916C24.6546 11.4165 24.4278 11.053 24.4181 11.0376C24.3536 10.9365 24.2191 10.9068 24.1178 10.971C24.0488 11.0149 24.0162 11.0914 24.0206 11.1676C24.015 11.1461 24.0088 11.1245 23.9961 11.1048L23.6291 10.534C23.573 10.4468 23.4633 10.4116 23.367 10.449C23.2704 10.4868 23.2139 10.5873 23.2319 10.6892C23.2349 10.7063 23.4011 11.6607 23.5484 12.811C23.3817 12.5756 23.215 12.3454 23.0533 12.1256C23.0271 11.7966 23.0007 11.4924 22.9779 11.2408C22.9899 11.2373 23.0017 11.2326 23.0133 11.2268C23.1207 11.1731 23.1643 11.0425 23.1105 10.935L22.893 10.5001C22.8461 10.4062 22.7389 10.3595 22.6381 10.3883C22.5373 10.4176 22.4716 10.5145 22.4821 10.619C22.508 10.8785 22.535 11.1658 22.5615 11.4676C22.4239 11.2863 22.2967 11.1203 22.1878 10.9798C22.209 10.9615 22.2271 10.9388 22.2405 10.912C22.2943 10.8046 22.2507 10.674 22.1433 10.6202L21.7083 10.4027C21.6171 10.3573 21.5063 10.3811 21.4419 10.4605C21.3778 10.54 21.3774 10.6533 21.4413 10.7332C21.453 10.7478 21.9885 11.4191 22.6291 12.2855C22.7402 13.7224 22.8142 15.2172 22.7097 15.5306C22.6906 15.5879 22.6572 15.6554 22.6259 15.6578C22.4944 15.6761 22.1807 15.3822 22.0231 15.0672C21.9323 14.8858 21.8017 14.8669 21.7318 14.8701C21.4981 14.8845 21.4069 15.1417 21.2411 15.6086C21.1223 15.9431 20.9747 16.3589 20.8089 16.5291C20.7191 16.4193 20.603 16.0511 20.5385 15.6728C20.5688 15.7564 20.6471 15.8169 20.7412 15.8169C20.8613 15.8169 20.9587 15.7197 20.9587 15.5994C20.9587 15.2751 20.7319 12.805 20.6052 11.4513C20.711 11.4088 20.7666 11.2906 20.7301 11.181L20.5126 10.5285C20.4776 10.4236 20.3703 10.3617 20.2612 10.3845C20.153 10.4074 20.0792 10.5078 20.0897 10.6179C20.2375 12.1694 20.5146 15.1661 20.5233 15.5798C20.5227 15.576 20.522 15.5724 20.5215 15.5686C20.5046 15.4497 20.3936 15.3681 20.2754 15.3841C20.1565 15.4013 20.074 15.5113 20.0909 15.6302C20.1544 16.0748 20.3167 16.8391 20.6905 16.9636C20.72 16.9736 20.7597 16.9824 20.8063 16.9824C20.8921 16.9824 21.0009 16.9521 21.1124 16.8406C21.3493 16.6038 21.5096 16.1522 21.651 15.754C21.6829 15.6639 21.7208 15.5573 21.7564 15.466C21.9559 15.7574 22.3041 16.1201 22.6568 16.0918C22.7808 16.0829 23.0063 16.0162 23.1223 15.6683C23.2379 15.3213 23.1923 14.1114 23.1143 12.953C23.2976 13.2098 23.4809 13.4728 23.6559 13.7325C23.7238 14.3838 23.7723 15.0363 23.7723 15.5723C23.7726 15.6922 23.87 15.7895 23.9901 15.7895Z" fill="#F5F5F5"/>
<path d="M25.6406 14.6457C25.4865 13.4979 25.2719 12.1683 25.1359 11.3523C25.1973 11.3675 25.2642 11.3551 25.3181 11.3137C25.4137 11.2408 25.432 11.1042 25.3591 11.0089L24.9649 10.4923C24.9041 10.4129 24.7968 10.3849 24.7049 10.425C24.6131 10.4652 24.5606 10.5629 24.5777 10.6617C24.5816 10.6839 24.9694 12.9165 25.2093 14.7034C25.3009 15.3862 25.1672 15.9965 24.8513 16.3354C24.6482 16.5532 24.3791 16.6516 24.0535 16.6327C23.9339 16.6263 23.8303 16.7163 23.8228 16.8361C23.8153 16.956 23.9062 17.0592 24.0261 17.0668C24.0629 17.0691 24.0991 17.0702 24.1349 17.0702C24.5451 17.0702 24.901 16.9198 25.1694 16.6318C25.5793 16.1923 25.7511 15.4682 25.6406 14.6457Z" fill="#F5F5F5"/>
<path d="M23.2478 16.0792C23.1679 16.1661 23.174 16.3029 23.2586 16.3849C23.2704 16.3964 23.2845 16.4189 23.2846 16.43C23.2847 16.4361 23.2759 16.4544 23.2517 16.4786C23.1668 16.5636 23.1668 16.7012 23.2517 16.7861C23.2942 16.8286 23.3498 16.8499 23.4055 16.8499C23.4611 16.8499 23.5168 16.8286 23.5593 16.7861C23.6972 16.6482 23.7226 16.5083 23.7194 16.4151C23.7127 16.2144 23.5761 16.0848 23.5488 16.0608C23.4599 15.9835 23.3277 15.9928 23.2478 16.0792Z" fill="#F5F5F5"/>
<path d="M22.4812 20.8488H22.2637H20.9589V20.6313C20.9589 20.5111 20.8615 20.4138 20.7414 20.4138C20.6212 20.4138 20.5239 20.5111 20.5239 20.6313V20.8488H8.99713C9.43207 21.2838 10.302 21.5013 10.9545 21.5013C11.4224 21.5013 17.2594 21.5013 20.5239 21.5013V21.9363C20.5239 22.0564 20.6212 22.1537 20.7414 22.1537H22.4812C22.841 22.1537 23.1337 21.8611 23.1337 21.5013C23.1337 21.1414 22.841 20.8488 22.4812 20.8488ZM22.4812 21.7188H20.9588V21.5013C22.0069 21.5013 22.6987 21.5013 22.6987 21.5013L22.6596 21.3842C22.6822 21.4184 22.6987 21.4571 22.6987 21.5013C22.6987 21.6213 22.6011 21.7188 22.4812 21.7188Z" fill="#F5F5F5"/>
</g>
<defs>
<clipPath id="clip0_17_755">
<rect width="32" height="32" fill="white"/>
</clipPath>
</defs>
</svg>
