<svg width="464" height="128" viewBox="0 0 464 128" fill="none" xmlns="http://www.w3.org/2000/svg">
<path d="M463.02 81.78C463.02 81.78 463.02 81.75 463.02 81.73C463.02 81.62 463 81.51 462.99 81.4C462.98 81.32 462.97 81.24 462.96 81.16C462.94 81.07 462.9 80.98 462.87 80.88C462.84 80.79 462.82 80.71 462.78 80.62C462.74 80.53 462.69 80.45 462.65 80.37C462.61 80.29 462.57 80.21 462.52 80.14C462.47 80.06 462.4 80 462.34 79.92C462.28 79.84 462.22 79.77 462.16 79.71C462.1 79.65 462.03 79.61 461.97 79.55C461.89 79.48 461.8 79.41 461.71 79.35C461.7 79.35 461.68 79.33 461.67 79.32L412.83 49C412.83 49 412.77 48.98 412.74 48.96C412.57 48.86 412.39 48.78 412.2 48.72C412.14 48.7 412.08 48.68 412.02 48.66C411.81 48.61 411.59 48.57 411.36 48.57C411.35 48.57 411.33 48.57 411.32 48.57C411.08 48.57 410.85 48.61 410.63 48.66C410.57 48.68 410.51 48.7 410.45 48.72C410.26 48.78 410.08 48.86 409.92 48.95C409.89 48.97 409.86 48.97 409.83 48.99L380.21 67.12C379.35 67.64 378.83 68.57 378.83 69.57V120.3H363.33V33.83L397.27 12.42V43.65C397.27 45.24 398.56 46.53 400.15 46.53C401.74 46.53 403.03 45.24 403.03 43.65V12.57L434.94 31.08V53.33C434.94 54.92 436.23 56.21 437.82 56.21C439.41 56.21 440.7 54.92 440.7 53.33V29.42C440.7 28.39 440.15 27.45 439.27 26.93L401.29 4.88999C400.36 4.34999 399.21 4.36999 398.31 4.94999L358.93 29.8C358.09 30.33 357.59 31.25 357.59 32.23V123.18C357.59 124.77 358.88 126.06 360.47 126.06H459.9C461.49 126.06 462.78 124.77 462.78 123.18C462.78 123.08 462.76 122.98 462.75 122.88C462.94 122.5 463.05 122.07 463.05 121.62V81.77L463.02 81.78ZM414.19 56.64L457.27 83.38V120.31H414.19V56.63V56.64Z" fill="#1B706F"/>
<path d="M32.58 67.34C26.52 67.34 21.43 67.01 17.29 66.34C13.15 65.67 9.8 64.58 7.25 63.05C4.69 61.52 2.85 59.54 1.71 57.09C0.57 54.65 0 51.62 0 48.01C0 45.79 0.29 43.34 0.88 40.68C1.46 38.01 2.28 35.38 3.34 32.76L11.34 35.09C10.39 36.98 9.66 38.8 9.13 40.55C8.6 42.3 8.34 43.87 8.34 45.26C8.34 46.87 8.67 48.22 9.34 49.3C10.01 50.38 11.09 51.26 12.59 51.92C14.09 52.58 16.06 53.07 18.51 53.38C20.95 53.69 23.98 53.84 27.59 53.84H39.26C42.98 53.84 46.05 53.76 48.47 53.59C50.89 53.42 52.8 53.12 54.22 52.67C55.64 52.23 56.62 51.63 57.18 50.88C57.73 50.13 58.01 49.17 58.01 48V4.66998H68.01V48C68.01 51.89 70.23 53.83 74.68 53.83H77.18V63.83L74.68 66.33C70.18 66.33 66.67 65.43 64.14 63.62C61.61 61.82 59.93 58.97 59.1 55.08H58.6C58.15 57.36 57.38 59.28 56.27 60.83C55.16 62.39 53.57 63.65 51.52 64.62C49.46 65.59 46.89 66.29 43.81 66.7C40.73 67.12 36.99 67.32 32.6 67.32L32.58 67.34ZM25.33 40.42L38.41 34.25L38.24 33.67H31.57C29.57 33.67 28.03 33.25 26.95 32.42C25.87 31.59 25.33 30.06 25.33 27.84C25.33 25.9 25.97 24.31 27.25 23.09C28.53 21.87 30.36 20.56 32.75 19.17L38.25 16L41.25 21L31 26.75L31.17 27.42H37.67C39.72 27.42 41.31 27.8 42.42 28.54C43.53 29.29 44.09 30.64 44.09 32.58C44.09 34.52 43.52 36.22 42.38 37.5C41.24 38.78 39.5 40 37.17 41.17L28.09 45.75L25.34 40.42H25.33Z" fill="#217673"/>
<path d="M102.42 77.67L81.75 87.17L79.33 81.84L100 72.26L102.42 77.68V77.67Z" fill="#217673"/>
<path d="M74.67 56.34L77.17 53.84H79.59C81.59 53.84 83.24 53.76 84.55 53.59C85.85 53.42 86.91 53.13 87.72 52.71C88.52 52.29 89.08 51.77 89.39 51.13C89.69 50.49 89.85 49.7 89.85 48.75C89.85 47.92 89.78 46.85 89.64 45.54C89.5 44.24 89.24 42.53 88.85 40.41L87.43 32.66L96.51 31.16L97.76 38.91C98.04 40.41 98.26 42.08 98.43 43.91C98.6 45.74 98.68 47.36 98.68 48.74C98.68 54.8 97.19 59.24 94.22 62.07C91.25 64.9 86.37 66.32 79.6 66.32H74.68V56.32L74.67 56.34ZM83.25 24.5C81.8 24.5 80.63 24.06 79.71 23.17C78.79 22.28 78.33 20.86 78.33 18.92C78.33 16.98 78.79 15.56 79.71 14.67C80.63 13.78 81.81 13.34 83.25 13.34H84.92C86.36 13.34 87.54 13.79 88.46 14.67C89.38 15.56 89.84 16.98 89.84 18.92C89.84 20.86 89.38 22.28 88.46 23.17C87.54 24.06 86.36 24.5 84.92 24.5H83.25ZM96.42 24.5C94.97 24.5 93.8 24.06 92.88 23.17C91.96 22.28 91.5 20.86 91.5 18.92C91.5 16.98 91.96 15.56 92.88 14.67C93.8 13.78 94.98 13.34 96.42 13.34H98.09C99.53 13.34 100.72 13.79 101.63 14.67C102.55 15.56 103.01 16.98 103.01 18.92C103.01 20.86 102.55 22.28 101.63 23.17C100.71 24.06 99.53 24.5 98.09 24.5H96.42Z" fill="#217673"/>
<path d="M149.67 79.84C141.11 79.84 134.66 77.85 130.29 73.88C125.93 69.91 123.75 64.28 123.75 57C123.75 54.5 124.1 51.68 124.79 48.54C125.48 45.4 126.44 42.36 127.67 39.41L135.67 41.74C134.56 44.13 133.68 46.55 133.05 48.99C132.41 51.44 132.09 53.55 132.09 55.32C132.09 58.82 133.34 61.53 135.84 63.44C138.34 65.35 141.84 66.32 146.34 66.32H153.01C157.73 66.32 161.2 65.24 163.43 63.07C165.65 60.9 166.76 57.52 166.76 52.9C166.76 51.62 166.62 49.98 166.34 47.98C166.06 45.98 165.73 44.09 165.34 42.31L163.67 34.56L172.67 32.81L174.25 40.48C174.64 42.31 174.96 44.41 175.21 46.77C175.46 49.13 175.59 51.17 175.59 52.89C175.59 62.11 173.49 68.9 169.3 73.27C165.1 77.63 158.56 79.81 149.67 79.81V79.84ZM148.84 35.08C147.39 35.08 146.21 34.64 145.3 33.75C144.38 32.86 143.92 31.45 143.92 29.5C143.92 27.55 144.38 26.14 145.3 25.25C146.22 24.36 147.4 23.92 148.84 23.92H150.51C151.95 23.92 153.13 24.37 154.05 25.25C154.97 26.14 155.43 27.56 155.43 29.5C155.43 31.44 154.97 32.86 154.05 33.75C153.13 34.64 151.95 35.08 150.51 35.08H148.84Z" fill="#217673"/>
<path d="M200.09 66.34C194.48 66.34 190.31 65.01 187.59 62.34C184.87 59.67 183.51 55.34 183.51 49.34V4.66998H193.51V47.67C193.51 50.17 194.01 51.82 195.01 52.63C196.01 53.44 197.73 53.84 200.18 53.84H202.68V63.84L200.18 66.34H200.1H200.09Z" fill="#217673"/>
<path d="M200.18 56.34L202.68 53.84H211.6V63.84L209.1 66.34H200.18V56.34Z" fill="#217673"/>
<path d="M209.09 56.34L211.59 53.84H220.51V63.84L218.01 66.34H209.09V56.34Z" fill="#217673"/>
<path d="M218.01 56.34L220.51 53.84H229.43V63.84L226.93 66.34H218.01V56.34Z" fill="#217673"/>
<path d="M226.93 56.34L229.43 53.84H231.93C236.37 53.84 238.6 51.9 238.6 48.01V36.09H247.77V48.01C247.77 51.9 249.71 53.84 253.6 53.84H256.93V63.84L254.43 66.34C249.98 66.34 246.61 65.44 244.3 63.63C241.99 61.83 240.45 58.98 239.68 55.09H239.18C238.4 58.98 237.07 61.83 235.18 63.63C233.29 65.44 230.54 66.34 226.93 66.34V56.34ZM235.76 84.25C234.31 84.25 233.14 83.8 232.22 82.92C231.3 82.03 230.84 80.61 230.84 78.67C230.84 76.73 231.3 75.31 232.22 74.42C233.14 73.53 234.32 73.09 235.76 73.09H237.43C238.87 73.09 240.05 73.53 240.97 74.42C241.89 75.31 242.35 76.72 242.35 78.67C242.35 80.62 241.89 82.03 240.97 82.92C240.05 83.81 238.87 84.25 237.43 84.25H235.76ZM248.93 84.25C247.48 84.25 246.31 83.8 245.39 82.92C244.47 82.04 244.01 80.61 244.01 78.67C244.01 76.73 244.47 75.31 245.39 74.42C246.31 73.53 247.49 73.09 248.93 73.09H250.6C252.04 73.09 253.22 73.53 254.14 74.42C255.06 75.31 255.52 76.72 255.52 78.67C255.52 80.62 255.06 82.03 254.14 82.92C253.22 83.81 252.04 84.25 250.6 84.25H248.93Z" fill="#217673"/>
<path d="M254.43 56.34L256.93 53.84H265.85V63.84L263.35 66.34H254.43V56.34Z" fill="#217673"/>
<path d="M263.35 56.34L265.85 53.84H268.35C272.79 53.84 275.02 51.9 275.02 48.01V36.09H284.19V48.01C284.19 51.9 286.13 53.84 290.02 53.84H293.35V63.84L290.85 66.34C286.4 66.34 283.03 65.44 280.73 63.63C278.42 61.83 276.88 58.98 276.1 55.09H275.6C274.82 58.98 273.49 61.83 271.6 63.63C269.71 65.44 266.96 66.34 263.35 66.34V56.34ZM278.76 29.42C277.31 29.42 276.14 28.98 275.22 28.09C274.3 27.2 273.84 25.79 273.84 23.84C273.84 21.89 274.3 20.48 275.22 19.59C276.14 18.7 277.32 18.26 278.76 18.26H280.43C281.87 18.26 283.05 18.71 283.97 19.59C284.89 20.48 285.35 21.9 285.35 23.84C285.35 25.78 284.89 27.2 283.97 28.09C283.05 28.98 281.87 29.42 280.43 29.42H278.76Z" fill="#217673"/>
<path d="M290.85 56.34L293.35 53.84H302.27V63.84L299.77 66.34H290.85V56.34Z" fill="#217673"/>
<path d="M303.85 19.83L313.68 15.33V14.91C312.57 14.19 311.71 13.27 311.1 12.16C310.49 11.05 310.18 9.82999 310.18 8.48999C310.18 6.09999 310.97 4.08999 312.56 2.44999C314.14 0.80999 316.16 -0.0100098 318.6 -0.0100098C321.04 -0.0100098 322.98 0.76999 324.56 2.31999C326.14 3.87999 326.94 5.84999 326.94 8.23999C326.94 13.24 324.05 17.05 318.27 19.66L306.27 25.16L303.85 19.83ZM315.51 8.24999C315.51 9.46999 316.43 10.53 318.26 11.42L319.76 12.17C320.37 11.73 320.81 11.27 321.09 10.79C321.37 10.32 321.51 9.68999 321.51 8.90999C321.51 8.01999 321.22 7.28999 320.63 6.69999C320.04 6.10999 319.28 5.81999 318.34 5.81999C317.56 5.81999 316.89 6.03999 316.34 6.48999C315.78 6.93999 315.51 7.51999 315.51 8.23999V8.24999Z" fill="#217673"/>
<path d="M299.76 56.34L302.26 53.84H304.68C306.68 53.84 308.33 53.76 309.64 53.59C310.94 53.42 312 53.13 312.81 52.71C313.61 52.29 314.17 51.77 314.48 51.13C314.78 50.49 314.94 49.7 314.94 48.75C314.94 47.92 314.87 46.85 314.73 45.54C314.59 44.24 314.33 42.53 313.94 40.41L312.52 32.66L321.6 31.16L322.85 38.91C323.13 40.41 323.35 42.08 323.52 43.91C323.69 45.74 323.77 47.36 323.77 48.74C323.77 54.8 322.28 59.24 319.31 62.07C316.34 64.9 311.46 66.32 304.69 66.32H299.77V56.32L299.76 56.34ZM314.35 84.25C312.9 84.25 311.73 83.8 310.81 82.92C309.89 82.04 309.43 80.61 309.43 78.67C309.43 76.73 309.89 75.31 310.81 74.42C311.73 73.53 312.91 73.09 314.35 73.09H316.02C317.46 73.09 318.64 73.53 319.56 74.42C320.48 75.31 320.94 76.72 320.94 78.67C320.94 80.62 320.48 82.03 319.56 82.92C318.64 83.81 317.46 84.25 316.02 84.25H314.35Z" fill="#217673"/>
<path d="M1.39 99.96H12.35C14.56 99.96 16.3 100.58 17.56 101.83C18.82 103.08 19.45 104.75 19.45 106.83C19.45 107.82 19.31 108.66 19.03 109.35C18.75 110.04 18.39 110.6 17.96 111.05C17.53 111.5 17.06 111.83 16.55 112.04C16.04 112.26 15.57 112.4 15.14 112.48V112.71C15.62 112.74 16.16 112.86 16.76 113.09C17.36 113.32 17.93 113.68 18.46 114.18C18.99 114.68 19.45 115.31 19.82 116.09C20.19 116.87 20.37 117.8 20.37 118.9C20.37 120 20.2 121.01 19.85 121.96C19.51 122.9 19.03 123.72 18.42 124.4C17.81 125.09 17.08 125.63 16.24 126.02C15.4 126.41 14.48 126.61 13.49 126.61H1.39V99.95V99.96ZM4.59 111.49H11.96C13.23 111.49 14.23 111.17 14.94 110.54C15.65 109.91 16.01 108.99 16.01 107.79V106.49C16.01 105.29 15.65 104.38 14.94 103.74C14.23 103.1 13.23 102.78 11.96 102.78H4.59V111.49ZM4.59 123.79H12.5C13.88 123.79 14.96 123.44 15.75 122.74C16.54 122.04 16.93 121.02 16.93 119.67V118.37C16.93 117.02 16.54 116 15.75 115.29C14.96 114.59 13.88 114.24 12.5 114.24H4.59V123.79Z" fill="#217673"/>
<path d="M38.86 99.96V116.49C38.86 119.04 39.33 120.97 40.27 122.29C41.21 123.6 42.87 124.26 45.24 124.26C47.61 124.26 49.26 123.6 50.21 122.29C51.15 120.98 51.62 119.04 51.62 116.49V99.96H54.83V115.7C54.83 117.64 54.66 119.32 54.31 120.74C53.96 122.16 53.41 123.35 52.65 124.29C51.89 125.23 50.89 125.93 49.65 126.39C48.41 126.85 46.91 127.08 45.12 127.08C43.33 127.08 41.84 126.85 40.63 126.39C39.42 125.93 38.45 125.23 37.71 124.29C36.97 123.35 36.44 122.16 36.13 120.74C35.81 119.31 35.65 117.63 35.65 115.7V99.96H38.86Z" fill="#217673"/>
<path d="M77.7 110.35L74.49 104.43H74.38V126.62H71.25V99.96H74.96L84.7 116.23L87.91 122.15H88.03V99.96H91.16V126.62H87.45L77.71 110.35H77.7Z" fill="#217673"/>
<path d="M113.87 126.62V116.08L104.7 99.96H108.37L115.47 112.79H115.58L122.68 99.96H126.35L117.07 115.96V126.62H113.86H113.87Z" fill="#217673"/>
<path d="M154.51 126.62L151.84 118.75H141.07L138.4 126.62H135.15L144.47 99.96H148.56L157.88 126.62H154.52H154.51ZM146.53 102.94H146.34L141.83 115.93H151.04L146.53 102.94Z" fill="#217673"/>
<path d="M178.27 110.35L175.06 104.43H174.95V126.62H171.82V99.96H175.53L185.27 116.23L188.48 122.15H188.6V99.96H191.73V126.62H188.02L178.28 110.35H178.27Z" fill="#217673"/>
<path d="M217.31 102.79V126.62H214.1V102.79H205.62V99.96H225.79V102.79H217.31Z" fill="#217673"/>
<path d="M239.69 126.62V99.96H255.96V102.79H242.9V111.73H255.2V114.56H242.9V123.8H255.96V126.63H239.69V126.62Z" fill="#217673"/>
<path d="M280.86 127.08C277.47 127.08 274.84 125.93 272.95 123.62C271.07 121.32 270.12 117.92 270.12 113.44C270.12 108.96 271.06 105.51 272.95 103.11C274.83 100.7 277.47 99.5 280.86 99.5C283.1 99.5 284.98 100 286.49 101.01C288 102.02 289.18 103.45 290.02 105.31L287.42 106.88C286.89 105.5 286.07 104.4 284.98 103.58C283.89 102.76 282.51 102.34 280.86 102.34C279.71 102.34 278.69 102.56 277.79 102.99C276.89 103.42 276.12 104.04 275.5 104.85C274.88 105.65 274.4 106.61 274.07 107.72C273.74 108.83 273.57 110.08 273.57 111.46V115.45C273.57 118.21 274.21 120.37 275.48 121.93C276.75 123.49 278.55 124.27 280.87 124.27C282.58 124.27 284 123.83 285.15 122.95C286.3 122.07 287.14 120.91 287.67 119.45L290.23 121.05C289.39 122.93 288.18 124.41 286.6 125.48C285.02 126.55 283.11 127.08 280.87 127.08H280.86Z" fill="#217673"/>
<path d="M321.39 114.55H307.91V126.62H304.7V99.96H307.91V111.72H321.39V99.96H324.6V126.62H321.39V114.55Z" fill="#217673"/>
</svg>
