<svg width="21" height="20" viewBox="0 0 21 20" fill="none" xmlns="http://www.w3.org/2000/svg">
<path fill-rule="evenodd" clip-rule="evenodd" d="M10.5 1.04175C8.31389 1.04175 6.54169 2.81395 6.54169 5.00008C6.54169 7.18621 8.31389 8.95842 10.5 8.95842C12.6861 8.95842 14.4584 7.18621 14.4584 5.00008C14.4584 2.81395 12.6861 1.04175 10.5 1.04175ZM7.79169 5.00008C7.79169 3.50431 9.00425 2.29175 10.5 2.29175C11.9958 2.29175 13.2084 3.50431 13.2084 5.00008C13.2084 6.49585 11.9958 7.70842 10.5 7.70842C9.00425 7.70842 7.79169 6.49585 7.79169 5.00008Z" fill="#1B706F"/>
<path d="M13.9974 13.447C13.7533 13.2029 13.3576 13.2029 13.1135 13.447C12.8694 13.6911 12.8694 14.0868 13.1135 14.3309L13.7828 15.0002L13.1138 15.6692C12.8697 15.9133 12.8697 16.309 13.1138 16.5531C13.3578 16.7972 13.7536 16.7972 13.9977 16.5531L14.6667 15.8841L15.3357 16.5531C15.5798 16.7972 15.9755 16.7972 16.2196 16.5531C16.4637 16.309 16.4637 15.9133 16.2196 15.6692L15.5506 15.0002L16.2199 14.3309C16.464 14.0868 16.464 13.6911 16.2199 13.447C15.9758 13.2029 15.5801 13.2029 15.336 13.447L14.6667 14.1163L13.9974 13.447Z" fill="#1B706F"/>
<path fill-rule="evenodd" clip-rule="evenodd" d="M10.5 10.2084C12.0038 10.2084 13.4021 10.5154 14.5098 11.0448C14.5619 11.0428 14.6141 11.0417 14.6667 11.0417C16.8528 11.0417 18.625 12.814 18.625 15.0001C18.625 17.1862 16.8528 18.9584 14.6667 18.9584C13.6837 18.9584 12.7844 18.6001 12.0923 18.007C11.5826 18.0842 11.049 18.1251 10.5 18.1251C8.80057 18.1251 7.23128 17.7328 6.06514 17.0664C4.91668 16.4102 4.04169 15.4083 4.04169 14.1667C4.04169 12.9252 4.91668 11.9233 6.06514 11.2671C7.23128 10.6007 8.80057 10.2084 10.5 10.2084ZM5.29169 14.1667C5.29169 13.5674 5.72253 12.9025 6.68532 12.3524C7.63043 11.8123 8.9778 11.4584 10.5 11.4584C11.2176 11.4584 11.8973 11.5371 12.5147 11.6773C11.4275 12.3829 10.7084 13.6075 10.7084 15.0001C10.7084 15.6692 10.8744 16.2995 11.1674 16.8521C10.949 16.8673 10.7263 16.8751 10.5 16.8751C8.9778 16.8751 7.63043 16.5212 6.68532 15.9811C5.72253 15.431 5.29169 14.7661 5.29169 14.1667ZM14.6667 12.2917C13.1709 12.2917 11.9584 13.5043 11.9584 15.0001C11.9584 16.4959 13.1709 17.7084 14.6667 17.7084C16.1625 17.7084 17.375 16.4959 17.375 15.0001C17.375 13.5043 16.1625 12.2917 14.6667 12.2917Z" fill="#1B706F"/>
</svg>
