<svg width="13" height="13" viewBox="0 0 13 13" fill="none" xmlns="http://www.w3.org/2000/svg">
<path fill-rule="evenodd" clip-rule="evenodd" d="M1.88579 1.87928C4.41601 -0.647379 8.5291 -0.620513 11.0748 1.92518C13.6216 4.47198 13.6474 8.58752 11.1174 11.1175C8.58749 13.6474 4.47195 13.6216 1.92516 11.0748C0.415925 9.56559 -0.207308 7.50661 0.0603136 5.55415C0.0978136 5.28057 0.349997 5.08918 0.623581 5.12668C0.897166 5.16418 1.08855 5.41637 1.05105 5.68995C0.824401 7.34349 1.35188 9.08733 2.63226 10.3677C4.79525 12.5307 8.27759 12.5431 10.4103 10.4104C12.5431 8.27762 12.5307 4.79528 10.3677 2.63229C8.20581 0.47041 4.72592 0.456926 2.5929 2.58638L3.09137 2.58889C3.36751 2.59027 3.59023 2.81525 3.58885 3.09139C3.58746 3.36753 3.36248 3.59026 3.08634 3.58887L1.38931 3.58034C1.11513 3.57897 0.893203 3.35704 0.891826 3.08286L0.883297 1.38583C0.88191 1.10969 1.10464 0.884711 1.38078 0.883323C1.65692 0.881935 1.8819 1.10466 1.88328 1.3808L1.88579 1.87928ZM6.49992 3.33328C6.77606 3.33328 6.99992 3.55714 6.99992 3.83328V6.29284L8.52014 7.81306C8.7154 8.00832 8.7154 8.3249 8.52014 8.52017C8.32488 8.71543 8.0083 8.71543 7.81303 8.52017L5.99992 6.70705V3.83328C5.99992 3.55714 6.22378 3.33328 6.49992 3.33328Z" fill="#666666"/>
</svg>
