<svg width="16" height="16" viewBox="0 0 16 16" fill="none" xmlns="http://www.w3.org/2000/svg">
<path d="M9.8599 12.9462C9.78657 12.9462 9.70658 12.9263 9.63991 12.8929C9.39325 12.7663 9.29324 12.4663 9.41324 12.2196L10.8399 9.37292C10.9266 9.20626 11.0999 9.09961 11.2866 9.09961C11.4732 9.09961 11.6466 9.20626 11.7332 9.3796L13.1599 12.2263C13.2866 12.4729 13.1866 12.7729 12.9332 12.8996C12.6866 13.0262 12.3866 12.9263 12.2599 12.6729L11.2866 10.7196L10.3132 12.6729C10.2199 12.8463 10.0399 12.9462 9.8599 12.9462Z" fill="#CCCCCC"/>
<path d="M12.4533 12.4395H10.1067C9.83336 12.4395 9.60669 12.2128 9.60669 11.9395C9.60669 11.6661 9.83336 11.4395 10.1067 11.4395H12.4533C12.7267 11.4395 12.9533 11.6661 12.9533 11.9395C12.9533 12.2128 12.7333 12.4395 12.4533 12.4395Z" fill="#CCCCCC"/>
<path d="M11.28 15.1669C9.13998 15.1669 7.39331 13.4269 7.39331 11.2802C7.39331 9.13353 9.13331 7.39355 11.28 7.39355C13.42 7.39355 15.1666 9.13353 15.1666 11.2802C15.1666 13.4269 13.4266 15.1669 11.28 15.1669ZM11.28 8.40019C9.68665 8.40019 8.39331 9.69353 8.39331 11.2869C8.39331 12.8802 9.68665 14.1735 11.28 14.1735C12.8666 14.1735 14.1666 12.8802 14.1666 11.2869C14.1666 9.69353 12.8733 8.40019 11.28 8.40019Z" fill="#CCCCCC"/>
<path d="M3.23992 8.46619C2.49992 8.46619 1.91325 8.2595 1.49992 7.8595C1.05992 7.43283 0.833252 6.78617 0.833252 5.95284V3.33952C0.833252 1.71952 1.72659 0.826172 3.34659 0.826172H5.95992C6.79325 0.826172 7.43325 1.04617 7.86659 1.49284C8.28659 1.92617 8.49326 2.55286 8.47326 3.35286V5.95284C8.49326 6.76617 8.28658 7.40619 7.85325 7.83952C7.41992 8.27285 6.77991 8.47285 5.95325 8.45951H3.35325C3.30658 8.46618 3.27325 8.46619 3.23992 8.46619ZM3.34659 1.83285C2.27325 1.83285 1.83325 2.27286 1.83325 3.34619V5.95951C1.83325 6.51285 1.95325 6.91283 2.19325 7.14616C2.42658 7.37283 2.79992 7.47285 3.32659 7.46619H5.95325C6.51325 7.47952 6.89992 7.36619 7.13325 7.13285C7.36658 6.89952 7.47325 6.50619 7.45992 5.96619V3.33952C7.47325 2.80618 7.36659 2.42616 7.13992 2.19283C6.90659 1.95283 6.50658 1.83285 5.95325 1.83285H3.34659Z" fill="#CCCCCC"/>
<path d="M5.99988 4.40039H3.29321C3.01988 4.40039 2.79321 4.17372 2.79321 3.90039C2.79321 3.62706 3.01988 3.40039 3.29321 3.40039H5.99988C6.27321 3.40039 6.49988 3.62706 6.49988 3.90039C6.49988 4.17372 6.27988 4.40039 5.99988 4.40039Z" fill="#CCCCCC"/>
<path d="M4.65332 4.39962C4.37999 4.39962 4.15332 4.17295 4.15332 3.89962V3.44629C4.15332 3.17296 4.37999 2.94629 4.65332 2.94629C4.92665 2.94629 5.15332 3.17296 5.15332 3.44629V3.89962C5.15332 4.17295 4.92665 4.39962 4.65332 4.39962Z" fill="#CCCCCC"/>
<path d="M3.29321 6.50688C3.01988 6.50688 2.79321 6.28021 2.79321 6.00688C2.79321 5.73354 3.01988 5.50688 3.29321 5.50688C4.13988 5.50688 4.82655 4.78689 4.82655 3.89355C4.82655 3.62022 5.05322 3.39355 5.32655 3.39355C5.59988 3.39355 5.82655 3.62022 5.82655 3.89355C5.82655 5.33355 4.69321 6.50688 3.29321 6.50688Z" fill="#CCCCCC"/>
<path d="M6.0067 6.50671C5.3867 6.50671 4.79337 6.19339 4.37337 5.64005C4.20671 5.42005 4.25338 5.10669 4.47338 4.94002C4.69338 4.77335 5.0067 4.82004 5.17337 5.04004C5.40004 5.3467 5.70004 5.51338 6.0067 5.51338C6.28004 5.51338 6.5067 5.74005 6.5067 6.01338C6.5067 6.28672 6.28004 6.50671 6.0067 6.50671Z" fill="#CCCCCC"/>
<path d="M5.99992 15.1667C3.15325 15.1667 0.833252 12.8467 0.833252 10C0.833252 9.72667 1.05992 9.5 1.33325 9.5C1.60659 9.5 1.83325 9.72667 1.83325 10C1.83325 11.9733 3.20659 13.6267 5.05325 14.06L4.87325 13.76C4.73325 13.52 4.80659 13.2133 5.04659 13.0733C5.27992 12.9333 5.59326 13.0067 5.73326 13.2467L6.43325 14.4133C6.52658 14.5667 6.52659 14.76 6.43992 14.9133C6.34659 15.0667 6.17992 15.1667 5.99992 15.1667Z" fill="#CCCCCC"/>
<path d="M14.6667 6.49967C14.3934 6.49967 14.1667 6.27301 14.1667 5.99967C14.1667 4.02634 12.7934 2.37299 10.9467 1.93966L11.1267 2.23966C11.2667 2.47966 11.1934 2.78635 10.9534 2.92635C10.72 3.06635 10.4067 2.99301 10.2667 2.75301L9.56671 1.58634C9.47338 1.43301 9.47337 1.23968 9.56004 1.08634C9.6467 0.926344 9.81338 0.833008 9.99338 0.833008C12.84 0.833008 15.16 3.15301 15.16 5.99967C15.1667 6.27301 14.94 6.49967 14.6667 6.49967Z" fill="#CCCCCC"/>
</svg>
