<svg width="20" height="21" viewBox="0 0 20 21" fill="none" xmlns="http://www.w3.org/2000/svg">
<g clip-path="url(#clip0_9129_7444)">
<path d="M6.37578 17.448C6.35078 17.448 6.31745 17.4646 6.29245 17.4646C4.67578 16.6646 3.35911 15.3396 2.55078 13.723C2.55078 13.698 2.56745 13.6646 2.56745 13.6396C3.58411 13.9396 4.63411 14.1646 5.67578 14.3396C5.85911 15.3896 6.07578 16.4313 6.37578 17.448Z" fill="#151E1B"/>
<path d="M17.4492 13.7313C16.6242 15.3896 15.2492 16.7313 13.5742 17.5396C13.8909 16.4813 14.1576 15.4146 14.3326 14.3396C15.3826 14.1646 16.4159 13.9396 17.4326 13.6396C17.4242 13.673 17.4492 13.7063 17.4492 13.7313Z" fill="#151E1B"/>
<path d="M17.5159 6.44801C16.4659 6.13135 15.4076 5.87301 14.3326 5.68968C14.1576 4.61468 13.8992 3.54801 13.5742 2.50635C15.2992 3.33135 16.6909 4.72301 17.5159 6.44801Z" fill="#151E1B"/>
<path d="M6.37409 2.598C6.07409 3.61466 5.85742 4.648 5.68242 5.698C4.60742 5.86466 3.54076 6.13133 2.48242 6.448C3.29076 4.773 4.63242 3.398 6.29076 2.573C6.31576 2.573 6.34909 2.598 6.37409 2.598Z" fill="#151E1B"/>
<path d="M12.9085 5.5147C10.9751 5.29803 9.02513 5.29803 7.0918 5.5147C7.30013 4.37303 7.5668 3.23136 7.9418 2.13136C7.95846 2.0647 7.95013 2.0147 7.95846 1.94803C8.6168 1.7897 9.2918 1.6897 10.0001 1.6897C10.7001 1.6897 11.3835 1.7897 12.0335 1.94803C12.0418 2.0147 12.0418 2.0647 12.0585 2.13136C12.4335 3.2397 12.7001 4.37303 12.9085 5.5147Z" fill="#151E1B"/>
<path d="M5.49102 12.9312C4.34102 12.7228 3.20768 12.4562 2.10768 12.0812C2.04102 12.0645 1.99102 12.0728 1.92435 12.0645C1.76602 11.4062 1.66602 10.7312 1.66602 10.0228C1.66602 9.32283 1.76602 8.6395 1.92435 7.9895C1.99102 7.98117 2.04102 7.98117 2.10768 7.9645C3.21602 7.59783 4.34102 7.32284 5.49102 7.1145C5.28268 9.04784 5.28268 10.9978 5.49102 12.9312Z" fill="#151E1B"/>
<path d="M18.3328 10.0228C18.3328 10.7312 18.2328 11.4062 18.0745 12.0645C18.0078 12.0728 17.9578 12.0645 17.8911 12.0812C16.7828 12.4478 15.6495 12.7228 14.5078 12.9312C14.7245 10.9978 14.7245 9.04784 14.5078 7.1145C15.6495 7.32284 16.7911 7.5895 17.8911 7.9645C17.9578 7.98117 18.0078 7.9895 18.0745 7.9895C18.2328 8.64784 18.3328 9.32283 18.3328 10.0228Z" fill="#151E1B"/>
<path d="M12.9085 14.5312C12.7001 15.6813 12.4335 16.8146 12.0585 17.9146C12.0418 17.9813 12.0418 18.0313 12.0335 18.0979C11.3835 18.2563 10.7001 18.3563 10.0001 18.3563C9.2918 18.3563 8.6168 18.2563 7.95846 18.0979C7.95013 18.0313 7.95846 17.9813 7.9418 17.9146C7.57513 16.8062 7.30013 15.6813 7.0918 14.5312C8.05846 14.6396 9.02513 14.7146 10.0001 14.7146C10.9751 14.7146 11.9501 14.6396 12.9085 14.5312Z" fill="#151E1B"/>
<path d="M13.1355 13.1591C11.0512 13.4221 8.94749 13.4221 6.86324 13.1591C6.60027 11.0749 6.60027 8.97117 6.86324 6.88692C8.94749 6.62396 11.0512 6.62396 13.1355 6.88692C13.3984 8.97117 13.3984 11.0749 13.1355 13.1591Z" fill="#151E1B"/>
</g>
<defs>
<clipPath id="clip0_9129_7444">
<rect width="20" height="20" fill="white" transform="translate(0 0.0229492)"/>
</clipPath>
</defs>
</svg>
