<svg width="20" height="20" viewBox="0 0 20 20" fill="none" xmlns="http://www.w3.org/2000/svg">
<path d="M12.5001 18.9587H7.50008C2.97508 18.9587 1.04175 17.0253 1.04175 12.5003V7.50033C1.04175 2.97533 2.97508 1.04199 7.50008 1.04199H12.5001C17.0251 1.04199 18.9584 2.97533 18.9584 7.50033V12.5003C18.9584 17.0253 17.0251 18.9587 12.5001 18.9587ZM7.50008 2.29199C3.65841 2.29199 2.29175 3.65866 2.29175 7.50033V12.5003C2.29175 16.342 3.65841 17.7087 7.50008 17.7087H12.5001C16.3417 17.7087 17.7084 16.342 17.7084 12.5003V7.50033C17.7084 3.65866 16.3417 2.29199 12.5001 2.29199H7.50008Z" fill="#1A1A1A"/>
<path d="M13.125 8.125H6.875C6.53333 8.125 6.25 7.84167 6.25 7.5C6.25 7.15833 6.53333 6.875 6.875 6.875H13.125C13.4667 6.875 13.75 7.15833 13.75 7.5C13.75 7.84167 13.4667 8.125 13.125 8.125Z" fill="#1A1A1A"/>
<path d="M13.125 13.125H6.875C6.53333 13.125 6.25 12.8417 6.25 12.5C6.25 12.1583 6.53333 11.875 6.875 11.875H13.125C13.4667 11.875 13.75 12.1583 13.75 12.5C13.75 12.8417 13.4667 13.125 13.125 13.125Z" fill="#1A1A1A"/>
</svg>
