<svg width="16" height="16" viewBox="0 0 16 16" fill="none" xmlns="http://www.w3.org/2000/svg">
<path opacity="0.4" d="M7.16667 1.63338C7.62667 1.24005 8.37999 1.24005 8.84666 1.63338L9.90001 2.54004C10.1 2.71337 10.4733 2.85339 10.74 2.85339H11.8733C12.58 2.85339 13.16 3.43339 13.16 4.14005V5.27335C13.16 5.53335 13.3 5.91336 13.4733 6.11336L14.38 7.1667C14.7733 7.6267 14.7733 8.38005 14.38 8.84672L13.4733 9.90002C13.3 10.1 13.16 10.4734 13.16 10.74V11.8734C13.16 12.58 12.58 13.16 11.8733 13.16H10.74C10.48 13.16 10.1 13.3001 9.90001 13.4734L8.84666 14.38C8.38666 14.7734 7.63334 14.7734 7.16667 14.38L6.11334 13.4734C5.91334 13.3001 5.54 13.16 5.27334 13.16H4.12C3.41333 13.16 2.83333 12.58 2.83333 11.8734V10.7334C2.83333 10.4734 2.69334 10.1 2.52667 9.90002L1.62667 8.84004C1.24 8.38004 1.24 7.63338 1.62667 7.17338L2.52667 6.11336C2.69334 5.91336 2.83333 5.54003 2.83333 5.28003V4.14005C2.83333 3.43339 3.41333 2.85339 4.12 2.85339H5.27334C5.53334 2.85339 5.91334 2.71337 6.11334 2.54004L7.16667 1.63338Z" fill="#28A4A2"/>
<path d="M11.0533 7.37999C10.9267 7.19999 10.7133 7.1 10.46 7.1H9.15999C9.07333 7.1 8.99334 7.06665 8.94 6.99998C8.88667 6.93332 8.86 6.84665 8.87333 6.75332L9.03332 5.71332C9.09999 5.40666 8.89334 5.05331 8.58667 4.95331C8.3 4.84665 7.95999 4.9933 7.82666 5.1933L6.53333 7.11331V6.87332C6.53333 6.40665 6.33334 6.21332 5.84001 6.21332H5.51333C5.01999 6.21332 4.82001 6.40665 4.82001 6.87332V10.06C4.82001 10.5267 5.01999 10.72 5.51333 10.72H5.84001C6.30667 10.72 6.50667 10.54 6.52667 10.1133L7.50667 10.8666C7.64001 11 7.94001 11.0733 8.15334 11.0733H9.38666C9.81332 11.0733 10.24 10.7533 10.3333 10.36L11.1133 7.98664C11.2 7.7733 11.18 7.55332 11.0533 7.37999Z" fill="#28A4A2"/>
</svg>
