<svg width="12" height="12" viewBox="0 0 12 12" fill="none" xmlns="http://www.w3.org/2000/svg">
<path d="M9.182 8.682L6 11.8639L2.81802 8.682C1.06066 6.9246 1.06066 4.07538 2.81802 2.31802C4.57538 0.56066 7.4246 0.56066 9.182 2.31802C10.9394 4.07538 10.9394 6.9246 9.182 8.682ZM6 7.5C7.10455 7.5 8 6.60455 8 5.5C8 4.39543 7.10455 3.5 6 3.5C4.89543 3.5 4 4.39543 4 5.5C4 6.60455 4.89543 7.5 6 7.5ZM6 6.5C5.4477 6.5 5 6.0523 5 5.5C5 4.94772 5.4477 4.5 6 4.5C6.5523 4.5 7 4.94772 7 5.5C7 6.0523 6.5523 6.5 6 6.5Z" fill="#7A4900"/>
</svg>
