<svg width="9" height="11" viewBox="0 0 9 11" fill="none" xmlns="http://www.w3.org/2000/svg">
<path d="M4.5 9.44975L6.97485 6.97485C8.3417 5.60805 8.3417 3.39196 6.97485 2.02513C5.60805 0.65829 3.39196 0.65829 2.02513 2.02513C0.65829 3.39196 0.65829 5.60805 2.02513 6.97485L4.5 9.44975ZM4.5 10.8639L1.31802 7.682C-0.43934 5.9246 -0.43934 3.07538 1.31802 1.31802C3.07538 -0.43934 5.9246 -0.43934 7.682 1.31802C9.43935 3.07538 9.43935 5.9246 7.682 7.682L4.5 10.8639ZM4.5 5.5C5.0523 5.5 5.5 5.0523 5.5 4.5C5.5 3.94772 5.0523 3.5 4.5 3.5C3.9477 3.5 3.5 3.94772 3.5 4.5C3.5 5.0523 3.9477 5.5 4.5 5.5ZM4.5 6.5C3.39543 6.5 2.5 5.60455 2.5 4.5C2.5 3.39543 3.39543 2.5 4.5 2.5C5.60455 2.5 6.5 3.39543 6.5 4.5C6.5 5.60455 5.60455 6.5 4.5 6.5Z" fill="#666666"/>
</svg>
