<svg width="20" height="20" viewBox="0 0 20 20" fill="none" xmlns="http://www.w3.org/2000/svg">
<path d="M9.99992 2.70801C10.3451 2.70801 10.6249 2.98783 10.6249 3.33301C10.6249 3.67819 10.3451 3.95801 9.99992 3.95801C6.6632 3.95801 3.95825 6.66295 3.95825 9.99967C3.95825 13.3364 6.6632 16.0413 9.99992 16.0413C10.3451 16.0413 10.6249 16.3212 10.6249 16.6663C10.6249 17.0115 10.3451 17.2913 9.99992 17.2913C5.97284 17.2913 2.70825 14.0268 2.70825 9.99967C2.70825 5.9726 5.97284 2.70801 9.99992 2.70801Z" fill="#F54E3F"/>
<path d="M13.7246 7.94162C13.4806 7.69754 13.4806 7.30181 13.7246 7.05773C13.9687 6.81365 14.3644 6.81365 14.6085 7.05773L17.1085 9.55773C17.3526 9.80181 17.3526 10.1975 17.1085 10.4416L14.6085 12.9416C14.3644 13.1857 13.9687 13.1857 13.7246 12.9416C13.4806 12.6975 13.4806 12.3018 13.7246 12.0577L15.1577 10.6247H8.33325C7.98807 10.6247 7.70825 10.3449 7.70825 9.99967C7.70825 9.6545 7.98807 9.37467 8.33325 9.37467H15.1577L13.7246 7.94162Z" fill="#F54E3F"/>
</svg>
