<svg width="14" height="16" viewBox="0 0 14 16" fill="none" xmlns="http://www.w3.org/2000/svg">
<path d="M2.64645 8.35323C2.45119 8.15797 2.45119 7.84138 2.64645 7.64612L3.97978 6.31279C4.17504 6.11753 4.49163 6.11753 4.68689 6.31279C4.88215 6.50805 4.88215 6.82463 4.68689 7.0199L4.20711 7.49968L9 7.49967C9.27614 7.49967 9.5 7.72353 9.5 7.99967C9.5 8.27582 9.27614 8.49967 9 8.49967L4.20711 8.49968L4.68689 8.97945C4.88215 9.17472 4.88215 9.4913 4.68689 9.68656C4.49163 9.88182 4.17504 9.88182 3.97978 9.68656L2.64645 8.35323Z" fill="#DB5757"/>
<path fill-rule="evenodd" clip-rule="evenodd" d="M8.2969 0.833008H9.03673C9.94845 0.832995 10.6833 0.832984 11.2613 0.910691C11.8614 0.991368 12.3666 1.16396 12.7679 1.56524C13.1692 1.96652 13.3418 2.47177 13.4225 3.07184C13.5002 3.64982 13.5002 4.3847 13.5001 5.29643V10.7029C13.5002 11.6146 13.5002 12.3495 13.4225 12.9275C13.3418 13.5276 13.1692 14.0328 12.7679 14.4341C12.3666 14.8354 11.8614 15.008 11.2613 15.0887C10.6833 15.1664 9.94845 15.1664 9.03673 15.1663H8.2969C7.38517 15.1664 6.65029 15.1664 6.07231 15.0887C5.47224 15.008 4.96699 14.8354 4.56571 14.4341C4.29975 14.1682 4.13379 13.8559 4.0287 13.4996C3.39445 13.4987 2.86604 13.4918 2.43792 13.4342C1.92862 13.3657 1.48707 13.2175 1.1346 12.8651C0.782141 12.5126 0.633953 12.0711 0.56548 11.5618C0.499972 11.0745 0.499985 10.4574 0.5 9.70216V6.29721C0.499985 5.542 0.499972 4.92484 0.56548 4.4376C0.633953 3.9283 0.782141 3.48674 1.1346 3.13428C1.48707 2.78182 1.92862 2.63363 2.43792 2.56515C2.86604 2.50759 3.39445 2.50062 4.0287 2.49979C4.13379 2.14342 4.29975 1.8312 4.56571 1.56524C4.96699 1.16396 5.47224 0.991368 6.07231 0.910691C6.65029 0.832984 7.38517 0.832995 8.2969 0.833008ZM3.83464 11.3358C3.83704 11.7655 3.84413 12.1525 3.86856 12.4991C3.31224 12.4969 2.89867 12.4871 2.57117 12.4431C2.17276 12.3895 1.9774 12.2937 1.84171 12.158C1.70602 12.0223 1.61013 11.8269 1.55656 11.4285C1.50106 11.0157 1.5 10.4662 1.5 9.66634V6.33301C1.5 5.5332 1.50106 4.98364 1.55656 4.57085C1.61013 4.17243 1.70602 3.97708 1.84171 3.84138C1.9774 3.70569 2.17276 3.6098 2.57117 3.55624C2.89867 3.51221 3.31224 3.50244 3.86856 3.50028C3.84413 3.84683 3.83704 4.23387 3.83464 4.66356C3.83311 4.9397 4.05572 5.1648 4.33185 5.16633C4.60799 5.16787 4.83309 4.94526 4.83463 4.66913C4.83869 3.94013 4.85762 3.4234 4.92965 3.03124C4.99906 2.65337 5.11052 2.43465 5.27282 2.27235C5.45733 2.08784 5.71638 1.96754 6.20556 1.90177C6.70913 1.83407 7.37653 1.83301 8.33348 1.83301H9.00015C9.95709 1.83301 10.6245 1.83407 11.1281 1.90177C11.6172 1.96754 11.8763 2.08784 12.0608 2.27235C12.2453 2.45686 12.3656 2.71591 12.4314 3.20509C12.4991 3.70866 12.5001 4.37606 12.5001 5.33301V10.6663C12.5001 11.6233 12.4991 12.2907 12.4314 12.7943C12.3656 13.2834 12.2453 13.5425 12.0608 13.727C11.8763 13.9115 11.6172 14.0318 11.1281 14.0976C10.6245 14.1653 9.95709 14.1663 9.00015 14.1663H8.33348C7.37653 14.1663 6.70913 14.1653 6.20556 14.0976C5.71638 14.0318 5.45733 13.9115 5.27282 13.727C5.11052 13.5647 4.99906 13.346 4.92965 12.9681C4.85762 12.5759 4.83869 12.0592 4.83463 11.3302C4.83309 11.0541 4.60799 10.8315 4.33185 10.833C4.05572 10.8346 3.83311 11.0597 3.83464 11.3358Z" fill="#DB5757"/>
</svg>
