<svg width="25" height="24" viewBox="0 0 25 24" fill="none" xmlns="http://www.w3.org/2000/svg">
<path d="M18.2034 21.8698C17.8934 21.8698 17.5834 21.7898 17.3034 21.6198L13.2934 19.2397C12.8734 19.2297 12.4534 19.1998 12.0534 19.1398C11.7834 19.0998 11.5534 18.9197 11.4534 18.6597C11.3534 18.3997 11.4034 18.1197 11.5834 17.9097C12.2434 17.1397 12.5834 16.2197 12.5834 15.2397C12.5834 12.8197 10.4534 10.8497 7.83339 10.8497C6.85339 10.8497 5.91338 11.1198 5.12338 11.6398C4.90338 11.7798 4.63339 11.7998 4.39339 11.6898C4.16339 11.5798 3.99339 11.3597 3.96339 11.0997C3.93339 10.8197 3.91339 10.5398 3.91339 10.2498C3.91339 5.28976 8.21339 1.25977 13.4934 1.25977C18.7734 1.25977 23.0734 5.28976 23.0734 10.2498C23.0734 12.9698 21.8134 15.4697 19.5934 17.1797L19.9334 19.8998C20.0134 20.5798 19.7134 21.2198 19.1434 21.5898C18.8634 21.7698 18.5334 21.8698 18.2034 21.8698ZM13.4834 17.7297C13.6234 17.7197 13.7634 17.7598 13.8834 17.8398L18.0734 20.3298C18.1834 20.3998 18.2734 20.3698 18.3334 20.3298C18.3834 20.2998 18.4634 20.2198 18.4434 20.0798L18.0534 16.9197C18.0234 16.6397 18.1434 16.3698 18.3634 16.2098C20.4034 14.7798 21.5734 12.5997 21.5734 10.2297C21.5734 6.09974 17.9534 2.73975 13.4934 2.73975C9.20339 2.73975 5.68339 5.85979 5.42339 9.77979C6.17339 9.48979 6.98339 9.32977 7.82339 9.32977C11.2734 9.32977 14.0734 11.9697 14.0734 15.2197C14.0834 16.0997 13.8734 16.9497 13.4834 17.7297Z" fill="#EAFAFA"/>
<path d="M4.91309 22.7498C4.65309 22.7498 4.40308 22.6798 4.17308 22.5298C3.72308 22.2398 3.48309 21.7398 3.54309 21.2098L3.74309 19.6698C2.39309 18.5698 1.59308 16.9398 1.59308 15.2298C1.59308 13.2798 2.61309 11.4598 4.32309 10.3698C5.35309 9.69981 6.57308 9.33984 7.84308 9.33984C11.2931 9.33984 14.0931 11.9798 14.0931 15.2298C14.0931 16.5498 13.6131 17.8498 12.7331 18.8798C11.6031 20.2498 9.91308 21.0498 8.05309 21.1098L5.61308 22.5598C5.39308 22.6898 5.15309 22.7498 4.91309 22.7498ZM7.83308 10.8398C6.85308 10.8398 5.91308 11.1098 5.12308 11.6298C3.84308 12.4498 3.08308 13.7898 3.08308 15.2298C3.08308 16.6198 3.76309 17.8898 4.96309 18.7098C5.19309 18.8698 5.31308 19.1398 5.28308 19.4198L5.06308 21.1298L7.45308 19.7098C7.57308 19.6398 7.70308 19.5998 7.83308 19.5998C9.30308 19.5998 10.6931 18.9698 11.5731 17.8998C12.2331 17.1198 12.5831 16.1998 12.5831 15.2198C12.5831 12.8098 10.4531 10.8398 7.83308 10.8398Z" fill="#EAFAFA"/>
</svg>
