<svg width="25" height="24" viewBox="0 0 25 24" fill="none" xmlns="http://www.w3.org/2000/svg">
<path d="M19.1367 16.83L19.5267 19.99C19.6267 20.82 18.7367 21.4 18.0267 20.97L14.5667 18.91C14.3267 18.77 14.2667 18.47 14.3967 18.23C14.8967 17.31 15.1667 16.27 15.1667 15.23C15.1667 11.57 12.0267 8.59 8.16667 8.59C7.37667 8.59 6.60667 8.71 5.88667 8.95C5.51667 9.07 5.15667 8.73 5.24667 8.35C6.15667 4.71 9.65667 2 13.8367 2C18.7167 2 22.6667 5.69 22.6667 10.24C22.6667 12.94 21.2767 15.33 19.1367 16.83Z" fill="white"/>
<path d="M13.6667 15.2298C13.6667 16.4198 13.2267 17.5198 12.4867 18.3898C11.4967 19.5898 9.92667 20.3598 8.16667 20.3598L5.55667 21.9098C5.11667 22.1798 4.55667 21.8098 4.61667 21.2998L4.86667 19.3298C3.52667 18.3998 2.66667 16.9098 2.66667 15.2298C2.66667 13.4698 3.60667 11.9198 5.04667 10.9998C5.93667 10.4198 7.00667 10.0898 8.16667 10.0898C11.2067 10.0898 13.6667 12.3898 13.6667 15.2298Z" fill="white"/>
</svg>
