<svg width="20" height="20" viewBox="0 0 20 20" fill="none" xmlns="http://www.w3.org/2000/svg">
<path d="M15.8334 9.99968C15.8334 10.4599 15.4603 10.833 15.0001 10.833C14.5398 10.833 14.1667 10.4599 14.1667 9.99968C14.1667 9.53944 14.5398 9.16634 15.0001 9.16634C15.4603 9.16634 15.8334 9.53944 15.8334 9.99968Z" fill="#1A1A1A"/>
<path fill-rule="evenodd" clip-rule="evenodd" d="M8.2864 2.70801H10.8804C12.4119 2.70799 13.6249 2.70798 14.5743 2.83562C15.5513 2.96698 16.3421 3.24374 16.9657 3.86738C17.736 4.6377 17.9815 5.66937 18.0706 7.00807C18.5517 7.21976 18.9149 7.66743 18.9549 8.2345C18.9585 8.28466 18.9585 8.33873 18.9584 8.38885C18.9584 8.39342 18.9584 8.39796 18.9584 8.40245V11.5969C18.9584 11.6014 18.9584 11.6059 18.9584 11.6105C18.9585 11.6606 18.9585 11.7147 18.9549 11.7648C18.9149 12.3319 18.5517 12.7796 18.0706 12.9913C17.9815 14.33 17.736 15.3616 16.9657 16.132C16.3421 16.7556 15.5513 17.0324 14.5743 17.1637C13.6249 17.2914 12.4119 17.2914 10.8804 17.2913H8.28641C6.75494 17.2914 5.54191 17.2914 4.59256 17.1637C3.61554 17.0324 2.82475 16.7556 2.20112 16.132C1.57748 15.5083 1.30072 14.7175 1.16936 13.7405C1.04172 12.7912 1.04174 11.5782 1.04175 10.0467V9.95266C1.04174 8.4212 1.04172 7.20817 1.16936 6.25882C1.30072 5.2818 1.57748 4.49101 2.20112 3.86738C2.82475 3.24374 3.61554 2.96698 4.59256 2.83562C5.54191 2.70798 6.75493 2.70799 8.2864 2.70801ZM16.8067 13.1247H15.1924C13.4047 13.1247 11.8751 11.7684 11.8751 9.99968C11.8751 8.23097 13.4047 6.87468 15.1924 6.87468H16.8067C16.7118 5.7568 16.4973 5.1667 16.0818 4.75126C15.7292 4.39859 15.2461 4.18719 14.4077 4.07447C13.5513 3.95934 12.4224 3.95801 10.8334 3.95801H8.33341C6.7444 3.95801 5.61551 3.95934 4.75912 4.07447C3.92071 4.18719 3.43768 4.39859 3.085 4.75126C2.73233 5.10394 2.52094 5.58697 2.40821 6.42538C2.29308 7.28177 2.29175 8.41066 2.29175 9.99968C2.29175 11.5887 2.29308 12.7176 2.40821 13.574C2.52094 14.4124 2.73233 14.8954 3.085 15.2481C3.43768 15.6008 3.92071 15.8122 4.75912 15.9249C5.61551 16.04 6.7444 16.0413 8.33342 16.0413H10.8334C12.4224 16.0413 13.5513 16.04 14.4077 15.9249C15.2461 15.8122 15.7292 15.6008 16.0818 15.2481C16.4973 14.8326 16.7118 14.2426 16.8067 13.1247ZM4.37508 6.66634C4.37508 6.32116 4.6549 6.04134 5.00008 6.04134H8.33342C8.67859 6.04134 8.95842 6.32116 8.95842 6.66634C8.95842 7.01152 8.67859 7.29134 8.33342 7.29134H5.00008C4.6549 7.29134 4.37508 7.01152 4.37508 6.66634ZM17.4364 8.12486C17.4194 8.12468 17.3972 8.12468 17.3612 8.12468H15.1924C14.0062 8.12468 13.1251 9.00695 13.1251 9.99968C13.1251 10.9924 14.0062 11.8747 15.1924 11.8747H17.3612C17.3972 11.8747 17.4194 11.8747 17.4364 11.8745C17.4467 11.8744 17.4522 11.8742 17.4548 11.8741L17.4567 11.874C17.6285 11.8636 17.7024 11.7476 17.708 11.6779C17.708 11.6779 17.7081 11.6727 17.7082 11.6652C17.7084 11.6504 17.7084 11.6307 17.7084 11.5969V8.40245C17.7084 8.36869 17.7084 8.34898 17.7082 8.3342C17.7081 8.32666 17.708 8.32142 17.708 8.32142C17.7024 8.25169 17.6285 8.13576 17.4567 8.12531C17.4567 8.12531 17.4526 8.12504 17.4364 8.12486Z" fill="#1A1A1A"/>
</svg>
