<svg width="21" height="21" viewBox="0 0 21 21" fill="none" xmlns="http://www.w3.org/2000/svg">
<path fill-rule="evenodd" clip-rule="evenodd" d="M4.698 1.06708e-06C3.79954 -2.73648e-05 3.0503 -5.10737e-05 2.45552 0.0799144C1.82773 0.164319 1.26093 0.34999 0.80546 0.80546C0.34999 1.26093 0.164319 1.82773 0.0799144 2.45552C-5.10737e-05 3.0503 -2.73648e-05 3.79951 1.06708e-06 4.69798V4.802C-2.73648e-05 5.70047 -5.10737e-05 6.44971 0.0799144 7.04448C0.164319 7.67228 0.34999 8.23908 0.80546 8.69455C1.26093 9.15002 1.82773 9.33569 2.45552 9.42009C3.0503 9.50006 3.79951 9.50003 4.69798 9.5H4.802C5.70047 9.50003 6.44971 9.50006 7.04448 9.42009C7.67228 9.33569 8.23908 9.15002 8.69455 8.69455C9.15002 8.23908 9.33569 7.67228 9.42009 7.04448C9.50006 6.44971 9.50003 5.7005 9.5 4.80203V4.69801C9.50003 3.79954 9.50006 3.0503 9.42009 2.45552C9.33569 1.82773 9.15002 1.26093 8.69455 0.80546C8.23908 0.34999 7.67228 0.164319 7.04448 0.0799144C6.44971 -5.10737e-05 5.7005 -2.73648e-05 4.80203 1.06708e-06H4.698ZM1.86612 1.86612C1.99644 1.7358 2.19393 1.62858 2.6554 1.56654C3.13843 1.5016 3.78599 1.5 4.75 1.5C5.71401 1.5 6.36157 1.5016 6.84461 1.56654C7.30607 1.62858 7.50357 1.7358 7.63389 1.86612C7.7642 1.99644 7.87143 2.19393 7.93347 2.6554C7.99841 3.13843 8 3.78599 8 4.75C8 5.71401 7.99841 6.36157 7.93347 6.84461C7.87143 7.30607 7.7642 7.50357 7.63389 7.63389C7.50357 7.7642 7.30607 7.87143 6.84461 7.93347C6.36157 7.99841 5.71401 8 4.75 8C3.78599 8 3.13843 7.99841 2.6554 7.93347C2.19393 7.87143 1.99644 7.7642 1.86612 7.63389C1.7358 7.50357 1.62858 7.30607 1.56654 6.84461C1.5016 6.36157 1.5 5.71401 1.5 4.75C1.5 3.78599 1.5016 3.13843 1.56654 2.6554C1.62858 2.19393 1.7358 1.99644 1.86612 1.86612Z" fill="#B3B3B3"/>
<path fill-rule="evenodd" clip-rule="evenodd" d="M15.698 11C14.7995 11 14.0503 10.9999 13.4555 11.0799C12.8277 11.1643 12.2609 11.35 11.8055 11.8055C11.35 12.2609 11.1643 12.8277 11.0799 13.4555C10.9999 14.0503 11 14.7995 11 15.698V15.802C11 16.7005 10.9999 17.4497 11.0799 18.0445C11.1643 18.6723 11.35 19.2391 11.8055 19.6945C12.2609 20.15 12.8277 20.3357 13.4555 20.4201C14.0503 20.5001 14.7995 20.5 15.6979 20.5H15.802C16.7004 20.5 17.4497 20.5001 18.0445 20.4201C18.6723 20.3357 19.2391 20.15 19.6945 19.6945C20.15 19.2391 20.3357 18.6723 20.4201 18.0445C20.5001 17.4497 20.5 16.7005 20.5 15.8021V15.698C20.5 14.7996 20.5001 14.0503 20.4201 13.4555C20.3357 12.8277 20.15 12.2609 19.6945 11.8055C19.2391 11.35 18.6723 11.1643 18.0445 11.0799C17.4497 10.9999 16.7005 11 15.802 11H15.698ZM12.8661 12.8661C12.9964 12.7358 13.1939 12.6286 13.6554 12.5665C14.1384 12.5016 14.786 12.5 15.75 12.5C16.714 12.5 17.3616 12.5016 17.8446 12.5665C18.3061 12.6286 18.5036 12.7358 18.6339 12.8661C18.7642 12.9964 18.8714 13.1939 18.9335 13.6554C18.9984 14.1384 19 14.786 19 15.75C19 16.714 18.9984 17.3616 18.9335 17.8446C18.8714 18.3061 18.7642 18.5036 18.6339 18.6339C18.5036 18.7642 18.3061 18.8714 17.8446 18.9335C17.3616 18.9984 16.714 19 15.75 19C14.786 19 14.1384 18.9984 13.6554 18.9335C13.1939 18.8714 12.9964 18.7642 12.8661 18.6339C12.7358 18.5036 12.6286 18.3061 12.5665 17.8446C12.5016 17.3616 12.5 16.714 12.5 15.75C12.5 14.786 12.5016 14.1384 12.5665 13.6554C12.6286 13.1939 12.7358 12.9964 12.8661 12.8661Z" fill="#B3B3B3"/>
<path fill-rule="evenodd" clip-rule="evenodd" d="M4.698 11H4.802C5.70048 11 6.4497 10.9999 7.04448 11.0799C7.67228 11.1643 8.23908 11.35 8.69455 11.8055C9.15002 12.2609 9.33569 12.8277 9.42009 13.4555C9.50006 14.0503 9.50003 14.7995 9.5 15.698V15.802C9.50003 16.7005 9.50006 17.4497 9.42009 18.0445C9.33569 18.6723 9.15002 19.2391 8.69455 19.6945C8.23908 20.15 7.67228 20.3357 7.04448 20.4201C6.44971 20.5001 5.70051 20.5 4.80206 20.5H4.69801C3.79955 20.5 3.05029 20.5001 2.45552 20.4201C1.82773 20.3357 1.26093 20.15 0.80546 19.6945C0.34999 19.2391 0.164319 18.6723 0.0799144 18.0445C-5.10737e-05 17.4497 -2.73648e-05 16.7005 1.06708e-06 15.802V15.698C-2.73648e-05 14.7995 -5.10737e-05 14.0503 0.0799144 13.4555C0.164319 12.8277 0.34999 12.2609 0.80546 11.8055C1.26093 11.35 1.82773 11.1643 2.45552 11.0799C3.0503 10.9999 3.79952 11 4.698 11ZM2.6554 12.5665C2.19393 12.6286 1.99644 12.7358 1.86612 12.8661C1.7358 12.9964 1.62858 13.1939 1.56654 13.6554C1.5016 14.1384 1.5 14.786 1.5 15.75C1.5 16.714 1.5016 17.3616 1.56654 17.8446C1.62858 18.3061 1.7358 18.5036 1.86612 18.6339C1.99644 18.7642 2.19393 18.8714 2.6554 18.9335C3.13843 18.9984 3.78599 19 4.75 19C5.71401 19 6.36157 18.9984 6.84461 18.9335C7.30607 18.8714 7.50357 18.7642 7.63389 18.6339C7.7642 18.5036 7.87143 18.3061 7.93347 17.8446C7.99841 17.3616 8 16.714 8 15.75C8 14.786 7.99841 14.1384 7.93347 13.6554C7.87143 13.1939 7.7642 12.9964 7.63389 12.8661C7.50357 12.7358 7.30607 12.6286 6.84461 12.5665C6.36157 12.5016 5.71401 12.5 4.75 12.5C3.78599 12.5 3.13843 12.5016 2.6554 12.5665Z" fill="#B3B3B3"/>
<path fill-rule="evenodd" clip-rule="evenodd" d="M15.698 1.06708e-06C14.7995 -2.73648e-05 14.0503 -5.10737e-05 13.4555 0.0799144C12.8277 0.164319 12.2609 0.34999 11.8055 0.80546C11.35 1.26093 11.1643 1.82773 11.0799 2.45552C10.9999 3.0503 11 3.79952 11 4.698V4.802C11 5.70048 10.9999 6.4497 11.0799 7.04448C11.1643 7.67228 11.35 8.23908 11.8055 8.69455C12.2609 9.15002 12.8277 9.33569 13.4555 9.42009C14.0503 9.50006 14.7995 9.50003 15.698 9.5H15.802C16.7005 9.50003 17.4497 9.50006 18.0445 9.42009C18.6723 9.33569 19.2391 9.15002 19.6945 8.69455C20.15 8.23908 20.3357 7.67228 20.4201 7.04448C20.5001 6.44971 20.5 5.7005 20.5 4.80203V4.69801C20.5 3.79954 20.5001 3.0503 20.4201 2.45552C20.3357 1.82773 20.15 1.26093 19.6945 0.80546C19.2391 0.34999 18.6723 0.164319 18.0445 0.0799144C17.4497 -5.10737e-05 16.7005 -2.73648e-05 15.802 1.06708e-06H15.698ZM12.8661 1.86612C12.9964 1.7358 13.1939 1.62858 13.6554 1.56654C14.1384 1.5016 14.786 1.5 15.75 1.5C16.714 1.5 17.3616 1.5016 17.8446 1.56654C18.3061 1.62858 18.5036 1.7358 18.6339 1.86612C18.7642 1.99644 18.8714 2.19393 18.9335 2.6554C18.9984 3.13843 19 3.78599 19 4.75C19 5.71401 18.9984 6.36157 18.9335 6.84461C18.8714 7.30607 18.7642 7.50357 18.6339 7.63389C18.5036 7.7642 18.3061 7.87143 17.8446 7.93347C17.3616 7.99841 16.714 8 15.75 8C14.786 8 14.1384 7.99841 13.6554 7.93347C13.1939 7.87143 12.9964 7.7642 12.8661 7.63389C12.7358 7.50357 12.6286 7.30607 12.5665 6.84461C12.5016 6.36157 12.5 5.71401 12.5 4.75C12.5 3.78599 12.5016 3.13843 12.5665 2.6554C12.6286 2.19393 12.7358 1.99644 12.8661 1.86612Z" fill="#B3B3B3"/>
</svg>
