<svg width="4" height="16" viewBox="0 0 4 16" fill="none" xmlns="http://www.w3.org/2000/svg">
<path d="M4 8C4 8.41021 3.8827 8.81121 3.66294 9.15229C3.44318 9.49337 3.13082 9.75921 2.76537 9.91619C2.39991 10.0732 1.99778 10.1143 1.60982 10.0342C1.22186 9.95419 0.865492 9.75666 0.585787 9.46659C0.306082 9.17653 0.115601 8.80696 0.0384303 8.40463C-0.0387401 8.0023 0.000866566 7.58527 0.152242 7.20629C0.303617 6.8273 0.559962 6.50337 0.88886 6.27547C1.21776 6.04757 1.60444 5.92593 2 5.92593C2.53043 5.92593 3.03914 6.14444 3.41421 6.53341C3.78929 6.92237 4 7.44992 4 8ZM2 4.14815C2.39556 4.14815 2.78224 4.02651 3.11114 3.7986C3.44004 3.5707 3.69638 3.24678 3.84776 2.86779C3.99913 2.4888 4.03874 2.07177 3.96157 1.66944C3.8844 1.26711 3.69392 0.897548 3.41421 0.607483C3.13451 0.317419 2.77814 0.119882 2.39018 0.0398537C2.00222 -0.0401749 1.60009 0.000898661 1.23463 0.15788C0.869182 0.314862 0.556824 0.580702 0.337062 0.921781C0.117299 1.26286 1.07732e-06 1.66386 1.07732e-06 2.07407C1.07732e-06 2.62415 0.210715 3.1517 0.585787 3.54067C0.96086 3.92963 1.46957 4.14815 2 4.14815ZM2 11.8519C1.60444 11.8519 1.21776 11.9735 0.88886 12.2014C0.559962 12.4293 0.303617 12.7532 0.152242 13.1322C0.000866566 13.5112 -0.0387401 13.9282 0.0384303 14.3306C0.115601 14.7329 0.306082 15.1025 0.585787 15.3925C0.865492 15.6826 1.22186 15.8801 1.60982 15.9601C1.99778 16.0402 2.39991 15.9991 2.76537 15.8421C3.13082 15.6851 3.44318 15.4193 3.66294 15.0782C3.8827 14.7371 4 14.3361 4 13.9259C4 13.3758 3.78929 12.8483 3.41421 12.4593C3.03914 12.0704 2.53043 11.8519 2 11.8519Z" fill="#B3B3B3"/>
</svg>
