<svg width="24" height="25" viewBox="0 0 24 25" fill="none" xmlns="http://www.w3.org/2000/svg">
<path fill-rule="evenodd" clip-rule="evenodd" d="M12 1.75C7.71983 1.75 4.25004 5.21979 4.25004 9.5V10.2041C4.25004 10.901 4.04375 11.5824 3.65717 12.1622L2.50856 13.8851C1.17547 15.8848 2.19318 18.6028 4.51177 19.2351C5.26738 19.4412 6.02937 19.6155 6.79578 19.7581L6.79768 19.7632C7.56667 21.8151 9.62198 23.25 12 23.25C14.378 23.25 16.4333 21.8151 17.2023 19.7632L17.2042 19.7581C17.9706 19.6155 18.7327 19.4412 19.4883 19.2351C21.8069 18.6028 22.8246 15.8848 21.4915 13.8851L20.3429 12.1622C19.9563 11.5824 19.75 10.901 19.75 10.2041V9.5C19.75 5.21979 16.2802 1.75 12 1.75ZM15.3764 20.037C13.1335 20.305 10.8664 20.3049 8.62349 20.0369C9.33444 21.0585 10.571 21.75 12 21.75C13.4289 21.75 14.6655 21.0585 15.3764 20.037ZM5.75004 9.5C5.75004 6.04822 8.54826 3.25 12 3.25C15.4518 3.25 18.25 6.04822 18.25 9.5V10.2041C18.25 11.1972 18.544 12.168 19.0948 12.9943L20.2434 14.7172C21.0086 15.8649 20.4245 17.425 19.0936 17.788C14.4494 19.0546 9.5507 19.0546 4.90644 17.788C3.57561 17.425 2.99147 15.8649 3.75664 14.7172L4.90524 12.9943C5.45609 12.168 5.75004 11.1972 5.75004 10.2041V9.5Z" fill="#333333"/>
</svg>
