<svg width="25" height="24" viewBox="0 0 25 24" fill="none" xmlns="http://www.w3.org/2000/svg">
<path fill-rule="evenodd" clip-rule="evenodd" d="M11.6102 1.25H13.723C15.5608 1.24998 17.0164 1.24997 18.1556 1.40314C19.3281 1.56076 20.277 1.89288 21.0254 2.64124C21.3183 2.93414 21.3183 3.40901 21.0254 3.7019C20.7325 3.9948 20.2576 3.9948 19.9647 3.7019C19.5415 3.27869 18.9619 3.02502 17.9558 2.88976C16.9281 2.75159 15.5734 2.75 13.6666 2.75H11.6666C9.75981 2.75 8.40514 2.75159 7.37747 2.88976C6.37139 3.02502 5.79174 3.27869 5.36853 3.7019C4.94532 4.12511 4.69165 4.70476 4.55639 5.71085C4.41822 6.73851 4.41663 8.09318 4.41663 10V14C4.41663 15.9068 4.41822 17.2615 4.55639 18.2892C4.69165 19.2952 4.94532 19.8749 5.36853 20.2981C5.79174 20.7213 6.37139 20.975 7.37747 21.1102C8.40514 21.2484 9.75981 21.25 11.6666 21.25H13.6666C15.5734 21.25 16.9281 21.2484 17.9558 21.1102C18.9619 20.975 19.5415 20.7213 19.9647 20.2981C20.6607 19.6022 20.8714 18.5208 20.908 15.9892C20.914 15.575 21.2546 15.2441 21.6688 15.2501C22.083 15.2561 22.4138 15.5967 22.4079 16.0108C22.3727 18.4383 22.2156 20.1685 21.0254 21.3588C20.277 22.1071 19.3281 22.4392 18.1557 22.5969C17.0164 22.75 15.5608 22.75 13.723 22.75H11.6102C9.77245 22.75 8.31682 22.75 7.1776 22.5969C6.00518 22.4392 5.05623 22.1071 4.30787 21.3588C3.55951 20.6104 3.22739 19.6614 3.06976 18.489C2.9166 17.3498 2.91661 15.8942 2.91663 14.0564V9.94358C2.91661 8.10582 2.9166 6.65019 3.06976 5.51098C3.22739 4.33856 3.55951 3.38961 4.30787 2.64124C5.05623 1.89288 6.00518 1.56076 7.1776 1.40314C8.31682 1.24997 9.77245 1.24998 11.6102 1.25ZM18.7798 7.04556C19.8405 5.98481 21.5603 5.98481 22.6211 7.04556C23.6818 8.1063 23.6818 9.82611 22.6211 10.8869L17.8658 15.6422C17.607 15.901 17.432 16.076 17.236 16.2289C17.0053 16.4088 16.7558 16.563 16.4918 16.6889C16.2673 16.7958 16.0325 16.8741 15.6853 16.9897L13.6017 17.6843C13.1417 17.8376 12.6345 17.7179 12.2916 17.375C11.9487 17.0321 11.829 16.5249 11.9823 16.0649L12.6629 14.0232C12.6676 14.0091 12.6723 13.9951 12.6769 13.9813C12.7925 13.6342 12.8708 13.3993 12.9778 13.1748C13.1036 12.9108 13.2578 12.6613 13.4377 12.4307C13.5906 12.2346 13.7657 12.0596 14.0244 11.8009C14.0347 11.7906 14.0451 11.7802 14.0557 11.7696L18.7798 7.04556ZM21.5604 8.10622C21.0854 7.63126 20.3154 7.63126 19.8404 8.10622L19.6586 8.288C19.6685 8.32149 19.6798 8.3571 19.6928 8.39452C19.7869 8.66565 19.9654 9.02427 20.3039 9.36276C20.6424 9.70125 21.001 9.87975 21.2721 9.97382C21.3095 9.9868 21.3451 9.99812 21.3786 10.008L21.5604 9.8262C22.0354 9.35124 22.0354 8.58118 21.5604 8.10622ZM20.2331 11.1536C19.9152 10.9866 19.5719 10.7521 19.2432 10.4234C18.9145 10.0947 18.6801 9.75146 18.5131 9.43357L15.1164 12.8303C14.8153 13.1314 14.7097 13.2388 14.6205 13.3532C14.5076 13.4979 14.4108 13.6545 14.3318 13.8202C14.2694 13.9511 14.2206 14.0936 14.0859 14.4976L13.6856 15.6985L13.9682 15.981L15.169 15.5807C15.573 15.4461 15.7155 15.3972 15.8465 15.3348C16.0121 15.2558 16.1687 15.159 16.3134 15.0462C16.4278 14.957 16.5353 14.8513 16.8363 14.5503L20.2331 11.1536ZM7.91663 9C7.91663 8.58579 8.25241 8.25 8.66663 8.25H15.1666C15.5808 8.25 15.9166 8.58579 15.9166 9C15.9166 9.41421 15.5808 9.75 15.1666 9.75H8.66663C8.25241 9.75 7.91663 9.41421 7.91663 9ZM7.91663 13C7.91663 12.5858 8.25241 12.25 8.66663 12.25H11.1666C11.5808 12.25 11.9166 12.5858 11.9166 13C11.9166 13.4142 11.5808 13.75 11.1666 13.75H8.66663C8.25241 13.75 7.91663 13.4142 7.91663 13ZM7.91663 17C7.91663 16.5858 8.25241 16.25 8.66663 16.25H10.1666C10.5808 16.25 10.9166 16.5858 10.9166 17C10.9166 17.4142 10.5808 17.75 10.1666 17.75H8.66663C8.25241 17.75 7.91663 17.4142 7.91663 17Z" fill="#EAFAFA"/>
</svg>
