<svg width="16" height="16" viewBox="0 0 16 16" fill="none" xmlns="http://www.w3.org/2000/svg">
<path d="M13.7061 5.37891C12.9958 5.37887 12.2062 5.38013 11.626 5.37402H11.6201C10.8765 5.37385 10.2872 4.77772 10.2871 4.09375V1.93359C11.2379 2.88565 12.7612 4.42684 13.7061 5.37891Z" fill="#405950" stroke="#405950"/>
<path d="M5.37988 1.83301H8.20703C8.29754 1.83303 8.37402 1.90949 8.37402 2V3.92676C8.37425 5.78268 9.88427 7.29292 11.7402 7.29297H13.667C13.7575 7.29297 13.834 7.36944 13.834 7.45996V10.9531C13.834 12.0204 13.4646 12.8116 12.9043 13.3379C12.339 13.8686 11.5395 14.166 10.6201 14.166H5.37988C4.46052 14.1659 3.66091 13.8687 3.0957 13.3379C2.5354 12.8116 2.16702 12.0204 2.16699 10.9531V5.0459C2.16709 3.97902 2.53564 3.18832 3.0957 2.66211C3.66091 2.13127 4.46052 1.8331 5.37988 1.83301ZM5 10.333C4.45067 10.3332 4 10.7836 4 11.333C4 11.8824 4.45067 12.3328 5 12.333H7.66699C8.21647 12.333 8.66699 11.8825 8.66699 11.333C8.66699 10.7835 8.21647 10.333 7.66699 10.333H5ZM5 7.66602C4.45078 7.66619 4.00018 8.1168 4 8.66602C4 9.21538 4.45067 9.66584 5 9.66602H9C9.54948 9.66602 10 9.21549 10 8.66602C9.99982 8.11669 9.54937 7.66602 9 7.66602H5Z" fill="#405950" stroke="#405950"/>
</svg>
