<svg width="32" height="32" viewBox="0 0 32 32" fill="none" xmlns="http://www.w3.org/2000/svg">
<path d="M24.48 30.3334H7.45332C5.42665 30.3334 3.57332 29.3067 2.50665 27.5734C1.43998 25.8401 1.34665 23.7334 2.25332 21.9067L4.54665 17.3067C5.29332 15.8134 6.49332 14.8801 7.83998 14.7334C9.18665 14.5867 10.56 15.2534 11.6 16.5467L11.8933 16.9201C12.48 17.6401 13.16 18.0267 13.8267 17.9601C14.4933 17.9067 15.1067 17.4267 15.56 16.6134L18.08 12.0667C19.12 10.1867 20.5067 9.2134 22.0133 9.28007C23.5067 9.36006 24.7866 10.4801 25.64 12.4534L29.8133 22.2001C30.5867 24.0001 30.4 26.0534 29.32 27.6934C28.2533 29.3601 26.44 30.3334 24.48 30.3334ZM8.21332 16.7334C8.15998 16.7334 8.10665 16.7334 8.05332 16.7467C7.38665 16.8134 6.77332 17.3467 6.33332 18.2134L4.03998 22.8134C3.43998 24.0001 3.50665 25.4001 4.19998 26.5334C4.89332 27.6667 6.11998 28.3467 7.45332 28.3467H24.4667C25.7733 28.3467 26.9333 27.7201 27.6533 26.6267C28.3733 25.5334 28.4933 24.2267 27.9733 23.0267L23.8 13.2801C23.2933 12.0801 22.5867 11.3467 21.9067 11.3201C21.28 11.2801 20.4667 11.9467 19.8267 13.0801L17.3067 17.6267C16.5333 19.0134 15.32 19.8801 14 20.0001C12.68 20.1067 11.3333 19.4667 10.3333 18.2134L10.04 17.8401C9.47998 17.1067 8.83998 16.7334 8.21332 16.7334Z" fill="#1B706F"/>
<path d="M9.29333 11.6665C6.54667 11.6665 4.29333 9.4265 4.29333 6.6665C4.29333 3.9065 6.53333 1.6665 9.29333 1.6665C12.0533 1.6665 14.2933 3.9065 14.2933 6.6665C14.2933 9.4265 12.0533 11.6665 9.29333 11.6665ZM9.29333 3.6665C7.64 3.6665 6.29333 5.01317 6.29333 6.6665C6.29333 8.31984 7.64 9.6665 9.29333 9.6665C10.9467 9.6665 12.2933 8.31984 12.2933 6.6665C12.2933 5.01317 10.9467 3.6665 9.29333 3.6665Z" fill="#1B706F"/>
</svg>
