<svg width="20" height="20" viewBox="0 0 20 20" fill="none" xmlns="http://www.w3.org/2000/svg">
<path d="M9.99992 18.9663C9.09159 18.9663 8.1916 18.6997 7.48327 18.1747L3.89992 15.4997C2.94992 14.7913 2.20825 13.3163 2.20825 12.133V5.94134C2.20825 4.65801 3.14993 3.29134 4.35827 2.84134L8.51659 1.28301C9.34159 0.974674 10.6416 0.974674 11.4666 1.28301L15.6333 2.84134C16.8416 3.29134 17.7833 4.65801 17.7833 5.94134V12.133C17.7833 13.3163 17.0416 14.7913 16.0916 15.4997L12.5083 18.1747C11.8083 18.6997 10.9083 18.9663 9.99992 18.9663ZM8.95826 2.44967L4.79993 4.008C4.08327 4.27467 3.45825 5.17467 3.45825 5.94134V12.133C3.45825 12.9247 4.0166 14.033 4.6416 14.4997L8.22492 17.1747C9.18325 17.8913 10.8083 17.8913 11.7666 17.1747L15.3499 14.4997C15.9833 14.0247 16.5333 12.9163 16.5333 12.133V5.94134C16.5333 5.18301 15.9083 4.283 15.1916 4.008L11.0332 2.44967C10.4832 2.24134 9.51659 2.24134 8.95826 2.44967Z" fill="#1A1A1A"/>
<path d="M9.99984 9.72481C9.98318 9.72481 9.9665 9.72481 9.9415 9.72481C8.73317 9.69148 7.84985 8.76648 7.84985 7.64148C7.84985 6.49148 8.7915 5.5498 9.9415 5.5498C11.0915 5.5498 12.0332 6.49148 12.0332 7.64148C12.0248 8.77481 11.1415 9.69146 10.0165 9.73313C10.0082 9.7248 10.0082 9.72481 9.99984 9.72481ZM9.9415 6.7998C9.47484 6.7998 9.09985 7.17481 9.09985 7.64148C9.09985 8.09981 9.45819 8.46646 9.90819 8.48313C9.90819 8.48313 9.94984 8.48313 9.99984 8.48313C10.4415 8.45813 10.7832 8.09148 10.7832 7.64148C10.7915 7.17481 10.4082 6.7998 9.9415 6.7998Z" fill="#1A1A1A"/>
<path d="M9.99977 14.4585C9.2831 14.4585 8.5581 14.2668 7.99977 13.8918C7.44144 13.5251 7.12476 12.9835 7.12476 12.4085C7.12476 11.8335 7.44144 11.2918 7.99977 10.9168C9.12477 10.1668 10.8831 10.1751 11.9998 10.9168C12.5581 11.2835 12.8748 11.8251 12.8748 12.4001C12.8748 12.9751 12.5581 13.5168 11.9998 13.8918C11.4414 14.2668 10.7164 14.4585 9.99977 14.4585ZM8.69143 11.9501C8.48309 12.0835 8.36642 12.2501 8.37476 12.4001C8.37476 12.5501 8.49143 12.7168 8.69143 12.8501C9.39143 13.3168 10.6081 13.3168 11.3081 12.8501C11.5164 12.7168 11.6331 12.5501 11.6331 12.4001C11.6331 12.2501 11.5164 12.0835 11.3164 11.9501C10.6164 11.4918 9.39143 11.4918 8.69143 11.9501Z" fill="#1A1A1A"/>
</svg>
