<svg width="16" height="16" viewBox="0 0 16 16" fill="none" xmlns="http://www.w3.org/2000/svg">
<path fill-rule="evenodd" clip-rule="evenodd" d="M3.49992 9.66638C3.49992 9.39023 3.72378 9.16638 3.99992 9.16638H9.33325C9.60939 9.16638 9.83325 9.39023 9.83325 9.66638C9.83325 9.94252 9.60939 10.1664 9.33325 10.1664H3.99992C3.72378 10.1664 3.49992 9.94252 3.49992 9.66638Z" fill="#CCCCCC"/>
<path fill-rule="evenodd" clip-rule="evenodd" d="M3.49992 11.9997C3.49992 11.7236 3.72378 11.4997 3.99992 11.4997H7.66659C7.94273 11.4997 8.16659 11.7236 8.16659 11.9997C8.16659 12.2759 7.94273 12.4997 7.66659 12.4997H3.99992C3.72378 12.4997 3.49992 12.2759 3.49992 11.9997Z" fill="#CCCCCC"/>
<path fill-rule="evenodd" clip-rule="evenodd" d="M8.16659 1.88915C7.85965 1.837 7.44123 1.83304 6.68645 1.83304C5.40866 1.83304 4.50042 1.83409 3.81182 1.92625C3.13723 2.01654 2.7496 2.18589 2.46785 2.46764C2.18571 2.74978 2.0166 3.13621 1.92642 3.80694C1.83431 4.49205 1.83325 5.39516 1.83325 6.66638V9.33304C1.83325 10.6043 1.83431 11.5074 1.92642 12.1925C2.0166 12.8632 2.18571 13.2496 2.46785 13.5318C2.74999 13.8139 3.13643 13.983 3.80715 14.0732C4.49226 14.1653 5.39537 14.1664 6.66659 14.1664H9.33325C10.6045 14.1664 11.5076 14.1653 12.1927 14.0732C12.8634 13.983 13.2498 13.8139 13.532 13.5318C13.8141 13.2496 13.9832 12.8632 14.0734 12.1925C14.1655 11.5074 14.1666 10.6043 14.1666 9.33304V9.04164C14.1666 8.01763 14.1594 7.5322 14.0507 7.16638H11.9641C11.2089 7.16639 10.5918 7.1664 10.1045 7.1009C9.59521 7.03242 9.15365 6.88424 8.80119 6.53177C8.44873 6.17931 8.30054 5.73775 8.23206 5.22845C8.16656 4.74121 8.16657 4.12406 8.16659 3.36883V1.88915ZM9.16659 2.40601V3.33304C9.16659 4.13285 9.16765 4.68241 9.22315 5.0952C9.27671 5.49362 9.3726 5.68897 9.5083 5.82467C9.64399 5.96036 9.83934 6.05625 10.2378 6.10981C10.6506 6.16531 11.2001 6.16638 11.9999 6.16638H13.3462C13.1486 5.97468 12.8954 5.74499 12.5666 5.44905L9.9274 3.07379C9.60381 2.78256 9.36298 2.56759 9.16659 2.40601ZM6.78356 0.833024C7.70662 0.832778 8.30299 0.832618 8.85187 1.04324C9.40074 1.25387 9.84203 1.65124 10.5248 2.26604C10.5483 2.28727 10.5722 2.30875 10.5964 2.33049L13.2355 4.70576C13.2636 4.73104 13.2914 4.75601 13.3188 4.78067C14.1079 5.49043 14.6182 5.9494 14.8927 6.56569C15.1671 7.18197 15.1669 7.86828 15.1666 8.92962C15.1666 8.96651 15.1666 9.00384 15.1666 9.04164V9.37065C15.1666 10.5958 15.1666 11.5662 15.0645 12.3257C14.9594 13.1073 14.738 13.74 14.2391 14.2389C13.7402 14.7378 13.1075 14.9592 12.3259 15.0643C11.5665 15.1664 10.596 15.1664 9.37086 15.1664H6.62898C5.4038 15.1664 4.43338 15.1664 3.6739 15.0643C2.89229 14.9592 2.25966 14.7378 1.76075 14.2389C1.26184 13.74 1.04043 13.1073 0.935342 12.3257C0.833233 11.5662 0.833242 10.5958 0.833252 9.37065V6.62876C0.833242 5.40359 0.833233 4.43317 0.935342 3.67369C1.04043 2.89208 1.26184 2.25945 1.76075 1.76054C2.26005 1.26124 2.8948 1.04007 3.67917 0.935091C4.4418 0.833023 5.41705 0.833031 6.64893 0.833041L6.68645 0.833042C6.71922 0.833042 6.75158 0.833033 6.78356 0.833024Z" fill="#CCCCCC"/>
</svg>
