<svg width="15" height="16" viewBox="0 0 15 16" fill="none" xmlns="http://www.w3.org/2000/svg">
<path fill-rule="evenodd" clip-rule="evenodd" d="M7.50002 1.93333C7.42073 2.051 7.32303 2.22445 7.17759 2.48536L7.09021 2.64212C7.08372 2.65376 7.07703 2.66592 7.0701 2.67852C6.99771 2.81005 6.89938 2.98873 6.737 3.112C6.57162 3.23754 6.37219 3.28145 6.2296 3.31283C6.21606 3.31581 6.20304 3.31868 6.1906 3.32149L6.02091 3.35989C5.71079 3.43006 5.51753 3.47497 5.38766 3.52037C5.46796 3.64101 5.60274 3.80036 5.82138 4.05603L5.93707 4.1913C5.94558 4.20126 5.95445 4.21153 5.9636 4.22212C6.0621 4.33615 6.19314 4.48783 6.2537 4.68259C6.31364 4.87533 6.29335 5.07473 6.27784 5.22716C6.27639 5.24139 6.27498 5.25521 6.27369 5.26858L6.2562 5.44907C6.22495 5.7715 6.2057 5.98008 6.20625 6.12762C6.33439 6.0822 6.5099 6.00248 6.77775 5.87915L6.93664 5.80599C6.94833 5.80061 6.96057 5.79488 6.97332 5.78891C7.10522 5.72719 7.29233 5.63963 7.50002 5.63963C7.70772 5.63963 7.89483 5.72719 8.02672 5.78891C8.03948 5.79488 8.05172 5.80061 8.06341 5.80599L8.22229 5.87915C8.49014 6.00248 8.66565 6.0822 8.7938 6.12762C8.79435 5.98008 8.77509 5.7715 8.74385 5.44907L8.72636 5.26858C8.72506 5.25521 8.72366 5.24139 8.72221 5.22716C8.7067 5.07473 8.68641 4.87533 8.74635 4.68259C8.80691 4.48783 8.93795 4.33614 9.03645 4.22212C9.0456 4.21152 9.05447 4.20125 9.06298 4.1913L9.17866 4.05603C9.3973 3.80035 9.53209 3.64101 9.61239 3.52037C9.48252 3.47497 9.28926 3.43006 8.97914 3.35989L8.80945 3.32149C8.79701 3.31868 8.78399 3.31581 8.77045 3.31283C8.62786 3.28145 8.42842 3.23754 8.26305 3.112C8.10066 2.98873 8.00233 2.81005 7.92995 2.67852C7.92302 2.66592 7.91633 2.65376 7.90984 2.64212L7.82245 2.48536C7.67701 2.22445 7.57932 2.051 7.50002 1.93333ZM8.93531 6.16647C8.93606 6.16649 8.93646 6.16653 8.93647 6.16654L8.93531 6.16647ZM6.06358 6.16654C6.06359 6.16653 6.06398 6.16649 6.06474 6.16647L6.06358 6.16654ZM6.75545 1.25623C6.89923 1.06848 7.13399 0.833008 7.50002 0.833008C7.86605 0.833008 8.10081 1.06848 8.24459 1.25623C8.38305 1.43703 8.52477 1.69135 8.6789 1.96794C8.68455 1.97808 8.69022 1.98826 8.69591 1.99846L8.78329 2.15522C8.80783 2.19923 8.82681 2.23325 8.84366 2.26242C8.85498 2.28202 8.86386 2.29683 8.87101 2.30825C8.88222 2.31135 8.89641 2.31502 8.9146 2.31945C8.94593 2.32708 8.98239 2.33535 9.03013 2.34615L9.19982 2.38454C9.21139 2.38716 9.22294 2.38977 9.23445 2.39237C9.53239 2.45973 9.81047 2.5226 10.0205 2.60536C10.248 2.69502 10.5229 2.85663 10.6288 3.19726C10.7331 3.53245 10.6047 3.82182 10.4751 4.02774C10.3533 4.22121 10.1653 4.441 9.96106 4.67976L9.82298 4.84123C9.79048 4.87923 9.76544 4.90852 9.74417 4.9342C9.72673 4.95526 9.71467 4.97047 9.70604 4.98194C9.70717 5.01908 9.71193 5.07136 9.7217 5.17213L9.74248 5.38657C9.77348 5.70606 9.80177 5.99767 9.79154 6.22734C9.78091 6.46596 9.72462 6.78532 9.44097 7.00065C9.14917 7.22217 8.82314 7.17897 8.59189 7.11271C8.37546 7.05069 8.11543 6.93091 7.83661 6.80248C7.82579 6.7975 7.81494 6.7925 7.80406 6.78749L7.64518 6.71433C7.60049 6.69376 7.5663 6.67803 7.53659 6.66493C7.52196 6.65848 7.50996 6.65336 7.50002 6.64926C7.49009 6.65336 7.47809 6.65848 7.46346 6.66493C7.43375 6.67803 7.39955 6.69376 7.35487 6.71433L7.19598 6.78749C7.18511 6.7925 7.17426 6.7975 7.16344 6.80248C6.88462 6.93091 6.62458 7.05069 6.40816 7.11271C6.17691 7.17897 5.85088 7.22217 5.55907 7.00065C5.27543 6.78532 5.21913 6.46596 5.2085 6.22734C5.19827 5.99768 5.22657 5.70607 5.25757 5.38659C5.25866 5.3753 5.25976 5.36398 5.26086 5.35262L5.27835 5.17213C5.28812 5.07136 5.29288 5.01908 5.294 4.98194C5.28538 4.97047 5.27332 4.95526 5.25588 4.9342C5.2346 4.90852 5.20956 4.87923 5.17707 4.84123L5.06138 4.70595C5.05389 4.69719 5.04642 4.68846 5.03897 4.67975C4.83474 4.44099 4.64673 4.2212 4.52494 4.02774C4.39531 3.82182 4.26699 3.53245 4.37122 3.19726C4.47715 2.85663 4.75206 2.69502 4.97959 2.60536C5.18958 2.5226 5.46766 2.45973 5.76559 2.39237C5.77711 2.38977 5.78865 2.38716 5.80023 2.38454L5.96992 2.34615C6.01766 2.33535 6.05411 2.32708 6.08545 2.31945C6.10364 2.31502 6.11782 2.31135 6.12903 2.30825C6.13618 2.29683 6.14506 2.28202 6.15639 2.26242C6.17324 2.23325 6.19222 2.19923 6.21675 2.15522L6.30414 1.99846C6.30982 1.98826 6.31549 1.97808 6.32115 1.96794C6.47528 1.69135 6.617 1.43703 6.75545 1.25623ZM2.16669 5.46742C2.20147 5.53163 2.27551 5.6627 2.39704 5.75496C2.52765 5.85411 2.68442 5.88712 2.74956 5.90084C2.75607 5.90221 2.76167 5.90339 2.76623 5.90442L2.77996 5.90753L2.75817 5.93301C2.75482 5.93692 2.75078 5.94152 2.74617 5.94678C2.70046 5.99886 2.59827 6.11529 2.55113 6.2669C2.50463 6.41643 2.52139 6.56956 2.52904 6.63953C2.52982 6.64666 2.53051 6.65293 2.53102 6.65824L2.53174 6.66566C2.46887 6.63557 2.32634 6.56965 2.16669 6.56965C2.00704 6.56965 1.86451 6.63557 1.80164 6.66566L1.80236 6.65824C1.80287 6.65293 1.80356 6.64666 1.80434 6.63953C1.81199 6.56956 1.82875 6.41643 1.78225 6.2669C1.73511 6.11529 1.63292 5.99886 1.58721 5.94677C1.5826 5.94152 1.57856 5.93692 1.57521 5.93301L1.55342 5.90753L1.56715 5.90442C1.57171 5.90339 1.57731 5.90221 1.58382 5.90084C1.64897 5.88712 1.80573 5.85411 1.93634 5.75496C2.05787 5.6627 2.13191 5.53163 2.16669 5.46742ZM1.45681 5.41675L1.36222 4.99868L1.45681 5.41675ZM1.77069 7.08791C1.77083 7.0889 1.77088 7.08942 1.77087 7.08943L1.77069 7.08791ZM2.56251 7.08943C2.5625 7.08942 2.56255 7.0889 2.56269 7.08791L2.56251 7.08943ZM1.59592 4.47596C1.6817 4.36394 1.86379 4.16634 2.16669 4.16634C2.46959 4.16634 2.65168 4.36395 2.73746 4.47596C2.81818 4.58136 2.89728 4.72342 2.97006 4.85412C2.97439 4.8619 2.97871 4.86965 2.983 4.87734L3.01543 4.93553L3.07176 4.94827C3.08034 4.95021 3.08899 4.95217 3.09771 4.95413C3.2383 4.98586 3.39499 5.02122 3.51857 5.06992C3.65923 5.12536 3.88339 5.24633 3.96981 5.52423C4.05454 5.79669 3.94441 6.02201 3.8658 6.14689C3.79479 6.25969 3.68964 6.38254 3.59307 6.49536C3.58735 6.50204 3.58166 6.50869 3.57601 6.51529L3.52737 6.57217L3.53511 6.65203C3.53594 6.66068 3.53679 6.66938 3.53764 6.67811C3.55235 6.82923 3.56814 6.99145 3.5622 7.12463C3.55589 7.26635 3.5209 7.52273 3.28833 7.69928C3.04759 7.88204 2.78548 7.83713 2.64376 7.79652C2.5164 7.76003 2.37004 7.69254 2.23853 7.6319C2.23035 7.62813 2.22222 7.62438 2.21415 7.62067L2.16669 7.59881L2.11923 7.62067C2.11116 7.62438 2.10303 7.62813 2.09485 7.6319C1.96334 7.69254 1.81698 7.76003 1.68962 7.79652C1.5479 7.83712 1.28579 7.88204 1.04505 7.69928C0.812477 7.52273 0.777491 7.26635 0.771178 7.12463C0.765245 6.99145 0.781032 6.82923 0.79574 6.67811C0.79659 6.66938 0.797436 6.66068 0.798274 6.65204L0.806013 6.57217L0.75737 6.51529C0.75172 6.50869 0.746031 6.50204 0.740313 6.49536C0.643742 6.38254 0.538588 6.25969 0.467581 6.14689C0.388967 6.02201 0.27884 5.79669 0.363566 5.52423C0.449987 5.24633 0.674149 5.12536 0.814811 5.06992C0.938391 5.02122 1.09508 4.98586 1.23567 4.95413C1.24439 4.95217 1.25304 4.95021 1.26162 4.94827L1.31795 4.93553L1.35038 4.87734C1.35467 4.86965 1.35898 4.8619 1.36332 4.85412C1.4361 4.72342 1.5152 4.58136 1.59592 4.47596ZM12.8334 5.46742C12.8681 5.53163 12.9422 5.6627 13.0637 5.75496C13.1943 5.85411 13.3511 5.88712 13.4162 5.90084C13.4227 5.90221 13.4283 5.90339 13.4329 5.90442L13.4466 5.90753L13.4248 5.93301C13.4215 5.93692 13.4174 5.94152 13.4128 5.94678C13.3671 5.99886 13.2649 6.11529 13.2178 6.2669C13.1713 6.41643 13.1881 6.56956 13.1957 6.63953C13.1965 6.64666 13.1972 6.65293 13.1977 6.65824L13.1984 6.66566C13.1355 6.63557 12.993 6.56965 12.8334 6.56965C12.6737 6.56965 12.5312 6.63557 12.4683 6.66566L12.469 6.65824C12.4695 6.65293 12.4702 6.64666 12.471 6.63953C12.4787 6.56956 12.4954 6.41643 12.4489 6.2669C12.4018 6.11529 12.2996 5.99886 12.2539 5.94677C12.2493 5.94152 12.2452 5.93692 12.2419 5.93301L12.2201 5.90753L12.2338 5.90442C12.2384 5.90339 12.244 5.90221 12.2505 5.90084C12.3156 5.88712 12.4724 5.85411 12.603 5.75496C12.7245 5.6627 12.7986 5.53163 12.8334 5.46742ZM12.4374 7.08791C12.4375 7.08898 12.4376 7.0895 12.4375 7.08943L12.4374 7.08791ZM12.2626 4.47596C12.3484 4.36395 12.5305 4.16634 12.8334 4.16634C13.1363 4.16634 13.3183 4.36395 13.4041 4.47596C13.4848 4.58136 13.5639 4.72341 13.6367 4.85411C13.6411 4.8619 13.6454 4.86964 13.6497 4.87734L13.6821 4.93553L13.7384 4.94827C13.747 4.95021 13.7557 4.95217 13.7644 4.95413C13.905 4.98586 14.0617 5.02122 14.1852 5.06992C14.3259 5.12536 14.5501 5.24633 14.6365 5.52423C14.7212 5.79669 14.6111 6.02201 14.5325 6.14689C14.4615 6.25969 14.3563 6.38254 14.2597 6.49537C14.254 6.50205 14.2483 6.50869 14.2427 6.51529L14.194 6.57217L14.2018 6.65204C14.2026 6.66068 14.2035 6.66938 14.2043 6.67811C14.219 6.82923 14.2348 6.99145 14.2289 7.12463C14.2226 7.26635 14.1876 7.52273 13.955 7.69928C13.7143 7.88204 13.4521 7.83713 13.3104 7.79652C13.1831 7.76003 13.0367 7.69255 12.9052 7.63191C12.897 7.62813 12.8889 7.62438 12.8808 7.62067L12.8334 7.59881L12.7859 7.62067C12.7778 7.62438 12.7697 7.62813 12.7615 7.6319C12.63 7.69254 12.4836 7.76003 12.3563 7.79652C12.2146 7.83712 11.9525 7.88204 11.7117 7.69928C11.4791 7.52273 11.4442 7.26635 11.4378 7.12463C11.4319 6.99145 11.4477 6.82923 11.4624 6.67811C11.4633 6.66938 11.4641 6.66068 11.4649 6.65204L11.4727 6.57217L11.424 6.51529C11.4184 6.50868 11.4127 6.50204 11.407 6.49535C11.3104 6.38253 11.2053 6.25969 11.1342 6.14689C11.0556 6.02201 10.9455 5.79669 11.0302 5.52423C11.1167 5.24633 11.3408 5.12536 11.4815 5.06992C11.6051 5.02122 11.7617 4.98586 11.9023 4.95413C11.9111 4.95217 11.9197 4.95021 11.9283 4.94827L11.9846 4.93553L12.017 4.87734C12.0213 4.86965 12.0257 4.8619 12.03 4.85412C12.1028 4.72342 12.1819 4.58136 12.2626 4.47596ZM13.2292 7.08943C13.2292 7.08938 13.2292 7.08886 13.2294 7.08791L13.2292 7.08943ZM5.2893 9.63178C6.53318 9.39079 7.86473 9.44488 8.94219 10.0875C9.09354 10.1778 9.23539 10.2902 9.35917 10.4293C9.60974 10.7107 9.73915 11.0605 9.74526 11.4113C9.87278 11.329 10.0005 11.2377 10.1303 11.1397L11.3351 10.2296C11.9381 9.77401 12.8145 9.77393 13.4177 10.2293C13.975 10.6501 14.1971 11.4053 13.7982 12.0448C13.5146 12.4993 13.0876 13.128 12.6531 13.5304C12.2138 13.9373 11.5886 14.2794 11.1157 14.5077C10.5414 14.7849 9.92107 14.9381 9.31788 15.0357C8.08509 15.2353 6.80231 15.2048 5.58335 14.9536C4.96041 14.8253 4.31305 14.7586 3.67331 14.7586H2.16669C1.89055 14.7586 1.66669 14.5347 1.66669 14.2586C1.66669 13.9825 1.89055 13.7586 2.16669 13.7586H3.67331C4.38138 13.7586 5.09634 13.8323 5.78513 13.9742C6.8865 14.2011 8.04675 14.2285 9.15809 14.0486C9.71071 13.9591 10.2267 13.8263 10.681 13.6071C11.1366 13.3872 11.6489 13.0975 11.9736 12.7968C12.3019 12.4927 12.6694 11.9649 12.9498 11.5155C13.0344 11.3799 13.0227 11.1841 12.8151 11.0274C12.5686 10.8413 12.1842 10.8413 11.9378 11.0275L10.733 11.9376C10.2521 12.3009 9.66009 12.6896 8.92583 12.8067C8.85174 12.8185 8.77458 12.8293 8.69451 12.8389C8.65632 12.8458 8.61657 12.8503 8.5755 12.8519C8.20063 12.8891 7.7665 12.8978 7.28753 12.8525C7.01261 12.8266 6.81079 12.5827 6.83675 12.3078C6.86271 12.0328 7.10662 11.831 7.38154 11.857C7.79983 11.8965 8.17511 11.8878 8.4935 11.8551C8.49996 11.8544 8.5064 11.8537 8.51281 11.853C8.52611 11.8453 8.54642 11.8312 8.57308 11.808C8.78606 11.6221 8.80507 11.3108 8.61228 11.0942C8.5634 11.0393 8.50323 10.9901 8.42994 10.9464C7.64251 10.4767 6.59085 10.3982 5.4795 10.6135C4.37448 10.8276 3.27663 11.3208 2.45593 11.9028C2.23068 12.0625 1.91858 12.0094 1.75884 11.7842C1.5991 11.5589 1.6522 11.2468 1.87745 11.0871C2.8097 10.426 4.03909 9.87399 5.2893 9.63178Z" fill="#1B706F"/>
</svg>
