<svg width="17" height="16" viewBox="0 0 17 16" fill="none" xmlns="http://www.w3.org/2000/svg">
<path d="M15.1431 7.17839L12.3306 9.60526L13.1875 13.2346C13.2347 13.4317 13.2226 13.6383 13.1525 13.8284C13.0824 14.0185 12.9575 14.1836 12.7937 14.3027C12.6298 14.4219 12.4343 14.4899 12.2319 14.498C12.0294 14.5061 11.8291 14.4541 11.6562 14.3484L8.49996 12.4059L5.34184 14.3484C5.16898 14.4534 4.9689 14.505 4.7668 14.4966C4.56469 14.4882 4.3696 14.4201 4.20609 14.301C4.04257 14.182 3.91795 14.0172 3.8479 13.8274C3.77786 13.6376 3.76553 13.4314 3.81246 13.2346L4.67246 9.60526L1.85996 7.17839C1.70702 7.04621 1.59641 6.8719 1.54195 6.67723C1.48749 6.48256 1.49158 6.27616 1.55372 6.08381C1.61586 5.89145 1.73329 5.72167 1.89135 5.59565C2.04941 5.46964 2.2411 5.39299 2.44246 5.37526L6.12996 5.07776L7.55246 1.63526C7.62946 1.44765 7.76051 1.28717 7.92894 1.17423C8.09738 1.06128 8.2956 1.00098 8.4984 1.00098C8.7012 1.00098 8.89942 1.06128 9.06785 1.17423C9.23629 1.28717 9.36734 1.44765 9.44434 1.63526L10.8662 5.07776L14.5537 5.37526C14.7555 5.39233 14.9477 5.46855 15.1064 5.59439C15.265 5.72023 15.383 5.89009 15.4455 6.08267C15.508 6.27526 15.5123 6.48202 15.4579 6.67704C15.4034 6.87207 15.2926 7.04668 15.1393 7.17901L15.1431 7.17839Z" fill="#FFA600"/>
</svg>
