<svg width="14" height="14" viewBox="0 0 14 14" fill="none" xmlns="http://www.w3.org/2000/svg">
<g clip-path="url(#clip0_4517_6944)">
<path d="M8.71261 12.4025C8.46278 12.8982 8.29764 13.436 8.23438 14.0001L13.5212 12.9945C13.771 12.499 13.9361 11.961 13.9994 11.397L8.71261 12.4025Z" fill="#FFD21F"/>
<path d="M13.5218 9.98193C13.7716 9.4864 13.9367 8.94841 14 8.38435L9.88172 9.16804V7.66151L13.5216 6.96941C13.7715 6.47388 13.9366 5.9359 13.9999 5.37183L9.8816 6.15486V0.736889C9.25056 1.05391 8.69013 1.4759 8.23456 1.97365V6.4682L6.58752 6.78143V0C5.95648 0.316908 5.39605 0.739006 4.94049 1.23677V7.09455L1.25524 7.79522C1.00541 8.29075 0.840144 8.82874 0.776754 9.3928L4.94049 8.60109V10.4983L0.478232 11.3467C0.228406 11.8423 0.0632661 12.3802 0 12.9443L4.67073 12.0562C5.05095 11.9854 5.37775 11.7843 5.59021 11.5075L6.4468 10.3713V10.371C6.53572 10.2535 6.58752 10.1117 6.58752 9.95909V8.28786L8.23456 7.97463V10.9877L13.5216 9.98171L13.5218 9.98193Z" fill="#FFD21F"/>
</g>
<defs>
<clipPath id="clip0_4517_6944">
<rect width="14" height="14" fill="white"/>
</clipPath>
</defs>
</svg>
