<svg width="20" height="20" viewBox="0 0 20 20" fill="none" xmlns="http://www.w3.org/2000/svg">
<path fill-rule="evenodd" clip-rule="evenodd" d="M11.5536 4.81931C11.2921 4.79228 10.9539 4.79151 10.4399 4.79151H9.99997C9.65479 4.79151 9.37497 4.51168 9.37497 4.16651C9.37497 3.82133 9.65479 3.54151 9.99997 3.54151L10.4706 3.5415C10.9456 3.54149 11.3488 3.54148 11.6821 3.57593C12.037 3.61262 12.3649 3.69229 12.6747 3.88376C12.9845 4.07524 13.2024 4.33293 13.3939 4.6339C13.5628 4.89928 13.7321 5.23342 13.9279 5.62484L14.8902 5.62484C15.1267 5.62482 15.3439 5.6248 15.5248 5.64106C15.7204 5.65863 15.9336 5.69898 16.1399 5.81683C16.3662 5.94608 16.5537 6.13361 16.683 6.35991C16.8008 6.56624 16.8412 6.77941 16.8588 6.97498C16.875 7.15595 16.875 7.37313 16.875 7.60965V7.63377L16.8751 7.68756C16.8756 7.90403 16.8761 8.1358 16.8058 8.35576C16.7588 8.5031 16.6886 8.64202 16.5978 8.7673C16.4624 8.95433 16.2755 9.09137 16.1009 9.21937L16.0576 9.25119L15.8263 9.42159L16.2322 10.2334C17.7697 10.4293 18.9583 11.7424 18.9583 13.3332C18.9583 15.0591 17.5592 16.4582 15.8333 16.4582C14.3215 16.4582 13.0604 15.3846 12.7708 13.9582H8.47913C8.18958 15.3846 6.92849 16.4582 5.41664 16.4582C3.90216 16.4582 2.63931 15.3808 2.35265 13.9507C1.65306 13.8799 1.10155 13.3184 1.04613 12.6143C1.04156 12.5561 1.0416 12.4932 1.04163 12.4325L1.04164 12.4165L1.04164 12.3848C1.04162 12.1056 1.04161 11.928 1.05384 11.7726C1.20661 9.83153 2.74833 8.28981 4.6894 8.13704C4.84481 8.12481 5.02235 8.12482 5.30155 8.12484L5.33331 8.12484L5.87663 8.12484C6.62537 8.12481 7.24972 8.12479 7.74537 8.19143C8.26853 8.26177 8.74087 8.41649 9.12043 8.79605C9.49998 9.17561 9.65471 9.64794 9.72505 10.1711C9.79168 10.6668 9.79166 11.2911 9.79164 12.0398L9.79164 12.7082H12.7708C12.9977 11.5906 13.8209 10.6896 14.8939 10.3518L12.8623 6.28863C12.6324 5.8289 12.4804 5.52667 12.3393 5.30494C12.206 5.09542 12.1105 5.00452 12.0176 4.94708C11.9246 4.88964 11.8006 4.84485 11.5536 4.81931ZM8.54164 12.7082V12.0832C8.54164 11.2798 8.54031 10.7402 8.48619 10.3377C8.43449 9.95311 8.34514 9.78853 8.23654 9.67993C8.12794 9.57134 7.96336 9.48199 7.57881 9.43028C7.17628 9.37617 6.63665 9.37484 5.83331 9.37484H5.33331C5.01188 9.37484 4.88739 9.37532 4.78748 9.38319C3.45938 9.48771 2.40451 10.5426 2.29999 11.8707C2.29212 11.9706 2.29164 12.0951 2.29164 12.4165C2.29164 12.4569 2.29165 12.4809 2.2919 12.4991C2.30023 12.6007 2.39912 12.6996 2.50073 12.7079L8.54164 12.7082ZM3.64833 13.9582C3.90573 14.6864 4.60025 15.2082 5.41664 15.2082C6.23303 15.2082 6.92755 14.6864 7.18495 13.9582H3.64833ZM13.9583 13.3332C13.9583 12.2976 14.7978 11.4582 15.8333 11.4582C16.8688 11.4582 17.7083 12.2976 17.7083 13.3332C17.7083 14.3687 16.8688 15.2082 15.8333 15.2082C14.7978 15.2082 13.9583 14.3687 13.9583 13.3332ZM15.259 8.28695L15.3162 8.2448C15.4314 8.1599 15.4962 8.11184 15.5431 8.07288C15.5719 8.04886 15.5827 8.03734 15.5854 8.03412C15.5984 8.01625 15.6084 7.99643 15.6151 7.97542C15.6134 7.98063 15.618 7.97185 15.6211 7.91841C15.6247 7.8576 15.625 7.77692 15.625 7.63377C15.625 7.36511 15.6244 7.20502 15.6138 7.08683C15.6073 7.0154 15.599 6.98559 15.5961 6.97742C15.5782 6.94699 15.5528 6.92161 15.5224 6.90367C15.5142 6.90085 15.4844 6.89246 15.413 6.88604C15.2948 6.87543 15.1347 6.87484 14.866 6.87484H14.5529L15.259 8.28695Z" fill="#7A4900"/>
</svg>
