<svg width="14" height="14" viewBox="0 0 14 14" fill="none" xmlns="http://www.w3.org/2000/svg">
<g clip-path="url(#clip0_518_69623)">
<path fill-rule="evenodd" clip-rule="evenodd" d="M6.70832 1.604C3.88937 1.604 1.60416 3.88922 1.60416 6.70817C1.60416 9.52712 3.88937 11.8123 6.70832 11.8123C9.52728 11.8123 11.8125 9.52712 11.8125 6.70817C11.8125 3.88922 9.52728 1.604 6.70832 1.604ZM0.729156 6.70817C0.729156 3.40597 3.40612 0.729004 6.70832 0.729004C10.0105 0.729004 12.6875 3.40597 12.6875 6.70817C12.6875 8.2018 12.1398 9.56752 11.2343 10.6155L13.1427 12.5238C13.3135 12.6947 13.3135 12.9717 13.1427 13.1425C12.9718 13.3134 12.6948 13.3134 12.524 13.1425L10.6156 11.2342C9.56767 12.1397 8.20196 12.6873 6.70832 12.6873C3.40612 12.6873 0.729156 10.0104 0.729156 6.70817Z" fill="#CCCCCC"/>
</g>
<defs>
<clipPath id="clip0_518_69623">
<rect width="14" height="14" fill="white"/>
</clipPath>
</defs>
</svg>
