<svg width="14" height="16" viewBox="0 0 14 16" fill="none" xmlns="http://www.w3.org/2000/svg">
<path fill-rule="evenodd" clip-rule="evenodd" d="M7.00002 5.49967C5.61931 5.49967 4.50002 6.61896 4.50002 7.99967C4.50002 9.38039 5.61931 10.4997 7.00002 10.4997C8.38073 10.4997 9.50002 9.38039 9.50002 7.99967C9.50002 6.61896 8.38073 5.49967 7.00002 5.49967ZM5.50002 7.99967C5.50002 7.17125 6.1716 6.49967 7.00002 6.49967C7.82845 6.49967 8.50002 7.17125 8.50002 7.99967C8.50002 8.8281 7.82845 9.49967 7.00002 9.49967C6.1716 9.49967 5.50002 8.8281 5.50002 7.99967Z" fill="#CCCCCC"/>
<path fill-rule="evenodd" clip-rule="evenodd" d="M6.98318 0.833008C6.68687 0.833003 6.43951 0.832999 6.23644 0.846855C6.02504 0.861278 5.82535 0.892374 5.63176 0.972562C5.18254 1.15863 4.82564 1.51554 4.63957 1.96476C4.5427 2.19862 4.51647 2.44509 4.50645 2.71298C4.49839 2.92834 4.38971 3.10801 4.22932 3.20061C4.06893 3.29321 3.85899 3.29749 3.66846 3.19679C3.43144 3.07152 3.20488 2.971 2.95391 2.93796C2.47184 2.8745 1.9843 3.00513 1.59855 3.30113C1.43231 3.42869 1.30554 3.58608 1.18734 3.76194C1.07381 3.93088 0.950131 4.1451 0.801981 4.40172L0.785144 4.43088C0.636987 4.68749 0.513305 4.9017 0.423768 5.0845C0.330559 5.27479 0.257646 5.46326 0.230295 5.67102C0.16683 6.15309 0.297465 6.64062 0.593463 7.02637C0.747542 7.22717 0.947839 7.37311 1.1748 7.51572C1.35732 7.6304 1.45861 7.81442 1.4586 7.99966C1.45859 8.18489 1.3573 8.36887 1.1748 8.48354C0.947814 8.62616 0.747491 8.77211 0.593398 8.97293C0.2974 9.35868 0.166764 9.84622 0.23023 10.3283C0.257581 10.536 0.330494 10.7245 0.423702 10.9148C0.513239 11.0976 0.636919 11.3118 0.785073 11.5684L0.801914 11.5976C0.950065 11.8542 1.07374 12.0684 1.18728 12.2374C1.30547 12.4132 1.43224 12.5706 1.59848 12.6982C1.98424 12.9942 2.47177 13.1248 2.95384 13.0613C3.2048 13.0283 3.43135 12.9278 3.66836 12.8025C3.85891 12.7018 4.06888 12.7061 4.22929 12.7987C4.3897 12.8913 4.49839 13.071 4.50645 13.2864C4.51647 13.5543 4.5427 13.8007 4.63957 14.0346C4.82564 14.4838 5.18254 14.8407 5.63176 15.0268C5.82535 15.107 6.02504 15.1381 6.23644 15.1525C6.43951 15.1663 6.68687 15.1663 6.98318 15.1663H7.01685C7.31316 15.1663 7.56052 15.1663 7.76359 15.1525C7.97499 15.1381 8.17467 15.107 8.36827 15.0268C8.81748 14.8407 9.17439 14.4838 9.36046 14.0346C9.45733 13.8007 9.48357 13.5542 9.49358 13.2863C9.50164 13.071 9.61031 12.8913 9.7707 12.7987C9.9311 12.7061 10.1411 12.7018 10.3316 12.8025C10.5686 12.9278 10.7952 13.0283 11.0461 13.0613C11.5282 13.1248 12.0157 12.9941 12.4015 12.6981C12.5677 12.5706 12.6945 12.4132 12.8127 12.2373C12.9262 12.0684 13.0499 11.8542 13.198 11.5976L13.2149 11.5684C13.363 11.3118 13.4867 11.0975 13.5763 10.9148C13.6695 10.7245 13.7424 10.536 13.7697 10.3282C13.8332 9.84617 13.7026 9.35863 13.4066 8.97288C13.2525 8.77207 13.0522 8.62613 12.8252 8.48351C12.6427 8.36884 12.5414 8.18486 12.5414 7.99964C12.5414 7.81444 12.6427 7.63048 12.8252 7.51584C13.0522 7.37321 13.2525 7.22725 13.4066 7.02642C13.7026 6.64067 13.8333 6.15313 13.7698 5.67106C13.7424 5.46331 13.6695 5.27483 13.5763 5.08454C13.4868 4.90176 13.3631 4.68756 13.215 4.43098L13.1981 4.40179C13.05 4.14518 12.9263 3.93093 12.8128 3.76199C12.6946 3.58612 12.5678 3.42874 12.4015 3.30118C12.0158 3.00518 11.5283 2.87454 11.0462 2.93801C10.7952 2.97105 10.5687 3.07155 10.3317 3.19682C10.1411 3.29753 9.93115 3.29325 9.77074 3.20064C9.61033 3.10802 9.50164 2.92832 9.49358 2.71295C9.48356 2.44506 9.45733 2.19861 9.36046 1.96476C9.17439 1.51554 8.81749 1.15863 8.36827 0.972562C8.17467 0.892374 7.97499 0.861278 7.76359 0.846855C7.56052 0.832999 7.31316 0.833003 7.01685 0.833008H6.98318ZM6.01445 1.89644C6.06588 1.87514 6.14402 1.85548 6.30451 1.84454C6.46949 1.83328 6.68255 1.83301 7.00001 1.83301C7.31748 1.83301 7.53054 1.83328 7.69552 1.84454C7.856 1.85548 7.93415 1.87514 7.98558 1.89644C8.18977 1.98102 8.352 2.14325 8.43658 2.34744C8.46326 2.41185 8.48538 2.51226 8.49428 2.75032C8.51404 3.27857 8.7867 3.7872 9.27074 4.06666C9.75478 4.34613 10.3316 4.32794 10.799 4.08093C11.0096 3.96961 11.1076 3.93855 11.1767 3.92945C11.3958 3.90061 11.6174 3.95999 11.7928 4.09453C11.837 4.12842 11.893 4.18627 11.9828 4.31978C12.075 4.45703 12.1818 4.64141 12.3405 4.91634C12.4992 5.19128 12.6055 5.37593 12.6783 5.52443C12.749 5.66889 12.7711 5.74639 12.7784 5.80159C12.8072 6.02071 12.7478 6.24232 12.6133 6.41766C12.5708 6.47297 12.4949 6.54234 12.2932 6.6691C11.8456 6.95031 11.5415 7.44071 11.5414 7.99959C11.5414 8.55853 11.8456 9.049 12.2932 9.33024C12.4949 9.45698 12.5708 9.52633 12.6132 9.58165C12.7478 9.75699 12.8071 9.97859 12.7783 10.1977C12.771 10.2529 12.749 10.3304 12.6782 10.4749C12.6055 10.6234 12.4992 10.808 12.3404 11.083C12.1817 11.3579 12.0749 11.5423 11.9827 11.6795C11.893 11.813 11.8369 11.8709 11.7927 11.9048C11.6174 12.0393 11.3958 12.0987 11.1766 12.0698C11.1075 12.0608 11.0095 12.0297 10.7989 11.9184C10.3315 11.6714 9.75469 11.6532 9.27065 11.9327C8.78666 12.2122 8.51403 12.7208 8.49428 13.249C8.48538 13.4871 8.46326 13.5875 8.43658 13.6519C8.352 13.8561 8.18977 14.0183 7.98558 14.1029C7.93415 14.1242 7.856 14.1439 7.69552 14.1548C7.53054 14.1661 7.31748 14.1663 7.00001 14.1663C6.68255 14.1663 6.46949 14.1661 6.30451 14.1548C6.14402 14.1439 6.06588 14.1242 6.01445 14.1029C5.81025 14.0183 5.64803 13.8561 5.56345 13.6519C5.53677 13.5875 5.51465 13.4871 5.50575 13.249C5.48599 12.7208 5.21333 12.2121 4.72929 11.9327C4.24524 11.6532 3.66843 11.6714 3.20107 11.9184C2.99045 12.0297 2.89244 12.0608 2.82332 12.0699C2.6042 12.0987 2.38259 12.0394 2.20724 11.9048C2.16308 11.8709 2.10699 11.8131 2.01726 11.6796C1.92502 11.5423 1.81826 11.3579 1.65952 11.083C1.50079 10.8081 1.39449 10.6234 1.32175 10.4749C1.251 10.3305 1.22894 10.253 1.22168 10.1978C1.19283 9.97864 1.25221 9.75703 1.38675 9.58169C1.42919 9.52638 1.50509 9.45702 1.70682 9.33027C2.15441 9.04904 2.45857 8.55863 2.4586 7.99972C2.45863 7.44074 2.15446 6.95026 1.70683 6.66899C1.50514 6.54227 1.42925 6.47292 1.38682 6.41761C1.25227 6.24227 1.19289 6.02066 1.22174 5.80154C1.22901 5.74634 1.25106 5.66884 1.32182 5.52438C1.39456 5.37588 1.50086 5.19123 1.65959 4.9163C1.81832 4.64136 1.92509 4.45698 2.01733 4.31973C2.10705 4.18623 2.16314 4.12838 2.20731 4.09448C2.38265 3.95994 2.60426 3.90056 2.82338 3.92941C2.89251 3.93851 2.99053 3.96956 3.20117 4.0809C3.66851 4.32791 4.2453 4.34609 4.72932 4.06664C5.21334 3.78719 5.48599 3.27859 5.50575 2.75035C5.51465 2.51227 5.53677 2.41185 5.56345 2.34744C5.64803 2.14325 5.81026 1.98102 6.01445 1.89644Z" fill="#CCCCCC"/>
</svg>
