<svg width="15" height="12" viewBox="0 0 15 12" fill="none" xmlns="http://www.w3.org/2000/svg">
<path fill-rule="evenodd" clip-rule="evenodd" d="M9.49256 0.659777C9.68046 0.457421 9.99682 0.445704 10.1992 0.633605L13.6767 3.86269C14.3079 4.44888 14.6666 5.27147 14.6666 6.13296C14.6666 7.04109 14.2682 7.9035 13.5767 8.49214L10.183 11.3807C9.97276 11.5597 9.6572 11.5344 9.47821 11.3241C9.29922 11.1138 9.32459 10.7982 9.53487 10.6193L12.9285 7.73064C13.3968 7.33201 13.6666 6.74797 13.6666 6.13296C13.6666 5.54954 13.4237 4.99247 12.9962 4.59548L9.51873 1.3664C9.31637 1.1785 9.30466 0.862132 9.49256 0.659777ZM8.2493 1.25635C8.25787 1.26396 8.26646 1.2716 8.27507 1.27925L10.951 3.65782C11.4503 4.10161 11.8642 4.4695 12.1483 4.80347C12.447 5.15448 12.6597 5.53237 12.6597 6C12.6597 6.46763 12.447 6.84553 12.1483 7.19653C11.8642 7.5305 11.4503 7.8984 10.951 8.34219L8.27507 10.7208C8.26646 10.7284 8.25787 10.736 8.2493 10.7437C8.03302 10.936 7.83116 11.1155 7.65677 11.2306C7.48552 11.3437 7.17411 11.5079 6.82526 11.3513C6.47642 11.1946 6.39229 10.8527 6.36302 10.6496C6.33322 10.4428 6.33326 10.1727 6.33331 9.88325C6.33331 9.87179 6.33331 9.86029 6.33331 9.84877V8.80308C5.36565 8.86977 4.38506 9.12678 3.52733 9.54472C2.5187 10.0362 1.71317 10.7331 1.27601 11.5658C1.16908 11.7694 0.936978 11.8739 0.713625 11.8188C0.490272 11.7637 0.333313 11.5634 0.333313 11.3333C0.333313 8.18603 1.25423 6.13671 2.57098 4.87683C3.71871 3.77867 5.11755 3.32805 6.33331 3.23374V2.15123C6.33331 2.13971 6.33331 2.12822 6.33331 2.11675C6.33326 1.82733 6.33322 1.55722 6.36302 1.35038C6.39229 1.14727 6.47642 0.805406 6.82527 0.64875C7.17411 0.492094 7.48552 0.656335 7.65677 0.769403C7.83116 0.884541 8.03302 1.06403 8.2493 1.25635ZM7.33536 1.78464C7.41074 1.84924 7.50074 1.92891 7.61071 2.02666L10.2589 4.38062C10.793 4.85534 11.1533 5.1772 11.3868 5.45154C11.611 5.71501 11.6597 5.86888 11.6597 6C11.6597 6.13113 11.611 6.285 11.3868 6.54846C11.1533 6.82281 10.793 7.14467 10.2589 7.61939L7.61071 9.97334C7.50074 10.0711 7.41074 10.1508 7.33536 10.2154C7.33356 10.1161 7.33331 9.99591 7.33331 9.84877V8.28572C7.33331 8.00957 7.10945 7.78572 6.83331 7.78572C5.55827 7.78572 4.23328 8.08834 3.0893 8.64576C2.47675 8.94423 1.90651 9.3207 1.4226 9.77119C1.66844 7.73988 2.39492 6.42929 3.26231 5.59937C4.34234 4.56598 5.70693 4.21429 6.83331 4.21429C7.10945 4.21429 7.33331 3.99043 7.33331 3.71429V2.15123C7.33331 2.0041 7.33356 1.8839 7.33536 1.78464Z" fill="#1B706F"/>
</svg>
