<svg width="20" height="20" viewBox="0 0 20 20" fill="none" xmlns="http://www.w3.org/2000/svg">
<path fill-rule="evenodd" clip-rule="evenodd" d="M6.08909 1.04201C5.42162 1.04179 4.96361 1.04163 4.55655 1.15323C3.70187 1.38753 2.98686 1.97369 2.5895 2.76582C2.40024 3.1431 2.31057 3.59224 2.17988 4.2468L1.66355 6.82857C1.47055 7.79359 1.735 8.72685 2.29155 9.42661L2.29155 11.714C2.29154 13.2455 2.29153 14.4585 2.41917 15.4079C2.55052 16.3849 2.82729 17.1757 3.45092 17.7993C4.07456 18.423 4.86535 18.6997 5.84237 18.8311C6.79171 18.9587 8.00474 18.9587 9.53621 18.9587H10.4636C11.995 18.9587 13.2081 18.9587 14.1574 18.8311C15.1344 18.6997 15.9252 18.423 16.5489 17.7993C17.1725 17.1757 17.4493 16.3849 17.5806 15.4079C17.7082 14.4585 17.7082 13.2455 17.7082 11.7141V9.42663C18.2648 8.72686 18.5292 7.7936 18.3362 6.82857L17.8199 4.24679C17.6892 3.59224 17.5996 3.1431 17.4103 2.76582C17.0129 1.97369 16.2979 1.38753 15.4432 1.15323C15.0362 1.04163 14.5782 1.04179 13.9107 1.04201H6.08909ZM15.2236 10.6254C15.6643 10.6254 16.0808 10.5367 16.4582 10.3773V11.667C16.4582 13.2561 16.4569 14.3849 16.3418 15.2413C16.229 16.0797 16.0176 16.5628 15.665 16.9154C15.3123 17.2681 14.8293 17.4795 13.9908 17.5922C13.6196 17.6421 13.1972 17.6707 12.7082 17.687V15.3902C12.7082 15.0237 12.7082 14.7076 12.6847 14.4482C12.6599 14.1738 12.6048 13.9022 12.457 13.6462C12.2925 13.3612 12.0558 13.1245 11.7707 12.9599C11.5147 12.8121 11.2431 12.757 10.9688 12.7322C10.7094 12.7087 10.3932 12.7087 10.0268 12.7087H9.97303C9.60655 12.7087 9.29042 12.7087 9.03101 12.7322C8.75669 12.757 8.48506 12.8121 8.22905 12.9599C7.94402 13.1245 7.70732 13.3612 7.54276 13.6462C7.39495 13.9022 7.3399 14.1738 7.31504 14.4482C7.29153 14.7076 7.29154 15.0237 7.29155 15.3902L7.29155 17.687C6.80261 17.6707 6.38017 17.6421 6.00893 17.5922C5.17052 17.4795 4.68748 17.2681 4.33481 16.9154C3.98213 16.5628 3.77074 16.0797 3.65802 15.2413C3.54288 14.3849 3.54155 13.256 3.54155 11.667V10.3773C3.91895 10.5366 4.33544 10.6254 4.77618 10.6254C5.83777 10.6254 6.78693 10.1017 7.36494 9.28853C7.95619 10.0953 8.91085 10.6254 9.99972 10.6254C11.0887 10.6254 12.0434 10.0952 12.6347 9.28829C13.2127 10.1016 14.1619 10.6254 15.2236 10.6254ZM8.54155 17.707C8.86521 17.7086 9.21164 17.7087 9.58322 17.7087H10.4166C10.7881 17.7087 11.1346 17.7086 11.4582 17.707V15.417C11.4582 15.0161 11.4576 14.7572 11.4398 14.561C11.4228 14.3734 11.3941 14.3053 11.3745 14.2712C11.3196 14.1762 11.2407 14.0973 11.1457 14.0424C11.1117 14.0228 11.0436 13.9941 10.8559 13.9771C10.6597 13.9593 10.4008 13.9587 9.99989 13.9587C9.59896 13.9587 9.34005 13.9593 9.14384 13.9771C8.95622 13.9941 8.88811 14.0228 8.85405 14.0424C8.75904 14.0973 8.68014 14.1762 8.62529 14.2712C8.60563 14.3053 8.57694 14.3734 8.55994 14.561C8.54215 14.7572 8.54155 15.0161 8.54155 15.417V17.707ZM7.22577 2.29203H6.18131C5.38594 2.29203 5.11046 2.2975 4.88703 2.35875C4.37422 2.49933 3.94522 2.85103 3.7068 3.32631C3.60291 3.53339 3.54353 3.80244 3.38754 4.58238L2.88928 7.07371C2.65113 8.26444 3.56188 9.37537 4.77618 9.37537C5.76477 9.37537 6.59253 8.62626 6.6909 7.64257L6.74806 7.071L6.75137 7.03598L7.22577 2.29203ZM7.9926 7.18787L8.48219 2.29203H11.5174L12.0043 7.16036C12.1229 8.3463 11.1916 9.37537 9.99972 9.37537C8.81709 9.37537 7.89101 8.36217 7.9926 7.18787ZM15.1128 2.35875C14.8893 2.2975 14.6139 2.29203 13.8185 2.29203H12.7738L13.3089 7.64257C13.4073 8.62626 14.235 9.37537 15.2236 9.37537C16.4379 9.37537 17.3487 8.26444 17.1105 7.07371L16.6122 4.58238C16.4563 3.80244 16.3969 3.53339 16.293 3.32631C16.0546 2.85103 15.6256 2.49933 15.1128 2.35875Z" fill="#1A1A1A"/>
</svg>
