<svg width="12" height="12" viewBox="0 0 12 12" fill="none" xmlns="http://www.w3.org/2000/svg">
<path d="M8.5 10.625H3.5C1.675 10.625 0.625 9.575 0.625 7.75V4.25C0.625 2.425 1.675 1.375 3.5 1.375H8.5C10.325 1.375 11.375 2.425 11.375 4.25V7.75C11.375 9.575 10.325 10.625 8.5 10.625ZM3.5 2.125C2.07 2.125 1.375 2.82 1.375 4.25V7.75C1.375 9.18 2.07 9.875 3.5 9.875H8.5C9.93 9.875 10.625 9.18 10.625 7.75V4.25C10.625 2.82 9.93 2.125 8.5 2.125H3.5Z" fill="#CCCCCC"/>
<path d="M5.99989 6.43498C5.57989 6.43498 5.15489 6.30499 4.82989 6.03999L3.26489 4.78999C3.10489 4.65999 3.07489 4.42498 3.20489 4.26498C3.33489 4.10498 3.56989 4.07499 3.72989 4.20499L5.29489 5.45499C5.67489 5.75999 6.31989 5.75999 6.69989 5.45499L8.26489 4.20499C8.42489 4.07499 8.66489 4.09998 8.78989 4.26498C8.91989 4.42498 8.89489 4.66499 8.72989 4.78999L7.16489 6.03999C6.84489 6.30499 6.41989 6.43498 5.99989 6.43498Z" fill="#CCCCCC"/>
</svg>
