<svg width="12" height="12" viewBox="0 0 12 12" fill="none" xmlns="http://www.w3.org/2000/svg">
<path d="M1.88896 1.82742C1.79844 2.00787 1.75392 2.23047 1.66488 2.67566L1.36592 4.17047C1.17662 5.11695 1.90055 6 2.86577 6C3.65159 6 4.30955 5.40455 4.38775 4.62263L4.42225 4.27757C4.34071 5.2019 5.06926 6 5.9999 6C6.93687 6 7.669 5.191 7.57577 4.25868L7.61226 4.62263C7.69045 5.40455 8.34842 6 9.13423 6C10.0995 6 10.8234 5.11695 10.6341 4.17047L10.3351 2.67566C10.2461 2.23047 10.2016 2.00786 10.1111 1.82742C9.92032 1.4472 9.57712 1.16584 9.16687 1.05337C8.97217 1 8.74517 1 8.29115 1H7.2499H3.70886C3.25484 1 3.02784 1 2.83314 1.05337C2.42289 1.16584 2.07969 1.4472 1.88896 1.82742Z" fill="#7A4900"/>
<path d="M9.13424 6.74986C9.54282 6.74986 9.92239 6.64369 10.25 6.45934V6.99986C10.25 8.88548 10.25 9.82829 9.66421 10.4141C9.19267 10.8856 8.48978 10.9776 7.25 10.9955V9.24988C7.25 8.78257 7.25 8.54892 7.14952 8.37488C7.08369 8.26086 6.98901 8.16619 6.875 8.10036C6.70096 7.99988 6.46731 7.99988 6 7.99988C5.53269 7.99988 5.29904 7.99988 5.125 8.10036C5.01099 8.16619 4.91631 8.26086 4.85048 8.37488C4.75 8.54892 4.75 8.78257 4.75 9.24988V10.9955C3.51022 10.9776 2.80733 10.8856 2.33579 10.4141C1.75 9.82829 1.75 8.88548 1.75 6.99986V6.45932C2.07762 6.64368 2.4572 6.74986 2.86579 6.74986C3.46432 6.74986 4.01308 6.51806 4.42217 6.13584C4.83584 6.51591 5.38824 6.74986 5.99991 6.74986C6.61161 6.74986 7.16406 6.51586 7.57775 6.13574C7.98685 6.51802 8.53566 6.74986 9.13424 6.74986Z" fill="#7A4900"/>
</svg>
