<svg width="11" height="11" viewBox="0 0 11 11" fill="none" xmlns="http://www.w3.org/2000/svg">
<path fill-rule="evenodd" clip-rule="evenodd" d="M2.69296 1.17702e-05C2.29248 -0.000122489 2.01767 -0.000214666 1.77343 0.0667411C1.26062 0.207321 0.83162 0.55902 0.593201 1.0343C0.479646 1.26066 0.425842 1.53015 0.347433 1.92288L0.0376324 3.47195C-0.0781705 4.05096 0.0805037 4.61091 0.414434 5.03077L0.414434 6.40323C0.414426 7.32211 0.41442 8.04993 0.491001 8.61954C0.569815 9.20575 0.735874 9.68022 1.11006 10.0544C1.48424 10.4286 1.95871 10.5946 2.54492 10.6735C3.11453 10.75 3.84235 10.75 4.76123 10.75H5.31764C6.23652 10.75 6.96434 10.75 7.53395 10.6735C8.12016 10.5946 8.59463 10.4286 8.96881 10.0544C9.343 9.68022 9.50905 9.20575 9.58787 8.61954C9.66445 8.04993 9.66444 7.32212 9.66444 6.40325V5.03078C9.99837 4.61092 10.1571 4.05097 10.0412 3.47195L9.73145 1.92288C9.65304 1.53015 9.59923 1.26066 9.48568 1.0343C9.24726 0.55902 8.81826 0.207321 8.30545 0.0667411C8.06121 -0.000214666 7.7864 -0.000122489 7.38592 1.17702e-05H2.69296ZM8.17367 5.75002C8.43811 5.75002 8.688 5.6968 8.91444 5.60121V6.37502C8.91444 7.32843 8.91364 8.00577 8.84456 8.5196C8.77692 9.02264 8.65009 9.31247 8.43848 9.52407C8.22688 9.73568 7.93706 9.86251 7.43401 9.93015C7.21127 9.96009 6.9578 9.97721 6.66444 9.98699V8.60891C6.66444 8.38902 6.66445 8.19935 6.65034 8.0437C6.63543 7.87911 6.6024 7.71613 6.51371 7.56252C6.41497 7.3915 6.27296 7.24949 6.10194 7.15075C5.94833 7.06206 5.78535 7.02903 5.62076 7.01412C5.46511 7.00001 5.27545 7.00002 5.05555 7.00002H5.02332C4.80343 7.00002 4.61375 7.00001 4.45811 7.01412C4.29352 7.02903 4.13054 7.06206 3.97693 7.15075C3.80591 7.24949 3.6639 7.3915 3.56516 7.56252C3.47647 7.71613 3.44344 7.87911 3.42853 8.0437C3.41442 8.19935 3.41443 8.38902 3.41443 8.60891L3.41443 9.98699C3.12107 9.97721 2.8676 9.96009 2.64486 9.93015C2.14181 9.86251 1.85199 9.73568 1.64039 9.52407C1.42878 9.31247 1.30195 9.02264 1.23431 8.5196C1.16523 8.00577 1.16443 7.32843 1.16443 6.37502V5.6012C1.39087 5.69679 1.64077 5.75002 1.90521 5.75002C2.54217 5.75002 3.11166 5.43583 3.45847 4.94793C3.81322 5.432 4.38601 5.75002 5.03933 5.75002C5.69272 5.75002 6.26557 5.43194 6.62031 4.94778C6.9671 5.43577 7.53665 5.75002 8.17367 5.75002ZM4.16443 9.99903C4.35863 9.99998 4.56648 10 4.78943 10H5.28943C5.51239 10 5.72024 9.99998 5.91444 9.99903V8.62502C5.91444 8.38447 5.91408 8.22913 5.90341 8.1114C5.8932 7.99883 5.87599 7.95796 5.86419 7.93752C5.83128 7.88052 5.78394 7.83318 5.72694 7.80026C5.7065 7.78847 5.66563 7.77126 5.55306 7.76105C5.43533 7.75038 5.27999 7.75002 5.03944 7.75002C4.79888 7.75002 4.64354 7.75038 4.52581 7.76105C4.41324 7.77126 4.37237 7.78847 4.35193 7.80026C4.29493 7.83318 4.24759 7.88052 4.21467 7.93752C4.20288 7.95796 4.18567 7.99882 4.17546 8.1114C4.16479 8.22913 4.16443 8.38447 4.16443 8.62502V9.99903ZM3.37496 0.750024H2.74829C2.27106 0.750024 2.10578 0.753303 1.97172 0.790054C1.66403 0.874402 1.40663 1.08542 1.26358 1.37059C1.20125 1.49484 1.16562 1.65627 1.07203 2.12423L0.773068 3.61903C0.630181 4.33347 1.17663 5.00002 1.90521 5.00002C2.49837 5.00002 2.99502 4.55056 3.05404 3.96034L3.08834 3.6174L3.09033 3.59639L3.37496 0.750024ZM3.83506 3.68753L4.12881 0.750024H5.94996L6.24206 3.67102C6.31322 4.38258 5.75444 5.00002 5.03933 5.00002C4.32976 5.00002 3.77411 4.3921 3.83506 3.68753ZM8.10716 0.790054C7.9731 0.753303 7.80782 0.750024 7.33059 0.750024H6.70381L7.02484 3.96034C7.08386 4.55056 7.58051 5.00002 8.17367 5.00002C8.90225 5.00002 9.4487 4.33347 9.30581 3.61903L9.00685 2.12423C8.91326 1.65627 8.87763 1.49484 8.8153 1.37059C8.67225 1.08542 8.41484 0.874402 8.10716 0.790054Z" fill="#666666"/>
</svg>
