<svg width="16" height="16" viewBox="0 0 16 16" fill="none" xmlns="http://www.w3.org/2000/svg">
<path fill-rule="evenodd" clip-rule="evenodd" d="M14.5585 7.41722L14.4057 9.04071C14.1539 11.7158 14.028 13.0533 13.2396 13.8598C12.4512 14.6663 11.2696 14.6663 8.90629 14.6663H7.09306C4.72978 14.6663 3.54815 14.6663 2.75974 13.8598C1.97133 13.0533 1.84544 11.7158 1.59368 9.04071L1.44088 7.41722C1.32087 6.14214 1.26087 5.5046 1.479 5.24106C1.59699 5.09849 1.75745 5.01114 1.929 4.99608C2.24613 4.96822 2.64439 5.42161 3.44092 6.32839C3.85285 6.79734 4.05882 7.03181 4.28859 7.06812C4.4159 7.08824 4.54562 7.06756 4.66318 7.0084C4.87535 6.90162 5.01681 6.61175 5.29972 6.03202L6.79096 2.97625C7.32557 1.88075 7.59288 1.33301 7.99967 1.33301C8.40647 1.33301 8.67378 1.88075 9.20838 2.97624L10.6996 6.03202C10.9825 6.61175 11.124 6.90162 11.3362 7.0084C11.4537 7.06756 11.5834 7.08824 11.7108 7.06812C11.9405 7.03181 12.1465 6.79734 12.5584 6.32839C13.355 5.42161 13.7532 4.96822 14.0703 4.99608C14.2419 5.01114 14.4024 5.09849 14.5203 5.24106C14.7385 5.5046 14.6785 6.14214 14.5585 7.41722ZM8.63458 8.46569L8.56904 8.34812C8.31571 7.89367 8.18905 7.66645 7.99967 7.66645C7.8103 7.66645 7.68364 7.89367 7.43031 8.34812L7.36477 8.46569C7.29278 8.59483 7.25679 8.6594 7.20066 8.70201C7.14454 8.74461 7.07465 8.76043 6.93485 8.79206L6.80758 8.82085C6.31565 8.93216 6.06968 8.98781 6.01116 9.17599C5.95264 9.36417 6.12032 9.56026 6.45569 9.95243L6.54246 10.0539C6.63776 10.1653 6.68541 10.2211 6.70685 10.29C6.72828 10.3589 6.72108 10.4333 6.70667 10.582L6.69355 10.7173C6.64285 11.2406 6.6175 11.5022 6.7707 11.6185C6.92391 11.7348 7.15421 11.6288 7.61481 11.4167L7.73397 11.3618C7.86486 11.3015 7.9303 11.2714 7.99967 11.2714C8.06905 11.2714 8.13449 11.3015 8.26538 11.3618L8.38454 11.4167C8.84514 11.6288 9.07544 11.7348 9.22864 11.6185C9.38185 11.5022 9.3565 11.2406 9.3058 10.7173L9.29268 10.582C9.27827 10.4333 9.27107 10.3589 9.2925 10.29C9.31394 10.2211 9.36159 10.1653 9.45689 10.0539L9.54366 9.95243C9.87903 9.56026 10.0467 9.36417 9.98819 9.17599C9.92967 8.98781 9.6837 8.93216 9.19177 8.82085L9.0645 8.79206C8.9247 8.76043 8.85481 8.74461 8.79869 8.70201C8.74256 8.6594 8.70657 8.59483 8.63458 8.46569Z" fill="#405950"/>
</svg>
