<svg width="81" height="80" viewBox="0 0 81 80" fill="none" xmlns="http://www.w3.org/2000/svg">
<g clip-path="url(#clip0_9496_20326)">
<path d="M44.9877 10.6201C46.5871 12.3579 49.0457 13.0166 51.2997 12.3113C54.7061 11.2454 58.296 13.318 59.0762 16.8009C59.5923 19.1056 61.3921 20.9054 63.6969 21.4217C67.1799 22.2017 69.2525 25.7918 68.1866 29.1982C67.4813 31.4522 68.14 33.9108 69.8778 35.5101C72.5042 37.9271 72.5042 42.0726 69.8778 44.4896C68.14 46.0889 67.4813 48.5475 68.1866 50.8015C69.2525 54.2079 67.1799 57.7979 63.6969 58.578C61.3923 59.0941 59.5924 60.8939 59.0762 63.1988C58.2962 66.6817 54.7061 68.7543 51.2997 67.6884C49.0457 66.9831 46.5871 67.6418 44.9877 69.3796C42.5707 72.006 38.4253 72.006 36.0083 69.3796C34.4089 67.6418 31.9504 66.9831 29.6963 67.6884C26.2899 68.7543 22.7 66.6817 21.9198 63.1988C21.4037 60.8941 19.6039 59.0943 17.2991 58.578C13.8162 57.798 11.7434 54.2079 12.8095 50.8015C13.5148 48.5475 12.856 46.0889 11.1182 44.4896C8.49184 42.0726 8.49184 37.9271 11.1182 35.5101C12.856 33.9108 13.5148 31.4522 12.8095 29.1982C11.7435 25.7918 13.8162 22.2018 17.2991 21.4217C19.6038 20.9056 21.4036 19.1058 21.9198 16.8009C22.6998 13.318 26.2899 11.2452 29.6963 12.3113C31.9504 13.0166 34.4089 12.3579 36.0083 10.6201C38.4253 7.99383 42.5707 7.99383 44.9877 10.6201Z" fill="#D88F5A"/>
<path d="M69.8769 35.5087C68.1391 33.9093 67.4802 31.4508 68.1856 29.1967C69.2515 25.7903 67.1789 22.2004 63.696 21.4202C61.3913 20.9041 59.5915 19.1043 59.0752 16.7995C58.3298 13.4714 55.0189 11.4331 51.7539 12.1883C53.9544 12.7009 55.7979 14.4208 56.3306 16.7995C56.8468 19.1042 58.6467 20.904 60.9513 21.4202C64.4343 22.2002 66.507 25.7903 65.441 29.1967C64.7357 31.4508 65.3944 33.9093 67.1322 35.5087C69.7586 37.9257 69.7586 42.0711 67.1322 44.4881C65.3944 46.0875 64.7357 48.5461 65.441 50.8001C66.5069 54.2065 64.4343 57.7964 60.9513 58.5766C58.6467 59.0927 56.8468 60.8925 56.3306 63.1973C55.7978 65.576 53.9542 67.296 51.7539 67.8085C55.0189 68.5637 58.3298 66.5254 59.0752 63.1973C59.5913 60.8927 61.3912 59.0928 63.696 58.5766C67.1789 57.7966 69.2517 54.2065 68.1856 50.8001C67.4803 48.5461 68.1391 46.0875 69.8769 44.4881C72.5031 42.0711 72.5031 37.9257 69.8769 35.5087Z" fill="#D88F5A"/>
<path d="M40.4977 64.4601C54.0068 64.4601 64.9582 53.5088 64.9582 39.9996C64.9582 26.4904 54.0068 15.5391 40.4977 15.5391C26.9885 15.5391 16.0371 26.4904 16.0371 39.9996C16.0371 53.5088 26.9885 64.4601 40.4977 64.4601Z" fill="#FFE8CF"/>
<path d="M40.4973 15.5391C39.878 15.5391 39.2641 15.5625 38.6562 15.6078C51.3055 16.5491 61.2759 27.1099 61.2759 39.9996C61.2759 52.8893 51.3057 63.4503 38.6564 64.3916C39.2642 64.4367 39.8781 64.4603 40.4975 64.4603C54.0067 64.4603 64.958 53.5088 64.958 39.9998C64.958 26.4907 54.0066 15.5391 40.4973 15.5391Z" fill="#FCD7AE"/>
<path d="M36.7459 41.2484L31.7488 36.2513C30.7886 35.2911 29.2319 35.2911 28.272 36.2513L25.0092 39.5141C24.049 40.4742 24.049 42.0309 25.0092 42.9909L33.3683 51.35C35.1008 53.0825 37.9095 53.0825 39.642 51.35L55.9879 35.0041C56.9481 34.044 56.9481 32.4873 55.9879 31.5273L52.9659 28.5053C52.0058 27.5451 50.4491 27.5451 49.4891 28.5053L36.7459 41.2484Z" fill="#D88F5A"/>
<path d="M55.9868 31.5273L52.9648 28.5053C52.0047 27.5451 50.448 27.5451 49.488 28.5053L48.7455 29.2478C49.4583 29.1724 50.1975 29.4068 50.7439 29.9531L52.3048 31.5273C53.265 32.4874 53.265 34.0441 52.3048 35.0041L37.4306 49.923C36.2489 51.1047 34.5664 51.4797 33.0664 51.0493L33.3673 51.3502C35.0998 53.0827 37.9085 53.0827 39.641 51.3502L55.987 35.0043C56.947 34.0441 56.947 32.4874 55.9868 31.5273Z" fill="#E1AB84"/>
<path d="M43.3985 14.5289C42.7552 14.4566 42.1752 14.9192 42.1029 15.5622C42.0305 16.2053 42.4932 16.7855 43.1363 16.8578C54.9099 18.1837 63.7883 28.1322 63.7883 39.999C63.7883 52.8404 53.341 63.2877 40.4996 63.2877C27.6582 63.2877 17.2109 52.8404 17.2109 39.999C17.2109 28.1477 26.0765 18.2006 37.8329 16.8613C38.4759 16.788 38.9379 16.2074 38.8646 15.5642C38.7913 14.9211 38.2113 14.4585 37.5676 14.5325C24.6263 16.007 14.8672 26.9551 14.8672 39.999C14.8672 54.1328 26.3658 65.6314 40.4996 65.6314C54.6334 65.6314 66.132 54.1328 66.132 39.999C66.132 26.9382 56.3587 15.9885 43.3985 14.5289Z" fill="#151E1B"/>
<path d="M69.3049 50.4517C68.7378 48.6395 69.2742 46.6378 70.6713 45.3519C72.1634 43.9786 73.0194 42.0279 73.0194 39.9999C73.0194 37.972 72.1634 36.0212 70.6714 34.6479C69.2743 33.3622 68.7378 31.3603 69.3049 29.5481C69.9105 27.6127 69.6763 25.4954 68.6624 23.7391C67.6485 21.9829 65.9318 20.7214 63.9529 20.2782C62.1001 19.8632 60.6346 18.3978 60.2196 16.545C59.7765 14.5661 58.515 12.8496 56.7587 11.8355C55.0025 10.8215 52.8852 10.5872 50.9497 11.193C49.1376 11.76 47.1359 11.2236 45.8499 9.82662C44.4767 8.33444 42.5259 7.47852 40.498 7.47852C38.47 7.47852 36.5193 8.33444 35.146 9.82646C33.8602 11.2236 31.8587 11.76 30.0462 11.193C28.1107 10.5874 25.9934 10.8215 24.2372 11.8355C22.481 12.8494 21.2194 14.5661 20.7763 16.545C20.3613 18.3978 18.8958 19.8632 17.043 20.2782C15.0641 20.7214 13.3476 21.9829 12.3336 23.7391C11.3195 25.4954 11.0854 27.6127 11.6911 29.5481C12.2581 31.3603 11.7217 33.362 10.3247 34.6479C8.83249 36.0212 7.97656 37.972 7.97656 39.9999C7.97656 42.0279 8.83249 43.9786 10.3245 45.3519C11.7217 46.6377 12.2581 48.6395 11.6911 50.4517C11.0854 52.3871 11.3197 54.5045 12.3336 56.2607C13.3474 58.0169 15.0641 59.2785 17.043 59.7216C18.8958 60.1366 20.3613 61.6021 20.7763 63.4548C21.2194 65.4337 22.481 67.1503 24.2372 68.1643C25.9936 69.1782 28.1107 69.4126 30.0462 68.8068C31.8588 68.24 33.8602 68.7762 35.146 70.1732C36.5193 71.6654 38.47 72.5213 40.498 72.5213C42.5259 72.5213 44.4767 71.6654 45.8499 70.1734C47.1359 68.7762 49.1377 68.2398 50.9497 68.8068C52.8849 69.4123 55.0025 69.1782 56.7587 68.1643C58.515 67.1504 59.7765 65.4337 60.2196 63.4548C60.6346 61.6021 62.1001 60.1366 63.9529 59.7216C65.9318 59.2785 67.6483 58.0169 68.6624 56.2607C69.6764 54.5045 69.9105 52.3871 69.3049 50.4517ZM67.0682 51.1517C67.4847 52.4828 67.33 53.881 66.6327 55.0888C65.9354 56.2966 64.8018 57.1297 63.4407 57.4346C60.707 58.0469 58.545 60.2089 57.9326 62.9427C57.6278 64.3036 56.7948 65.4372 55.5869 66.1347C54.3789 66.832 52.9807 66.9865 51.6497 66.5701C48.9758 65.7333 46.0226 66.5248 44.1256 68.5862C43.1811 69.6124 41.8928 70.1777 40.4981 70.1777C39.1034 70.1777 37.8152 69.6126 36.8707 68.5862C35.4755 67.0704 33.5093 66.2414 31.5032 66.2414C30.7812 66.2414 30.054 66.3489 29.3465 66.5701C28.0156 66.9864 26.6172 66.8318 25.4094 66.1347C24.2016 65.4373 23.3684 64.3037 23.0636 62.9427C22.4513 60.2089 20.2893 58.0469 17.5555 57.4346C16.1946 57.1297 15.061 56.2968 14.3635 55.0888C13.6662 53.881 13.5115 52.4828 13.9281 51.1517C14.7646 48.4781 13.9734 45.5247 11.912 43.6275C10.8858 42.683 10.3204 41.3947 10.3204 40.0001C10.3204 38.6054 10.8856 37.3171 11.912 36.3726C13.9732 34.4754 14.7646 31.522 13.9281 28.8485C13.5115 27.5174 13.6662 26.1191 14.3635 24.9113C15.0609 23.7035 16.1945 22.8704 17.5555 22.5656C20.2893 21.9532 22.4513 19.7912 23.0636 17.0575C23.3684 15.6966 24.2014 14.563 25.4094 13.8655C26.6173 13.168 28.0157 13.0135 29.3465 13.43C32.0199 14.2666 34.9735 13.4752 36.8707 11.4139C37.8152 10.3877 39.1034 9.8224 40.4981 9.8224C41.8928 9.8224 43.1811 10.3876 44.1256 11.4139C46.0229 13.4752 48.9762 14.2666 51.6497 13.43C52.9805 13.0135 54.3789 13.168 55.5869 13.8655C56.7947 14.5628 57.6278 15.6964 57.9326 17.0575C58.545 19.7912 60.707 21.9532 63.4407 22.5656C64.8016 22.8704 65.9352 23.7034 66.6327 24.9113C67.33 26.1191 67.4847 27.5174 67.0682 28.8485C66.2316 31.522 67.0229 34.4754 69.0842 36.3726C70.1105 37.3171 70.6758 38.6054 70.6758 40.0001C70.6758 41.3947 70.1106 42.683 69.0842 43.6275C67.0229 45.5247 66.2315 48.4781 67.0682 51.1517Z" fill="#151E1B"/>
<path d="M69.1992 12.1456C69.499 12.1456 69.799 12.0312 70.0278 11.8023L79.8296 2.00043C80.2873 1.54277 80.2873 0.800742 79.8296 0.343242C79.372 -0.114414 78.63 -0.114414 78.1725 0.343242L68.3706 10.1451C67.9129 10.6028 67.9129 11.3448 68.3706 11.8023C68.5993 12.0311 68.8992 12.1456 69.1992 12.1456Z" fill="#151E1B"/>
<path d="M80.1313 16.4067C79.9611 15.7823 79.3171 15.4142 78.6924 15.5846L73.7914 16.9217C73.1671 17.092 72.7989 17.7362 72.9694 18.3606C73.1116 18.8817 73.5839 19.2243 74.0992 19.2243C74.2013 19.2243 74.3052 19.2109 74.4085 19.1826L79.3094 17.8456C79.9336 17.6754 80.3017 17.031 80.1313 16.4067Z" fill="#151E1B"/>
<path d="M61.7074 7.20364C61.8106 7.23193 61.9144 7.24536 62.0166 7.24536C62.5319 7.24536 63.0042 6.90271 63.1464 6.38161L64.4835 1.48068C64.6538 0.8563 64.2858 0.211925 63.6614 0.041769C63.037 -0.129012 62.3928 0.239425 62.2225 0.8638L60.8855 5.76474C60.7149 6.38911 61.0828 7.03333 61.7074 7.20364Z" fill="#151E1B"/>
<path d="M10.9693 11.8023C11.1981 12.0311 11.4981 12.1456 11.7979 12.1456C12.0978 12.1456 12.3978 12.0312 12.6265 11.8023C13.0842 11.3446 13.0842 10.6026 12.6265 10.1451L2.82465 0.343242C2.36699 -0.114414 1.62496 -0.114414 1.16746 0.343242C0.709805 0.800898 0.709805 1.54293 1.16746 2.00043L10.9693 11.8023Z" fill="#151E1B"/>
<path d="M7.20567 16.9217L2.30473 15.5847C1.68036 15.4141 1.03598 15.7823 0.865826 16.4067C0.695513 17.0311 1.06348 17.6755 1.68786 17.8456L6.58879 19.1827C6.69208 19.2109 6.79583 19.2244 6.89801 19.2244C7.41332 19.2244 7.88567 18.8817 8.02786 18.3606C8.19801 17.7362 7.83004 17.092 7.20567 16.9217Z" fill="#151E1B"/>
<path d="M17.8512 6.38155C17.9934 6.90264 18.4657 7.2453 18.981 7.2453C19.0831 7.2453 19.187 7.23186 19.2903 7.20358C19.9146 7.03327 20.2828 6.38905 20.1123 5.76467L18.7753 0.863736C18.6049 0.239517 17.9613 -0.128921 17.3363 0.0417043C16.712 0.212017 16.3438 0.856236 16.5143 1.48061L17.8512 6.38155Z" fill="#151E1B"/>
<path d="M70.0278 68.1987C69.5701 67.7411 68.8281 67.7411 68.3706 68.1987C67.9129 68.6564 67.9129 69.3984 68.3706 69.8559L78.1725 79.6578C78.4012 79.8865 78.7012 80.0011 79.0011 80.0011C79.3009 80.0011 79.6009 79.8867 79.8296 79.6578C80.2873 79.2001 80.2873 78.4581 79.8296 78.0006L70.0278 68.1987Z" fill="#151E1B"/>
<path d="M79.3092 62.1541L74.4082 60.8171C73.7836 60.6466 73.1397 61.0147 72.9693 61.6391C72.799 62.2635 73.167 62.9078 73.7914 63.078L78.6923 64.415C78.7956 64.4433 78.8993 64.4567 79.0015 64.4567C79.5168 64.4567 79.9892 64.1141 80.1314 63.593C80.3017 62.9686 79.9336 62.3244 79.3092 62.1541Z" fill="#151E1B"/>
<path d="M63.1463 73.6176C62.976 72.9934 62.3318 72.625 61.7074 72.7956C61.0831 72.9659 60.7149 73.6101 60.8854 74.2345L62.2224 79.1355C62.3646 79.6565 62.837 79.9992 63.3523 79.9992C63.4543 79.9992 63.5581 79.9858 63.6615 79.9575C64.2859 79.7872 64.654 79.143 64.4835 78.5186L63.1463 73.6176Z" fill="#151E1B"/>
<path d="M10.9693 68.1987L1.16746 78.0006C0.709805 78.4582 0.709805 79.2003 1.16746 79.6578C1.39621 79.8865 1.69621 80.0011 1.99605 80.0011C2.2959 80.0011 2.5959 79.8867 2.82465 79.6578L12.6265 69.8559C13.0842 69.3982 13.0842 68.6562 12.6265 68.1987C12.1689 67.7411 11.4268 67.7411 10.9693 68.1987Z" fill="#151E1B"/>
<path d="M6.58885 60.8172L1.68791 62.1542C1.06354 62.3245 0.695411 62.9687 0.86588 63.5931C1.00807 64.1142 1.48041 64.4568 1.99572 64.4568C2.09775 64.4568 2.20166 64.4434 2.30494 64.4151L7.20588 63.0781C7.83025 62.9078 8.19838 62.2636 8.02791 61.6392C7.85775 61.0148 7.21354 60.6464 6.58885 60.8172Z" fill="#151E1B"/>
<path d="M19.2902 72.7956C18.6658 72.6251 18.0216 72.9932 17.8513 73.6176L16.5143 78.5185C16.344 79.1429 16.7119 79.7873 17.3363 79.9574C17.4396 79.9857 17.5433 79.9992 17.6455 79.9992C18.1608 79.9992 18.6332 79.6565 18.7754 79.1354L20.1124 74.2345C20.2827 73.6103 19.9146 72.9659 19.2902 72.7956Z" fill="#151E1B"/>
<path d="M45.5438 43.7915C45.0862 44.2492 45.0862 44.9912 45.5438 45.4487C46.0015 45.9064 46.7435 45.9064 47.201 45.4487L56.8167 35.833C57.5025 35.1473 57.8801 34.2357 57.8801 33.2659C57.8801 32.296 57.5025 31.3845 56.8167 30.6989L53.7947 27.6767C52.3791 26.2614 50.076 26.2614 48.6605 27.6767L36.746 39.5913L32.5776 35.4227C31.8918 34.7369 30.9802 34.3593 30.0104 34.3593C29.0406 34.3593 28.129 34.7369 27.4432 35.4227L24.1806 38.6853C23.4948 39.3711 23.1172 40.2827 23.1172 41.2525C23.1172 42.2223 23.4948 43.1339 24.1806 43.8195L32.5398 52.1788C33.633 53.2721 35.0691 53.8188 36.5052 53.8188C37.9413 53.8188 39.3773 53.2721 40.4706 52.1788L43.3521 49.2973C43.8098 48.8396 43.8098 48.0976 43.3521 47.6401C42.8945 47.1825 42.1525 47.1825 41.695 47.6401L38.8134 50.5216C37.5406 51.7943 35.4696 51.7943 34.1969 50.5216L25.8378 42.1623C25.5947 41.9194 25.4609 41.5963 25.4609 41.2527C25.4609 40.9089 25.5948 40.5858 25.8378 40.3428L29.1004 37.0802C29.3435 36.8372 29.6667 36.7033 30.0102 36.7033C30.3538 36.7033 30.677 36.8371 30.9201 37.0802L35.9172 42.0773C36.3749 42.535 37.1169 42.535 37.5744 42.0773L50.3177 29.3342C50.8193 28.8326 51.6357 28.8325 52.1374 29.3342L55.1594 32.3563C55.4025 32.5993 55.5362 32.9224 55.5362 33.266C55.5362 33.6096 55.4023 33.9329 55.1594 34.1759L45.5438 43.7915Z" fill="#151E1B"/>
</g>
<defs>
<clipPath id="clip0_9496_20326">
<rect width="80" height="80" fill="white" transform="translate(0.5)"/>
</clipPath>
</defs>
</svg>
