<svg width="20" height="20" viewBox="0 0 20 20" fill="none" xmlns="http://www.w3.org/2000/svg">
<path d="M16.25 7.5625V7.5C16.25 5.8424 15.5915 4.25269 14.4194 3.08058C13.2473 1.90848 11.6576 1.25 10 1.25C8.3424 1.25 6.75269 1.90848 5.58058 3.08058C4.40848 4.25269 3.75 5.8424 3.75 7.5V7.5625C3.04463 7.70756 2.41084 8.09136 1.95545 8.64922C1.50006 9.20707 1.25091 9.90487 1.25 10.625V11.25C1.25099 12.0785 1.58055 12.8728 2.16639 13.4586C2.75222 14.0444 3.5465 14.374 4.375 14.375H5.625C5.95652 14.375 6.27446 14.2433 6.50888 14.0089C6.7433 13.7745 6.875 13.4565 6.875 13.125V8.75C6.875 8.41848 6.7433 8.10054 6.50888 7.86612C6.27446 7.6317 5.95652 7.5 5.625 7.5H5C5 6.17392 5.52678 4.90215 6.46447 3.96447C7.40215 3.02678 8.67392 2.5 10 2.5C11.3261 2.5 12.5979 3.02678 13.5355 3.96447C14.4732 4.90215 15 6.17392 15 7.5H14.375C14.0435 7.5 13.7255 7.6317 13.4911 7.86612C13.2567 8.10054 13.125 8.41848 13.125 8.75V13.125C13.125 13.4565 13.2567 13.7745 13.4911 14.0089C13.7255 14.2433 14.0435 14.375 14.375 14.375H15V15.625C15 15.7908 14.9342 15.9497 14.8169 16.0669C14.6997 16.1842 14.5408 16.25 14.375 16.25H12.385C12.2562 15.8857 12.018 15.5701 11.7029 15.3463C11.3879 15.1226 11.0114 15.0016 10.625 15H9.375C8.87772 15 8.40081 15.1975 8.04917 15.5492C7.69754 15.9008 7.5 16.3777 7.5 16.875C7.5 17.3723 7.69754 17.8492 8.04917 18.2008C8.40081 18.5525 8.87772 18.75 9.375 18.75H10.625C11.0114 18.7484 11.3879 18.6274 11.7029 18.4037C12.018 18.1799 12.2562 17.8643 12.385 17.5H14.375C14.8723 17.5 15.3492 17.3025 15.7008 16.9508C16.0525 16.5992 16.25 16.1223 16.25 15.625V14.375C16.2471 14.3539 16.2429 14.3331 16.2375 14.3125C16.9453 14.1702 17.5821 13.7875 18.04 13.2294C18.4979 12.6712 18.7487 11.9719 18.75 11.25V10.625C18.7491 9.90487 18.4999 9.20707 18.0446 8.64922C17.5892 8.09136 16.9554 7.70756 16.25 7.5625ZM5.625 8.75V13.125H4.375C3.87772 13.125 3.40081 12.9275 3.04917 12.5758C2.69754 12.2242 2.5 11.7473 2.5 11.25V10.625C2.5 10.1277 2.69754 9.65081 3.04917 9.29917C3.40081 8.94754 3.87772 8.75 4.375 8.75H5.625ZM10.625 17.5H9.375C9.20924 17.5 9.05027 17.4342 8.93306 17.3169C8.81585 17.1997 8.75 17.0408 8.75 16.875C8.75 16.7092 8.81585 16.5503 8.93306 16.4331C9.05027 16.3158 9.20924 16.25 9.375 16.25H10.625C10.7908 16.25 10.9497 16.3158 11.0669 16.4331C11.1842 16.5503 11.25 16.7092 11.25 16.875C11.25 17.0408 11.1842 17.1997 11.0669 17.3169C10.9497 17.4342 10.7908 17.5 10.625 17.5ZM17.5 11.25C17.5 11.7473 17.3025 12.2242 16.9508 12.5758C16.5992 12.9275 16.1223 13.125 15.625 13.125H14.375V8.75H15.625C16.1223 8.75 16.5992 8.94754 16.9508 9.29917C17.3025 9.65081 17.5 10.1277 17.5 10.625V11.25Z" fill="#1A1A1A"/>
</svg>
