<svg width="32" height="32" viewBox="0 0 32 32" fill="none" xmlns="http://www.w3.org/2000/svg">
<path fill-rule="evenodd" clip-rule="evenodd" d="M15.7466 0C7.07369 0 0 7.07369 0 15.7466C0 24.4196 7.07369 31.4932 15.7466 31.4932C24.4196 31.4932 31.4932 24.4196 31.4932 15.7466C31.4932 7.07369 24.4196 0 15.7466 0ZM23.2303 21.2197C23.2303 21.5279 22.9779 21.7801 22.6699 21.7801H8.8235C8.51531 21.7801 8.26338 21.5279 8.26338 21.2197V20.6426C8.26338 20.3343 8.51531 20.0824 8.8235 20.0824H22.6699C22.978 20.0824 23.2303 20.3344 23.2303 20.6426L23.2303 21.2197ZM24.1339 12.3356C24.0629 12.3356 23.993 12.3284 23.9252 12.3157L22.7108 18.8131C22.6974 18.8127 22.6834 18.8128 22.6699 18.8128H8.8235C8.80987 18.8128 8.79625 18.8127 8.78244 18.8131L7.56819 12.3157C7.50025 12.3284 7.4305 12.3356 7.35937 12.3356C6.73387 12.3356 6.22325 11.8251 6.22325 11.1997C6.22325 10.5742 6.73387 10.0636 7.35937 10.0636C7.98487 10.0636 8.49544 10.5736 8.49544 11.1997C8.49544 11.4558 8.4095 11.6927 8.26556 11.8831L11.6753 14.4565L15.2887 10.6985C14.7943 10.5123 14.4412 10.0344 14.4412 9.476C14.4412 8.75737 15.0274 8.17075 15.7467 8.17075C16.4659 8.17075 17.0523 8.75731 17.0523 9.476C17.0523 10.0343 16.699 10.5123 16.2046 10.6985L19.8179 14.4565L23.2276 11.8831C23.0838 11.6927 22.9977 11.4558 22.9977 11.1997C22.9977 10.5736 23.5084 10.0636 24.1339 10.0636C24.7594 10.0636 25.2699 10.5736 25.2699 11.1997C25.2699 11.8257 24.7595 12.3356 24.1339 12.3356Z" fill="#FB8A00"/>
</svg>
