<svg width="14" height="16" viewBox="0 0 14 16" fill="none" xmlns="http://www.w3.org/2000/svg">
<path fill-rule="evenodd" clip-rule="evenodd" d="M7 4.83301C5.61929 4.83301 4.5 5.9523 4.5 7.33301C4.5 8.15147 4.89351 8.87756 5.5 9.33312V9.99967C5.5 10.644 6.02233 11.1663 6.66667 11.1663H7.33333C7.97767 11.1663 8.5 10.644 8.5 9.99967V9.33312C9.10649 8.87756 9.5 8.15147 9.5 7.33301C9.5 5.9523 8.38071 4.83301 7 4.83301ZM5.5 7.33301C5.5 6.50458 6.17157 5.83301 7 5.83301C7.82843 5.83301 8.5 6.50458 8.5 7.33301C8.5 7.88759 8.19929 8.37253 7.74964 8.63264C7.59514 8.72201 7.5 8.88696 7.5 9.06544V9.99967C7.5 10.0917 7.42538 10.1663 7.33333 10.1663H6.66667C6.57462 10.1663 6.5 10.0917 6.5 9.99967V9.06544C6.5 8.88696 6.40486 8.72201 6.25036 8.63264C5.80071 8.37253 5.5 7.88759 5.5 7.33301Z" fill="#CCCCCC"/>
<path fill-rule="evenodd" clip-rule="evenodd" d="M7 0.833008C6.37498 0.833008 5.77821 1.0374 4.81559 1.36708L4.33063 1.5331C3.34308 1.87114 2.58094 2.13202 2.03535 2.35366C1.76052 2.46531 1.52424 2.57345 1.33399 2.68395C1.1509 2.79028 0.967215 2.9229 0.842421 3.1007C0.71907 3.27645 0.655289 3.4925 0.615209 3.70049C0.573541 3.91671 0.548416 4.1761 0.532199 4.47391C0.5 5.06525 0.5 5.87535 0.5 6.9261V7.99391C0.5 12.0613 3.57202 14.0114 5.39889 14.8094L5.41695 14.8173C5.64348 14.9163 5.85641 15.0093 6.10107 15.0719C6.35938 15.1381 6.63383 15.1663 7 15.1663C7.36617 15.1663 7.64062 15.1381 7.89893 15.0719C8.14358 15.0093 8.3565 14.9163 8.58303 14.8173L8.60111 14.8094C10.428 14.0114 13.5 12.0613 13.5 7.99391V6.92622C13.5 5.87541 13.5 5.06527 13.4678 4.47391C13.4516 4.1761 13.4265 3.91671 13.3848 3.70049C13.3447 3.4925 13.2809 3.27645 13.1576 3.1007C13.0328 2.9229 12.8491 2.79028 12.666 2.68395C12.4758 2.57345 12.2395 2.46531 11.9646 2.35366C11.4191 2.13202 10.6569 1.87114 9.66936 1.5331L9.18441 1.36709C8.22179 1.0374 7.62502 0.833008 7 0.833008ZM5.05374 2.34254C6.1301 1.9741 6.56151 1.83301 7 1.83301C7.43849 1.83301 7.8699 1.9741 8.94626 2.34254L9.32813 2.47326C10.3365 2.81843 11.0719 3.07037 11.5883 3.28013C11.846 3.38483 12.0327 3.47257 12.1638 3.5487C12.2285 3.58628 12.2731 3.61729 12.3029 3.64149C12.3281 3.662 12.3377 3.67362 12.3391 3.67533C12.3404 3.67741 12.3487 3.69125 12.3604 3.72403C12.3737 3.76144 12.3885 3.81507 12.4029 3.88971C12.432 4.0408 12.454 4.24835 12.4693 4.52829C12.4998 5.08908 12.5 5.8719 12.5 6.94411V7.99391C12.5 11.444 9.92007 13.142 8.20081 13.893C7.95316 14.0012 7.81014 14.0624 7.65093 14.1032C7.49888 14.1421 7.31333 14.1663 7 14.1663C6.68667 14.1663 6.50112 14.1421 6.34907 14.1032C6.18986 14.0624 6.04684 14.0012 5.79919 13.893C4.07993 13.142 1.5 11.444 1.5 7.99391V6.94411C1.5 5.8719 1.50018 5.08908 1.53072 4.52829C1.54596 4.24835 1.56803 4.0408 1.59714 3.88971C1.61153 3.81507 1.6263 3.76144 1.63962 3.72403C1.65129 3.69128 1.65957 3.67743 1.66086 3.67533C1.66224 3.67364 1.67186 3.66202 1.69711 3.64149C1.72689 3.61729 1.77148 3.58628 1.83619 3.5487C1.96727 3.47257 2.154 3.38483 2.41173 3.28013C2.92806 3.07037 3.66347 2.81843 4.67187 2.47326L5.05374 2.34254Z" fill="#CCCCCC"/>
</svg>
