<svg width="20" height="20" viewBox="0 0 20 20" fill="none" xmlns="http://www.w3.org/2000/svg">
<path d="M10 18.5418C9.31667 18.5418 8.63333 18.3251 8.06667 17.9001L3.72501 14.6501C2.91667 14.0418 2.43335 13.0751 2.43335 12.0668V1.4668H17.5667V12.0668C17.5667 13.0751 17.0833 14.0418 16.275 14.6501L11.9333 17.9001C11.3667 18.3251 10.6833 18.5418 10 18.5418ZM3.68335 2.70847V12.0585C3.68335 12.6751 3.98333 13.2668 4.475 13.6418L8.81666 16.8918C9.51666 17.4168 10.4917 17.4168 11.1917 16.8918L15.5334 13.6418C16.025 13.2668 16.325 12.6751 16.325 12.0585V2.70847H3.68335Z" fill="#1A1A1A"/>
<path d="M18.3334 2.70801H1.66675C1.32508 2.70801 1.04175 2.42467 1.04175 2.08301C1.04175 1.74134 1.32508 1.45801 1.66675 1.45801H18.3334C18.6751 1.45801 18.9584 1.74134 18.9584 2.08301C18.9584 2.42467 18.6751 2.70801 18.3334 2.70801Z" fill="#1A1A1A"/>
<path d="M13.3334 7.29199H6.66675C6.32508 7.29199 6.04175 7.00866 6.04175 6.66699C6.04175 6.32533 6.32508 6.04199 6.66675 6.04199H13.3334C13.6751 6.04199 13.9584 6.32533 13.9584 6.66699C13.9584 7.00866 13.6751 7.29199 13.3334 7.29199Z" fill="#1A1A1A"/>
<path d="M13.3334 11.458H6.66675C6.32508 11.458 6.04175 11.1747 6.04175 10.833C6.04175 10.4913 6.32508 10.208 6.66675 10.208H13.3334C13.6751 10.208 13.9584 10.4913 13.9584 10.833C13.9584 11.1747 13.6751 11.458 13.3334 11.458Z" fill="#1A1A1A"/>
</svg>
