<svg width="14" height="14" viewBox="0 0 14 14" fill="none" xmlns="http://www.w3.org/2000/svg">
<path d="M13.3333 6.66667C13.3333 10.3486 10.3486 13.3333 6.66667 13.3333C2.98477 13.3333 0 10.3486 0 6.66667C0 2.98477 2.98477 0 6.66667 0C10.3486 0 13.3333 2.98477 13.3333 6.66667Z" fill="#FFD21F"/>
<path fill-rule="evenodd" clip-rule="evenodd" d="M6.66667 3.5C6.94281 3.5 7.16667 3.72386 7.16667 4V6.45956L8.68689 7.97978C8.88215 8.17504 8.88215 8.49162 8.68689 8.68689C8.49162 8.88215 8.17504 8.88215 7.97978 8.68689L6.31311 7.02022C6.21935 6.92645 6.16667 6.79927 6.16667 6.66667V4C6.16667 3.72386 6.39052 3.5 6.66667 3.5Z" fill="white"/>
</svg>
