<svg width="15" height="9" viewBox="0 0 15 9" fill="none" xmlns="http://www.w3.org/2000/svg">
<path fill-rule="evenodd" clip-rule="evenodd" d="M9.6119 0.5C9.6119 0.223858 9.83576 0 10.1119 0H13.8333C14.1095 0 14.3333 0.223858 14.3333 0.5V4.19722C14.3333 4.47336 14.1095 4.69722 13.8333 4.69722C13.5572 4.69722 13.3333 4.47336 13.3333 4.19722V1.70191L9.24277 5.76753C8.93014 6.0783 8.66066 6.34616 8.41594 6.53181C8.15361 6.73082 7.86215 6.88136 7.50334 6.88132C7.14454 6.88128 6.85311 6.73067 6.59083 6.5316C6.34615 6.34589 6.07675 6.07798 5.76419 5.76715L5.58135 5.58534C5.23858 5.2445 5.01635 5.02501 4.8313 4.88458C4.65781 4.75291 4.57671 4.73823 4.52299 4.73825C4.46928 4.73827 4.38819 4.75301 4.2148 4.8848C4.02985 5.02537 3.80778 5.24502 3.46526 5.58611L0.852811 8.18763C0.65714 8.38248 0.340559 8.38181 0.145706 8.18614C-0.0491461 7.99047 -0.0484825 7.67389 0.147188 7.47904L2.78289 4.85436C3.09551 4.54302 3.36495 4.27468 3.60968 4.08866C3.87201 3.88927 4.16357 3.73838 4.52263 3.73825C4.88169 3.73811 5.17336 3.8888 5.43583 4.088C5.6807 4.27383 5.95034 4.54197 6.26318 4.85308L6.44602 5.0349C6.78849 5.37544 7.01052 5.59473 7.1954 5.73505C7.36872 5.8666 7.44977 5.88131 7.50346 5.88132C7.55715 5.88132 7.6382 5.86663 7.81155 5.73512C7.99646 5.59484 8.21854 5.37561 8.56109 5.03514L12.621 1H10.1119C9.83576 1 9.6119 0.776142 9.6119 0.5Z" fill="#666666"/>
</svg>
