<svg width="14" height="14" viewBox="0 0 14 14" fill="none" xmlns="http://www.w3.org/2000/svg">
<path d="M13.3332 7.1319C13.3322 8.11162 13.3247 8.94433 13.269 9.62762C13.2044 10.4205 13.0721 11.0831 12.7757 11.6333C12.645 11.876 12.4844 12.0934 12.2889 12.2889C11.734 12.8438 11.027 13.0952 10.131 13.2157C9.2557 13.3334 8.13381 13.3333 6.70225 13.3333H6.63109C5.19952 13.3333 4.07764 13.3334 3.2023 13.2157C2.30634 13.0952 1.59935 12.8438 1.04443 12.2889C0.55247 11.797 0.298418 11.1846 0.163319 10.4251C0.0306044 9.67892 0.00632696 8.75058 0.00128328 7.59782C1.27979e-07 7.3046 1.27957e-07 6.99447 1.27957e-07 6.66729V6.63108C-7.72512e-06 5.19952 -1.38779e-05 4.07764 0.117672 3.2023C0.238131 2.30634 0.489505 1.59935 1.04443 1.04443C1.59935 0.489505 2.30634 0.238131 3.2023 0.117672C3.98074 0.0130133 4.98231 0.00143301 6.20135 0.000157298C6.45823 -0.00011152 6.66667 0.208239 6.66667 0.465115C6.66667 0.721993 6.45814 0.930132 6.20126 0.930404C4.96499 0.931711 4.045 0.942976 3.32625 1.03961C2.53344 1.1462 2.05547 1.34892 1.7022 1.7022C1.34892 2.05547 1.1462 2.53344 1.03961 3.32625C0.931221 4.13244 0.930233 5.1918 0.930233 6.66667C0.930233 6.84678 0.930233 7.02096 0.930445 7.18962L1.5513 6.64637C2.11643 6.15189 2.96817 6.18025 3.49915 6.71123L6.15944 9.37152C6.58563 9.79771 7.25652 9.85582 7.74964 9.50926L7.93457 9.3793C8.64418 8.8806 9.60423 8.93838 10.2489 9.51858L12.0043 11.0984C12.1809 10.7273 12.2859 10.2398 12.3419 9.55208C12.3947 8.90406 12.4019 8.11699 12.4029 7.13192C12.4032 6.87505 12.6113 6.66667 12.8682 6.66667C13.1251 6.66667 13.3334 6.87502 13.3332 7.1319Z" fill="#B3B3B3"/>
<path fill-rule="evenodd" clip-rule="evenodd" d="M10.3333 6C8.91912 6 8.21201 6 7.77267 5.56066C7.33333 5.12132 7.33333 4.41421 7.33333 3C7.33333 1.58579 7.33333 0.87868 7.77267 0.43934C8.21201 0 8.91912 0 10.3333 0C11.7475 0 12.4547 0 12.894 0.43934C13.3333 0.87868 13.3333 1.58579 13.3333 3C13.3333 4.41421 13.3333 5.12132 12.894 5.56066C12.4547 6 11.7475 6 10.3333 6ZM11.6869 2.31311L10.6869 1.31311C10.4916 1.11785 10.175 1.11785 9.97978 1.31311L8.97978 2.31311C8.78452 2.50838 8.78452 2.82496 8.97978 3.02022C9.17504 3.21548 9.49162 3.21548 9.68689 3.02022L9.83333 2.87377V4.33333C9.83333 4.60948 10.0572 4.83333 10.3333 4.83333C10.6095 4.83333 10.8333 4.60948 10.8333 4.33333V2.87377L10.9798 3.02022C11.175 3.21548 11.4916 3.21548 11.6869 3.02022C11.8821 2.82496 11.8821 2.50838 11.6869 2.31311Z" fill="#B3B3B3"/>
</svg>
