<svg width="20" height="20" viewBox="0 0 20 20" fill="none" xmlns="http://www.w3.org/2000/svg">
<path fill-rule="evenodd" clip-rule="evenodd" d="M10 1.0415C7.81389 1.0415 6.04169 2.81371 6.04169 4.99984C6.04169 7.18596 7.81389 8.95817 10 8.95817C12.1861 8.95817 13.9584 7.18596 13.9584 4.99984C13.9584 2.81371 12.1861 1.0415 10 1.0415ZM7.29169 4.99984C7.29169 3.50407 8.50425 2.2915 10 2.2915C11.4958 2.2915 12.7084 3.50407 12.7084 4.99984C12.7084 6.49561 11.4958 7.70817 10 7.70817C8.50425 7.70817 7.29169 6.49561 7.29169 4.99984Z" fill="#7A4900"/>
<path fill-rule="evenodd" clip-rule="evenodd" d="M10 10.2082C8.30057 10.2082 6.73128 10.6005 5.56514 11.2668C4.41668 11.9231 3.54169 12.925 3.54169 14.1665C3.54169 15.4081 4.41668 16.4099 5.56514 17.0662C6.73128 17.7325 8.30057 18.1248 10 18.1248C11.6995 18.1248 13.2688 17.7325 14.4349 17.0662C15.5834 16.4099 16.4584 15.4081 16.4584 14.1665C16.4584 12.925 15.5834 11.9231 14.4349 11.2668C13.2688 10.6005 11.6995 10.2082 10 10.2082ZM4.79169 14.1665C4.79169 13.5671 5.22253 12.9023 6.18532 12.3521C7.13043 11.8121 8.4778 11.4582 10 11.4582C11.5222 11.4582 12.8696 11.8121 13.8147 12.3521C14.7775 12.9023 15.2084 13.5671 15.2084 14.1665C15.2084 14.7659 14.7775 15.4307 13.8147 15.9809C12.8696 16.5209 11.5222 16.8748 10 16.8748C8.4778 16.8748 7.13043 16.5209 6.18532 15.9809C5.22253 15.4307 4.79169 14.7659 4.79169 14.1665Z" fill="#7A4900"/>
</svg>
