<svg width="20" height="20" viewBox="0 0 20 20" fill="none" xmlns="http://www.w3.org/2000/svg">
<path d="M10.6251 5.00033C10.6251 4.65515 10.3452 4.37533 10.0001 4.37533C9.65488 4.37533 9.37506 4.65515 9.37506 5.00033V8.33366C9.37506 8.67884 9.65488 8.95866 10.0001 8.95866C10.3452 8.95866 10.6251 8.67884 10.6251 8.33366V5.00033Z" fill="#1A1A1A"/>
<path fill-rule="evenodd" clip-rule="evenodd" d="M3.54178 7.50033C3.54178 3.93349 6.43328 1.04199 10.0001 1.04199C13.567 1.04199 16.4584 3.93349 16.4584 7.50033V8.08708C16.4584 8.66785 16.6304 9.23562 16.9525 9.71885L17.9097 11.1546C19.0206 12.821 18.1725 15.086 16.2403 15.6129C15.6106 15.7847 14.9756 15.9299 14.3369 16.0487L14.3353 16.053C13.6945 17.7629 11.9817 18.9587 10.0001 18.9587C8.0184 18.9587 6.30564 17.7629 5.66481 16.053L5.66323 16.0487C5.02456 15.9299 4.38956 15.7847 3.75989 15.6129C1.82773 15.086 0.979638 12.821 2.09055 11.1546L3.04772 9.71885C3.36987 9.23562 3.54178 8.66785 3.54178 8.08708V7.50033ZM7.18632 16.2811C9.05545 16.5044 10.9447 16.5045 12.8138 16.2811C12.2213 17.1324 11.1909 17.7087 10.0001 17.7087C8.80926 17.7087 7.77878 17.1324 7.18632 16.2811ZM10.0001 2.29199C7.12363 2.29199 4.79178 4.62384 4.79178 7.50033V8.08708C4.79178 8.91463 4.54683 9.72366 4.08778 10.4122L3.13061 11.848C2.49297 12.8044 2.97976 14.1045 4.08878 14.407C7.959 15.4625 12.0412 15.4625 15.9114 14.407C17.0205 14.1045 17.5073 12.8044 16.8696 11.848L15.9124 10.4122C15.4534 9.72366 15.2084 8.91463 15.2084 8.08708V7.50033C15.2084 4.62384 12.8766 2.29199 10.0001 2.29199Z" fill="#1A1A1A"/>
</svg>
